<svg xmlns="http://www.w3.org/2000/svg" xmlns:xlink="http://www.w3.org/1999/xlink" viewBox="0 0 277.1 50.35"><defs><style>.cls-1{fill:none;}.cls-2{fill:#93939e;}.cls-3{fill:#878793;}.cls-4{fill:#797984;}.cls-5{fill:#6e6e7a;}.cls-6{fill:#aba8b2;}.cls-7{fill:#9c99a2;}.cls-8{clip-path:url(#clip-path);}.cls-10,.cls-9{isolation:isolate;}.cls-10{font-size:27.5px;fill:#fff;font-family:ArialMT, Arial;}</style><clipPath id="clip-path"><rect class="cls-1" x="106.68" y="6.72" width="63.16" height="36.67"/></clipPath></defs><title>but_back</title><g id="Layer_2" data-name="Layer 2"><g id="Layer_1-2" data-name="Layer 1"><g id="backbuttt_0_Layer0_0_FILL" data-name="backbuttt 0 Layer0 0 FILL"><path class="cls-2" d="M9.95,39.2a.87.87,0,0,0-.75-.55,1,1,0,0,0-.8.55L0,25,10.9,50.35H62.8L61.9,48q-22.85-.2-45.65-.6a5.73,5.73,0,0,1-2.1-.45,1.64,1.64,0,0,0,.25-.2,1.37,1.37,0,0,0,.55-1.1,1.47,1.47,0,0,0-.55-1.1,2.07,2.07,0,0,0-1.25-.4,1.94,1.94,0,0,0-1.25.4l-.2.2-.05,0-.6-1.05a1.08,1.08,0,0,0,0-1.1.42.42,0,0,0-.35-.25.32.32,0,0,0-.3.2l-.45-.65a2.47,2.47,0,0,0,.35-1.35,2.28,2.28,0,0,0-.35-1.25M266.3,42a9.1,9.1,0,0,0,.05,1l-.45.85a10.5,10.5,0,0,1-.75,1.2.54.54,0,0,0-.4-.15.72.72,0,0,0-.55.3.92.92,0,0,0-.15,1,4.29,4.29,0,0,1-2.9,1Q162.7,49,64,48l.3.9.5,1.45H266.2L277.1,25l-9.8,16.5a8.09,8.09,0,0,0-.15-1q-.15-.65-.35-.65t-.35.65a6.71,6.71,0,0,0-.15,1.5M3.4,27.15a.62.62,0,0,0,.2-.45.48.48,0,0,0-.2-.4A.43.43,0,0,0,3,26.1a.48.48,0,0,0-.4.2.54.54,0,0,0-.15.4.73.73,0,0,0,.15.45.54.54,0,0,0,.4.15.48.48,0,0,0,.35-.15M267.85,38a.18.18,0,0,0-.2-.2.44.44,0,0,0-.2,0,.2.2,0,0,0-.05.15.29.29,0,0,0,.05.2.44.44,0,0,0,.2,0,.2.2,0,0,0,.15,0,.29.29,0,0,0,.05-.2m2.6-5.15a.81.81,0,0,0-.15-.5.48.48,0,0,0-.4-.2.43.43,0,0,0-.35.2.81.81,0,0,0-.15.5.9.9,0,0,0,.15.55.43.43,0,0,0,.35.2.48.48,0,0,0,.4-.2.9.9,0,0,0,.15-.55m-2.2,2.35a.93.93,0,0,0,0,.6.16.16,0,0,0,.15.1.29.29,0,0,0,.2-.1.5.5,0,0,0,0-.6.29.29,0,0,0-.2-.1.16.16,0,0,0-.15.1M15.05,20.75a1.46,1.46,0,0,0-.3.9,1.26,1.26,0,0,0,.3.85,1,1,0,0,0,.75.35.9.9,0,0,0,.7-.35,1.26,1.26,0,0,0,.3-.85,1.46,1.46,0,0,0-.3-.9,1,1,0,0,0-.7-.3,1,1,0,0,0-.75.3m7.7-5.95v-.1a1.15,1.15,0,0,0-.15-.6.53.53,0,0,0-.45-.2.48.48,0,0,0-.4.2.14.14,0,0,0,0,.1,2.32,2.32,0,0,0-.45-.05,2,2,0,0,0-1.15.3.84.84,0,0,0-.5.7q0,.35.5.65a2,2,0,0,0,1.15.3,2.19,2.19,0,0,0,1.15-.3q.5-.3.5-.65a.48.48,0,0,0-.15-.35m233.5.05a.68.68,0,0,0-.5-.2.62.62,0,0,0-.45.2.45.45,0,0,0-.25.4.42.42,0,0,0,.25.35.62.62,0,0,0,.45.2.68.68,0,0,0,.5-.2.42.42,0,0,0,.25-.35.45.45,0,0,0-.25-.4m4.1-5.1.25-.55-122.05.55L25,9.3l-8.6-.1.25.55-.25-.5L10.05,25l3.3,8.3q-.1-10,2.15-14.85a2.44,2.44,0,0,0,1,.2,2.27,2.27,0,0,0,1.6-.6,1.53,1.53,0,0,0,.7-1.3,1.66,1.66,0,0,0-.7-1.35.89.89,0,0,0-.25-.25,5.3,5.3,0,0,1,3.5-1.25q1.85-.1,3.7-.1h.1q110.45-3.05,221.45,0a1.11,1.11,0,0,0-.1.5,1.5,1.5,0,0,0,.45,1.1,1.58,1.58,0,0,0,1.15.5,1.42,1.42,0,0,0,1.1-.5,1.5,1.5,0,0,0,.45-1.1,1.86,1.86,0,0,0,0-.45q1.15.05,2.35,0a.56.56,0,0,0,.25.05.44.44,0,0,0,.2-.05h.2l-.2.05h.25a3.11,3.11,0,0,0,.6.05h.5q1.1,0,2.2.05a8.87,8.87,0,0,1,1.35.1.41.41,0,0,0,.25.15.82.82,0,0,0,.25-.05l.3.1-.05,0q-.25.1-.25.25t.25.25a2.22,2.22,0,0,0,.7.1,2.4,2.4,0,0,0,.75-.1,8.3,8.3,0,0,1,1.35.85h-.05a.73.73,0,0,0-.15.45.54.54,0,0,0,.15.4.48.48,0,0,0,.4.2.4.4,0,0,0,.4-.2h0q3.65,4.45,2.1,16.7L267,25,260.6,9.25Z"/><path class="cls-3" d="M10.05,25H7.45L15.3,44.1l1.4-2.45L13.35,33.3,10.05,25M26.8,2.55,22.25,6.7,25,9.3l.05-.05,1.7-6.7m213.9,40.3.7-6.3-1.65,5.1.95,1.2m19.65-1.2,1.45,2.45L269.65,25H267l-3.3,8.3Z"/><path class="cls-4" d="M16.45,9.25,15.3,6.7,7.45,25h2.6l6.4-15.75M27.55,6.7,26.8,2.55l-1.7,6.7L27.55,6.7m32.8,37.4L61.9,48l.9,2.4,1.5-1.45L64,48l-1.35-3.9.5-2.45-2.8,2.45m181-2.45v-5.1l-.7,6.3.9,1.25-.55,2.45,2.1-2.45-1.75-2.45m20.4-35-1.2,2.55L267,25h2.6Z"/><path class="cls-5" d="M25,9.3l-2.8-2.6H15.3l1.15,2.55V9.2l8.6.1M260.6,9.25l1.2-2.55H27.55L25.1,9.25,25,9.3l113.5.45L260.6,9.2Z"/><path class="cls-6" d="M60.35,44.1l2.8-2.45H16.7L15.3,44.1h45m181.25,0-.9-1.25-.95-1.2H63.15l-.5,2.45h179m20.2,0-1.45-2.45h-19l1.75,2.45Z"/><path class="cls-7" d="M261.8,44.1H243.15l-2.1,2.45.55-2.45h-179L64,48q98.7,1,197.15-.75a4.29,4.29,0,0,0,2.9-1,.92.92,0,0,1,.15-1,.72.72,0,0,1,.55-.3.54.54,0,0,1,.4.15,10.5,10.5,0,0,0,.75-1.2l.45-.85a9.1,9.1,0,0,1-.05-1,6.71,6.71,0,0,1,.15-1.5q.15-.65.35-.65t.35.65a8.09,8.09,0,0,1,.15,1L277.1,25v0L266.3,0H10.8L0,25v0L8.4,39.2a1,1,0,0,1,.8-.55.87.87,0,0,1,.75.55,2.28,2.28,0,0,1,.35,1.25,2.47,2.47,0,0,1-.35,1.35l.45.65a.32.32,0,0,1,.3-.2.42.42,0,0,1,.35.25,1.08,1.08,0,0,1,0,1.1l.6,1.05.05,0,.2-.2a1.94,1.94,0,0,1,1.25-.4,2.07,2.07,0,0,1,1.25.4,1.47,1.47,0,0,1,.55,1.1,1.37,1.37,0,0,1-.55,1.1,1.64,1.64,0,0,1-.25.2,5.73,5.73,0,0,0,2.1.45q22.8.4,45.65.6L60.35,44.1h-45L7.45,25,15.3,6.7h6.95L26.8,2.55l.75,4.15H261.8L269.65,25,261.8,44.1m6.4-8.65a.7.7,0,0,1,0-.3.16.16,0,0,1,.15-.1.29.29,0,0,1,.2.1.5.5,0,0,1,0,.6.29.29,0,0,1-.2.1.16.16,0,0,1-.15-.1.7.7,0,0,1,0-.3m2.1-3.15a.81.81,0,0,1,.15.5.9.9,0,0,1-.15.55.48.48,0,0,1-.4.2.43.43,0,0,1-.35-.2.9.9,0,0,1-.15-.55.81.81,0,0,1,.15-.5.43.43,0,0,1,.35-.2.48.48,0,0,1,.4.2m-2.5,5.5a.2.2,0,0,1,.05.15.29.29,0,0,1-.05.2.2.2,0,0,1-.15,0,.44.44,0,0,1-.2,0,.29.29,0,0,1-.05-.2.2.2,0,0,1,.05-.15.44.44,0,0,1,.2,0,.2.2,0,0,1,.15,0M3.6,26.7a.62.62,0,0,1-.2.45A.48.48,0,0,1,3,27.3a.54.54,0,0,1-.4-.15.73.73,0,0,1-.15-.45.54.54,0,0,1,.15-.4.48.48,0,0,1,.4-.2.43.43,0,0,1,.35.2.48.48,0,0,1,.2.4M252.4,13.9a.44.44,0,0,1-.2.05.56.56,0,0,1-.25-.05q-1.2,0-2.35,0a1.86,1.86,0,0,1,0,.45,1.5,1.5,0,0,1-.45,1.1,1.42,1.42,0,0,1-1.1.5,1.58,1.58,0,0,1-1.15-.5,1.5,1.5,0,0,1-.45-1.1,1.11,1.11,0,0,1,.1-.5q-111-3.05-221.45,0H25q-1.85,0-3.7.1a5.3,5.3,0,0,0-3.5,1.25.89.89,0,0,1,.25.25,1.66,1.66,0,0,1,.7,1.35,1.53,1.53,0,0,1-.7,1.3,2.27,2.27,0,0,1-1.6.6,2.44,2.44,0,0,1-1-.2q-2.25,4.8-2.15,14.85l3.35,8.35h223l1.65-5.1v5.1h19l3.4-8.35q1.55-12.25-2.1-16.7h0a.4.4,0,0,1-.4.2.48.48,0,0,1-.4-.2.54.54,0,0,1-.15-.4.73.73,0,0,1,.15-.45h.05a8.3,8.3,0,0,0-1.35-.85,2.4,2.4,0,0,1-.75.1,2.22,2.22,0,0,1-.7-.1q-.25-.1-.25-.25t.25-.25l.05,0-.3-.1a.82.82,0,0,1-.25.05.41.41,0,0,1-.25-.15,8.87,8.87,0,0,0-1.35-.1q-1.1-.05-2.2-.05h-.5a3.11,3.11,0,0,1-.6-.05h-.25l.2-.05h-.2m3.35.75a.68.68,0,0,1,.5.2.45.45,0,0,1,.25.4.42.42,0,0,1-.25.35.68.68,0,0,1-.5.2.62.62,0,0,1-.45-.2.42.42,0,0,1-.25-.35.45.45,0,0,1,.25-.4.62.62,0,0,1,.45-.2m-233,.05v.1a.48.48,0,0,1,.15.35q0,.35-.5.65a2.19,2.19,0,0,1-1.15.3,2,2,0,0,1-1.15-.3q-.5-.3-.5-.65a.84.84,0,0,1,.5-.7,2,2,0,0,1,1.15-.3,2.32,2.32,0,0,1,.45.05.14.14,0,0,1,0-.1.48.48,0,0,1,.4-.2.53.53,0,0,1,.45.2,1.15,1.15,0,0,1,.15.6m-8,6.95a1.46,1.46,0,0,1,.3-.9,1,1,0,0,1,.75-.3,1,1,0,0,1,.7.3,1.46,1.46,0,0,1,.3.9,1.26,1.26,0,0,1-.3.85.9.9,0,0,1-.7.35,1,1,0,0,1-.75-.35A1.26,1.26,0,0,1,14.75,21.65Z"/></g><g class="cls-8"><g class="cls-9"><text class="cls-10" transform="translate(108.45 34.68) scale(0.96 1)">Back</text></g></g></g></g></svg>