<svg xmlns="http://www.w3.org/2000/svg" xmlns:xlink="http://www.w3.org/1999/xlink" viewBox="0 0 972 233.2"><defs><style>.cls-1{fill:none;}.cls-2{fill:#797984;}.cls-3{fill:#aba8b2;}.cls-4{fill:#93939e;}.cls-5{fill:#878793;}.cls-6{fill:#6e6e7a;}.cls-7{fill:#777279;}.cls-8{fill:#9c99a2;}.cls-9{clip-path:url(#clip-path);}.cls-10,.cls-11{isolation:isolate;}.cls-11{font-size:68.92px;fill:#fff;font-family:ArialMT, Arial;}.cls-12{letter-spacing:-0.02em;}.cls-13{letter-spacing:-0.09em;}.cls-14{letter-spacing:-0.11em;}</style><clipPath id="clip-path"><rect class="cls-1" x="211.36" y="117.46" width="555.92" height="91.89"/></clipPath></defs><title>char_title</title><g id="Layer_2" data-name="Layer 2"><g id="Layer_1-2" data-name="Layer 1"><g id="title2_0_Layer0_0_FILL" data-name="title2 0 Layer0 0 FILL"><path class="cls-2" d="M219.75,215.36l1.85-7.09-9.76,7.09,5.27,11.12,3.16,6.72,5.27-4.1-1.05-2.54-4.75-11.19M96.69,107.83,94.05,96,91,107.83l-2.9,7.39,8.61-7.39m-38.85,7.39-4.22-7.39L26.11,160.44h9.14l22.59-45.22M384.21,81.64l-1.32,6.94h6.33l-5-6.94m-38.76-5.3,1.49,2.39L357,82l.26,1.34,1.76-3.06-10.28-5.52-2.29-6-1.05,7.61m-12-1-2.29,6.87,4.57,6.34h6.86l-9.14-13.21m68-34.63-2.29,6.87,14,19.18,1.32-7.31-13-18.73M541.2,88.58l-.35-1.34L540,88.58h1.23M431.15,87.24l-.35,1.34H432l-.88-1.34m20-39.77-1.67,7.16,12,17.16,1.49-7.46-2-2.91-9.76-14M463.41,34.7l2.46-10-3.43-3.21-1.93-4.4,1.14,6.27,1.76,1.72V34.7m59.16,19.92-1.67-7.16-5.8,8.36-6,8.51,1.49,7.46,12-17.16m6.15-29.4L531,29l-1.05,9.85.26,1.19L530,45.6l.79.37,2-2,2.55-2.69L533,32.54,535.66,29,530,20.07l-1.32,5.15M846.83,208.28V193.65l-2.55,18.13,3.16,3.58-1.85,7,7.21-7-6-7.09M589.1,88.58l-1.32-6.94-5.1,6.94h6.42m49.4-13.21-9.23,13.21h6.86l4.66-6.34-2.29-6.87M572.75,47.61l-2.29-6.87-13,18.73L530.83,46l.09,6.64H531l27.78,14.18,14-19.18m345.62,60.22-4.22,7.39,22.59,45.22h9.14Z"/><path class="cls-3" d="M58.63,208.28l-5,7.09H211.84l9.76-7.09h-163m788.81,7.09-3.16-3.58-3.16-3.51H221.6l-1.85,7.09H847.44m70.94,0-5-7.09H846.83l6,7.09Z"/><path class="cls-4" d="M35,201.19a3.15,3.15,0,0,0-5.45,0L.09,160.44,38.24,233.2h182l-3.16-6.72Q137,225.74,57,224.62a22.26,22.26,0,0,1-7.3-1.27l.88-.6a3.67,3.67,0,0,0,1.85-3.06,3.85,3.85,0,0,0-1.85-3.13,8.25,8.25,0,0,0-8.79,0,6,6,0,0,0-.62.6.88.88,0,0,0-.18-.22l-2.2-3.06a2.59,2.59,0,0,0,0-3.13,1.32,1.32,0,0,0-1.14-.67,1.36,1.36,0,0,0-1.14.6l-1.49-2a6.66,6.66,0,0,0,0-7.46M375.77,88.58l-1.32-2-4,2h5.27m-46.59,0-5.63-8.13-16,8.13h21.62m33.14-26.12A14.57,14.57,0,0,0,364,59.85L346.5,68.73l2.29,6,10.28,5.52-1.76,3.06L357,82l-10.11-3.28-1.49-2.39L342.19,71l-8.7,4.4,9.14,13.21h14.68l47.29-24L403.46,63a56.61,56.61,0,0,1-7.3,3.58q-11,4.63-11.69,5-6.24,3.28-9.49,4.78a39.49,39.49,0,0,1-5.8,2.31v-.22a4,4,0,0,0,.09-.9,5,5,0,0,0-.09-1q-.09-.37-.18-.37t-.18.37a5,5,0,0,0-.09,1,4,4,0,0,0,.09.9.39.39,0,0,0,.09.3q-1.49.45-2.9.75a.4.4,0,0,0-.26-.07.66.66,0,0,0-.44.15,1.68,1.68,0,0,1-.44.07q-2.64,0-3.52-.75a.92.92,0,0,1-.26-.37.82.82,0,0,0,.35-.6.47.47,0,0,0-.18-.37v-.3a4.7,4.7,0,0,0-.35-1.87q-.26-.75-.7-.75t-.62.52a3.14,3.14,0,0,1-.44-.45,13.88,13.88,0,0,1-1.32-1.64,3,3,0,0,1-.35-.82,1.19,1.19,0,0,0,.79.3,1.25,1.25,0,0,0,1.05-.75,3.3,3.3,0,0,0,0-3.58q-.44-.75-1-.75a9.89,9.89,0,0,1,1.23-1.87q2.64-3.06,2.72-3.13m8.35,13.21a.67.67,0,0,0-.26-.52,1,1,0,0,0-1.23,0,.65.65,0,0,0,0,1,1,1,0,0,0,1.23,0,.67.67,0,0,0,.26-.52m-3-1.87a.2.2,0,0,0-.09-.15v-.07l-.09.07V74l.09.07V74a.2.2,0,0,0,.09-.15m-4.22-1a1.7,1.7,0,0,0-1.14-.37,2.08,2.08,0,0,0-1.23.37,1.44,1.44,0,0,0-.44,1,1.21,1.21,0,0,0,.44,1,1.84,1.84,0,0,0,1.23.45,1.53,1.53,0,0,0,1.14-.45,1.14,1.14,0,0,0,.53-1,1.34,1.34,0,0,0-.53-1m-3.08-2.54q-.26,0-.53.37a2.37,2.37,0,0,0,0,1.79q.26.37.53.37t.44-.37a1.65,1.65,0,0,0,0-1.79q-.18-.37-.44-.37m133.08,7.16q-1.85-1.87-2.64-2.54-1.67-1.12-2.55-1.79v9.18l12.39,6.27H540l.88-1.34-15.12-7.76a5.45,5.45,0,0,1-.7,1,6.38,6.38,0,0,1-2.37,1.72,18.59,18.59,0,0,1-6.15,1.27,40.25,40.25,0,0,1-5.36-.07v-.22a2.8,2.8,0,0,0-1.76-2.39,9.66,9.66,0,0,0-8.44,0,5.7,5.7,0,0,0-.88.6,14.15,14.15,0,0,1-4-1.64,12.23,12.23,0,0,1-2.64-2.31m-9.93,4.85V79a73.17,73.17,0,0,1-9.67,3.73,37.3,37.3,0,0,1-7.21,1.34,18.71,18.71,0,0,1-4.48-.37,2.77,2.77,0,0,0-1-2.09,3.1,3.1,0,0,0-2.2-.82,3.5,3.5,0,0,0-2.2.75,14.2,14.2,0,0,1-2-1.57,5.46,5.46,0,0,1-2.2-3.21.59.59,0,0,1,0-.45l-21.45,10.9.88,1.34h39l9.49-4.85h.09l2.9-1.42M513.16,81a.41.41,0,0,0-.18-.3.72.72,0,0,0-.88,0,.34.34,0,0,0,0,.6.72.72,0,0,0,.88,0,.41.41,0,0,0,.18-.3m-3.43-1.79a.47.47,0,0,0,.18.37.49.49,0,0,0,.7,0,.48.48,0,0,0,0-.75.49.49,0,0,0-.7,0,.47.47,0,0,0-.18.37M461.3,77.68a1.47,1.47,0,0,0-2.11,0,1.65,1.65,0,0,0,0,2.24,1.47,1.47,0,0,0,2.11,0,1.65,1.65,0,0,0,0-2.24m5.63,1.72a.72.72,0,0,0-.18.45.47.47,0,0,0,.18.37.54.54,0,0,0,.88,0,.47.47,0,0,0,.18-.37.72.72,0,0,0-.18-.45.72.72,0,0,0-.88,0m-1.23-1.12a.74.74,0,0,0,.26-.6,1,1,0,0,0-.26-.67.54.54,0,0,0-.44-.22.82.82,0,0,0-.53.22,1.3,1.3,0,0,0-.18.67.94.94,0,0,0,.18.6.73.73,0,0,0,.53.3.51.51,0,0,0,.44-.3M478.26,77a.48.48,0,0,0,0,.75,1.06,1.06,0,0,0,.53.15.66.66,0,0,0,.44-.15.4.4,0,0,0,0-.75.66.66,0,0,0-.44-.15,1.06,1.06,0,0,0-.53.15m-1.41-.9a.24.24,0,0,0,.18-.22.41.41,0,0,0-.18-.3.87.87,0,0,0-.7,0,.41.41,0,0,0-.18.3.24.24,0,0,0,.18.22.49.49,0,0,0,.7,0m-1.58-2.46a1.22,1.22,0,0,0-1.41,0,1,1,0,0,0-.26.67.74.74,0,0,0,.26.6,1,1,0,0,0,1.41,0,.74.74,0,0,0,.26-.6,1,1,0,0,0-.26-.67m8.26-19.92V50.37a7.55,7.55,0,0,1-1.32,1.27,14.88,14.88,0,0,1-2.81,1.64,2.26,2.26,0,0,0-.88-.15,3.4,3.4,0,0,0-1.49.3,1,1,0,0,0-.53.82.28.28,0,0,0,.09.22l-.7.3-6.42,4.33q-3.34,2.84-6.59,2.61a6.81,6.81,0,0,1-2-.3l2,2.91,17.67-9,.09-.07,2.9-1.57m-66.8,25.75a1.17,1.17,0,0,0-.35-.82,1.2,1.2,0,0,0-1.58,0,1.17,1.17,0,0,0-.35.82.94.94,0,0,0,.35.75,1,1,0,0,0,1.58,0,.94.94,0,0,0,.35-.75m8.17-2a2.79,2.79,0,0,0-.26-1.27q-.26-.52-.62-.52t-.62.52a3.18,3.18,0,0,0,0,2.54q.26.52.62.52t.62-.52a2.79,2.79,0,0,0,.26-1.27m1.41-1.87a.75.75,0,0,0-.62.37,2.63,2.63,0,0,0-.18,1,2.09,2.09,0,0,0,.18.9.74.74,0,0,0,.62.45q.35,0,.53-.45a1.51,1.51,0,0,0,.26-.9,1.88,1.88,0,0,0-.26-1,.56.56,0,0,0-.53-.37m1.41-3.28a.82.82,0,0,0-.18-.52.39.39,0,0,0-.7,0,.86.86,0,0,0,0,1,.39.39,0,0,0,.7,0,.82.82,0,0,0,.18-.52m2,1a.54.54,0,0,0-.44-.22.82.82,0,0,0-.53.22,1.1,1.1,0,0,0,0,1.19.82.82,0,0,0,.53.22.54.54,0,0,0,.44-.22.81.81,0,0,0,0-1.19m22.77-3.73-3.25-4.78A108.15,108.15,0,0,0,431.68,75.3q-3,2-3.25,2.16a17.22,17.22,0,0,1-3.52,1.79,17.76,17.76,0,0,1-2.2.67V79.4a1.76,1.76,0,0,0-.35-1.12,1.09,1.09,0,0,0-1.76,0,1.76,1.76,0,0,0-.35,1.12,2.72,2.72,0,0,0-3,0,1.54,1.54,0,0,0-.62,1.19q-1.67.07-3.25.07a1.46,1.46,0,0,0,.62-.52,2.38,2.38,0,0,0,0-3,1.28,1.28,0,0,0-1.05-.6,1.52,1.52,0,0,0-1.14.6,2.75,2.75,0,0,0,0,3,1.94,1.94,0,0,0,.79.52h-1.49a1.26,1.26,0,0,0-.35-.9,1.44,1.44,0,0,0-1.76,0,1,1,0,0,0-.35.82A34.35,34.35,0,0,1,400.3,79q-1.49-.3-1.76-1.12a2.15,2.15,0,0,1,.88-1.64q1.41-1.64,4.22-4.55l-19.43,9.92,5,6.94h26.11l37.18-19m23.47-19a2.62,2.62,0,0,0-1.76-.6,3,3,0,0,0-1.85.6,2.1,2.1,0,0,0-.7,1.57,1.88,1.88,0,0,0,.7,1.49,2.76,2.76,0,0,0,1.85.67,2.44,2.44,0,0,0,1.76-.67,1.8,1.8,0,0,0,.79-1.49,2,2,0,0,0-.79-1.57m-4.83-4.25a1,1,0,0,0-.79.52,3.49,3.49,0,0,0-.26,1.42,3,3,0,0,0,.26,1.34q.35.6.79.6t.7-.6a2.36,2.36,0,0,0,.35-1.34,2.74,2.74,0,0,0-.35-1.42.79.79,0,0,0-.7-.52M463.41,34.7l-.26-2.31-2.64,1.34a99.15,99.15,0,0,1-15,5.3l-.35.15a2.63,2.63,0,0,0,.18-1,2.57,2.57,0,0,0-1.23-2.09,5.85,5.85,0,0,0-6,0,2.57,2.57,0,0,0-1.23,2.09,2.39,2.39,0,0,0,1.23,2,6.57,6.57,0,0,0,1.23.67,3.55,3.55,0,0,0-.88.22,2.75,2.75,0,0,0-1.14-1.42,4.3,4.3,0,0,0-2.55-.75,4.71,4.71,0,0,0-2.64.75,2.35,2.35,0,0,0-1.05,1.87,2,2,0,0,0-.79-.15,2,2,0,0,0-1.32.45,1.45,1.45,0,0,0,0,2.24.84.84,0,0,0,.44.3q-2,.9-3.16,1.34a27.26,27.26,0,0,1-4.39,1.57,17.64,17.64,0,0,1-4.83.22A9.17,9.17,0,0,1,412.6,46q-2.9-2-3.25-6.87-.09-1.34-.18-2.39l-7.65,4,13,18.73L463.41,34.7m-27.6-1.64q0-.22-.35-.45a1.43,1.43,0,0,0-.7-.15,2,2,0,0,0-.79.15.61.61,0,0,0-.26.45.43.43,0,0,0,.26.37,1.44,1.44,0,0,0,.79.22,1.05,1.05,0,0,0,.7-.22q.35-.15.35-.37m-5.63,3.06a.8.8,0,0,0-.62.3,1.67,1.67,0,0,0,0,1.49.8.8,0,0,0,.62.3.57.57,0,0,0,.53-.3,1.19,1.19,0,0,0,0-1.49.57.57,0,0,0-.53-.3m41.22-16a2.23,2.23,0,0,0-1.49-.52,2.59,2.59,0,0,0-1.58.52,1.83,1.83,0,0,0-.62,1.34,1.61,1.61,0,0,0,.62,1.27,2.38,2.38,0,0,0,1.58.6,2.07,2.07,0,0,0,1.49-.6,1.54,1.54,0,0,0,.7-1.27,1.74,1.74,0,0,0-.7-1.34m4.22,5.37a.33.33,0,0,0,0,.45.5.5,0,0,0,.53,0,.33.33,0,0,0,0-.45.5.5,0,0,0-.53,0m0-3.88a1.43,1.43,0,0,0-1.05.45,1.53,1.53,0,0,0-.44,1.12.58.58,0,0,0,.09.3h-.35a1.83,1.83,0,0,0-1.05.3.73.73,0,0,0,0,1.34,2,2,0,0,0,2.11,0l.44-.37h.26a1.43,1.43,0,0,0,1.05-.45,1.65,1.65,0,0,0,0-2.24,1.43,1.43,0,0,0-1.05-.45m77,21.49h.18a2.27,2.27,0,0,0,.62.07,1.42,1.42,0,0,0,.53-.07h.26l-.26-.07H552.8l-.18.07m0,0a.67.67,0,0,0-.26-.52,1,1,0,0,0-1.23,0,.65.65,0,0,0,0,1,1,1,0,0,0,1.23,0,.67.67,0,0,0,.26-.52m3.25.15q.09,0,.09-.07a.2.2,0,0,0-.09-.15h-.53a.2.2,0,0,0-.09.15s0,.07.09.07a.5.5,0,0,0,.53,0m-2.29-4a1.65,1.65,0,0,0,0-1.79.56.56,0,0,0-.53-.37.75.75,0,0,0-.62.37,2.37,2.37,0,0,0,0,1.79.75.75,0,0,0,.62.37.56.56,0,0,0,.53-.37M508.06,51.86a8.23,8.23,0,0,0-1-4.1,2.54,2.54,0,0,0-4.75,0,8.23,8.23,0,0,0-1,4.1,7.82,7.82,0,0,0,1,4,2.83,2.83,0,0,0,.44.67l-.09-.07q-3.16-1.57-4.75-2.31A22.71,22.71,0,0,0,493,52.39,14.42,14.42,0,0,1,489.25,51a3.56,3.56,0,0,1-1-.82v3.43l3.08,1.64.09.07,17.67,9,6-8.51a25.44,25.44,0,0,1-2.55.67,13.91,13.91,0,0,1-6.15,1.12l-.79-.15a3.75,3.75,0,0,0,1.49-1.57,7.82,7.82,0,0,0,1-4M532.85,44l-2,2,26.63,13.51,13-18.73L559.22,35a16,16,0,0,1,.79,3.21,5.39,5.39,0,0,1-1.49,3.73,13.68,13.68,0,0,1-5.8,3.73,2.55,2.55,0,0,0-.53-.82,2.41,2.41,0,0,0-3.34,0,2.43,2.43,0,0,0-.7,1.72v.15a24.45,24.45,0,0,1-6.59-.15,46.1,46.1,0,0,1-8.7-2.61M506,28.8a2.23,2.23,0,0,0-1.49.52,2.07,2.07,0,0,0-.53,1.42,1.89,1.89,0,0,0,.09.52q-4-1.57-8.26-3.06l31,15.75L528.54,42q-1.67-.9-3.87-1.94-8.35-4-17.58-7.69l.35-.3a1.68,1.68,0,0,0,.62-1.34,1.94,1.94,0,0,0-2-1.94m9.84,5.07a.58.58,0,0,0-.09.3.28.28,0,0,0,.09.22.55.55,0,0,0,.35.15.29.29,0,0,0,.26-.15.24.24,0,0,0,.18-.22.41.41,0,0,0-.18-.3.4.4,0,0,0-.26-.07.89.89,0,0,0-.35.07m-3.25-3.21a1,1,0,0,0-.26-.67A1.22,1.22,0,0,0,511,30a1,1,0,0,0-.26.67.74.74,0,0,0,.26.6,1,1,0,0,0,1.41,0,.74.74,0,0,0,.26-.6m2.11,1.49a1,1,0,0,0-1.23,0,.81.81,0,0,0,0,1.19,1,1,0,0,0,1.23,0,.81.81,0,0,0,0-1.19m-4.92-5a1.08,1.08,0,0,0-.88.45,2,2,0,0,0,0,2.24,1.09,1.09,0,0,0,1.76,0,2,2,0,0,0,0-2.24,1.08,1.08,0,0,0-.88-.45M664.35,88.58l-15.91-8.13-5.71,8.13h21.62m-93-12.46A7.86,7.86,0,0,1,571,82a4.16,4.16,0,0,1-1.76,2.09,8.77,8.77,0,0,1-3.08.37q-5.1-.22-7.3-.52a23.92,23.92,0,0,1-6.94-1.72q-2.55-1.27-3.87-1.87A14.35,14.35,0,0,0,544,79a11.1,11.1,0,0,0-3.16,0l-2.55.22,18.28,9.33h26.11l5.1-6.94-19.07-9.78a10.17,10.17,0,0,1,2.64,4.25M553,74.85a2.78,2.78,0,0,0-.88-1,3.51,3.51,0,0,0-2.2-.67,3.91,3.91,0,0,0-2.29.67,1.84,1.84,0,0,0,0,3.13,4.45,4.45,0,0,0,1.23.6v.15a1.49,1.49,0,0,0,.53,1.19,1.71,1.71,0,0,0,2.46,0,1.21,1.21,0,0,0,.26-.3,2,2,0,0,0,1.41-.6,1.94,1.94,0,0,0,0-2.84,3.43,3.43,0,0,0-.53-.37m43.16,13.73h5.36l-4-2-1.41,2m27.34-20.89q0,1.57-.18,3.73-.35,4.78-2.64,6.87a7.87,7.87,0,0,1-4.48,2.46,1.54,1.54,0,0,0,.35-1,1.89,1.89,0,0,0-1.05-1.57,4.06,4.06,0,0,0-2.37-.67,4.48,4.48,0,0,0-2.46.67,1.91,1.91,0,0,0-1,1.57,1.3,1.3,0,0,0,.18.67q-2-.37-5-1.19-4-1.19-5.27-1.49-1.85-.37-8.17-1L614.6,88.58h14.68l9.23-13.21-15-7.69m-5.36,9.7a1.51,1.51,0,0,0-.26-.9.85.85,0,0,0-1.41,0,1.65,1.65,0,0,0,0,1.79.85.85,0,0,0,1.41,0,1.51,1.51,0,0,0,.26-.9m-.62-3.81a1.2,1.2,0,0,0-1.58,0,1,1,0,0,0,0,1.49,1.2,1.2,0,0,0,1.58,0,1,1,0,0,0,0-1.49M616.88,71a2,2,0,0,0-.26-1,.65.65,0,0,0-1.23,0,2.2,2.2,0,0,0,0,2.09.65.65,0,0,0,1.23,0,2,2,0,0,0,.26-1M937.63,207.9a18.27,18.27,0,0,0-.53-2.84q-.53-1.79-1.23-1.79t-1.23,1.79a16.29,16.29,0,0,0-.53,4.4,15.11,15.11,0,0,0,.26,2.91l-1.76,2.31a25.66,25.66,0,0,1-2.46,3.51,2.66,2.66,0,0,0-1.41-.37,3,3,0,0,0-2,.75,2.7,2.7,0,0,0-.79,1.94,2.45,2.45,0,0,0,.26,1.12,18,18,0,0,1-10.2,2.76q-345.36,5-691.51,2.16l1.05,2.54,1.76,4.1H933.76l38.15-72.76L937.63,207.9M9.41,164.1a1.72,1.72,0,0,0-.53,1.27,1.49,1.49,0,0,0,.53,1.19,1.93,1.93,0,0,0,2.64,0,1.49,1.49,0,0,0,.53-1.19A1.72,1.72,0,0,0,12,164.1a2,2,0,0,0-1.32-.45,2,2,0,0,0-1.32.45m930.24,33.66a.67.67,0,0,0-.26-.52,1.34,1.34,0,0,0-1.23,0,.67.67,0,0,0-.26.52.48.48,0,0,0,.26.45,1,1,0,0,0,1.23,0,.48.48,0,0,0,.26-.45m2.81-7.24a1.51,1.51,0,0,0-.26-.9.78.78,0,0,0-1.23,0,1.51,1.51,0,0,0-.26.9,1.2,1.2,0,0,0,.26.82.69.69,0,0,0,1.23,0,1.2,1.2,0,0,0,.26-.82m6.24-7.61a2.17,2.17,0,0,0-.53-1.49,1.75,1.75,0,0,0-2.64,0,2.38,2.38,0,0,0,0,3,1.75,1.75,0,0,0,2.64,0,2.17,2.17,0,0,0,.53-1.49M57.93,153.28a3.4,3.4,0,0,0,0-4.93,3.63,3.63,0,0,0-5.1,0,3.4,3.4,0,0,0,0,4.93,3.63,3.63,0,0,0,5.1,0M70.5,130.14q-1.67.82-1.67,1.94T70.5,134a10.37,10.37,0,0,0,8.09,0q1.67-.82,1.67-1.94a1.54,1.54,0,0,0-.35-1v-.3a2.34,2.34,0,0,0-.62-1.64,2,2,0,0,0-3,0l-.18.3a8.52,8.52,0,0,0-1.58-.15,9.1,9.1,0,0,0-4,.82M899,133.5a1.31,1.31,0,0,0,.7-1.12,1.49,1.49,0,0,0-.7-1.19,3.68,3.68,0,0,0-3.52,0,1.49,1.49,0,0,0-.7,1.19,1.31,1.31,0,0,0,.7,1.12,3.22,3.22,0,0,0,3.52,0m-12.75-4.78q.88.07,2.11.07h1.76l7.82.15q2.37.07,4.66.37a1.33,1.33,0,0,0,1,.45,1.79,1.79,0,0,0,.7-.15,10.66,10.66,0,0,1,1.23.22.76.76,0,0,0-.26.07q-1,.3-1,.75t1,.75a9.46,9.46,0,0,0,2.55.3,8.5,8.5,0,0,0,2.46-.3h.09a21.59,21.59,0,0,1,4.57,2.46h-.09a1.72,1.72,0,0,0-.53,1.27,1.49,1.49,0,0,0,.53,1.19,2.23,2.23,0,0,0,1.49.52,1.91,1.91,0,0,0,1.41-.52h.09q12.92,12.76,7.3,48l11.69-23.88-22.59-45.22-.79,1.34.79-1.42-497.69,1.19L88,115.29H87.9l-30.06-.15.79,1.42-.79-1.34L35.25,160.44l11.69,23.88q-.35-28.8,7.38-42.76a10.16,10.16,0,0,0,3.6.6,9.79,9.79,0,0,0,5.71-1.64A4.52,4.52,0,0,0,66,136.71a4.7,4.7,0,0,0-2.37-3.88,5.67,5.67,0,0,0-1.05-.6A22.39,22.39,0,0,1,75,128.5l12.92-.3h.26q73.41-1.65,146.88-2.69l31.82-.45q3.37,0,6.68-.07t6.68-.07q3,0,5.89-.07,6.78,0,13.45-.15t13-.07l7.12-.07,6.42-.07,19.16-.15,13.45-.15q.94,0,1.85,0,1.16,0,2.29,0,2.58,0,5.1,0t4.92-.07q14.35,0,28.66-.15h14.24q33.87-.13,67.77-.15,2.37,0,4.75,0,34.08.07,68.12.22l14.24.07,28.3.15q2.56.06,5.1.07,2.26,0,4.48,0,1.4,0,2.72,0l2.29.07,13.54.07q9.32.1,18.63.15,3.21.07,6.42.07,3.56.07,7.12.07,6.77.11,13.54.15t13.45.15q2.7.08,5.36.07,3.32.07,6.59.07t6.77.07l32.52.52q63.77,1,127.54,2.39a3.17,3.17,0,0,0-.35,1.49,4.08,4.08,0,0,0,1.58,3.21,6.12,6.12,0,0,0,4,1.34,5.77,5.77,0,0,0,3.87-1.34,4,4,0,0,0,1.67-3.21,4.47,4.47,0,0,0-.18-1.27q4,.07,8.26.22a3.82,3.82,0,0,0,.79.07,3.38,3.38,0,0,0,.7-.07h.7l-.7.07Z"/><path class="cls-5" d="M35.25,160.44H26.11l27.51,54.92,5-7.09-11.69-24L35.25,160.44M94.05,96,78,107.83l9.93,7.46H88l.09-.07,2.9-7.39L94.05,96m288.84-7.39-8.44-2,1.32,2h7.12m-51.69-6.34-7.65-1.79,5.63,8.13h6.59l-4.57-6.34m68-34.63-7.65-1.79L403.46,63l1.14,1.57,8.61,2.24-14-19.18m41.84,5H441l8.26,12.24,3.25,4.78,8.88,2.16-12-17.16-8.35-2m22.06-20.22.26,2.31V25.07l-1.76-1.72-1.14-6.27-.88,4.85,2.9,4.63.62,5.82M531,52.61h-.09l-8.35,2-12,17.16,8.88-2.16,11.51-17m315.82,141-5.71,14.63,3.16,3.51,2.55-18.13M648.44,80.44l-7.65,1.79-4.66,6.34h6.59l5.71-8.13M589.1,88.58h7l1.41-2-8.44,2m-8.7-42.76-7.65,1.79-14,19.18,8.61-2.24,13-18.73M945.89,160.44h-9.14l-11.69,23.88-11.69,24,5,7.09Z"/><path class="cls-6" d="M57.84,115.22v-.07l30.06.15L78,107.83H53.62l4.22,7.39m856.32-.07v.07l4.22-7.39H96.69l-8.61,7.39-.09.07,328.48,1Z"/><path class="cls-7" d="M413.22,66.79l-8.61-2.24-47.29,24H370.5l4-2,8.44,2,1.32-6.94,19.43-9.92,9.58-4.93m48.17,5-8.88-2.16-37.18,19H430.8l.35-1.34,21.45-10.9,8.79-4.55m58.1-2.16-8.88,2.16,15.12,7.69,15.12,7.76.35,1.34h15.38L538.3,79.25l-18.81-9.63m10.72-29.55L528.54,42,526.87,44l-31-15.75-7.56-3.81V1.94L490.92,0a14.26,14.26,0,0,1-9.76,0l2.37,1.42V24.48L463.41,34.7,414.54,59.48l-1.32,7.31L441,52.61h.09l8.35,2,1.67-7.16L482,31.79l1.49,1.34v20.6l-2.9,1.57-.09.07-17.67,9-1.49,7.46L480.55,62h.09l.44-.22,2.46,1.87V82.31l-2.9,1.42h-.09l-9.49,4.85h29.62l-12.39-6.27V63.5L491.36,62l.09.07,19.16,9.7-1.49-7.46-17.67-9-.09-.07-3.08-1.64V33.58l2.55-1.42,30.06,15.3,1.67,7.16,8.35-2L530.83,46,530,45.6l.18-5.52M531,29l-2.81,3.06,1.76,6.79L531,29m66.54,57.54,4,2h13.1L591.39,76.79l-24-12.24-8.61,2.24,9.93,5.07,19.07,9.78,1.32,6.94Z"/><path class="cls-8" d="M364,59.85a14.57,14.57,0,0,1-1.67,2.61q-.09.07-2.72,3.13a9.89,9.89,0,0,0-1.23,1.87q.53,0,1,.75a3.3,3.3,0,0,1,0,3.58,1.25,1.25,0,0,1-1.05.75,1.19,1.19,0,0,1-.79-.3,3,3,0,0,0,.35.82,13.88,13.88,0,0,0,1.32,1.64,3.14,3.14,0,0,0,.44.45q.26-.52.62-.52t.7.75a4.7,4.7,0,0,1,.35,1.87v.3a.47.47,0,0,1,.18.37.82.82,0,0,1-.35.6.92.92,0,0,0,.26.37q.88.75,3.52.75a1.68,1.68,0,0,0,.44-.07.66.66,0,0,1,.44-.15.4.4,0,0,1,.26.07q1.41-.3,2.9-.75a.39.39,0,0,1-.09-.3,4,4,0,0,1-.09-.9,5,5,0,0,1,.09-1q.09-.37.18-.37t.18.37a5,5,0,0,1,.09,1,4,4,0,0,1-.09.9v.22a39.49,39.49,0,0,0,5.8-2.31q3.25-1.49,9.49-4.78.7-.37,11.69-5a56.61,56.61,0,0,0,7.3-3.58L391.59,45.82l-27.6,14m-4.13,10.82q.26-.37.53-.37t.44.37a1.65,1.65,0,0,1,0,1.79q-.18.37-.44.37t-.53-.37a2.37,2.37,0,0,1,0-1.79m2.46,1.79a1.7,1.7,0,0,1,1.14.37,1.34,1.34,0,0,1,.53,1,1.14,1.14,0,0,1-.53,1,1.53,1.53,0,0,1-1.14.45,1.84,1.84,0,0,1-1.23-.45,1.21,1.21,0,0,1-.44-1,1.44,1.44,0,0,1,.44-1,2.08,2.08,0,0,1,1.23-.37m5.27,1.19a.17.17,0,0,1,0,.3V74l-.09-.07v-.3l.09-.07v.07m2.81,1.49a.65.65,0,0,1,0,1,1,1,0,0,1-1.23,0,.65.65,0,0,1,0-1,1,1,0,0,1,1.23,0M488.28,63.5v9.63q.88.67,2.55,1.79.79.67,2.64,2.54a12.23,12.23,0,0,0,2.64,2.31,14.15,14.15,0,0,0,4,1.64,5.7,5.7,0,0,1,.88-.6,9.66,9.66,0,0,1,8.44,0,2.8,2.8,0,0,1,1.76,2.39v.22a40.25,40.25,0,0,0,5.36.07,18.59,18.59,0,0,0,6.15-1.27A6.38,6.38,0,0,0,525,80.52a5.45,5.45,0,0,0,.7-1l-15.12-7.69-19.16-9.7-.09-.07-3.08,1.49m21.62,16a.48.48,0,0,1,0-.75.49.49,0,0,1,.7,0,.48.48,0,0,1,0,.75.49.49,0,0,1-.7,0M513,80.67a.34.34,0,0,1,0,.6.72.72,0,0,1-.88,0,.34.34,0,0,1,0-.6.72.72,0,0,1,.88,0m-29.45-17-2.46-1.87-.44.22h-.09l-19.16,9.78-8.79,4.55a.59.59,0,0,0,0,.45,5.46,5.46,0,0,0,2.2,3.21,14.2,14.2,0,0,0,2,1.57,3.5,3.5,0,0,1,2.2-.75,3.1,3.1,0,0,1,2.2.82,2.77,2.77,0,0,1,1,2.09,18.71,18.71,0,0,0,4.48.37,37.3,37.3,0,0,0,7.21-1.34A73.17,73.17,0,0,0,483.54,79V63.65m-9,9.78a1.05,1.05,0,0,1,.7.22,1,1,0,0,1,.26.67.74.74,0,0,1-.26.6,1,1,0,0,1-1.41,0,.74.74,0,0,1-.26-.6,1,1,0,0,1,.26-.67,1.05,1.05,0,0,1,.7-.22M477,75.89a.24.24,0,0,1-.18.22.49.49,0,0,1-.7,0,.24.24,0,0,1-.18-.22.41.41,0,0,1,.18-.3.87.87,0,0,1,.7,0,.41.41,0,0,1,.18.3m1.05,1.49a.47.47,0,0,1,.18-.37,1.06,1.06,0,0,1,.53-.15.66.66,0,0,1,.44.15.4.4,0,0,1,0,.75.66.66,0,0,1-.44.15,1.06,1.06,0,0,1-.53-.15.47.47,0,0,1-.18-.37m-12.13.3a.74.74,0,0,1-.26.6.51.51,0,0,1-.44.3.73.73,0,0,1-.53-.3.94.94,0,0,1-.18-.6,1.3,1.3,0,0,1,.18-.67.82.82,0,0,1,.53-.22.54.54,0,0,1,.44.22,1,1,0,0,1,.26.67m.79,2.16a.72.72,0,0,1,.18-.45.72.72,0,0,1,.88,0,.72.72,0,0,1,.18.45.47.47,0,0,1-.18.37.54.54,0,0,1-.88,0,.47.47,0,0,1-.18-.37m-6.5-2.61a1.43,1.43,0,0,1,1.05.45,1.65,1.65,0,0,1,0,2.24,1.47,1.47,0,0,1-2.11,0,1.65,1.65,0,0,1,0-2.24,1.43,1.43,0,0,1,1.05-.45m-11-12.39L441,52.61,413.22,66.79l-9.58,4.93q-2.81,2.91-4.22,4.55a2.15,2.15,0,0,0-.88,1.64q.26.82,1.76,1.12a34.35,34.35,0,0,0,8.35,1.57,1,1,0,0,1,.35-.82,1.44,1.44,0,0,1,1.76,0,1.26,1.26,0,0,1,.35.9h1.49a1.94,1.94,0,0,1-.79-.52,2.75,2.75,0,0,1,0-3,1.52,1.52,0,0,1,1.14-.6,1.28,1.28,0,0,1,1.05.6,2.38,2.38,0,0,1,0,3,1.46,1.46,0,0,1-.62.52q1.58,0,3.25-.07a1.54,1.54,0,0,1,.62-1.19,2.72,2.72,0,0,1,3,0,1.76,1.76,0,0,1,.35-1.12,1.09,1.09,0,0,1,1.76,0,1.76,1.76,0,0,1,.35,1.12v.52a17.76,17.76,0,0,0,2.2-.67,17.22,17.22,0,0,0,3.52-1.79q.26-.15,3.25-2.16a108.15,108.15,0,0,1,17.58-10.45m-20,8.28a.54.54,0,0,1,.44.22.81.81,0,0,1,0,1.19.54.54,0,0,1-.44.22.82.82,0,0,1-.53-.22,1.1,1.1,0,0,1,0-1.19.82.82,0,0,1,.53-.22m-1.76-1.34a.86.86,0,0,1,0,1,.39.39,0,0,1-.7,0,.86.86,0,0,1,0-1,.39.39,0,0,1,.7,0M425.7,76a.75.75,0,0,1,.62-.37.56.56,0,0,1,.53.37,1.88,1.88,0,0,1,.26,1,1.51,1.51,0,0,1-.26.9q-.18.45-.53.45a.74.74,0,0,1-.62-.45,2.09,2.09,0,0,1-.18-.9,2.63,2.63,0,0,1,.18-1m-1.05.22a3.18,3.18,0,0,1,0,2.54q-.26.52-.62.52t-.62-.52a3.18,3.18,0,0,1,0-2.54q.26-.52.62-.52t.62.52m-8.26,2.46a1.17,1.17,0,0,1,.35.82.94.94,0,0,1-.35.75,1,1,0,0,1-1.58,0,.94.94,0,0,1-.35-.75,1.17,1.17,0,0,1,.35-.82,1.2,1.2,0,0,1,1.58,0m67.16-45.52L482,31.79,451.1,47.46l9.76,14a6.81,6.81,0,0,0,2,.3q3.25.22,6.59-2.61l6.42-4.33.7-.3a.28.28,0,0,1-.09-.22,1,1,0,0,1,.53-.82,3.4,3.4,0,0,1,1.49-.3,2.26,2.26,0,0,1,.88.15,14.88,14.88,0,0,0,2.81-1.64,7.55,7.55,0,0,0,1.32-1.27V33.13M470.35,46.94a1,1,0,0,1,.79-.52.79.79,0,0,1,.7.52,2.74,2.74,0,0,1,.35,1.42,2.36,2.36,0,0,1-.35,1.34q-.26.6-.7.6t-.79-.6a3,3,0,0,1-.26-1.34,3.49,3.49,0,0,1,.26-1.42m3.87,3.13a2.62,2.62,0,0,1,1.76.6,2,2,0,0,1,.79,1.57,1.8,1.8,0,0,1-.79,1.49,2.44,2.44,0,0,1-1.76.67,2.76,2.76,0,0,1-1.85-.67,1.88,1.88,0,0,1-.7-1.49,2.1,2.1,0,0,1,.7-1.57,3,3,0,0,1,1.85-.6m9.32-48.65L481.16,0l-72,36.79q.09,1,.18,2.39Q409.7,44,412.6,46A9.17,9.17,0,0,0,417,47.54a17.64,17.64,0,0,0,4.83-.22,27.26,27.26,0,0,0,4.39-1.57q1.14-.45,3.16-1.34a.84.84,0,0,1-.44-.3,1.45,1.45,0,0,1,0-2.24,2,2,0,0,1,1.32-.45,2,2,0,0,1,.79.15,2.35,2.35,0,0,1,1.05-1.87,4.71,4.71,0,0,1,2.64-.75,4.3,4.3,0,0,1,2.55.75,2.75,2.75,0,0,1,1.14,1.42,3.55,3.55,0,0,1,.88-.22,6.57,6.57,0,0,1-1.23-.67,2.39,2.39,0,0,1-1.23-2,2.57,2.57,0,0,1,1.23-2.09,5.85,5.85,0,0,1,6,0,2.57,2.57,0,0,1,1.23,2.09,2.63,2.63,0,0,1-.18,1l.35-.15a99.15,99.15,0,0,0,15-5.3l2.64-1.34-.62-5.82-2.9-4.63.88-4.85,1.93,4.4,3.43,3.21-2.46,10,20.13-10.22V1.42m-9,20.6a1.47,1.47,0,0,1,2.11,0,1.65,1.65,0,0,1,0,2.24,1.43,1.43,0,0,1-1.05.45h-.26l-.44.37a2,2,0,0,1-2.11,0,.73.73,0,0,1,0-1.34,1.83,1.83,0,0,1,1.05-.3h.35a.58.58,0,0,1-.09-.3,1.53,1.53,0,0,1,.44-1.12m1,3.66a.28.28,0,0,1,.09-.22.5.5,0,0,1,.53,0,.33.33,0,0,1,0,.45.5.5,0,0,1-.53,0,.28.28,0,0,1-.09-.22m-5.63-6.12a2.23,2.23,0,0,1,1.49.52,1.74,1.74,0,0,1,.7,1.34,1.54,1.54,0,0,1-.7,1.27,2.07,2.07,0,0,1-1.49.6,2.38,2.38,0,0,1-1.58-.6,1.61,1.61,0,0,1-.62-1.27,1.83,1.83,0,0,1,.62-1.34,2.59,2.59,0,0,1,1.58-.52M429.57,36.42a.8.8,0,0,1,.62-.3.57.57,0,0,1,.53.3,1.19,1.19,0,0,1,0,1.49.57.57,0,0,1-.53.3.8.8,0,0,1-.62-.3,1.67,1.67,0,0,1,0-1.49m5.89-3.81q.35.22.35.45t-.35.37a1.05,1.05,0,0,1-.7.22,1.44,1.44,0,0,1-.79-.22.43.43,0,0,1-.26-.37.61.61,0,0,1,.26-.45,2,2,0,0,1,.79-.15,1.43,1.43,0,0,1,.7.15M552.19,44.85a2.55,2.55,0,0,1,.53.82,13.68,13.68,0,0,0,5.8-3.73A5.39,5.39,0,0,0,560,38.21a16,16,0,0,0-.79-3.21L530,20.07,535.66,29,533,32.54l2.37,8.73L532.85,44a46.1,46.1,0,0,0,8.7,2.61,24.45,24.45,0,0,0,6.59.15v-.15a2.43,2.43,0,0,1,.7-1.72,2.41,2.41,0,0,1,3.34,0m1.67-6.49a1.51,1.51,0,0,1-.26.9.56.56,0,0,1-.53.37.75.75,0,0,1-.62-.37,2.37,2.37,0,0,1,0-1.79.75.75,0,0,1,.62-.37.56.56,0,0,1,.53.37,1.51,1.51,0,0,1,.26.9M556,43.13s0,.07-.09.07a.5.5,0,0,1-.53,0q-.09,0-.09-.07a.2.2,0,0,1,.09-.15h.53a.2.2,0,0,1,.09.15m-3.6-.6a.67.67,0,0,1,.26.52l.18-.07h1.14l.26.07h-.26a1.42,1.42,0,0,1-.53.07,2.27,2.27,0,0,1-.62-.07h-.18a.67.67,0,0,1-.26.52,1,1,0,0,1-1.23,0,.65.65,0,0,1,0-1,1,1,0,0,1,1.23,0m-45.27,5.22a8.23,8.23,0,0,1,1,4.1,7.82,7.82,0,0,1-1,4,3.75,3.75,0,0,1-1.49,1.57l.79.15a13.91,13.91,0,0,0,6.15-1.12,25.44,25.44,0,0,0,2.55-.67l5.8-8.36-30.06-15.3-2.55,1.42V50.22a3.56,3.56,0,0,0,1,.82A14.42,14.42,0,0,0,493,52.39,22.71,22.71,0,0,1,498,54.18q1.58.75,4.75,2.31l.09.07a2.83,2.83,0,0,1-.44-.67,7.82,7.82,0,0,1-1-4,8.23,8.23,0,0,1,1-4.1,2.54,2.54,0,0,1,4.75,0m-2.55-18.43A2.23,2.23,0,0,1,506,28.8a1.94,1.94,0,0,1,2,1.94,1.68,1.68,0,0,1-.62,1.34l-.35.3q9.23,3.66,17.58,7.69,2.2,1,3.87,1.94l1.67-1.94-.26-1.19-1.76-6.79L531,29l-2.29-3.81-5.27-8.58L490.92,0l-2.64,1.94V24.4l7.56,3.81q4.22,1.49,8.26,3.06a1.89,1.89,0,0,1-.09-.52,2.07,2.07,0,0,1,.53-1.42m4.39-1.72a1.09,1.09,0,0,1,1.76,0,2,2,0,0,1,0,2.24,1.09,1.09,0,0,1-1.76,0,2,2,0,0,1,0-2.24m5.19,4.33a.92.92,0,0,1,.62.22.81.81,0,0,1,0,1.19,1,1,0,0,1-1.23,0,.81.81,0,0,1,0-1.19.92.92,0,0,1,.62-.22M512.37,30a1,1,0,0,1,.26.67.74.74,0,0,1-.26.6,1,1,0,0,1-1.41,0,.74.74,0,0,1-.26-.6A1,1,0,0,1,511,30a1.22,1.22,0,0,1,1.41,0m3.43,4.18a.58.58,0,0,1,.09-.3.89.89,0,0,1,.35-.07.4.4,0,0,1,.26.07.41.41,0,0,1,.18.3.24.24,0,0,1-.18.22.29.29,0,0,1-.26.15.55.55,0,0,1-.35-.15.28.28,0,0,1-.09-.22M571,82a7.86,7.86,0,0,0,.35-5.9,10.17,10.17,0,0,0-2.64-4.25l-9.93-5.07L531,52.61l-11.51,17,18.81,9.63,2.55-.22A11.1,11.1,0,0,1,544,79a14.35,14.35,0,0,1,4,1.34q1.32.6,3.87,1.87A23.92,23.92,0,0,0,558.87,84q2.2.3,7.3.52a8.77,8.77,0,0,0,3.08-.37A4.16,4.16,0,0,0,571,82m-18.9-8.13a2.78,2.78,0,0,1,.88,1,3.43,3.43,0,0,1,.53.37,1.94,1.94,0,0,1,0,2.84,2,2,0,0,1-1.41.6,1.21,1.21,0,0,1-.26.3,1.71,1.71,0,0,1-2.46,0,1.49,1.49,0,0,1-.53-1.19v-.15a4.45,4.45,0,0,1-1.23-.6,1.84,1.84,0,0,1,0-3.13,3.91,3.91,0,0,1,2.29-.67,3.51,3.51,0,0,1,2.2.67m71.2-2.46q.18-2.16.18-3.73L580.4,45.82l-13,18.73,24,12.24q6.33.6,8.17,1,1.32.3,5.27,1.49,3,.82,5,1.19a1.3,1.3,0,0,1-.18-.67,1.91,1.91,0,0,1,1-1.57,4.48,4.48,0,0,1,2.46-.67,4.06,4.06,0,0,1,2.37.67,1.89,1.89,0,0,1,1.05,1.57,1.54,1.54,0,0,1-.35,1,7.87,7.87,0,0,0,4.48-2.46q2.29-2.09,2.64-6.87M616.62,70a2.2,2.2,0,0,1,0,2.09.65.65,0,0,1-1.23,0,2.2,2.2,0,0,1,0-2.09.65.65,0,0,1,1.23,0m.09,3.28a1.19,1.19,0,0,1,.79.3,1,1,0,0,1,0,1.49,1.2,1.2,0,0,1-1.58,0,1,1,0,0,1,0-1.49,1.19,1.19,0,0,1,.79-.3m1.14,3.21a1.65,1.65,0,0,1,0,1.79.85.85,0,0,1-1.41,0,1.65,1.65,0,0,1,0-1.79.85.85,0,0,1,1.41,0m354.06,84,.09-.22L934.11,88.58H37.88L0,160.22l.09.22,29.45,40.74a3.15,3.15,0,0,1,5.45,0,6.66,6.66,0,0,1,0,7.46l1.49,2a1.36,1.36,0,0,1,1.14-.6,1.32,1.32,0,0,1,1.14.67,2.59,2.59,0,0,1,0,3.13l2.2,3.06a.88.88,0,0,1,.18.22,6,6,0,0,1,.62-.6,8.25,8.25,0,0,1,8.79,0,3.85,3.85,0,0,1,1.85,3.13,3.67,3.67,0,0,1-1.85,3.06l-.88.6a22.26,22.26,0,0,0,7.3,1.27q80.08,1.12,160.15,1.87l-5.27-11.12H53.62L26.11,160.44l27.51-52.61H78L94.05,96l2.64,11.87H918.38l27.51,52.61-27.51,54.92H852.8l-7.21,7,1.85-7H219.75l4.75,11.19q346.15,2.84,691.51-2.16a18,18,0,0,0,10.2-2.76,2.45,2.45,0,0,1-.26-1.12,2.7,2.7,0,0,1,.79-1.94,3,3,0,0,1,2-.75,2.66,2.66,0,0,1,1.41.37,25.66,25.66,0,0,0,2.46-3.51l1.76-2.31a15.11,15.11,0,0,1-.26-2.91,16.29,16.29,0,0,1,.53-4.4q.53-1.79,1.23-1.79t1.23,1.79a18.27,18.27,0,0,1,.53,2.84l34.28-47.46m-23.73,21a2.38,2.38,0,0,1,0,3,1.75,1.75,0,0,1-2.64,0,2.38,2.38,0,0,1,0-3,1.75,1.75,0,0,1,2.64,0m-6,8.21a1.51,1.51,0,0,1,.26.9,1.2,1.2,0,0,1-.26.82.69.69,0,0,1-1.23,0,1.2,1.2,0,0,1-.26-.82,1.51,1.51,0,0,1,.26-.9.78.78,0,0,1,1.23,0m-2.81,7.61a.67.67,0,0,1,.26.52.48.48,0,0,1-.26.45,1,1,0,0,1-1.23,0,.48.48,0,0,1-.26-.45.67.67,0,0,1,.26-.52,1.34,1.34,0,0,1,1.23,0M8.88,165.37a1.72,1.72,0,0,1,.53-1.27,2,2,0,0,1,1.32-.45,2,2,0,0,1,1.32.45,1.72,1.72,0,0,1,.53,1.27,1.49,1.49,0,0,1-.53,1.19,1.93,1.93,0,0,1-2.64,0,1.49,1.49,0,0,1-.53-1.19M888.32,128.8q-1.23,0-2.11-.07h-.88l.7-.07h-.7a3.38,3.38,0,0,1-.7.07,3.82,3.82,0,0,1-.79-.07q-4.22-.15-8.26-.22a4.47,4.47,0,0,1,.18,1.27,4,4,0,0,1-1.67,3.21,5.77,5.77,0,0,1-3.87,1.34,6.12,6.12,0,0,1-4-1.34,4.08,4.08,0,0,1-1.58-3.21,3.17,3.17,0,0,1,.35-1.49q-63.78-1.43-127.54-2.39L705,125.29q-3.36,0-6.77-.07t-6.59-.07q-2.66,0-5.36-.07-6.7,0-13.45-.15t-13.54-.15q-3.56,0-7.12-.07-3.21,0-6.42-.07-9.31-.05-18.63-.15l-13.54-.07-2.29-.07q-1.32,0-2.72,0-2.22,0-4.48,0-2.53,0-5.1-.07l-28.3-.15L556.41,124q-34-.15-68.12-.22-2.37,0-4.75,0-33.9,0-67.77.15H401.53q-14.3.1-28.66.15-2.41.06-4.92.07t-5.1,0q-1.13,0-2.29,0-.91,0-1.85,0l-13.45.15-19.16.15-6.42.07-7.12.07q-6.45.06-13,.07t-13.45.15q-2.92.08-5.89.07-3.33.07-6.68.07t-6.68.07l-31.82.45q-73.47,1-146.88,2.69H87.9L75,128.5a22.39,22.39,0,0,0-12.39,3.73,5.67,5.67,0,0,1,1.05.6A4.7,4.7,0,0,1,66,136.71a4.52,4.52,0,0,1-2.37,3.81,9.79,9.79,0,0,1-5.71,1.64,10.16,10.16,0,0,1-3.6-.6q-7.74,14-7.38,42.76l11.69,24H841.11l5.71-14.63v14.63h66.54l11.69-24q5.63-35.22-7.3-48h-.09a1.91,1.91,0,0,1-1.41.52,2.23,2.23,0,0,1-1.49-.52,1.49,1.49,0,0,1-.53-1.19,1.72,1.72,0,0,1,.53-1.27h.09a21.59,21.59,0,0,0-4.57-2.46h-.09a8.5,8.5,0,0,1-2.46.3,9.46,9.46,0,0,1-2.55-.3q-1-.3-1-.75t1-.75a.76.76,0,0,1,.26-.07,10.66,10.66,0,0,0-1.23-.22,1.79,1.79,0,0,1-.7.15,1.33,1.33,0,0,1-1-.45q-2.29-.3-4.66-.37l-7.82-.15h-1.76m11.34,3.58a1.31,1.31,0,0,1-.7,1.12,3.22,3.22,0,0,1-3.52,0,1.31,1.31,0,0,1-.7-1.12,1.49,1.49,0,0,1,.7-1.19,3.68,3.68,0,0,1,3.52,0,1.49,1.49,0,0,1,.7,1.19m-830.83-.3q0-1.12,1.67-1.94a9.1,9.1,0,0,1,4-.82,8.52,8.52,0,0,1,1.58.15l.18-.3a2,2,0,0,1,3,0,2.34,2.34,0,0,1,.62,1.64v.3a1.54,1.54,0,0,1,.35,1q0,1.12-1.67,1.94a10.37,10.37,0,0,1-8.09,0q-1.67-.82-1.67-1.94M59,150.81a3.35,3.35,0,0,1-1.05,2.46,3.63,3.63,0,0,1-5.1,0,3.4,3.4,0,0,1,0-4.93,3.63,3.63,0,0,1,5.1,0A3.35,3.35,0,0,1,59,150.81Z"/></g><g class="cls-9"><g class="cls-10"><text class="cls-11" transform="translate(215.95 187.52)">Select<tspan class="cls-12" x="191.54" y="0"> </tspan><tspan class="cls-13" x="209.44" y="0">Y</tspan><tspan x="249.08" y="0">our</tspan><tspan class="cls-12" x="348.69" y="0"> </tspan><tspan class="cls-14" x="366.59" y="0">T</tspan><tspan x="401.05" y="0">eam</tspan></text></g></g></g></g></svg>