<svg xmlns="http://www.w3.org/2000/svg" viewBox="0 0 595.65 179.91"><defs><style>.cls-1{fill:#777279;}.cls-2{fill:#93939e;}.cls-3{fill:#797984;}.cls-4{fill:#878793;}.cls-5{fill:#9c99a2;}.cls-6{fill:#8c8c8c;}.cls-7{fill:#aba8b2;}.cls-8{fill:#6e6e7a;}.cls-9{fill:#959099;}.cls-10{fill:#575459;}.cls-11{fill:#706470;}.cls-12{fill:#666268;}.cls-13{fill:#726772;}.cls-14{fill:#747077;}.cls-15{fill:#89848c;}.cls-16{fill:#4d4a4f;}.cls-17{fill:#4aa633;fill-opacity:0.57;}.cls-18{fill:#67892c;}</style></defs><title>titlearea1</title><g id="Layer_2" data-name="Layer 2"><g id="Layer_1-2" data-name="Layer 1"><g id="menutitle_0_Layer6_0_FILL" data-name="menutitle 0 Layer6 0 FILL"><path class="cls-1" d="M204.4,91.65,202.2,93h6.9l-4.7-1.35M387.6,93h6.9l-2.25-1.35L387.6,93M370,78.3l-5.25,1.35.95,4.45,4.3-1.3L387,93h.2l-.8-4.85L370,78.3m-4.9-2.95L365,75.3l-9.75-5.85-5,1.45,14.45,8.7.05,0,.35-4.3M357,59.4,361.8,58l31.5,18.9.75,4.65,4.75-1.3L420,93h7.5l-7.35-4.4-4.85,1.5-.75-4.85L383.35,66.5l-4.9,1.5-.75-4.9L358.3,51.45,344.65,43.3l-4.9,1.5,5.65,3.4,10.85,6.55L357,59.4M328.85,72.6l-4.95,1.85L354.85,93h4l-.15-2.5L328.85,72.6M317.4,46.7l-5.05,1.45,8.55,5.15,8.65,5.2L330.5,63l4.35-1.35,15.35,9.2-.85-5L328.1,53.1l-10.7-6.4M272.75,74.45l-4.9-1.85L238,90.5l-.2,2.5h4.05l30.9-18.55m49.6-52.9.95,4.55.65-6.6-1.6,2.05M295.6.05,297,1V16.4L285.5,23.25l-27.85,16.6-.7,5,15.8-9.5h0l4.8,1.35,1-4.8,16.7-10v0h.05l.85-.55.85.95V36l-1.65,1,0,.05V37.1L285.2,43.15l-.85,5,10.9-6.55,0,0v0l.25-.15L297,42.7V55.2l-1.65,1V56.1l0,.05L273.1,69.4l-.35,5v.05h0L295.25,61l1.7.9V93h2.7V61.9l1.7-.95h.1l22.45,13.5V74.4l-.35-4.95-23.9-14.3V42.6l1.75-1h.05l10.9,6.55-.85-5-10-6.05v.05l-.05-.05L299.65,36V22.55l1.45-1,17.1,10.25.95,4.8,4.75-1.35-.05-4.45-.45-.3.1-3.65-.95,1.25-1,1.3L304,18.95l-4.3-2.6v-15l1.5-1.3a7,7,0,0,1-5.55,0m-48.25,65.8-.85,5,15.3-9.2h.05L266.2,63l1-4.55,12.15-7.35,5.05-3L279.3,46.7,247.35,65.85M226.7,82.8l.05.1.4.65-.4-.8,4.3,1.35.9-4.5.05,0v0l14.5-8.7-5.05-1.5L227.5,77.75l-.55,2.4-2.25-.7L210.3,88.1l-.85,4.9h.25l17-10.2m-44.55,2.4-.75,4.9-4.9-1.5L169.2,93h7.5l21.15-12.75.2.35-.15-.3,4.75,1.3.75-4.65L234.85,58h.05l4.8,1.35.75-4.65,0,0,11-6.65L257,44.8,252,43.25,219,63.1l-.75,4.9-4.9-1.5Z"/><path class="cls-2" d="M364.35,93H387L370,82.8,364.35,93m55.85-4.4h-.05L427.5,93h28.3L427.6,76.05,420.2,88.6M390.75,54l-7.4,12.55,31.2,18.75V85.2L422,72.7,390.75,54M398.8,80.3l-.2.3-.25.55-6.05,10.5h-.05L394.5,93H420L398.8,80.3m-34.15-.7L350.2,70.9l-15.35-9.2-6,10.9L358.7,90.5l5.95-10.9m.35-4.3L370,74v.5l0,3.85,16.45,9.85V88.1l6.9-11.15L361.8,58l-6.55,11.4L365,75.3M370.65,52a2.27,2.27,0,0,0-1.4.45,1.33,1.33,0,0,0-.55,1,2,2,0,0,0,0,.45,26.84,26.84,0,0,1-2.8-.8q-2.25-.8-3-1-1-.24-4.65-.7L377.7,63.1l7.4-12.55-8.6-5.15a24.34,24.34,0,0,1,0,2.5,7.36,7.36,0,0,1-1.5,4.6,4.21,4.21,0,0,1-2.55,1.6,1,1,0,0,0,.2-.6,1.3,1.3,0,0,0-.6-1,2.06,2.06,0,0,0-1.35-.45m2.7-.7a.45.45,0,0,0-.8,0,1.28,1.28,0,0,0,0,1.2.45.45,0,0,0,.8,0,1.28,1.28,0,0,0,0-1.2m-1.1-2a.73.73,0,0,0,0,1,.61.61,0,0,0,.9,0,.73.73,0,0,0,0-1,.61.61,0,0,0-.9,0m.55-1.7a1.55,1.55,0,0,0-.15-.7q-.15-.3-.35-.3T372,47a1.71,1.71,0,0,0,0,1.4q.15.3.35.3t.35-.3a1.55,1.55,0,0,0,.15-.7M301.4,61h-.05l-1.7.95V93h55.2L323.9,74.45,301.45,61h-.05m28.15-8q-1,.1-1.45.1l21.25,12.8,6.9-11.15L345.4,48.2A7,7,0,0,1,346.9,51a6.13,6.13,0,0,1-.2,4,2.7,2.7,0,0,1-1,1.4,4.29,4.29,0,0,1-1.75.25q-2.9-.15-4.15-.35a12,12,0,0,1-3.95-1.15q-1.45-.85-2.2-1.25a7.33,7.33,0,0,0-2.3-.9,5.37,5.37,0,0,0-1.8,0m3.85-1.35a1.71,1.71,0,0,0,.7.35v.15a1.08,1.08,0,0,0,.3.8.87.87,0,0,0,1.4,0,.86.86,0,0,0,.15-.2,1.1,1.1,0,0,0,.8-.4,1.46,1.46,0,0,0,0-1.9,1.66,1.66,0,0,0-.35-.3,1.32,1.32,0,0,0-.45-.6,1.8,1.8,0,0,0-1.25-.45,2,2,0,0,0-1.3.45,1.35,1.35,0,0,0,0,2.1M320.55,54a3.72,3.72,0,0,1-1.35,1.15,9.23,9.23,0,0,1-3.5.85,18.22,18.22,0,0,1-3.05-.1v-.1a1.89,1.89,0,0,0-1-1.6,4.76,4.76,0,0,0-4.8,0,3,3,0,0,0-.5.4,6.78,6.78,0,0,1-2.25-1.1A7.44,7.44,0,0,1,302.6,52q-1-1.25-1.5-1.7-.95-.73-1.45-1.2v6.1l23.9,14.3,6-11-8.65-5.2a2.65,2.65,0,0,1-.35.7m-6.75.3a.29.29,0,0,0-.1-.2.36.36,0,0,0-.5,0,.25.25,0,0,0,0,.4.36.36,0,0,0,.5,0,.29.29,0,0,0,.1-.2m-1.65-1.55a.29.29,0,0,0-.2.1.36.36,0,0,0,0,.5.25.25,0,0,0,.4,0,.36.36,0,0,0,0-.5.29.29,0,0,0-.2-.1M272.8,74.45h0L241.85,93H297V61.85l-1.7-.9L272.8,74.45m6.55-22.95-.05-.35L267.15,58.5l5.95,10.9,22.15-13.25,0-.05v.05l1.65-1V53a36.23,36.23,0,0,1-5.5,2.5,18.35,18.35,0,0,1-4.1.9,9.07,9.07,0,0,1-2.55-.25,2,2,0,0,0-.55-1.4A1.62,1.62,0,0,0,283,54.2a1.78,1.78,0,0,0-1.25.5,10.48,10.48,0,0,1-1.15-1,3.76,3.76,0,0,1-1.25-2.15m14.6.65a.54.54,0,0,0,.3.1.34.34,0,0,0,.25-.1.28.28,0,0,0,0-.5.34.34,0,0,0-.25-.1.54.54,0,0,0-.3.1.36.36,0,0,0,0,.5m-1-1.5a.44.44,0,0,0-.2,0,.29.29,0,0,0-.1.2.16.16,0,0,0,.1.15.25.25,0,0,0,.4,0,.16.16,0,0,0,.1-.15.29.29,0,0,0-.1-.2.44.44,0,0,0-.2,0m-1.5-1.25a.73.73,0,0,0-.15.45.54.54,0,0,0,.15.4.5.5,0,0,0,.8,0,.54.54,0,0,0,.15-.4.73.73,0,0,0-.15-.45.61.61,0,0,0-.8,0m-3.35,4.15a.54.54,0,0,0-.1-.3.36.36,0,0,0-.5,0,.54.54,0,0,0-.1.3.34.34,0,0,0,.1.25.28.28,0,0,0,.5,0,.34.34,0,0,0,.1-.25M287,52.1a.73.73,0,0,0-.15-.45.29.29,0,0,0-.25-.15.43.43,0,0,0-.3.15,1,1,0,0,0-.1.45.71.71,0,0,0,.1.4.4.4,0,0,0,.3.2q.15,0,.25-.2a.54.54,0,0,0,.15-.4m-2.65,0a.75.75,0,0,0-1.2,0,1.25,1.25,0,0,0,0,1.5.75.75,0,0,0,1.2,0,1.25,1.25,0,0,0,0-1.5M266.65,27.8a1,1,0,0,0-1.05,1,1,1,0,0,0,.25.7l.05,0a1.1,1.1,0,0,0,.2.2l-1.75.9a14,14,0,0,1-2.5,1,8.55,8.55,0,0,1-2.75.15,4.73,4.73,0,0,1-2.5-1q-1.65-1.35-1.85-4.6-.05-.88-.1-1.65l-4.4,2.65,0,0,7.35,12.5,27.85-16.6-.15-1.5q-.84.52-1.5.9a51.08,51.08,0,0,1-8.55,3.55l-.25.05a1.2,1.2,0,0,0,.15-.6,1.8,1.8,0,0,0-.7-1.4,2.9,2.9,0,0,0-3.4,0,1.8,1.8,0,0,0-.7,1.4,1.66,1.66,0,0,0,.7,1.35,2.28,2.28,0,0,0,.65.4,3.23,3.23,0,0,1-.5.2,1.66,1.66,0,0,0-.6-.95,2.19,2.19,0,0,0-1.45-.5,2.39,2.39,0,0,0-1.5.5,1.72,1.72,0,0,0-.6,1.25,1,1,0,0,0-.45-.1M330,31.25a22.1,22.1,0,0,1-5-1.8l-1.15,1.4L339,39.9l7.4-12.55L340,23.5a11.52,11.52,0,0,1,.45,2.15,4,4,0,0,1-.85,2.5,7.72,7.72,0,0,1-3.3,2.5,1.73,1.73,0,0,0-.3-.55,1.23,1.23,0,0,0-1.9,0,1.79,1.79,0,0,0-.4,1.15v.1a11.94,11.94,0,0,1-3.75-.1M294.6,35.7a2.19,2.19,0,0,0-.5,0,1.69,1.69,0,0,0-.85.2.72.72,0,0,0-.3.55v.15l-.35.2L289,39.65a4.84,4.84,0,0,1-3.75,1.75,3.28,3.28,0,0,1-1.15-.2l1.15,2,10.05-6.05v.05l0-.05L297,36v-2.3a4.78,4.78,0,0,1-.75.9,6.82,6.82,0,0,1-1.6,1m5.6-1.45a2.16,2.16,0,0,1-.55-.6V36l1.75,1.15.05.05V37.1l10,6.05,3.35-5.7a13.65,13.65,0,0,1-1.4.45,6.86,6.86,0,0,1-3.5.75l-.5-.1a2.12,2.12,0,0,0,.9-1,6,6,0,0,0,.55-2.7,6.32,6.32,0,0,0-.55-2.75q-.55-1.1-1.35-1.1T307.65,32a6.32,6.32,0,0,0-.55,2.75,6,6,0,0,0,.55,2.7l.2.4h0q-1.8-1.05-2.7-1.55a11.71,11.71,0,0,0-2.8-1.2,7.46,7.46,0,0,1-2.15-.9m-9.7-1.8a2.1,2.1,0,0,0-.2-1q-.15-.35-.4-.35t-.45.35a2.71,2.71,0,0,0-.15,1,2.3,2.3,0,0,0,.15.9q.2.4.45.4t.4-.4a1.8,1.8,0,0,0,.2-.9m1.15,1.15A1.37,1.37,0,0,0,290.2,35a1.36,1.36,0,0,0,.4,1,1.44,1.44,0,0,0,1.05.45A1.55,1.55,0,0,0,293.1,35a1.44,1.44,0,0,0-.45-1,1.36,1.36,0,0,0-1-.4m18.7-11.85a.91.91,0,0,0,.2-.2,1.22,1.22,0,0,0,.35-.9,1.4,1.4,0,0,0-.35-1,1,1,0,0,0-.8-.35,1.16,1.16,0,0,0-.85.35,1.54,1.54,0,0,0-.3,1v.3q-2.26-1-4.65-2l17.6,10.5,1-1.3q-1-.53-2.2-1.25-4.74-2.7-10-5.15m5.45,1.2a.29.29,0,0,0-.1-.2.2.2,0,0,0-.15-.05.2.2,0,0,0-.25.25.2.2,0,0,0,.05.15.29.29,0,0,0,.2.1.46.46,0,0,0,.25-.25m-.95-.95a.54.54,0,0,0-.15-.4.48.48,0,0,0-.7,0,.61.61,0,0,0,0,.8.48.48,0,0,0,.7,0,.54.54,0,0,0,.15-.4m-1.5-1.85a.61.61,0,0,0-.8,0,.73.73,0,0,0-.15.45.54.54,0,0,0,.15.4.5.5,0,0,0,.8,0,.54.54,0,0,0,.15-.4.73.73,0,0,0-.15-.45m-.95-1.6a.57.57,0,0,0-1,0,1.51,1.51,0,0,0,0,1.5.57.57,0,0,0,1,0,1.51,1.51,0,0,0,0-1.5m-45.35,6.4a.81.81,0,0,0-.15-.5.32.32,0,0,0-.3-.2.43.43,0,0,0-.35.2,1.3,1.3,0,0,0,0,1,.43.43,0,0,0,.35.2.32.32,0,0,0,.3-.2.81.81,0,0,0,.15-.5m2.55-3a.71.71,0,0,0-.4-.1,1,1,0,0,0-.45.1.43.43,0,0,0-.15.3.29.29,0,0,0,.15.25.73.73,0,0,0,.45.15.54.54,0,0,0,.4-.15q.2-.1.2-.25a.4.4,0,0,0-.2-.3m20.85-7.5a1.24,1.24,0,0,0-.4-.9,1.16,1.16,0,0,0-.85-.35A1.2,1.2,0,0,0,288,14.4a1.16,1.16,0,0,0,.35.85,1.24,1.24,0,0,0,.9.4,1.09,1.09,0,0,0,.85-.4,1.09,1.09,0,0,0,.4-.85m2,2.85a.18.18,0,1,0,0-.15.2.2,0,0,0,0,.15m-1-1.5a.93.93,0,0,0-.6.2.53.53,0,0,0,0,.9,1,1,0,0,0,1.2,0,.54.54,0,0,0,.2-.3.46.46,0,0,0,.2,0,.76.76,0,0,0,.6-.3,1.25,1.25,0,0,0,0-1.5.75.75,0,0,0-1.2,0,1.13,1.13,0,0,0-.25.75v.2h-.15m44.65,12.8a.48.48,0,1,0,.15.35.48.48,0,0,0-.15-.35m.15.35h.1a1.11,1.11,0,0,0,.35,0,.7.7,0,0,0,.3,0h.15l-.15-.05h-.65l-.1.05m1.9,0a.14.14,0,0,0-.05-.1h-.3a.14.14,0,0,0-.05.1,0,0,0,0,0,.05,0,.25.25,0,0,0,.3,0,0,0,0,0,0,.05,0m-2.1-3.2a1.61,1.61,0,0,0,.1.6.42.42,0,0,0,.35.25q.2,0,.3-.25a1.27,1.27,0,0,0,0-1.2q-.1-.25-.3-.25a.42.42,0,0,0-.35.25,1.61,1.61,0,0,0-.1.6M246.5,70.9,232,79.6l6,10.9,29.85-17.9L261.8,61.7l-15.3,9.2m-19.75,12-.05-.1L209.7,93h22.65l-5.6-10.1M234.9,58h-.05L203.4,76.95l6.9,11.15h0l14.4-8.65-1.5-6.7,4.3,5,13.95-8.35L234.9,58m14.7-5q-.85-.2-1-.75a1.53,1.53,0,0,1,.5-1.1q.78-1.09,2.35-3.1l-11,6.65,0,0,6.9,11.1L279.3,46.7l-1.85-3.2a61.58,61.58,0,0,0-10,7q-1.7,1.35-1.85,1.45a9.33,9.33,0,0,1-2,1.2,7,7,0,0,1-1.3.45,1.22,1.22,0,0,0,.05-.35,1.32,1.32,0,0,0-.2-.75.57.57,0,0,0-1,0,1.32,1.32,0,0,0-.2.75,1.35,1.35,0,0,0-1.7,0,1.07,1.07,0,0,0-.35.75q-1,.09-1.85.1a.91.91,0,0,0,.35-.35,1.82,1.82,0,0,0,0-2,.71.71,0,0,0-.6-.4.83.83,0,0,0-.65.4,2.13,2.13,0,0,0,0,2,1,1,0,0,0,.4.35h-.8a.93.93,0,0,0-.2-.6.72.72,0,0,0-1,0,.9.9,0,0,0-.2.5,16.1,16.1,0,0,1-4.75-1m8.7-.45a.62.62,0,0,0-.45.2.86.86,0,0,0-.2.55.68.68,0,0,0,.2.5.53.53,0,0,0,.9,0,.68.68,0,0,0,.2-.5.86.86,0,0,0-.2-.55.62.62,0,0,0-.45-.2M266.35,50a.61.61,0,0,0,0-.8.29.29,0,0,0-.25-.15.43.43,0,0,0-.3.15.85.85,0,0,0,0,.8.43.43,0,0,0,.3.15.29.29,0,0,0,.25-.15m-1.65,1q-.1-.25-.3-.25a.42.42,0,0,0-.35.25,2,2,0,0,0-.1.65,1.61,1.61,0,0,0,.1.6q.15.3.35.3t.3-.3a1.15,1.15,0,0,0,.15-.6,1.43,1.43,0,0,0-.15-.65m-1.95.15a2.48,2.48,0,0,0,0,1.7q.15.35.35.35t.35-.35a2.48,2.48,0,0,0,0-1.7q-.15-.35-.35-.35t-.35.35m2.45-2.6a.62.62,0,0,0-.1-.35q-.1-.15-.2-.15t-.2.15a.66.66,0,0,0,0,.7q.1.15.2.15t.2-.15a.62.62,0,0,0,.1-.35m-17.95-3.85Q241,47.75,240.6,48q-3.55,2.2-5.4,3.2a19.7,19.7,0,0,1-3.35,1.55.42.42,0,0,0,0-.15,3.11,3.11,0,0,0,0-.6,4,4,0,0,0,0-.65q0-.25-.1-.25s-.07.08-.1.25a4,4,0,0,0,0,.65,3.11,3.11,0,0,0,0,.6.92.92,0,0,0,.05.2,10.35,10.35,0,0,1-1.65.45H230a.34.34,0,0,0-.25.1l-.25.05a2.9,2.9,0,0,1-2-.5,1.24,1.24,0,0,1-.15-.25V52.6a.42.42,0,0,0,.2-.35.55.55,0,0,0-.1-.3V51.8a3.64,3.64,0,0,0-.2-1.25q-.15-.5-.4-.5t-.4.35a2.17,2.17,0,0,0-.2-.3,9.23,9.23,0,0,1-.75-1.1,2.85,2.85,0,0,1-.2-.6.59.59,0,0,0,.45.25q.35,0,.6-.5a2.55,2.55,0,0,0,0-2.4.76.76,0,0,0-.6-.5q.32-.6.75-1.25,1.5-2.05,1.55-2.1a7.32,7.32,0,0,0,.9-1.75L219,46.1l1.3,4.05,5.85,3.7-1,2.05L225,55l-5.75-2.2-.85-1.65-1.9-3.55-4.9,3L219,63.1l33-19.85-.6-1a30.66,30.66,0,0,1-4.15,2.45M198.05,80.6l-.2-.35L176.7,93h25.5l2.2-1.35h0l-6-10.55-.2-.4-.1-.1m-15.9,4.6h0l31.2-18.7L206,54l-31.2,18.7,7.4,12.55m-5.65,3.4h0l-7.4-12.55L140.9,93h28.3l7.3-4.4M227.3,48a1.15,1.15,0,0,0-.15-.6q-.1-.25-.25-.25t-.3.25a1.85,1.85,0,0,0,0,1.2q.15.25.3.25t.25-.25a1.15,1.15,0,0,0,.15-.6M229,49.55a1,1,0,0,0-.3-.7.88.88,0,0,0-.65-.25.87.87,0,0,0-1,1,.88.88,0,0,0,.25.65,1,1,0,0,0,.7.3,1,1,0,0,0,.95-1m3.3.7a.51.51,0,1,0,.35.15.48.48,0,0,0-.35-.15m-1.2-.75a.14.14,0,0,0,0-.1v-.05l-.05.05s0,.07,0,.1,0,.07,0,.1l.05.05V49.6A.14.14,0,0,0,231.05,49.5Z"/><path class="cls-3" d="M414.55,85.2v.05l.75,4.85,7.95-12.85L422,72.7l-7.4,12.5M386.4,88.1v.05l.8,4.85,0,.1.05-.1,6.75-11.4-.75-4.65L386.4,88.1m0-32.95-1.3-4.6L377.7,63.1l.75,4.9,7.95-12.85M365.65,84.1l-.95-4.45-.05,0L358.7,90.5l.15,2.5h1.6l5.2-8.9M370,74l-5,1.35.05.05-.35,4.3,5.3-5.2V74M357,59.4l-.75-4.65-6.9,11.15.85,5L357,59.4M330.5,63l-.95-4.55-6,11,.35,4.95L330.5,63M267.15,58.5l-1,4.55,6.55,11.35.35-5-5.95-10.9M278.5,31.85l-1,4.8,6.8,11.5.85-5-1.15-2-5.55-9.35m-20.85,8-7.35-12.5L249,32,257,44.8l.7-5m26.2-28.35.65,4.2,1,1.15v6.4l1.4-6.65-2-2.15-1.1-2.95m40,19.35.05,4.45H324l15.8,9.5,8-12.85-1.3-4.6L339,39.9l-15.15-9.05m-5.65,1-3.35,5.6-3.35,5.7.85,5,6.8-11.5-.95-4.8m5.1-5.75.2.8-.1,3.65.45.3,1.15-1.4,1.45-1.75-1.35-5.85,1.5-2.4-3.2-5.95-.8,3.45L324,19.5l-.65,6.6M232,79.6v0l-.05,0-.9,4.5L236.2,93h1.6l.2-2.5-6-10.9m-4.5-1.85-4.3-5,3.75,7.4.55-2.4M219,63.1l-7.4-12.55-1.3,4.6,8,12.85.75-4.9m-.6-11.95.85,1.65L225,55l.15.9,1-2.05-5.85-3.7L219,46.1l-.6,5.05m22,3.6-.75,4.65,6.8,11.5.85-5-6.9-11.1m-37,22.2-.75,4.65L209.4,93l0,.1V93l.85-4.9h0l-6.9-11.15m-28.65-4.3-1.3,4.6,8,12.85.75-4.9h0Z"/><path class="cls-4" d="M427.55,76.05l-4.3,1.2L415.3,90.1l4.85-1.5h.05l7.4-12.55h0m-29,4.55.2-.3-4.75,1.3L387.3,93l-.05.1.35-.1,4.65-1.35h.05l6.05-10.5.25-.55M390.75,54l-4.35,1.2L378.45,68l4.9-1.5L390.75,54M370,82.8l-4.3,1.3-5.2,8.9h3.9L370,82.8m-5.25-3.15L370,78.3l0-3.85-5.3,5.2M361.8,58,357,59.4l-6.8,11.5,5-1.45L361.8,58m-9.75-27.3L347.7,32l-8,12.85,4.9-1.5,7.4-12.55M323.9,74.45l4.95-1.85,6-10.9L330.5,63,323.9,74.4v.05M266.2,63l-4.35-1.35h-.05l6.05,10.9,4.9,1.85V74.4L266.2,63m11.35-26.4-4.8-1.35h0l4.7,8.2,1.85,3.2,5.05,1.45-6.8-11.5m7-21-.65-4.2-.5,3.25,1.65,3.1.35,3.9.15,1.5v-6.4l-1-1.15M324,35.3h-.05l-4.75,1.35-6.8,11.5,5.05-1.45L324,35.3M224.7,79.45l2.25.7-3.75-7.4,1.5,6.7m2.45,4.1-.4-.65,5.6,10.1h3.85l-5.15-8.9-4.3-1.35.4.8M213.35,66.5l4.9,1.5-8-12.85L206,54l7.4,12.55m26.35-7.1L234.9,58l6.55,11.35,5.05,1.5-6.8-11.5M198.05,80.6l.1.1.2.4,6,10.55h0L209.1,93l.35.1,0-.1-6.75-11.4-4.75-1.3.15.3m-24.6-3.35-4.35-1.2h0l7.4,12.55h0l4.9,1.5-8-12.85M249,32l-4.35-1.2L251.4,42.2l.6,1L257,44.8Z"/><path class="cls-5" d="M369.25,52.45a2.27,2.27,0,0,1,1.4-.45,2.06,2.06,0,0,1,1.35.45,1.3,1.3,0,0,1,.6,1,1,1,0,0,1-.2.6A4.21,4.21,0,0,0,375,52.5a7.36,7.36,0,0,0,1.5-4.6,24.34,24.34,0,0,0,0-2.5L352.05,30.75l-7.4,12.55,13.65,8.15q3.61.46,4.65.7.75.2,3,1a26.84,26.84,0,0,0,2.8.8,2,2,0,0,1,0-.45,1.33,1.33,0,0,1,.55-1m3.4-5.5a1.71,1.71,0,0,1,0,1.4q-.15.3-.35.3t-.35-.3a1.71,1.71,0,0,1,0-1.4q.15-.3.35-.3t.35.3m-.6,2.9a.68.68,0,0,1,.2-.5.61.61,0,0,1,.9,0,.73.73,0,0,1,0,1,.61.61,0,0,1-.9,0,.68.68,0,0,1-.2-.5M373,51a.45.45,0,0,1,.4.25,1.28,1.28,0,0,1,0,1.2.45.45,0,0,1-.8,0,1.28,1.28,0,0,1,0-1.2A.45.45,0,0,1,373,51m-44.85,2q.49,0,1.45-.1a5.37,5.37,0,0,1,1.8,0,7.33,7.33,0,0,1,2.3.9q.75.4,2.2,1.25a12,12,0,0,0,3.95,1.15q1.25.2,4.15.35a4.29,4.29,0,0,0,1.75-.25,2.7,2.7,0,0,0,1-1.4,6.13,6.13,0,0,0,.2-4,7,7,0,0,0-1.5-2.85l-5.65-3.4L324,35.3,317.4,46.7l10.7,6.4m6-1.1a1.71,1.71,0,0,1-.7-.35,1.35,1.35,0,0,1,0-2.1,2,2,0,0,1,1.3-.45,1.8,1.8,0,0,1,1.25.45,1.32,1.32,0,0,1,.45.6,1.66,1.66,0,0,1,.35.3,1.46,1.46,0,0,1,0,1.9,1.1,1.1,0,0,1-.8.4.86.86,0,0,1-.15.2.87.87,0,0,1-1.4,0,1.08,1.08,0,0,1-.3-.8V52m-14.9,3.15A3.72,3.72,0,0,0,320.55,54a2.65,2.65,0,0,0,.35-.7l-8.55-5.15-10.9-6.55h-.05l-1.75,1V49q.5.47,1.45,1.2.45.45,1.5,1.7a7.44,7.44,0,0,0,1.5,1.55,6.78,6.78,0,0,0,2.25,1.1,3,3,0,0,1,.5-.4,4.76,4.76,0,0,1,4.8,0,1.89,1.89,0,0,1,1,1.6v.1a18.22,18.22,0,0,0,3.05.1,9.23,9.23,0,0,0,3.5-.85M312,52.85a.25.25,0,0,1,.4,0,.36.36,0,0,1,0,.5.25.25,0,0,1-.4,0,.36.36,0,0,1,0-.5m1.75,1.25a.25.25,0,0,1,0,.4.36.36,0,0,1-.5,0,.25.25,0,0,1,0-.4.36.36,0,0,1,.5,0m-34.4-2.95.05.35a3.76,3.76,0,0,0,1.25,2.15,10.48,10.48,0,0,0,1.15,1,1.78,1.78,0,0,1,1.25-.5,1.62,1.62,0,0,1,1.25.55,2,2,0,0,1,.55,1.4,9.07,9.07,0,0,0,2.55.25,18.35,18.35,0,0,0,4.1-.9A36.23,36.23,0,0,0,297,53V42.7l-1.4-1.25-.25.15v0l0,0-10.9,6.55-5.05,3m4.4.65a.76.76,0,0,1,.6.3,1.25,1.25,0,0,1,0,1.5.75.75,0,0,1-1.2,0,1.25,1.25,0,0,1,0-1.5.76.76,0,0,1,.6-.3m3.1-.15a.73.73,0,0,1,.15.45.54.54,0,0,1-.15.4q-.1.2-.25.2a.4.4,0,0,1-.3-.2.71.71,0,0,1-.1-.4,1,1,0,0,1,.1-.45.43.43,0,0,1,.3-.15.29.29,0,0,1,.25.15m1.2,1.6a.54.54,0,0,1,.1.3.34.34,0,0,1-.1.25.28.28,0,0,1-.5,0,.34.34,0,0,1-.1-.25.54.54,0,0,1,.1-.3.36.36,0,0,1,.5,0m3.3-3.4a.73.73,0,0,1,.15-.45.61.61,0,0,1,.8,0,.73.73,0,0,1,.15.45.54.54,0,0,1-.15.4.5.5,0,0,1-.8,0,.54.54,0,0,1-.15-.4m1.45.85a.43.43,0,0,1,.4,0,.29.29,0,0,1,.1.2.16.16,0,0,1-.1.15.25.25,0,0,1-.4,0,.16.16,0,0,1-.1-.15.29.29,0,0,1,.1-.2m1.5,1.55a.54.54,0,0,1-.3-.1.36.36,0,0,1,0-.5.54.54,0,0,1,.3-.1.34.34,0,0,1,.25.1.28.28,0,0,1,0,.5.34.34,0,0,1-.25.1m5.4-18.6a2.16,2.16,0,0,0,.55.6,7.46,7.46,0,0,0,2.15.9,11.71,11.71,0,0,1,2.8,1.2q.9.5,2.7,1.55h0l-.2-.4a6,6,0,0,1-.55-2.7,6.32,6.32,0,0,1,.55-2.75q.55-1.1,1.35-1.1t1.35,1.1a6.32,6.32,0,0,1,.55,2.75,6,6,0,0,1-.55,2.7,2.12,2.12,0,0,1-.9,1l.5.1a6.86,6.86,0,0,0,3.5-.75,13.65,13.65,0,0,0,1.4-.45l3.35-5.6L301.1,21.6l-1.45,1v11.1m-4.45-11.8v0l-16.7,10,5.55,9.35a3.28,3.28,0,0,0,1.15.2A4.84,4.84,0,0,0,289,39.65l3.65-2.9.35-.2V36.4a.72.72,0,0,1,.3-.55,1.69,1.69,0,0,1,.85-.2,2.19,2.19,0,0,1,.5,0,6.82,6.82,0,0,0,1.6-1,4.78,4.78,0,0,0,.75-.9V22.25l-.85-.95-.85.55h0v1.1l-.05-1.1M290.6,34a1.53,1.53,0,0,1,1.05-.4,1.36,1.36,0,0,1,1,.4,1.44,1.44,0,0,1,.45,1,1.55,1.55,0,0,1-1.45,1.45A1.44,1.44,0,0,1,290.6,36a1.36,1.36,0,0,1-.4-1,1.53,1.53,0,0,1,.4-1m-.3-2.5a2.1,2.1,0,0,1,.2,1,1.8,1.8,0,0,1-.2.9q-.15.4-.4.4t-.45-.4a2.3,2.3,0,0,1-.15-.9,2.71,2.71,0,0,1,.15-1q.2-.35.45-.35t.4.35M301.15.05l-1.5,1.3v15l4.3,2.6q2.39,1,4.65,2v-.3a1.54,1.54,0,0,1,.3-1,1.16,1.16,0,0,1,.85-.35,1,1,0,0,1,.8.35,1.4,1.4,0,0,1,.35,1,1.22,1.22,0,0,1-.35.9.91.91,0,0,1-.2.2q5.26,2.45,10,5.15,1.23.72,2.2,1.25l.95-1.25-.2-.8-.95-4.55L324,19.5l-1.35-2.55-3-5.75L301.15.05m10.75,18.2a.59.59,0,0,1,.5.3,1.51,1.51,0,0,1,0,1.5.57.57,0,0,1-1,0,1.51,1.51,0,0,1,0-1.5.59.59,0,0,1,.5-.3M313,20a.54.54,0,0,1,.4.15.73.73,0,0,1,.15.45.54.54,0,0,1-.15.4.5.5,0,0,1-.8,0,.54.54,0,0,1-.15-.4.73.73,0,0,1,.15-.45A.54.54,0,0,1,313,20m1.75,1.6a.61.61,0,0,1,0,.8.48.48,0,0,1-.7,0,.61.61,0,0,1,0-.8.48.48,0,0,1,.7,0m1,1.15a.29.29,0,0,1,.1.2.46.46,0,0,1-.25.25.29.29,0,0,1-.2-.1.2.2,0,0,1-.05-.15.2.2,0,0,1,.25-.25.2.2,0,0,1,.15.05M297,1,295.6.05,295.55,0l-40.9,24.65q0,.77.1,1.65.2,3.25,1.85,4.6a4.73,4.73,0,0,0,2.5,1,8.55,8.55,0,0,0,2.75-.15,14,14,0,0,0,2.5-1l1.75-.9a1.1,1.1,0,0,1-.2-.2l-.05,0a1,1,0,0,1-.25-.7,1,1,0,0,1,1.05-1,1,1,0,0,1,.45.1,1.72,1.72,0,0,1,.6-1.25,2.39,2.39,0,0,1,1.5-.5,2.19,2.19,0,0,1,1.45.5,1.66,1.66,0,0,1,.6.95,3.23,3.23,0,0,0,.5-.2,2.28,2.28,0,0,1-.65-.4,1.66,1.66,0,0,1-.7-1.35,1.8,1.8,0,0,1,.7-1.4,2.9,2.9,0,0,1,3.4,0,1.8,1.8,0,0,1,.7,1.4,1.2,1.2,0,0,1-.15.6l.25-.05a51.08,51.08,0,0,0,8.55-3.55q.66-.38,1.5-.9l-.35-3.9-1.65-3.1.5-3.25,1.1,2.95,2,2.15-1.4,6.65L297,16.4V1m-6.1,14.95a.93.93,0,0,1,.6-.2h.15v-.2a1.13,1.13,0,0,1,.25-.75.75.75,0,0,1,1.2,0,1.25,1.25,0,0,1,0,1.5.76.76,0,0,1-.6.3.46.46,0,0,1-.2,0,.54.54,0,0,1-.2.3,1,1,0,0,1-1.2,0,.53.53,0,0,1,0-.9m1.6,1.45a.25.25,0,1,1,.15,0,.2.2,0,0,1-.15,0m-2.4-3.9a1.24,1.24,0,0,1,.4.9,1.09,1.09,0,0,1-.4.85,1.09,1.09,0,0,1-.85.4,1.24,1.24,0,0,1-.9-.4,1.16,1.16,0,0,1-.35-.85,1.2,1.2,0,0,1,1.25-1.25,1.16,1.16,0,0,1,.85.35M269.2,21.8a.71.71,0,0,1,.4.1.4.4,0,0,1,.2.3q0,.15-.2.25a.54.54,0,0,1-.4.15.73.73,0,0,1-.45-.15.29.29,0,0,1-.15-.25.43.43,0,0,1,.15-.3,1,1,0,0,1,.45-.1m-2.3,2.65a.91.91,0,0,1,0,1,.32.32,0,0,1-.3.2.43.43,0,0,1-.35-.2,1.3,1.3,0,0,1,0-1,.43.43,0,0,1,.35-.2.32.32,0,0,1,.3.2m56.5-11v.05l3.2,5.95-1.5,2.4,1.35,5.85L325,29.45a22.1,22.1,0,0,0,5,1.8,11.94,11.94,0,0,0,3.75.1v-.1a1.79,1.79,0,0,1,.4-1.15,1.23,1.23,0,0,1,1.9,0,1.73,1.73,0,0,1,.3.55,7.72,7.72,0,0,0,3.3-2.5,4,4,0,0,0,.85-2.5A11.52,11.52,0,0,0,340,23.5L323.4,13.45m12.75,12.9a1.85,1.85,0,0,1,0-1.2.42.42,0,0,1,.35-.25q.2,0,.3.25a1.27,1.27,0,0,1,0,1.2q-.1.25-.3.25a.42.42,0,0,1-.35-.25m1.95,2.5a.14.14,0,0,1,.05.1,0,0,0,0,1-.05,0,.25.25,0,0,1-.3,0,0,0,0,0,1-.05,0,.14.14,0,0,1,.05-.1h.3m-1.75.05h-.1a.51.51,0,1,1-.15-.35.48.48,0,0,1,.15.35l.1-.05H337l.15.05H337a.7.7,0,0,1-.3,0,1.11,1.11,0,0,1-.35,0M248.6,52.25q.15.55,1,.75a16.1,16.1,0,0,0,4.75,1,.9.9,0,0,1,.2-.5.72.72,0,0,1,1,0,.93.93,0,0,1,.2.6h.8a1,1,0,0,1-.4-.35,2.13,2.13,0,0,1,0-2,.83.83,0,0,1,.65-.4.71.71,0,0,1,.6.4,1.82,1.82,0,0,1,0,2,.91.91,0,0,1-.35.35q.89,0,1.85-.1a1.07,1.07,0,0,1,.35-.75,1.35,1.35,0,0,1,1.7,0,1.32,1.32,0,0,1,.2-.75.57.57,0,0,1,1,0,1.32,1.32,0,0,1,.2.75,1.22,1.22,0,0,1-.05.35,7,7,0,0,0,1.3-.45,9.33,9.33,0,0,0,2-1.2q.15-.1,1.85-1.45a61.58,61.58,0,0,1,10-7l-4.7-8.2L257,44.8,251.45,48q-1.57,2-2.35,3.1a1.53,1.53,0,0,0-.5,1.1m16.5-4.1a.66.66,0,0,1,0,.7q-.1.15-.2.15t-.2-.15a.66.66,0,0,1,0-.7q.1-.15.2-.15t.2.15M262.6,52a2.15,2.15,0,0,1,.15-.85q.15-.35.35-.35t.35.35a2.48,2.48,0,0,1,0,1.7q-.15.35-.35.35t-.35-.35a2.15,2.15,0,0,1-.15-.85m1.8-1.25q.2,0,.3.25a1.43,1.43,0,0,1,.15.65,1.15,1.15,0,0,1-.15.6q-.1.3-.3.3t-.35-.3a1.61,1.61,0,0,1-.1-.6,2,2,0,0,1,.1-.65.42.42,0,0,1,.35-.25m2.1-1.1a.54.54,0,0,1-.15.4.29.29,0,0,1-.25.15.43.43,0,0,1-.3-.15.85.85,0,0,1,0-.8.43.43,0,0,1,.3-.15.29.29,0,0,1,.25.15.54.54,0,0,1,.15.4m-8.65,3.15a.61.61,0,0,1,.9,0,.86.86,0,0,1,.2.55.68.68,0,0,1-.2.5.53.53,0,0,1-.9,0,.68.68,0,0,1-.2-.5.86.86,0,0,1,.2-.55m-13.2-22-.05,0-15.7,9.45a7.32,7.32,0,0,1-.9,1.75s-.55.73-1.55,2.1q-.43.65-.75,1.25a.76.76,0,0,1,.6.5,2.55,2.55,0,0,1,0,2.4q-.25.5-.6.5a.59.59,0,0,1-.45-.25,2.85,2.85,0,0,0,.2.6,9.23,9.23,0,0,0,.75,1.1,2.17,2.17,0,0,1,.2.3q.19-.35.4-.35t.4.5a3.64,3.64,0,0,1,.2,1.25V52a.55.55,0,0,1,.1.3.42.42,0,0,1-.2.35v.05a1.24,1.24,0,0,0,.15.25,2.9,2.9,0,0,0,2,.5l.25-.05a.34.34,0,0,1,.25-.1h.15a10.35,10.35,0,0,0,1.65-.45.92.92,0,0,1-.05-.2,3.11,3.11,0,0,1,0-.6,4,4,0,0,1,0-.65q0-.25.1-.25s.07.08.1.25a4,4,0,0,1,0,.65,3.11,3.11,0,0,1,0,.6.42.42,0,0,1,0,.15,19.7,19.7,0,0,0,3.35-1.55q1.85-1,5.4-3.2.4-.25,6.65-3.35a30.66,30.66,0,0,0,4.15-2.45l-6.75-11.45M231,49.4a.12.12,0,0,1,0,.2v.05L231,49.6s0-.07,0-.1,0-.07,0-.1l.05-.05v.05m.9,1a.48.48,0,1,1-.15.35.48.48,0,0,1,.15-.35m-3.25-1.55a1,1,0,0,1,.3.7,1,1,0,0,1-.95,1,1,1,0,0,1-.7-.3.88.88,0,0,1-.25-.65.87.87,0,0,1,1-1,.88.88,0,0,1,.65.25m-1.5-1.45a1.27,1.27,0,0,1,0,1.2q-.1.25-.25.25t-.3-.25a1.85,1.85,0,0,1,0-1.2q.15-.25.3-.25T227.15,47.4Z"/><path class="cls-6" d="M295.25,21.85h-.05l.05,1.1Z"/></g><g id="menutitle_0_Layer4_0_FILL" data-name="menutitle 0 Layer4 0 FILL"><path class="cls-4" d="M55.25,139.6l-6.65-16-6.65-16h-5.2l15.65,36.8,2.85-4.75m448.35-9.8-3.25,9.8,1.8,2.35,1.45-12.15M560,107.55h-5.2l-6.65,16-6.65,16,2.85,4.75L560,107.55M72,77.2l1.7-4.9,1.75-7.95L66.25,72.3l5.65,5h0Z"/><path class="cls-7" d="M142.4,144.35,148,139.6H55.25l-2.85,4.75h90m401.9,0-2.85-4.75H503.6l3.4,4.75h37.3m-40.35,0-1.8-2.4-1.8-2.35H148l-1.05,4.75Z"/><path class="cls-2" d="M147.2,156.3l-1.85-4.55q-45.5-.45-91.05-1.2a10.88,10.88,0,0,1-4.2-.9,2.25,2.25,0,0,0,.55-.35,2.56,2.56,0,0,0,1-2,2.7,2.7,0,0,0-1-2.1,4.1,4.1,0,0,0-5,0l-.4.35a.37.37,0,0,0-.05-.1L44,143.35a2,2,0,0,0,0-2.1.74.74,0,0,0-.65-.45.9.9,0,0,0-.7.4l-.8-1.35a5.13,5.13,0,0,0,0-5,1.68,1.68,0,0,0-3.1,0L22,107.55l21.7,48.75H147.2M555,137.45q-.3-1.2-.7-1.2t-.7,1.2a12.76,12.76,0,0,0-.3,3,16.14,16.14,0,0,0,.1,1.9l-1,1.6a15.2,15.2,0,0,1-1.45,2.3,1.4,1.4,0,0,0-.75-.2,1.58,1.58,0,0,0-1.15.5,2,2,0,0,0-.45,1.3,2.22,2.22,0,0,0,.1.7,8.92,8.92,0,0,1-5.75,1.9q-196.43,3.37-393.4,1.4l.65,1.75,1,2.75H553.05l21.7-48.75L555.2,139.3a10.05,10.05,0,0,0-.25-1.85M55.45,101.1a2.45,2.45,0,0,0-.6-1.65,1.85,1.85,0,0,0-2.9,0,2.57,2.57,0,0,0,0,3.3,1.85,1.85,0,0,0,2.9,0,2.45,2.45,0,0,0,.6-1.65M533.25,88a1.82,1.82,0,0,0-2,0,1,1,0,0,0-.4.8.91.91,0,0,0,.4.75,1.6,1.6,0,0,0,2,0,.91.91,0,0,0,.4-.75,1,1,0,0,0-.4-.8m-472.2.6a1.56,1.56,0,0,0,1,1.3,5.08,5.08,0,0,0,4.6,0,1.56,1.56,0,0,0,.95-1.3,1.15,1.15,0,0,0-.2-.65v-.2A1.74,1.74,0,0,0,67,86.6a1,1,0,0,0-1.7,0,.91.91,0,0,1-.15.15,6.59,6.59,0,0,0-.85,0,4.52,4.52,0,0,0-2.3.55,1.56,1.56,0,0,0-1,1.3m-32.3,23.1a1.08,1.08,0,0,0,.3-.8,1.26,1.26,0,0,0-.3-.85,1.09,1.09,0,0,0-1.5,0,1.26,1.26,0,0,0-.3.85,1.08,1.08,0,0,0,.3.8,1,1,0,0,0,1.5,0m527.5,20.55a.66.66,0,0,0-.7,0,.48.48,0,0,0-.15.35.34.34,0,0,0,.15.3.48.48,0,0,0,.7,0,.34.34,0,0,0,.15-.3.48.48,0,0,0-.15-.35m5.3-9.6a1.62,1.62,0,0,0-.3-1,.9.9,0,0,0-1.5,0,1.82,1.82,0,0,0,0,2,.9.9,0,0,0,1.5,0,1.62,1.62,0,0,0,.3-1m-3.7,4.5a.41.41,0,0,0-.7,0,1.15,1.15,0,0,0-.15.6.9.9,0,0,0,.15.55.37.37,0,0,0,.7,0,.9.9,0,0,0,.15-.55,1.15,1.15,0,0,0-.15-.6M54.8,77.2l.45.95-.45-.9L42,107.55l6.65,16q-.18-19.29,4.15-28.65a5.44,5.44,0,0,0,2.1.4,5,5,0,0,0,3.25-1.1,3.14,3.14,0,0,0,1.35-2.55A3.27,3.27,0,0,0,58.1,89a7.4,7.4,0,0,0-.65-.45,11.89,11.89,0,0,1,7.1-2.45l7.35-.2h.15q220.45-5.85,441.85,0a3.22,3.22,0,0,0-.15,1,2.93,2.93,0,0,0,.9,2.15,3.16,3.16,0,0,0,2.25.9,3,3,0,0,0,2.2-.9,2.86,2.86,0,0,0,1-2.15,2.4,2.4,0,0,0-.15-.85l4.7.1a1.3,1.3,0,0,0,.5.1,1.54,1.54,0,0,0,.4,0h.4l-.4,0h.5q.5,0,1.2,0a8.91,8.91,0,0,0,1,0l4.45.15a18.69,18.69,0,0,1,2.6.25.81.81,0,0,0,.6.3.47.47,0,0,0,.35-.15l.75.2-.15,0q-.55.2-.55.5t.55.5a4.61,4.61,0,0,0,1.45.2,4.15,4.15,0,0,0,1.4-.2.09.09,0,0,0,.05,0,13.47,13.47,0,0,1,2.55,1.7h0a1.26,1.26,0,0,0-.3.85,1.08,1.08,0,0,0,.3.8,1.16,1.16,0,0,0,.85.35,1,1,0,0,0,.8-.35v0q7.41,8.61,4.2,32.2l6.65-16L541.9,77.25l-.45.9.45-.95-243.55.95L71.9,77.25h0Z"/><path class="cls-3" d="M149.55,151.8l-2.65-7.45L148,139.6l-5.55,4.75,3,7.4,1.85,4.55,3-2.75-.65-1.75m354-12.2v-9.8L502.15,142l1.8,2.4L502.9,149l4.1-4.7-3.4-4.75m40.7-67.3-2.4,5,12.85,30.3H560L544.3,72.3m-470.65,0L72,77.2l5-4.9-1.5-7.95L73.65,72.3m-18.85,5-2.4-5L36.75,107.55H42Z"/><path class="cls-8" d="M76.9,72.3l-5,4.9,0,.05,226.45.9L541.9,77.2v.05l2.4-5H76.9m-24.5,0,2.4,5V77.2l17.1.05-5.65-5Z"/><path class="cls-5" d="M64.55,86.15a11.89,11.89,0,0,0-7.1,2.45,7.4,7.4,0,0,1,.65.45,3.27,3.27,0,0,1,1.35,2.6A3.14,3.14,0,0,1,58.1,94.2a5,5,0,0,1-3.25,1.1,5.44,5.44,0,0,1-2.1-.4q-4.33,9.36-4.15,28.65l6.65,16h445.1l3.25-9.8v9.8h37.85l6.65-16q3.21-23.59-4.2-32.2v0a1,1,0,0,1-.8.35,1.16,1.16,0,0,1-.85-.35,1.08,1.08,0,0,1-.3-.8,1.26,1.26,0,0,1,.3-.85h0A13.47,13.47,0,0,0,539.7,88a.09.09,0,0,1-.05,0,4.15,4.15,0,0,1-1.4.2,4.61,4.61,0,0,1-1.45-.2q-.55-.2-.55-.5t.55-.5l.15,0-.75-.2a.47.47,0,0,1-.35.15.81.81,0,0,1-.6-.3,18.69,18.69,0,0,0-2.6-.25l-4.45-.15a8.91,8.91,0,0,1-1,0q-.7,0-1.2,0h-.5l.4,0h-.4a1.54,1.54,0,0,1-.4,0,1.3,1.3,0,0,1-.5-.1l-4.7-.1a2.4,2.4,0,0,1,.15.85,2.86,2.86,0,0,1-1,2.15,3,3,0,0,1-2.2.9,3.16,3.16,0,0,1-2.25-.9,2.93,2.93,0,0,1-.9-2.15,3.22,3.22,0,0,1,.15-1q-221.4-5.85-441.85,0H71.9l-7.35.2M62,89.85a1.36,1.36,0,0,1,0-2.6,4.52,4.52,0,0,1,2.3-.55,6.59,6.59,0,0,1,.85,0,.91.91,0,0,0,.15-.15,1,1,0,0,1,1.7,0,1.74,1.74,0,0,1,.35,1.1v.2a1.15,1.15,0,0,1,.2.65,1.56,1.56,0,0,1-.95,1.3,5.08,5.08,0,0,1-4.6,0m470.25-2.2a1.62,1.62,0,0,1,1,.3,1,1,0,0,1,.4.8.91.91,0,0,1-.4.75,1.6,1.6,0,0,1-2,0,.91.91,0,0,1-.4-.75,1,1,0,0,1,.4-.8,1.62,1.62,0,0,1,1-.3M54.85,99.45a2.57,2.57,0,0,1,0,3.3,1.85,1.85,0,0,1-2.9,0,2.57,2.57,0,0,1,0-3.3,1.85,1.85,0,0,1,2.9,0M52.4,72.3H66.25l9.15-7.95,1.5,7.95H544.3L560,107.55l-15.65,36.8H507l-4.1,4.7,1.05-4.7H146.9l2.65,7.45q197,2,393.4-1.4a8.92,8.92,0,0,0,5.75-1.9,2.22,2.22,0,0,1-.1-.7,2,2,0,0,1,.45-1.3,1.58,1.58,0,0,1,1.15-.5,1.4,1.4,0,0,1,.75.2,15.2,15.2,0,0,0,1.45-2.3l1-1.6a16.14,16.14,0,0,1-.1-1.9,12.76,12.76,0,0,1,.3-3q.3-1.2.7-1.2t.7,1.2a10.05,10.05,0,0,1,.25,1.85l19.55-31.75.05-.15-21.55-48H43.45l-21.55,48,.05.15L38.7,134.8a1.68,1.68,0,0,1,3.1,0,5.13,5.13,0,0,1,0,5l.8,1.35a.9.9,0,0,1,.7-.4.74.74,0,0,1,.65.45,2,2,0,0,1,0,2.1l1.25,2.05a.37.37,0,0,1,.05.1l.4-.35a4.1,4.1,0,0,1,5,0,2.7,2.7,0,0,1,1,2.1,2.56,2.56,0,0,1-1,2,2.25,2.25,0,0,1-.55.35,10.88,10.88,0,0,0,4.2.9q45.55.75,91.05,1.2l-3-7.4h-90l-15.65-36.8L52.4,72.3m505.1,54.6a.43.43,0,0,1,.35.2,1.15,1.15,0,0,1,.15.6.9.9,0,0,1-.15.55.37.37,0,0,1-.7,0,.9.9,0,0,1-.15-.55,1.15,1.15,0,0,1,.15-.6.43.43,0,0,1,.35-.2m3.75-5.3a1.82,1.82,0,0,1,0,2,.9.9,0,0,1-1.5,0,1.82,1.82,0,0,1,0-2,.9.9,0,0,1,1.5,0m-5.35,10.5a.62.62,0,0,1,.35.1.48.48,0,0,1,.15.35.34.34,0,0,1-.15.3.48.48,0,0,1-.7,0,.34.34,0,0,1-.15-.3.48.48,0,0,1,.15-.35.62.62,0,0,1,.35-.1M29.05,110.85a1.08,1.08,0,0,1-.3.8,1,1,0,0,1-1.5,0,1.08,1.08,0,0,1-.3-.8,1.26,1.26,0,0,1,.3-.85,1.09,1.09,0,0,1,1.5,0A1.26,1.26,0,0,1,29.05,110.85Z"/></g><g id="menutitle_0_Layer2_0_FILL" data-name="menutitle 0 Layer2 0 FILL"><path class="cls-9" d="M84.9,151.75h-.05l-2.7.6v4l8-2.9Z"/><path class="cls-10" d="M41.25,177.25l.3.55q1.65,3.25,4.1.65,14.59-17.34,27.15-18.9-1.26-.13-2.75-.15-13.23-.15-28.8,17.85m-24.75-70h5.4L32.15,89.15,25.7,91l-9.2,16.3M76.15,66q-3.27.39-6.4.5a73.47,73.47,0,0,0,11.8-.5q9-1.92,12.05-6A7.42,7.42,0,0,0,95,57.15a8,8,0,0,0,.2-2.25q-2.69,5.41-5.4.5a6.78,6.78,0,0,1-.25,1.85A7.09,7.09,0,0,1,88.2,60q-3,4-12,6M42.8,60.85,27.35,88.15l4.8,1,16-28.3H42.8M560.3,142.5l-3,.15,14.95.85,3-.4-4.25-.2-10.65-.4m-33.75,17.2a23.19,23.19,0,0,0-2.75.15q12.55,1.55,27.15,18.9,2.45,2.6,4.1-.65l.3-.5q-15.55-18-28.8-17.9M553.8,61.15h-5.4l26.3,46.45h5.4L553.8,61.15M507,53.8q-3.22,5.62-5.5.65-1,8.69,13.6,11.8a71.25,71.25,0,0,0,11.75.5q-3.1-.1-6.35-.5Q505.3,63,507,53.8Z"/><path class="cls-11" d="M32.05,151.8l-1.9-.6-.95,1.55-.6,2.4,1.95-2.65,2.05.55.3-.2,2.2-1.3.7-2.25,2.45-.4-2.5-.5-1.3,2.25Z"/><path class="cls-12" d="M30.15,151.2l1.9.6,2.4-1.15,1.3-2.25-.7-.15-.95,1.9-1.65.7L31,150.5l-1.75-.35-1.9,2.95v.05l1.85-.4.95-1.55M21.9,107.3H16.5l26.3,46.45h5.4L21.9,107.3m72.55,56a9.45,9.45,0,0,0,.25-6.75q-.42,4.94-5.7-.7,1.6,3.18,0,7.45-2.32,6.46-6,8.15a3.22,3.22,0,0,0,.8.45q7.05,1.45,10.65-8.6m413.1.3a10.45,10.45,0,0,1-.65-5.3q-2.88,6.07-5.45.3a10.74,10.74,0,0,0,.7,5q3.6,10,10.65,8.6a4.44,4.44,0,0,0,.8-.4q-3.75-1.75-6-8.2m72.55-56h-5.4L548.4,154h5.4l4.9-8.65-1.4-2.75,3-.15,19.8-34.9m2.2-10.65.3-5.5-5.15-5.3Z"/><path class="cls-13" d="M28.55,145.8a1.61,1.61,0,0,0-.6-.1,2,2,0,0,0-.65.1l-.1,0-.5-.6h0a1.46,1.46,0,0,0,0-1.9A.91.91,0,0,0,26,143a1,1,0,0,0-.8.4Q15,130.27,6,116l21.4,37,1.9-2.95,1.75.35q-1.62-1.93-3.25-3.9H28a1.15,1.15,0,0,0,.6-.15q.3-.1.3-.3t-.3-.35m60.5,17.5q1.55-4.27,0-7.45a5.27,5.27,0,0,0-.55-.9l-3.9.85a10.57,10.57,0,0,1-2.3.8,15.63,15.63,0,0,1-5.15.4l-5.25-.5a53,53,0,0,0-9.8-.5,2.7,2.7,0,0,0-.35-1.2.9.9,0,0,0-.8-.55,1,1,0,0,0-.85.55,3.09,3.09,0,0,0-.3,1.4,19.7,19.7,0,0,0-9.9,3.9L47,162.45a4.56,4.56,0,0,1-3.25.9,4.64,4.64,0,0,1-2.15-1q-.35-.25-1.75-1.6L38.2,158.9a2,2,0,0,0,.3-.25,1.42,1.42,0,0,0,.55-1.15,1.57,1.57,0,0,0-.55-1.2,1.73,1.73,0,0,0-1.2-.45,1.92,1.92,0,0,0-1.25.45.17.17,0,0,1-.1,0l-3.05-3.5-.3.2-2.05-.55-1.95,2.65-.05,0,12.7,22.05q15.57-18,28.8-17.85,1.49,0,2.75.15a19.81,19.81,0,0,1,2.65-.15q13.2.15,7.2,9.5-1,1.63.35,2.55,3.73-1.69,6-8.15m-39.4-5.15a.56.56,0,0,0-.3-.45,1.15,1.15,0,0,0-.6-.15,1.43,1.43,0,0,0-.65.15.57.57,0,0,0-.25.45.45.45,0,0,0,.25.4,1.15,1.15,0,0,0,.65.2.93.93,0,0,0,.6-.2.45.45,0,0,0,.3-.4m7.2-1.6a.29.29,0,0,0-.1-.2.2.2,0,0,0-.15,0,.2.2,0,0,0-.25.25.2.2,0,0,0,.05.15.29.29,0,0,0,.2.1.46.46,0,0,0,.25-.25m-.8-1.8a.82.82,0,0,0-.6-.25.86.86,0,0,0-.9.9.82.82,0,0,0,.25.6.91.91,0,0,0,.65.3,1.06,1.06,0,0,0,.9-.9.91.91,0,0,0-.3-.65m-8.7,1.95a.43.43,0,0,0-.2-.35.71.71,0,0,0-.4-.1,1,1,0,0,0-.45.1.48.48,0,0,0-.15.35.34.34,0,0,0,.15.3.73.73,0,0,0,.45.15.54.54,0,0,0,.4-.15.32.32,0,0,0,.2-.3M30,147.25a.29.29,0,0,0-.1-.2.65.65,0,0,0-.5,0,.29.29,0,0,0-.1.2.16.16,0,0,0,.1.15.36.36,0,0,0,.5,0,.16.16,0,0,0,.1-.15M518.55,158a5.9,5.9,0,0,1-5.1-1.25,5.61,5.61,0,0,1-1.45-4.9q-4.46,2.55-5.1,6.45a10.45,10.45,0,0,0,.65,5.3q2.3,6.45,6,8.2,1.3-1,.35-2.6-6-9.35,7.2-9.5a24,24,0,0,1,2.65.15,23.19,23.19,0,0,1,2.75-.15q13.25-.15,28.8,17.9l18.3-31.8-4.5-.15a76.74,76.74,0,0,1-10.55,13.2,18.13,18.13,0,0,1-2.85,2.25,3,3,0,0,0-.35-.45,2,2,0,0,0-1.5-.65,2.12,2.12,0,0,0-1.55.65,2.45,2.45,0,0,0-.6,1.65v.4a.3.3,0,0,1-.15.05,8.62,8.62,0,0,1-3-.35,1.08,1.08,0,0,0,.35-.4,3.19,3.19,0,0,0,0-2.7q-.3-.55-.7-.55t-.7.55a3.19,3.19,0,0,0,0,2.7v.05q-.67-.28-1.4-.65-3.5-2.1-5.25-3.05a21.18,21.18,0,0,0-6.7-2.35.4.4,0,0,0,.1-.1,1.26,1.26,0,0,0,.3-.85,1.46,1.46,0,0,0-.3-.9.87.87,0,0,0-1.4,0,1.46,1.46,0,0,0-.3.9,1.3,1.3,0,0,0,.25.8,21.88,21.88,0,0,0-8.45.65,43.06,43.06,0,0,1-5.8,1.5m76.75-51q-7.89,7.78-17.65,24.85Q574.14,138,571,142.9l4.25.2,20.45-35.5-.35-.6m-22.05,31.55a.86.86,0,0,0-.35-.65,1.57,1.57,0,0,0-1.7,0,.86.86,0,0,0-.35.65.73.73,0,0,0,.35.6,1.35,1.35,0,0,0,1.7,0A.73.73,0,0,0,573.25,138.55Z"/><path class="cls-14" d="M88.45,154.95l1.75-1.55-8,2.9,2.4-.5Z"/><path class="cls-15" d="M94.7,156.55q-1.26-3.37-5.85-5.55a32.6,32.6,0,0,0-7.3-2.35,73.49,73.49,0,0,0-11.8-.5q3.13.11,6.4.5a28.86,28.86,0,0,1,8.7,3.1h.05l5.3,1.65-1.75,1.55a5.27,5.27,0,0,1,.55.9q5.28,5.64,5.7.7M83.8,42.7a4.9,4.9,0,0,0-.8.4q3.22,1.5,5.35,6.5.38.81.7,1.7a11.29,11.29,0,0,1,.75,4.1q2.71,4.91,5.4-.5a11.79,11.79,0,0,0-.75-3.6,17.31,17.31,0,0,0-3.95-6.75,7.15,7.15,0,0,0-6.7-1.85M45.65,36.15q-2.45-2.6-4.1.65l-.3.5q15.57,18,28.8,17.9,1.49,0,2.75-.15Q60.24,53.5,45.65,36.15M526.8,148.45a71.25,71.25,0,0,0-11.75.5q-1.33.28-2.55.6-10.27,2.84-11,9,2.57,5.77,5.45-.3.64-3.9,5.1-6.45a31.05,31.05,0,0,1,8.45-2.9q3.25-.4,6.35-.5M568.25,60,562.7,54.3l1.2,6,4.35-.2m-66.8-5.6q2.28,5,5.5-.65a13.21,13.21,0,0,1,.6-2.2q2.3-6.45,6-8.15a3,3,0,0,0-.8-.45q-7.05-1.45-10.65,8.6a12.79,12.79,0,0,0-.7,2.85M577.75,94l4.55,3-4.85-10.8.3,7.8M555.05,37.1q-1.65-3.25-4.1-.65-14.6,17.35-27.15,18.9a23.19,23.19,0,0,0,2.75.15q13.25.15,28.8-17.85Z"/><path class="cls-1" d="M14.6,83.65l-.05-.05L1,107.3,6,116q9,14.22,19.25,27.3a1,1,0,0,1,.8-.4.91.91,0,0,1,.75.4,1.46,1.46,0,0,1,0,1.9h0l.5.6.1,0a2,2,0,0,1,.65-.1,1.61,1.61,0,0,1,.6.1q.3.15.3.35t-.3.3a1.15,1.15,0,0,1-.6.15h-.2q1.63,2,3.25,3.9l1.45.35,1.65-.7.95-1.9.7.15,2.5.5-2.45.4-.7,2.25-2.2,1.3,3.05,3.5a.17.17,0,0,0,.1,0,1.92,1.92,0,0,1,1.25-.45,1.73,1.73,0,0,1,1.2.45,1.57,1.57,0,0,1,.55,1.2,1.42,1.42,0,0,1-.55,1.15,2,2,0,0,1-.3.25l1.65,1.85q1.4,1.35,1.75,1.6a4.64,4.64,0,0,0,2.15,1,4.56,4.56,0,0,0,3.25-.9l2.85-2.35a19.7,19.7,0,0,1,9.9-3.9,3.09,3.09,0,0,1,.3-1.4,1,1,0,0,1,.85-.55.9.9,0,0,1,.8.55,2.7,2.7,0,0,1,.35,1.2,53,53,0,0,1,9.8.5l5.25.5a15.63,15.63,0,0,0,5.15-.4,10.57,10.57,0,0,0,2.3-.8l-2.4.5v-4l2.7-.6a28.86,28.86,0,0,0-8.7-3.1q-3.27-.39-6.4-.5a48.4,48.4,0,0,0-21.55,5.6H42.8L16.5,107.3,25.7,91,14.6,83.65M29.9,147a.29.29,0,0,1,.1.2.16.16,0,0,1-.1.15.36.36,0,0,1-.5,0,.16.16,0,0,1-.1-.15.29.29,0,0,1,.1-.2.65.65,0,0,1,.5,0m17.25,9.3a.43.43,0,0,1,.2.35.32.32,0,0,1-.2.3.54.54,0,0,1-.4.15.73.73,0,0,1-.45-.15.34.34,0,0,1-.15-.3.48.48,0,0,1,.15-.35,1,1,0,0,1,.45-.1.71.71,0,0,1,.4.1m8.3-1.85a.82.82,0,0,1,.6.25.91.91,0,0,1,.3.65,1.06,1.06,0,0,1-.9.9.91.91,0,0,1-.65-.3.82.82,0,0,1-.25-.6.86.86,0,0,1,.9-.9m1.3,1.85a.29.29,0,0,1,.1.2.46.46,0,0,1-.25.25.29.29,0,0,1-.2-.1.2.2,0,0,1-.05-.15.2.2,0,0,1,.25-.25.2.2,0,0,1,.15,0m-7.4,1.35a.56.56,0,0,1,.3.45.45.45,0,0,1-.3.4.93.93,0,0,1-.6.2,1.15,1.15,0,0,1-.65-.2.45.45,0,0,1-.25-.4.57.57,0,0,1,.25-.45,1.43,1.43,0,0,1,.65-.15,1.15,1.15,0,0,1,.6.15m-22-69.55L42.8,60.85h5.4a48.41,48.41,0,0,0,21.55,5.6q3.13-.11,6.4-.5,9-1.92,12-6a7.09,7.09,0,0,0,1.35-2.75,6.78,6.78,0,0,0,.25-1.85,11.29,11.29,0,0,0-.75-4.1q-.32-.89-.7-1.7-2.13-5-5.35-6.5a1.76,1.76,0,0,0-.35,2.6q6,9.35-7.2,9.5A19.83,19.83,0,0,1,72.8,55q-1.26.13-2.75.15-13.23.15-28.8-17.9L16,81.2l2.75,1.7,8.65,5.25m486.1,68.6a5.9,5.9,0,0,0,5.1,1.25,43.06,43.06,0,0,0,5.8-1.5,21.88,21.88,0,0,1,8.45-.65,1.3,1.3,0,0,1-.25-.8,1.46,1.46,0,0,1,.3-.9.87.87,0,0,1,1.4,0,1.46,1.46,0,0,1,.3.9,1.26,1.26,0,0,1-.3.85.4.4,0,0,1-.1.1,21.18,21.18,0,0,1,6.7,2.35q1.75,1,5.25,3.05.73.37,1.4.65V162a3.19,3.19,0,0,1,0-2.7q.3-.55.7-.55t.7.55a3.19,3.19,0,0,1,0,2.7,1.08,1.08,0,0,1-.35.4,8.62,8.62,0,0,0,3,.35.3.3,0,0,0,.15-.05v-.4a2.45,2.45,0,0,1,.6-1.65,2.12,2.12,0,0,1,1.55-.65,2,2,0,0,1,1.5.65,3,3,0,0,1,.35.45,18.13,18.13,0,0,0,2.85-2.25,76.74,76.74,0,0,0,10.55-13.2l-10.45-.25L553.8,154h-5.4a48.64,48.64,0,0,0-21.6-5.6q-3.1.1-6.35.5a31.05,31.05,0,0,0-8.45,2.9,5.61,5.61,0,0,0,1.45,4.9M523.8,55.35a24,24,0,0,1-2.65.15Q508,55.35,514,46q.95-1.65-.35-2.55-3.75,1.7-6,8.15a13.21,13.21,0,0,0-.6,2.2Q505.3,63,520.45,66.25q3.25.4,6.35.5a48.64,48.64,0,0,0,21.6-5.6h5.4l26.3,46.45-19.8,34.9,10.65.4q3.19-4.9,6.7-11.05,9.76-17.07,17.65-24.85L568.25,60l-4.35.2-1.2-6-1.2-6-6.15-10.7q-15.55,18-28.8,17.85a23.19,23.19,0,0,1-2.75-.15m58.5,41.6-4.55-3-.3-7.8,5.15,5.3-.3,5.5m-9.4,41a.86.86,0,0,1,.35.65.73.73,0,0,1-.35.6,1.35,1.35,0,0,1-1.7,0,.73.73,0,0,1-.35-.6.86.86,0,0,1,.35-.65,1.57,1.57,0,0,1,1.7,0Z"/><path class="cls-16" d="M27.35,88.15,18.7,82.9l-4.1.75L25.7,91l6.45-1.85-4.8-1m546.3,57.65-1.4-2.3-14.95-.85,1.4,2.75,10.45.25Z"/></g><g id="menutitle_0_Layer0_0_FILL" data-name="menutitle 0 Layer0 0 FILL"><path class="cls-17" d="M18.2,82.4q-.36.64-1,1.5a181.16,181.16,0,0,0-10.5,18.45,14.22,14.22,0,0,0-1.9,4.9s-.07.57-.2,1.6a3.14,3.14,0,0,1-.55,1.5,1.82,1.82,0,0,1-1.35.95,1,1,0,0,1-1.25-.55,5.53,5.53,0,0,0,1.65-3.3,28.57,28.57,0,0,1,.7-3.85q.08-.27.15-.55-1.85,3.05-4,6.2L.45,112q1.35,2,.45,2.7a3.27,3.27,0,0,0,.6,3.4A18.89,18.89,0,0,0,3,126.6q-.43-3.11-.5-4.8a18.91,18.91,0,0,1,.8-6.95,60.66,60.66,0,0,1,2.5,8.75,43.47,43.47,0,0,0,1.7,11.15,35.38,35.38,0,0,1,.45-4.45q1.2-7.6-.3-10.7a19,19,0,0,1,2.9,9.4q1.3-3.55-.6-9.4a72.65,72.65,0,0,1-2.8-9.75,20.07,20.07,0,0,1,1.5-9.1,70.28,70.28,0,0,1,4.25-8.5q.65,8.4,1,15.35,2.35-2.9,2.3-8.5A60.87,60.87,0,0,1,16,89.75a24.09,24.09,0,0,1,2.2-7.35M21,73.65a1.06,1.06,0,0,1,.1.6,1.55,1.55,0,0,1-.4.95,4.75,4.75,0,0,0-.7.95,2.87,2.87,0,0,0-.3,1.2q-.1,1.2-.1,1.3a5.68,5.68,0,0,1-.5,2.05q1.14-2,3.5-5.95,3.12-5.44,2.5-8.85-.55.29-1.25.6-2.28,3.12-4.2,6.3a78.14,78.14,0,0,0-3.9,7.2Q13.5,84.4,9.5,93.25q-1.21,2.43-2.6,4.9l.6-.8A96.27,96.27,0,0,0,15,84.55q3.58-7,6-10.9M197.85,157.6q4.15-.35,4.45-.35a11.91,11.91,0,0,1,4.3.5s.82.32,2.35.95a6.77,6.77,0,0,0,2.4.55,15.54,15.54,0,0,0,2.25-.35,5.75,5.75,0,0,1,2.25-.05,7.63,7.63,0,0,1,2.15.85,9.15,9.15,0,0,0,2.1.9,4.81,4.81,0,0,0,2.8-.4h0s.92-.45,2.65-1.35a24.31,24.31,0,0,1,16.5-2.35,1.76,1.76,0,0,0-.75-1.5,3.51,3.51,0,0,0-1.65-.65l-1.85-.2a4,4,0,0,1-1.65-.55,4.41,4.41,0,0,1-1-1.2,7.41,7.41,0,0,0-1.05-1.3,4.81,4.81,0,0,0-2.5-.8,21.91,21.91,0,0,1-2.75-.2,17.59,17.59,0,0,1-3.75-.9,18.2,18.2,0,0,0-3.75-.85h0a12.45,12.45,0,0,0-5.1,1q-3.35,1.4-5.05,2a25,25,0,0,1-9,1.5,78.78,78.78,0,0,1-7.95-.6,64.41,64.41,0,0,0-7.9-.55,1.55,1.55,0,0,1-1,1.6,5.15,5.15,0,0,1-2.2.65,3.67,3.67,0,0,0-2,.9,1.51,1.51,0,0,0-.4,1.95,56.06,56.06,0,0,0,17.05.9M186.7,156q3.9-2.2,11.4-1.8,9.15.5,12-.1l2.65-.65a23.21,23.21,0,0,1,2.7-.6,26.81,26.81,0,0,1,4.75,0l1.75.2a29.15,29.15,0,0,1,3.7.65,10,10,0,0,1,4.1,2.2,24.85,24.85,0,0,1-7.2,1.55q-.56,0-1.1.05L186.7,156M552.4,34.25a4.92,4.92,0,0,0-2.8,4.1,4.23,4.23,0,0,0,1.75,3.9q-.9,1.75-1.25,2.65a9.44,9.44,0,0,1,4,9q-.65,4.6,1.5,4.5a25.61,25.61,0,0,0-1.75-15.75q3.5,0,4.6,6.6l3,20q3.55-.5,2.85-7.55a23.47,23.47,0,0,1,4.55,4.2,74.36,74.36,0,0,1,7.5,10.75q.25.4,5,9.4a66.07,66.07,0,0,0,5.55,9,1.7,1.7,0,0,0,.8.65q.55.2.8-.15a224.92,224.92,0,0,0-9.1-20.6q-3.15-6.25-4.25-8.1-1.53-2.72-3-4.9a35.24,35.24,0,0,0-3.5-4.5Q567,56,566.2,55.1a10.75,10.75,0,0,1-2-2.7,14.14,14.14,0,0,1-1-3.85q-.45-3.5-.6-4a13.16,13.16,0,0,0-5.15-7.75,14.48,14.48,0,0,0-5.05-2.5m-.65,3a2,2,0,0,1,.6-1.35,42.42,42.42,0,0,1,5.1,4.35,14.56,14.56,0,0,1,3.75,6.35,28.75,28.75,0,0,1,.6,3.5,14.57,14.57,0,0,0,.9,3.5,11.87,11.87,0,0,0,1.8,2.7q.2.3,2.2,2.4a55.7,55.7,0,0,1,4,5,76.58,76.58,0,0,1,4.85,7.8q2.75,5.1,6.65,14.1A157.44,157.44,0,0,0,571.7,67.9q-1-1.58-2-2.95a33.2,33.2,0,0,0-4.5-5.05q-1.1-.95-1.65-1.4a12.09,12.09,0,0,1-1.45-1.6,11.11,11.11,0,0,1-1.4-3.9q-.35-2-1.1-6.1a8.6,8.6,0,0,0-3-4.9,14.63,14.63,0,0,1-4.15-2.5,2.76,2.76,0,0,1-.7-2.2M367.3,59a.44.44,0,0,0-.2,0,1.09,1.09,0,0,1-.6,0,1.11,1.11,0,0,0-.35-.05q-.8,0-1.6.05a.82.82,0,0,0-.25,0l-.35.1a.91.91,0,0,0-.4.3s-.07,0-.1.1,0,.13,0,.2a2.46,2.46,0,0,0,0,.7s0,.07,0,.1a.54.54,0,0,0,.1.2,1.26,1.26,0,0,0,.3.15l.1.1a7.9,7.9,0,0,0,1.15,1.4q.3.25.55.5l.45.35q0,.1.1.1a1.26,1.26,0,0,0,.3.15,1.06,1.06,0,0,1,.5.35,2.58,2.58,0,0,0,.55.5,5.56,5.56,0,0,0,1.85,1.1l.55.25.6.2.7.2a2.32,2.32,0,0,0,.45.05,10.34,10.34,0,0,1,1.25.25.82.82,0,0,0,.25,0,1.11,1.11,0,0,0,.35-.15,8.33,8.33,0,0,1,.8-.35.14.14,0,0,0,.1,0,.82.82,0,0,1,.25-.05q.45-.1.6.1l.2.1a6,6,0,0,1,2.05,1,2.69,2.69,0,0,1,.65.55.58.58,0,0,1,.1.15,1.49,1.49,0,0,0,.15.2.32.32,0,0,1,.2.4v.1a1.62,1.62,0,0,1-.05.9l-.1.5a.44.44,0,0,1,0,.2.63.63,0,0,1-.15.25.44.44,0,0,0-.05.2,2.55,2.55,0,0,0,.15.9.48.48,0,0,0,.2.25.58.58,0,0,0,.1.15,1.34,1.34,0,0,0,.7.45.63.63,0,0,1,.25.15.06.06,0,0,0,.1,0l.25.15a1.22,1.22,0,0,1,.7.4l.1.1.1.1a.57.57,0,0,1,.2.2.2.2,0,0,1,.05.15,4.37,4.37,0,0,0,.05,1.15.47.47,0,0,0,.25.35.33.33,0,0,1,.15.15.14.14,0,0,0,.1.05.47.47,0,0,1,.35.25.58.58,0,0,0,.15.1,1,1,0,0,1,.6.45.2.2,0,0,1,.05.15q0,.9-.05,1.85,0,.1-.05.1a1.57,1.57,0,0,0-.4.3.82.82,0,0,0-.45.65,3.11,3.11,0,0,0,.3,1.75,4.44,4.44,0,0,1,.35.8l.1.2a.74.74,0,0,1,.2.35q.25-.05.35-.45a2,2,0,0,1,.25-.45.78.78,0,0,1,.15-.2.78.78,0,0,0,.15-.2.32.32,0,0,0,.15-.2,1.67,1.67,0,0,1,1.15-1.05.34.34,0,0,0,.25-.1,2.33,2.33,0,0,0,.6-.4.78.78,0,0,0,.15-.2.32.32,0,0,0,.15-.2.44.44,0,0,1,0-.2.78.78,0,0,0,.15-.2.16.16,0,0,0,.1-.15l.1-.6a.54.54,0,0,0-.15-.4l-.2-.2a.54.54,0,0,1-.1-.2,2.25,2.25,0,0,0-.4-.8,15.83,15.83,0,0,1-1.1-1.85,1,1,0,0,0-.3-.35.69.69,0,0,1-.15-.35.14.14,0,0,0-.05-.1,1.2,1.2,0,0,1-.25-.7,16.75,16.75,0,0,1,.1-1.85.58.58,0,0,0,.1-.15.32.32,0,0,0,.15-.2l.1-.1a1.27,1.27,0,0,0,.3-.6.44.44,0,0,1,.05-.2,4.16,4.16,0,0,1,.35-.95q.1-.15.3-.5a.54.54,0,0,0,.1-.2.44.44,0,0,1,0-.2.82.82,0,0,1,.05-.25.14.14,0,0,0,.05-.1.56.56,0,0,0,.05-.25,8.15,8.15,0,0,0-.05-.9.82.82,0,0,0-.05-.25l-.1-.2q.05-.35.55-.35a.73.73,0,0,0,.45-.15l.1-.1a4.45,4.45,0,0,0,.45-.25.34.34,0,0,1,.25-.1,11.22,11.22,0,0,0,1.6-.4l.35-.1h.1l.5-.1a.14.14,0,0,0,.1,0l.25-.15.9-.3h.1a.83.83,0,0,1,.75.15.78.78,0,0,1,.15.2,4.19,4.19,0,0,1,1,1.05.2.2,0,0,1,.05.15q0,.2.1.35a.82.82,0,0,1,0,.25q0,.9.05,1.85a.44.44,0,0,0,.05.2,4,4,0,0,0,1.85,1.15l.25.1a.44.44,0,0,0,.2,0,1.7,1.7,0,0,1,1.05.55,1.36,1.36,0,0,1,.35.6q.15.55.3,1a1.14,1.14,0,0,0,.25.45,2.09,2.09,0,0,0,.65-1l.1-.3a1.26,1.26,0,0,0,.15-.3.41.41,0,0,0,.1-.3l.2-1.4a2.85,2.85,0,0,0-.2-1.5l-.1-.2a2.45,2.45,0,0,0-.15-.25l-.1-.2a.33.33,0,0,0-.15-.15,1.2,1.2,0,0,1-.35-.55.78.78,0,0,0-.15-.2l-.15-.15a3.26,3.26,0,0,1-.3-.35.91.91,0,0,0-.3-.4.29.29,0,0,1-.05-.2,3.82,3.82,0,0,1,.15-1.1,1.26,1.26,0,0,1,.15-.3.63.63,0,0,0,.15-.3,2.31,2.31,0,0,1,.45-.7.34.34,0,0,1,.25-.1,15.85,15.85,0,0,1,1.75.1s.07,0,.1.1a10.15,10.15,0,0,0,.95.7.33.33,0,0,1,.15.15,2.25,2.25,0,0,0,.75.35.14.14,0,0,0,.1,0,.82.82,0,0,0,.25,0q.25,0,.3.05a.2.2,0,0,0,.15,0q1,.3,2.1.5l.35.1a.94.94,0,0,0,.3,0,2.54,2.54,0,0,0,.5.05q1.5,0,3,.15A2.23,2.23,0,0,0,410,64l.45-.2a5.87,5.87,0,0,0,.7-.25l.45-.1a1.11,1.11,0,0,0,.35-.05,13.19,13.19,0,0,1,1.5-.5.14.14,0,0,0,.1,0,.82.82,0,0,1,.25-.05,12.89,12.89,0,0,1,1.6.1l.35.1a.63.63,0,0,1,.3.15l.1.1a.29.29,0,0,0,.2.1,1.31,1.31,0,0,1,.65.3.34.34,0,0,0,.25.1q.8,0,1.6,0a.56.56,0,0,0,.25-.05l.35-.1a6.37,6.37,0,0,1,1.15-.2,5.25,5.25,0,0,0,.7-.15l.35-.1A1.55,1.55,0,0,0,422,63a.44.44,0,0,1,.2,0,1.2,1.2,0,0,0,.85-.1.44.44,0,0,1,.2-.05l.25-.1a.14.14,0,0,0,0-.1.35.35,0,0,1,.4-.3,1.52,1.52,0,0,0,.55,0,2.54,2.54,0,0,1,.5,0,3.67,3.67,0,0,1,1.7.3,3.55,3.55,0,0,0,.45.15,6.75,6.75,0,0,0,.8.15.82.82,0,0,0,.25,0,2.31,2.31,0,0,1,.65.3,3415.2,3415.2,0,0,0,.4.3.45.45,0,0,1,.3.3l.1.1.2.2a.14.14,0,0,1,0,.1.57.57,0,0,0,.2.2.78.78,0,0,1,.15.2.78.78,0,0,0,.2.15,1.23,1.23,0,0,0,1,.5,68.82,68.82,0,0,1,7,.35,1.24,1.24,0,0,1,.9.5,1.26,1.26,0,0,1,.15.3v.2a1.94,1.94,0,0,0,.1.25V67a.68.68,0,0,1-.25.65.33.33,0,0,0-.15.15,4.51,4.51,0,0,0-.3,1,1.16,1.16,0,0,0,.2,1,2.63,2.63,0,0,1,.25.4,2.44,2.44,0,0,1,.15.25l.4.5a.78.78,0,0,0,.2.15,1.08,1.08,0,0,1,.3.35.2.2,0,0,1,0,.15,13.66,13.66,0,0,0-.25,2,.14.14,0,0,1,0,.1.82.82,0,0,0-.05.25,1.09,1.09,0,0,0,.1.8.45.45,0,0,0,.4.15h.35a9.12,9.12,0,0,0,1.35,0,1.23,1.23,0,0,0,.45-.1.5.5,0,0,0,.25-.4,11.24,11.24,0,0,0,.15-1.85q-.05-.55-.1-1v-.2a2.12,2.12,0,0,0-.2-.6l-.15-.3a1.94,1.94,0,0,1-.1-.25q-.15-.5-.25-1a.56.56,0,0,1,0-.25,5.09,5.09,0,0,1,.1-1,2.44,2.44,0,0,1,.15-.25l.1-.2A9.94,9.94,0,0,1,443,66.4a3.36,3.36,0,0,1,.55-.75.58.58,0,0,1,.15-.1.34.34,0,0,0,.25-.1.14.14,0,0,1,.1-.05q.55,0,1,0a1.11,1.11,0,0,1,.35,0,1.36,1.36,0,0,0,.9-.1.48.48,0,0,0,.25-.2,9.11,9.11,0,0,0,.75-.85l.3-.3.1-.2a.48.48,0,0,1,.45-.3,4.2,4.2,0,0,1,2.35.6l.4.2a4.43,4.43,0,0,0,1.5.25h.15a8.14,8.14,0,0,0,.9,0,.88.88,0,0,0,.3,0,1,1,0,0,0,.35,0,.29.29,0,0,0,.2-.1,1.26,1.26,0,0,1,.3-.15.91.91,0,0,0,.65-.4.89.89,0,0,0,.25-.25,4.23,4.23,0,0,1,.85-.45.44.44,0,0,1,.2-.05,6.42,6.42,0,0,1,1.15.1,1.11,1.11,0,0,1,.35.15,7.16,7.16,0,0,1,1.1.75,2,2,0,0,0,.3.25,6.26,6.26,0,0,1,1.15,1.15.91.91,0,0,0-.55.45q0,.1-.15.15l-.1.1a.78.78,0,0,0-.2.15.44.44,0,0,0,0,.2.65.65,0,0,0,.3.75,1.27,1.27,0,0,1,.3.3,6.83,6.83,0,0,0,1.55,1.55.06.06,0,0,0,.1,0,1.29,1.29,0,0,0,.5-.45,3,3,0,0,0,.75-1.55.56.56,0,0,0,0-.25,1.11,1.11,0,0,0,.05-.35,4.94,4.94,0,0,1,0-.7.72.72,0,0,1,.85.05,4.38,4.38,0,0,0,1,.65,14.45,14.45,0,0,0,3.3,1.4l.6.2a3.55,3.55,0,0,0,.45.15.93.93,0,0,0,1.1-.5,7.19,7.19,0,0,1,1.2-1.7,2.11,2.11,0,0,0,.4-.55,1.26,1.26,0,0,0,.15-.3.54.54,0,0,0,.1-.2,2.07,2.07,0,0,0,0-.8.44.44,0,0,0,0-.2.78.78,0,0,0-.15-.2.32.32,0,0,1-.15-.2l-.2-.4a.54.54,0,0,0-.1-.3.7.7,0,0,1,0-.3,4.16,4.16,0,0,1,.15-1.1.79.79,0,0,1,.2-.3.74.74,0,0,0,.2-.35l.2-.3a.88.88,0,0,1,.35-.35l.2-.1h.1a6.29,6.29,0,0,0,.6-.2,2,2,0,0,1,.65-.1,7.54,7.54,0,0,1,3.1.45l.85.3q.35.15.65.25a4,4,0,0,0,.6.15.87.87,0,0,1,.5.2.44.44,0,0,0,.2.05A3.15,3.15,0,0,0,481.5,61a.74.74,0,0,0,.35-.2,19.51,19.51,0,0,0,1.85-1.15l.7-.55a.33.33,0,0,0-.25-.4q-.95-.3-1.85-.5a.44.44,0,0,0-.2,0,8.67,8.67,0,0,0-2.1.15.14.14,0,0,1-.1,0l-.35.1h-.1a11.69,11.69,0,0,1-2.65.1,3.08,3.08,0,0,1-1-.25,1.11,1.11,0,0,0-.35-.15q-.65-.15-1.25-.25a.49.49,0,0,1-.25-.1l-.35-.15a1.7,1.7,0,0,0-.45-.2l-.35-.15-.35-.2a.49.49,0,0,0-.35-.1,2.1,2.1,0,0,0-1,.15.2.2,0,0,1-.15,0l-.2.1h-.15l-.2.1a1.3,1.3,0,0,0-.35.2l-.25.1-.15,0a16.18,16.18,0,0,1-1.55,1.35l-.15.1a2.35,2.35,0,0,1-1.35.45,1,1,0,0,1-.8-.3.33.33,0,0,0-.15-.15l-.65-.35a1.74,1.74,0,0,1-.65-.55.54.54,0,0,0-.2-.1h-.1a5.52,5.52,0,0,0-1,0,4.06,4.06,0,0,1-.9,0h-.1l-.25-.1h-.1q-.5-.05-1.05-.05a5.34,5.34,0,0,0-1,.1.44.44,0,0,1-.2,0,1.78,1.78,0,0,0-.5.15.44.44,0,0,1-.2.05l-.45.1a2.26,2.26,0,0,1-.95-.1l-.35-.1a.42.42,0,0,0-.5.15.78.78,0,0,1-.15.2,6.09,6.09,0,0,0-.5.45,1.23,1.23,0,0,1-.8.45.5.5,0,0,1-.5-.2.75.75,0,0,0-.3-.25q-.35-.25-.6-.4a.14.14,0,0,1-.1,0,3.25,3.25,0,0,1-.7-.4.78.78,0,0,0-.2-.15l-.25-.1a1.26,1.26,0,0,1-.3-.15.2.2,0,0,0-.15-.05,1,1,0,0,0-.85.2,1.16,1.16,0,0,1-.3.2,1.64,1.64,0,0,1-.25.2,3.53,3.53,0,0,1-1.5.75,1.47,1.47,0,0,1-.35,0,3.1,3.1,0,0,1-1.35-.2q-.7-.25-1.3-.5t-1-.35a6.33,6.33,0,0,0-.85-.25.44.44,0,0,1-.2,0,3.54,3.54,0,0,0-.45-.15,2.45,2.45,0,0,1-.85-.2.44.44,0,0,0-.2,0q-1.3,0-2.65,0h-.25l-2-.1a4.76,4.76,0,0,0-1.25.15l-1.65.4a.44.44,0,0,1-.2,0,6.37,6.37,0,0,1-1.15.2,1.47,1.47,0,0,0-.35,0q-.7.1-1.4.15a.44.44,0,0,1-.2,0,.56.56,0,0,1-.25.05q-1.15,0-2.3-.05a.14.14,0,0,1-.1,0,.56.56,0,0,0-.25-.05q-.4-.1-.55.05a.36.36,0,0,1-.25.15.62.62,0,0,0-.35.1l-.25.1a.14.14,0,0,1-.1,0,.73.73,0,0,1-.45.15,1.78,1.78,0,0,0-.45.15.2.2,0,0,1-.15.05l-.2.1h-.15l-.55.1H425l-1,.1a3.56,3.56,0,0,1-1.7-.4,2.5,2.5,0,0,0-.6-.25.49.49,0,0,1-.25-.1l-.1-.1a2.31,2.31,0,0,1-.7-.45l-.5.3a.2.2,0,0,1-.2.1,3.36,3.36,0,0,1-1,0,1.33,1.33,0,0,1-.6-.15.14.14,0,0,0-.1,0,3.14,3.14,0,0,0-.6-.2.56.56,0,0,0-.4,0l-.95.4-.6.3a1.8,1.8,0,0,1-.8.15,3.45,3.45,0,0,1-1.15-.3l-.25-.1q-1.15-.3-2-.5l-.25-.1a.29.29,0,0,1-.2-.1,1.55,1.55,0,0,0-.7-.15h-.1l-.25-.1a.14.14,0,0,1-.1,0,.56.56,0,0,0-.25,0q-.5,0-1.05,0a.44.44,0,0,1-.2,0l-.25.1a.14.14,0,0,0-.1,0,3.66,3.66,0,0,1-.7.15l-.1.1a1.78,1.78,0,0,1-.5.15.44.44,0,0,0-.2,0l-.25.15a.14.14,0,0,0,0,.1.58.58,0,0,1-.1.15.54.54,0,0,1-.2.1.44.44,0,0,1-.2,0,1.34,1.34,0,0,1-.5.1q-.7.1-1.35.25a1.11,1.11,0,0,1-.35,0q-.9,0-1.75,0a.14.14,0,0,1-.1-.05l-.25-.1a.44.44,0,0,1-.2-.05l-.35-.15a.14.14,0,0,1-.1,0l-.85-.4a1.18,1.18,0,0,0-.45-.15,4.24,4.24,0,0,0-1.6-.1.82.82,0,0,0-.25,0,5.2,5.2,0,0,0-1.15.55,5.27,5.27,0,0,1-.45.3l-.7.25a.44.44,0,0,1-.2,0q-.5,0-1.05,0H394a1.12,1.12,0,0,1-.4-.15.2.2,0,0,0-.2-.1.52.52,0,0,1-.25-.1.2.2,0,0,1-.15-.15.16.16,0,0,0-.15-.1l-.2-.1a.57.57,0,0,1-.2-.2s0-.07-.1-.1a.91.91,0,0,1-.4-.3l-.1-.2a.58.58,0,0,1-.1-.15.78.78,0,0,0-.15-.2.32.32,0,0,1-.15-.2,1.71,1.71,0,0,0-.3-.7.29.29,0,0,1-.05-.2q0-.9-.15-1.75a.29.29,0,0,0-.1-.2,2,2,0,0,0-.8-1,2.08,2.08,0,0,1-.4-.3.75.75,0,0,0-.3-.25,6.26,6.26,0,0,0-1-.4.56.56,0,0,0-.25-.05q-.35.1-.45-.1s0,0-.1,0a8.61,8.61,0,0,0-.95,0,.14.14,0,0,1-.1,0q-.35.15-.35.4a.32.32,0,0,1-.2.3.2.2,0,0,0-.05.15.06.06,0,0,0,0,.1,3.55,3.55,0,0,0-.15.45.2.2,0,0,1-.05.15,1.79,1.79,0,0,0-.15.45,3,3,0,0,1-.35.8l-.1.1a3.26,3.26,0,0,1-1.15.5.14.14,0,0,1-.1,0l-.35.1a.82.82,0,0,0-.25.05l-1.15.6a3,3,0,0,0-.8.65q-.05.1-.1.1a.63.63,0,0,0-.15.25.58.58,0,0,0-.15.1.33.33,0,0,1-.15.15,1,1,0,0,0-.25.7.14.14,0,0,0-.05.1q-.05.2-.1.45a.09.09,0,0,1-.1.1.58.58,0,0,0-.15.1A9,9,0,0,1,377.9,59a1.11,1.11,0,0,0-.35,0q-1.4,0-2.75,0a.82.82,0,0,1-.25-.05q-.75-.2-1.5-.35a4.62,4.62,0,0,1-.55-.15.14.14,0,0,1-.1,0,.56.56,0,0,0-.25-.05q-.3.1-.4,0a.3.3,0,0,0-.3,0l-.35.2a8.71,8.71,0,0,1-1.7.95.34.34,0,0,1-.25.1l-.7-.1a3.09,3.09,0,0,0-.8-.25.44.44,0,0,1-.2,0,.38.38,0,0,1-.15-.05m4.1,3.2-.2.1a2,2,0,0,0-.4.15,2.63,2.63,0,0,1-1.4.15.09.09,0,0,1-.1-.1l-.4-.1a1.11,1.11,0,0,1-.35-.15q-.3-.3.05-.65l.1-.1a.63.63,0,0,0,.25-.15,1.24,1.24,0,0,1,.45-.25.63.63,0,0,0,.25-.15,1.11,1.11,0,0,1,.35-.15.14.14,0,0,1,.1-.05,7.37,7.37,0,0,0,.8-.25l.2-.1.8-.2a3.15,3.15,0,0,1,1-.25h.2q1.25,0,2.5,0a.44.44,0,0,1,.2,0l.4.1h.3a.94.94,0,0,0,.3,0l.8.2q.5.15,1,.25a10.83,10.83,0,0,0,2.1.1,16.21,16.21,0,0,1,1.8,0,1.8,1.8,0,0,0,.8-.15.14.14,0,0,1,.1,0,1.16,1.16,0,0,0,.7-.35.14.14,0,0,1,.1,0q.9-.05,1.8-.05a1.87,1.87,0,0,0,.9-.1.14.14,0,0,0,.05-.1,3.23,3.23,0,0,1,.35-1l.5-.7A.78.78,0,0,0,388,58a.86.86,0,0,1,.75-.7q.2,0,.25.1l.35.6a.14.14,0,0,1,.05.1,3.7,3.7,0,0,0,.95,1.35,1.88,1.88,0,0,0,.6.55,6,6,0,0,0,.7.4,1.38,1.38,0,0,1-.2.2,4.05,4.05,0,0,1-1.2.6,1.09,1.09,0,0,0-.4.2,1.78,1.78,0,0,1-.5.15h-.2a12.61,12.61,0,0,0-2,.25l-.4.1a.44.44,0,0,1-.2,0,1.55,1.55,0,0,0-.7.15,6.85,6.85,0,0,1-.7.35.14.14,0,0,0-.1.05l-.2.1a5.25,5.25,0,0,1-.8.5,2.23,2.23,0,0,0-.75.45,3.65,3.65,0,0,0-.5,1,4.53,4.53,0,0,0-.25.8q-.1.4-.25.9a4.35,4.35,0,0,1-.75,1.7.33.33,0,0,1-.15.15q-.3.1-.35-.15a6.27,6.27,0,0,0-.35-1.3v-.1a1.39,1.39,0,0,0-.35-.7,5.6,5.6,0,0,0-.7-.6.78.78,0,0,0-.2-.15.58.58,0,0,1-.15-.1.81.81,0,0,0-.45-.2h-.2a6.79,6.79,0,0,1-1.7-.55,8.33,8.33,0,0,1-.8-.35,7.3,7.3,0,0,1-.9-.55q-.6-.45-1.3-.9a.14.14,0,0,0-.1-.05.58.58,0,0,1-.15-.1.62.62,0,0,0-.35-.1,5,5,0,0,0-1,0h-.2a.94.94,0,0,1-.3,0l-.4.1M401,61.1a.44.44,0,0,1-.2-.05.38.38,0,0,1-.15,0,1.47,1.47,0,0,0-.35,0,2.81,2.81,0,0,1-.55-.05,5.1,5.1,0,0,1-1.15-.25,1.78,1.78,0,0,1-.45-.15.58.58,0,0,0-.15-.1.82.82,0,0,0-.65-.25h.45q.1,0,.1.05t.35.15a.62.62,0,0,1,.35,0,1.55,1.55,0,0,0,.35.1,12.6,12.6,0,0,0,1.95,0q.55,0,1.05,0a4,4,0,0,1,.65-.05,1.11,1.11,0,0,0,.35,0l1.05-.2a12.48,12.48,0,0,0,1.5-.4h.1a.56.56,0,0,1,.25,0,2.32,2.32,0,0,1,.45.35,1.07,1.07,0,0,1,.2.25.57.57,0,0,0,.2.2.78.78,0,0,1,.15.2l.2.1a1.78,1.78,0,0,0,1.2.2.29.29,0,0,0,.2-.05,1.12,1.12,0,0,1,.4-.15,3.09,3.09,0,0,0,.8-.25l.25-.1a1,1,0,0,0,.45-.1.58.58,0,0,0,.15-.1,1.51,1.51,0,0,1,.9-.25h.1a1.47,1.47,0,0,1,.35-.05q2,0,3.9.05H416q.6,0,1.15,0a.44.44,0,0,1,.2.05.14.14,0,0,0,.1,0,.87.87,0,0,1-.2.1,1.26,1.26,0,0,0-.3.15,2.5,2.5,0,0,1-.75.45h-.1a.63.63,0,0,0-.25.15.41.41,0,0,1-.3.1q-.25,0-.3.15t-.05.1a1.78,1.78,0,0,0-.5.15,2.85,2.85,0,0,1-.9.3h-.1a34888,34888,0,0,0-.5.1q-.85,0-1.7,0a8.61,8.61,0,0,1-1,0q-.6-.05-1.25-.05a.54.54,0,0,1-.3-.1.63.63,0,0,0-.5,0,.44.44,0,0,1-.2,0,2.85,2.85,0,0,0-.5-.15,4.14,4.14,0,0,1-.9-.1,12.6,12.6,0,0,0-1.95,0,.82.82,0,0,1-.25-.05.14.14,0,0,1-.1,0q-.5-.05-1.05-.05a2.32,2.32,0,0,1-.45,0,14.15,14.15,0,0,0-2.1-.15m35.15-1.55a7.93,7.93,0,0,1,1-.15q.95.1,1.85.15h.1l1,.1.8.1.35.1.55.1a6.75,6.75,0,0,1,.8.15l.25.1a3.52,3.52,0,0,0,.8.2l.35.1q.85.25,1.6.5a5.39,5.39,0,0,0,1,.2l.7.1a.2.2,0,0,1,.15.05.93.93,0,0,0,.6.1,2.74,2.74,0,0,1-.55.45.14.14,0,0,1-.1.05l-.25.1a.14.14,0,0,1-.1.05l-.25.1a1.25,1.25,0,0,1-.55.1.82.82,0,0,0-.25.05,2.85,2.85,0,0,0-.8.3.82.82,0,0,1-.45.1h-.35q-.35,0-.35.3a.49.49,0,0,1-.1.35,2.08,2.08,0,0,1-.3.4q-.3.25-.65.5a.29.29,0,0,1-.2.1.73.73,0,0,0-.35.25q-.05.1-.1.1a4.37,4.37,0,0,0-.85.5.14.14,0,0,1-.1,0,4.94,4.94,0,0,1-.7.05q-.55,0-1.15-.05a2.32,2.32,0,0,1-.45,0,.82.82,0,0,1-.25,0,.14.14,0,0,1-.1-.05l-.3-.1a2.22,2.22,0,0,0-.4-.2l-.9-.3-.35-.15s-.07,0-.1-.1a1.11,1.11,0,0,0-.35-.15h-.15a.58.58,0,0,1-.15-.1,1.17,1.17,0,0,0-.4-.25h-.1l-.25-.1a.14.14,0,0,1-.1-.05l-.5-.1h-.1a8.34,8.34,0,0,0-1-.4l-.45-.25a1.19,1.19,0,0,0-.55-.2l-.6-.2a3.91,3.91,0,0,0-.8-.3l-.25-.1a.14.14,0,0,1-.1-.05l-.25-.1a.7.7,0,0,0-.3-.05.44.44,0,0,1-.2,0q-.15-.15-.5-.05a.82.82,0,0,1-.25,0,1.11,1.11,0,0,1-.35-.15.58.58,0,0,1-.15-.1.5.5,0,0,0-.4-.25.38.38,0,0,1-.15,0,.56.56,0,0,0,.25-.05,1.5,1.5,0,0,1,.7,0,.44.44,0,0,0,.2-.05.2.2,0,0,0,.15,0,.44.44,0,0,1,.2,0l.25-.1.9-.2a.56.56,0,0,0,.25,0,.14.14,0,0,0,.1-.05.54.54,0,0,0,.2-.1q.1-.15.5-.15a.29.29,0,0,0,.2,0,.89.89,0,0,1,.6-.1.56.56,0,0,0,.25,0,6.32,6.32,0,0,1,.9-.15.56.56,0,0,0,.25-.05.14.14,0,0,0,.1,0l.6-.1h.2a5.32,5.32,0,0,0,1-.2m26.4.4a.14.14,0,0,0,.1,0l.25.1a.86.86,0,0,0,.35,0,.44.44,0,0,1,.2.05.58.58,0,0,1,.15.1,2.65,2.65,0,0,0,.55.15h.1q.75,0,1.5,0,1,0,2,0h.2a1.37,1.37,0,0,0,.9-.6q.07.1.1.1a.2.2,0,0,1,.15.2v.5a.68.68,0,0,1-.2.65,1.11,1.11,0,0,1-.35.15,4,4,0,0,1-.6.15l-.2.1-.35.15h-.15a1,1,0,0,1-.45,0q-.45-.1-.35.3a.32.32,0,0,1,.2.15.16.16,0,0,1,.1.15.69.69,0,0,0,.15.35,1.76,1.76,0,0,1,.2,1.4,1.94,1.94,0,0,1-.1.25.84.84,0,0,1-.9.45.2.2,0,0,1-.15,0,5.78,5.78,0,0,0-1.35-.8.14.14,0,0,1-.1,0q-.4-.2-.9-.5l-.25-.15a2.84,2.84,0,0,0-1.15-.55v.5q0,.1,0,.1a1.4,1.4,0,0,1-.65.05h-.35a.73.73,0,0,1-.8-.35l-.2-.1a.48.48,0,0,0-.25-.2.78.78,0,0,1-.2-.15.32.32,0,0,1-.15-.2.75.75,0,0,0-.25-.3.46.46,0,0,1-.25-.25,3.27,3.27,0,0,0-.2-.35.49.49,0,0,1-.2-.3l-.2-.4a2.63,2.63,0,0,0-.3-.35l.7-.15.25-.1a.14.14,0,0,0,.1,0l.45-.1.45-.2a.56.56,0,0,0,.25,0q.65-.05,1.25-.05a2.71,2.71,0,0,1,.95.15M292.25.6q0,.25-.3.3a.54.54,0,0,0-.1.2.16.16,0,0,1-.1.15A5.53,5.53,0,0,0,291,2.3a1.26,1.26,0,0,0-.15.3.16.16,0,0,1-.1.15,3.61,3.61,0,0,0-.45.7,1.25,1.25,0,0,1-.9.65.58.58,0,0,1-.15.1,2,2,0,0,1-1,.25.79.79,0,0,0-.3.2.34.34,0,0,0-.3.15,1.52,1.52,0,0,0-.55,0q-1.45.4-2.5.75a1.22,1.22,0,0,0-.55.45.49.49,0,0,1-.3.2,1.26,1.26,0,0,0-.3.15l-.25.15-.4.3q-.45.3-.8.5L281,7.9a4.91,4.91,0,0,1-1,.6,1.55,1.55,0,0,1-.3.1.58.58,0,0,1-.15.1l-1,.5a1.55,1.55,0,0,1-.3.1.2.2,0,0,1-.15,0,1.75,1.75,0,0,0-.7.2,1.26,1.26,0,0,1-.3.15,8.37,8.37,0,0,0-1.25.65,10.32,10.32,0,0,1-1.25.75.58.58,0,0,1-.15.1,7,7,0,0,1-1,.5,2.3,2.3,0,0,0-1,.7.29.29,0,0,1-.2.1,4.57,4.57,0,0,0-1.35.65l-.3.2a2.39,2.39,0,0,0-.9.65.48.48,0,0,1-.25.2,5.93,5.93,0,0,0-.9.4.63.63,0,0,1-.3.15.58.58,0,0,1-.15.1l-.85.5a1.55,1.55,0,0,1-.3.1.58.58,0,0,1-.15.1l-.35.2a16.36,16.36,0,0,0-1.55,1.1,3.47,3.47,0,0,0-.5.5,2.19,2.19,0,0,1-.45.5,3,3,0,0,1-1.15.8,1.39,1.39,0,0,0-.85.7,1.34,1.34,0,0,1-.5.45,1.1,1.1,0,0,0-.55.75.54.54,0,0,1-.1.3q-.2.45-.3.7a7.76,7.76,0,0,1-.4,1l-.1.3a7.71,7.71,0,0,0-.05.85.85.85,0,0,0,.15.7.79.79,0,0,1,.2.3,4.55,4.55,0,0,1,.35.5,5,5,0,0,1,.4,1.3,6.86,6.86,0,0,1,0,.85q0,1.75,0,3.5a.2.2,0,0,1-.05.15,1.06,1.06,0,0,1-.25.5,1.26,1.26,0,0,1-.55.55l-.25.1a.77.77,0,0,1-.15.15l-.15.2a3.53,3.53,0,0,1-.85.7.58.58,0,0,1-.15.1l-.25.1a1.18,1.18,0,0,0-.35.4.48.48,0,0,1-.2.25,2,2,0,0,1-.25.3.33.33,0,0,1-.15.15A8.31,8.31,0,0,0,256,36.15a.78.78,0,0,1-.15.2,1.37,1.37,0,0,0-.4,1.15.2.2,0,0,1-.05.15q-.1.45-.2.85-.15.6.35.6h.15a3.36,3.36,0,0,1,1,.85.75.75,0,0,0,.3.25.58.58,0,0,1,.15.1l.7.8a2.88,2.88,0,0,1,.5.9.58.58,0,0,0,.1.15q0,.2.1.35t.45.2l.25-.1a.75.75,0,0,0,.25-.3q.6-.7.95-1a.48.48,0,0,0,.2-.25,1.88,1.88,0,0,1,.75-.6.79.79,0,0,0,.3-.2A.48.48,0,0,1,262,40l.5-.3a4.58,4.58,0,0,1,1.35-.45.2.2,0,0,0,.15,0,1.84,1.84,0,0,0,.55-.15l.3-.1.65-.25a4,4,0,0,0,1.7-1.35,1.25,1.25,0,0,1-.55-.1.63.63,0,0,0-.3-.15,1.56,1.56,0,0,1-.55-.2q-.2-.2-.05-.75l.1-.1q.5,0,.6-.35a1.33,1.33,0,0,1,.25-.35,2.43,2.43,0,0,0,.7-.95l.2-.4q.2,0,.2-.15a.52.52,0,0,1,.3-.5q.15,0,.2-.2t.3-.55a1.94,1.94,0,0,0,.1-.25.48.48,0,0,1,.15-.35.16.16,0,0,0,.1-.15,1.13,1.13,0,0,1,.3-.75.57.57,0,0,0,.2-.2.29.29,0,0,1,.2-.05q1.25,0,2.5.05a.44.44,0,0,0,.2,0l.8.1a2.21,2.21,0,0,1,.9.25,2.63,2.63,0,0,0,.4.25,5.49,5.49,0,0,0,.7.3l.55.2a.54.54,0,0,0,.3.1q.85,0,1.65-.05a.2.2,0,0,0,.15,0q.75,0,1.5,0a1.11,1.11,0,0,1,.35,0,.38.38,0,0,0,.15,0q.5.3.4,1.25a3.21,3.21,0,0,0,0,.8.94.94,0,0,1-.15.75.56.56,0,0,0-.05.25q0,1.25.05,2.5l.1.2a2.41,2.41,0,0,1,.15,1.15q0,1.05.1,2.15a.44.44,0,0,1-.05.2.79.79,0,0,1,.2.3q0,.1.1.1a.43.43,0,0,1,.5.4.16.16,0,0,0,.1-.15q.1-2.8.05-5.45a17,17,0,0,1-.15-2.2,5.09,5.09,0,0,1,.1-1q0-.4.1-.85a2.63,2.63,0,0,0-.15-1,.46.46,0,0,1,0-.3q0-.35-.1-.45t-.1-.35a.24.24,0,0,0-.15-.35s0-.07,0-.2q0-.7-.7-.25a.63.63,0,0,1-.3.15.2.2,0,0,1-.15,0q-.9.25-1.2-.45a.58.58,0,0,1-.1-.15,4.55,4.55,0,0,1-.35-.5q-.5-.6.25-1a.48.48,0,0,0,.45-.3,6.59,6.59,0,0,0,1-.6,1.6,1.6,0,0,1,.65-.3.82.82,0,0,0,.25-.6.38.38,0,0,1,.05-.15,1.39,1.39,0,0,0,.7-.85.48.48,0,0,1,.2-.25,2.31,2.31,0,0,0,.5-.45.63.63,0,0,0,.15-.3.58.58,0,0,0,.1-.15,2.69,2.69,0,0,1,1.35-.2,1.66,1.66,0,0,0,.8-.1l.5-.1a.62.62,0,0,0,.35-.1.54.54,0,0,1,.3-.1.85.85,0,0,0,.7-.25.58.58,0,0,0,.15-.1,2.25,2.25,0,0,0,1-1.4l.15-.15a1.58,1.58,0,0,0,.6-.45.58.58,0,0,1,.15-.1,2.64,2.64,0,0,0,.8-.55l.25-.1a.58.58,0,0,0,.15-.1,1.7,1.7,0,0,1,1-.25,1.66,1.66,0,0,1,1.1.45l.1.1.15.05a.38.38,0,0,0,.15.05q.55,0,.4.75a11.64,11.64,0,0,1-.25,1.15q0,.2-.1.35a4.61,4.61,0,0,0-.05.65q0,.9,1,.7a4.94,4.94,0,0,1,.7-.05,5.09,5.09,0,0,1,1,.1.54.54,0,0,1,.3.1,1.55,1.55,0,0,1,.5.95,1.11,1.11,0,0,0,.05.35.33.33,0,0,0,.15.15,1.75,1.75,0,0,1,.2.7q0,.1.1.1.35.15.2.7-.1.35,0,.45a.34.34,0,0,1,.1.25q-.05,1.1-.1,2.15a13.62,13.62,0,0,0,0,1.65.81.81,0,0,0,.2.45.29.29,0,0,1,0,.2,1,1,0,0,0,.25.6A.63.63,0,0,1,297,33q0,.1,0,.15.2.85-.35,1,.25.55,1.1.4a.16.16,0,0,0,.15-.1,6.26,6.26,0,0,1,.4-1,.58.58,0,0,0,.1-.15,9.7,9.7,0,0,1,.5-1.25,2.5,2.5,0,0,0,.25-.6.94.94,0,0,0,.05-.3q0-.75.05-1.5a1.47,1.47,0,0,0-.05-.35.38.38,0,0,0-.05-.15,2.4,2.4,0,0,0-.15-.85l-.1-.5a.58.58,0,0,1-.1-.15,2.54,2.54,0,0,1,0-.5q0-1-.05-1.85a.38.38,0,0,0-.05-.15q-.1-.45-.2-.85a.94.94,0,0,0-.05-.3l-.1-.2a.94.94,0,0,1,0-.3q-.05-.2-.1-.35a4,4,0,0,1-.05-.65q0-2.2-.05-4.35s0-.07-.1-.1l-.35-.1a.58.58,0,0,0-.15-.1,1.7,1.7,0,0,0-1-.25q-1.15,0-2.35,0s-.07,0-.1-.1q-.2-.8-.35-1.5,0-.45-.25-.5a.87.87,0,0,1-.4-.8q.1-.9.2-1.7s0-.08.1-.15a7.52,7.52,0,0,0,1.2-.8h.05l.15-.15a.32.32,0,0,0,.15-.2l.2-.4a1.55,1.55,0,0,0,.1-.3,1,1,0,0,1,.25-.6.29.29,0,0,0,.05-.2q0-.45.1-.85a16.17,16.17,0,0,0-.15-2.85.38.38,0,0,0-.05-.15,3.62,3.62,0,0,1,0-.85.2.2,0,0,0,.05-.15q0-.7.55-.85a.87.87,0,0,0,.45-.25.54.54,0,0,1,.2-.1.33.33,0,0,0,.15-.15,3.08,3.08,0,0,1,.5-.65.33.33,0,0,0,.15-.15l.1-.3A2.09,2.09,0,0,1,298,2.2a.49.49,0,0,0,.2-.3,1.26,1.26,0,0,0,.15-.3.89.89,0,0,0-.1-.75.58.58,0,0,0-.1-.15.34.34,0,0,0-.25-.1.16.16,0,0,0-.2,0,.45.45,0,0,0-.45-.05,2.05,2.05,0,0,0-1.4.15.41.41,0,0,1-.3.1q-.65,0-1.25.05a1.64,1.64,0,0,1-.25-.2L293.3.05a3.76,3.76,0,0,1-.75.25q-.3,0-.3.3M290.9,5.9a2.11,2.11,0,0,0,.65.2.44.44,0,0,0,.2.05,1.07,1.07,0,0,1,.65.25q.1.1.15.1a.36.36,0,0,1,.25.15.71.71,0,0,1,.1.4,7.71,7.71,0,0,1-.05.85,4.59,4.59,0,0,1-.35,1.15,3.78,3.78,0,0,1-.3.65v.05a.58.58,0,0,1-.1.15q0,.2-.1.35a.54.54,0,0,1-.1.3,2.87,2.87,0,0,0-.3,1q0,.65-.55.65a.29.29,0,0,1-.2,0,.63.63,0,0,1-.15-.25l-.1-.2-.1-.3a3.7,3.7,0,0,1-.15-1.15v-.2q0-.55-.3-.65a.3.3,0,0,1-.2-.2.59.59,0,0,0-.4-.35h-.2s-.08,0-.15-.1a.62.62,0,0,0-.35-.1q-.7-.1-.6-.9a.21.21,0,0,0,0-.2q0-.5.25-.65a.33.33,0,0,0,.15-.15,1.26,1.26,0,0,1,.15-.3l.15-.25.2-.2a.48.48,0,0,0,.2-.25,1.47,1.47,0,0,1,.15-.3,1.66,1.66,0,0,1,.5.15.38.38,0,0,0,.15.05q.45.15.85.25m5.15,14.3.15.15a2,2,0,0,1,.2,1.3.54.54,0,0,1-.1.2q0,.9,0,1.85v.35a2.88,2.88,0,0,0-1-.55l-.2-.1a1,1,0,0,1-.8-1.35.54.54,0,0,1,.1-.3,1.44,1.44,0,0,0,.15-1.05.38.38,0,0,0-.05-.15.54.54,0,0,0-.1-.2.38.38,0,0,1-.35-.3.16.16,0,0,0-.1-.15l-.5-.1a1.11,1.11,0,0,0-.35-.05l-.5-.1a.38.38,0,0,1-.15-.05l-.4,0-.45-.05a1.26,1.26,0,0,1-.3-.15,1.19,1.19,0,0,1-.3-.8A3.23,3.23,0,0,1,291,18a5.65,5.65,0,0,0,.75.05,2.59,2.59,0,0,1,.7.15,2,2,0,0,1,.45.2.58.58,0,0,1,.15.1,1.55,1.55,0,0,1,.3.1,1.84,1.84,0,0,0,.55.15.38.38,0,0,0,.15.05l.35.1a.38.38,0,0,0,.15,0,.57.57,0,0,1,.55.4.78.78,0,0,0,.15.2,5.23,5.23,0,0,1,.8.65m-23.5-4.95a2.46,2.46,0,0,0,.75.5.38.38,0,0,0,.15.05.43.43,0,0,1,.4.4q0,.1.1.1.35,0,.3.25a1.7,1.7,0,0,0,.2,1,.54.54,0,0,1,.1.3,2.25,2.25,0,0,0,.35.75.48.48,0,0,1,.2.25,2.44,2.44,0,0,1,.2,1.15,1.6,1.6,0,0,1,0,.2.89.89,0,0,1-.2.65,1.09,1.09,0,0,0-.2.7.2.2,0,0,1-.05.15,1.16,1.16,0,0,0,.25,1.15l.15.15a2.92,2.92,0,0,1,.3.25,1.07,1.07,0,0,0,.25.2q.35.1.3.6a2.54,2.54,0,0,1-.05.5,1.33,1.33,0,0,1-.3.45,3.28,3.28,0,0,1-1.15.9l-.1.1a.76.76,0,0,1-.55.55.79.79,0,0,0-.3.2.63.63,0,0,1-.25.15,2.3,2.3,0,0,0-.8.8.48.48,0,0,1-.2.25q-.4.4-1,1a.64.64,0,0,1-.4.25,1.89,1.89,0,0,1-.6.1,1,1,0,0,1-1-.5.58.58,0,0,0-.15-.1,3.28,3.28,0,0,1-.5-.4.68.68,0,0,1-.3-.5,5,5,0,0,1,0-1,3.14,3.14,0,0,0-.2-1.35,1,1,0,0,0,0-.15.58.58,0,0,1-.1-.15,1.26,1.26,0,0,0-.15-.3,12.73,12.73,0,0,1-1.2-1.85.92.92,0,0,1-.15-.7,3.29,3.29,0,0,1,1-2.5.16.16,0,0,0,.1-.15.54.54,0,0,1,.1-.2.71.71,0,0,0,.5-.65l.1-.1a.36.36,0,0,0,.25-.15,1.41,1.41,0,0,1,.9-.4.41.41,0,0,0,.3-.1,1,1,0,0,1,.7-.1q.2,0,.25-.05a4.23,4.23,0,0,0,.6-.9.16.16,0,0,0,.1-.15,8.23,8.23,0,0,1,1-1.65m4.15-1.2q.1-.5.25-1l.3,0a5,5,0,0,1,.75.25l.2.1a4.23,4.23,0,0,0,.9.6l.3.2a3.06,3.06,0,0,1,1.2,1.55,1.26,1.26,0,0,1,.1.25.36.36,0,0,0,.15.25q.4.35.2,1.25a.2.2,0,0,1,0,.15l-.1.5a.58.58,0,0,1-.1.15,2,2,0,0,1-.25.45q-.15.25-.3.55l-.35.7a.38.38,0,0,0-.05.15q-.1.75-.15,1.5a.2.2,0,0,1,0,.15,4.8,4.8,0,0,1-.2,1.5,2.54,2.54,0,0,0-.1.7q0,.75-.6.8a4.44,4.44,0,0,1-.35-.8l-.1-.2q0-.3-.1-.65a9.32,9.32,0,0,1-.1-2,.54.54,0,0,0-.1-.3,1,1,0,0,1-.1-.7.23.23,0,0,0-.05-.25,3.27,3.27,0,0,1-.9-1.25,1.9,1.9,0,0,0-.35-.5.58.58,0,0,1-.1-.15l-.1-.5a.2.2,0,0,1-.05-.15,7.53,7.53,0,0,1-.05-1.5,6.44,6.44,0,0,1,.15-.85q.1-.4.2-.85a.2.2,0,0,0,0-.15m9.4-6.15a2.75,2.75,0,0,1,.65.85A1.64,1.64,0,0,0,287,9a.75.75,0,0,1,.25.3.58.58,0,0,0,.1.15q.35.28.65.55l.2.2a.63.63,0,0,0,.25.15.78.78,0,0,1,.55.4.38.38,0,0,1,.05.15q.1,1.65.1,3.3a2.54,2.54,0,0,0,.05.5,3.73,3.73,0,0,1,.1,1.5l-.1.5a1.79,1.79,0,0,1-.15.45,2.51,2.51,0,0,1-1.1,1.1.2.2,0,0,1-.15.05,1.51,1.51,0,0,0-1,.75.16.16,0,0,1-.15.1,5.13,5.13,0,0,0-2,1.2.29.29,0,0,1-.2.1q-.5.1-1,.15-.7,0-.8-.4a.54.54,0,0,0-.5-.4s-.07,0-.1-.1a2.25,2.25,0,0,1-.2-1.5,12.2,12.2,0,0,1,.35-1.3.21.21,0,0,0,0-.2,1.34,1.34,0,0,1,.25-.8,1.11,1.11,0,0,0,.15-.35,4.42,4.42,0,0,0,.25-1.45v0a3.25,3.25,0,0,0-.25-1.35.58.58,0,0,1-.1-.15.63.63,0,0,0-.15-.25q-.15-.1-.1-.4a1.34,1.34,0,0,1,.25-.8,1.71,1.71,0,0,0,.3-.7l.2-.3a.48.48,0,0,0,.2-.25,1.64,1.64,0,0,0,.2-.25,1.64,1.64,0,0,0,.2-.25,7.09,7.09,0,0,1,1-1,8.73,8.73,0,0,1,1-.7,2.89,2.89,0,0,1,.6.25M263,21.7a1.5,1.5,0,0,0,.35-.3l.5.3.15.15a1.09,1.09,0,0,1,.4.7.38.38,0,0,1,.05.15l.1.5a.33.33,0,0,0,.15.15l.15.15a1.76,1.76,0,0,1,.85.85.16.16,0,0,1,0,.2,1,1,0,0,0,.2.7.48.48,0,0,1,.2.25l.1.5q.1.25.2.55a.63.63,0,0,0,.15.25.06.06,0,0,1,0,0,3.51,3.51,0,0,1,.2.65q0,.2.15.2a.63.63,0,0,1,.25.65,2.54,2.54,0,0,1-.05.5.58.58,0,0,1-.1.15.36.36,0,0,1-.15.25,8.3,8.3,0,0,0-.9,1,.58.58,0,0,1-.1.15,1.47,1.47,0,0,0-.05.35q-.1.55-.15,1.15a2.54,2.54,0,0,1-.05.5.58.58,0,0,1-.1.15q0,.2-.1.35a.54.54,0,0,1-.1.3,4.93,4.93,0,0,1-.4.65,5.23,5.23,0,0,1-.65.8q-.35.4-.75.8a3.37,3.37,0,0,1-.85.55l-.35.2a1.9,1.9,0,0,0-.35.5.33.33,0,0,1-.15.15,1.26,1.26,0,0,0-.3.15.9.9,0,0,1-.55.15l-1.45.1q-.35,0-.35-.2a1.47,1.47,0,0,0-.05-.35,2.36,2.36,0,0,1-.05-1.3.58.58,0,0,1,.1-.15,5.4,5.4,0,0,0,.85-.55,1.33,1.33,0,0,1,.35-.25,1.9,1.9,0,0,0,.55-.45,7.51,7.51,0,0,0,.7-.8.43.43,0,0,0,.15-.3.63.63,0,0,1,.15-.25q.15-.1.1-.45,0-.15,0-.15a.63.63,0,0,0,.35-.65,1.11,1.11,0,0,0,.05-.35l.1-.5a.2.2,0,0,0,0-.15,3.27,3.27,0,0,0,.1-.45,4.06,4.06,0,0,0,.15-.55q.15-.6.4-1.35a.2.2,0,0,0,.05-.15,3.62,3.62,0,0,0,0-.85.38.38,0,0,0-.05-.15,5.67,5.67,0,0,1-.5-1.5l-.1-.5a.94.94,0,0,1-.05-.3,7.29,7.29,0,0,1-.1-1.2.56.56,0,0,1,.05-.25,1.18,1.18,0,0,0,.2-.75s0-.08,0-.15A.62.62,0,0,1,263,21.7Z"/><path class="cls-18" d="M21.1,74.25a1.06,1.06,0,0,0-.1-.6q-2.47,3.94-6,10.9A96.27,96.27,0,0,1,7.5,97.35l-.6.8q-1.35,2.43-2.9,4.9-.07.28-.15.55a28.57,28.57,0,0,0-.7,3.85,5.53,5.53,0,0,1-1.65,3.3,1,1,0,0,0,1.25.55,1.82,1.82,0,0,0,1.35-.95,3.14,3.14,0,0,0,.55-1.5q.2-1.55.2-1.6a14.22,14.22,0,0,1,1.9-4.9A181.16,181.16,0,0,1,17.25,83.9q.59-.86,1-1.5a4.72,4.72,0,0,0,.25-.45l.65-1.25a5.68,5.68,0,0,0,.5-2.05q0-.1.1-1.3a2.87,2.87,0,0,1,.3-1.2,4.75,4.75,0,0,1,.7-.95,1.55,1.55,0,0,0,.4-.95m177,80q-7.5-.4-11.4,1.8l34.75,1.5q.54,0,1.1-.05a24.85,24.85,0,0,0,7.2-1.55,10,10,0,0,0-4.1-2.2A29.15,29.15,0,0,0,222,153l-1.75-.2a26.81,26.81,0,0,0-4.75,0,23.21,23.21,0,0,0-2.7.6l-2.65.65q-2.85.6-12,.1M552.35,36a2,2,0,0,0-.6,1.35,2.76,2.76,0,0,0,.7,2.2A14.63,14.63,0,0,0,556.6,42a8.6,8.6,0,0,1,3,4.9q.75,4.1,1.1,6.1a11.11,11.11,0,0,0,1.4,3.9,12.09,12.09,0,0,0,1.45,1.6q.55.45,1.65,1.4A33.2,33.2,0,0,1,569.7,65q1,1.37,2,2.95a157.44,157.44,0,0,1,10.5,17.75q-3.9-9-6.65-14.1a76.58,76.58,0,0,0-4.85-7.8,55.7,55.7,0,0,0-4-5q-2-2.1-2.2-2.4a11.87,11.87,0,0,1-1.8-2.7,14.57,14.57,0,0,1-.9-3.5,28.75,28.75,0,0,0-.6-3.5,14.56,14.56,0,0,0-3.75-6.35,42.42,42.42,0,0,0-5.1-4.35M462.6,60a.14.14,0,0,1-.1,0,2.71,2.71,0,0,0-.95-.15q-.6,0-1.25.05a.56.56,0,0,1-.25,0l-.45.2-.45.1a.14.14,0,0,1-.1,0l-.25.1-.7.15a2.63,2.63,0,0,1,.3.35l.2.4a.49.49,0,0,0,.2.3,3.27,3.27,0,0,1,.2.35.46.46,0,0,0,.25.25.75.75,0,0,1,.25.3.32.32,0,0,0,.15.2.78.78,0,0,0,.2.15.48.48,0,0,1,.25.2l.2.1a.73.73,0,0,0,.8.35h.35a1.4,1.4,0,0,0,.65-.05s0,0,0-.1v-.5a2.84,2.84,0,0,1,1.15.55l.25.15q.5.3.9.5a.14.14,0,0,0,.1,0,5.78,5.78,0,0,1,1.35.8.2.2,0,0,0,.15,0,.84.84,0,0,0,.9-.45,1.94,1.94,0,0,0,.1-.25,1.76,1.76,0,0,0-.2-1.4.69.69,0,0,1-.15-.35.16.16,0,0,0-.1-.15.32.32,0,0,0-.2-.15q-.1-.4.35-.3a1,1,0,0,0,.45,0h.15l.35-.15.2-.1a4,4,0,0,0,.6-.15,1.11,1.11,0,0,0,.35-.15.68.68,0,0,0,.2-.65v-.5a.2.2,0,0,0-.15-.2s-.06,0-.1-.1a1.37,1.37,0,0,1-.9.6h-.2q-1,0-2,0-.75,0-1.5,0h-.1a2.65,2.65,0,0,1-.55-.15.58.58,0,0,0-.15-.1.44.44,0,0,0-.2-.05.86.86,0,0,1-.35,0l-.25-.1m-25.45-.6a7.93,7.93,0,0,0-1,.15,5.32,5.32,0,0,1-1,.2h-.2l-.6.1a.14.14,0,0,1-.1,0,.56.56,0,0,1-.25.05,6.32,6.32,0,0,0-.9.15.56.56,0,0,1-.25,0,.89.89,0,0,0-.6.1.29.29,0,0,1-.2,0q-.4,0-.5.15a.54.54,0,0,1-.2.1.14.14,0,0,1-.1.05.56.56,0,0,1-.25,0l-.9.2-.25.1a.44.44,0,0,0-.2,0,.2.2,0,0,1-.15,0,.44.44,0,0,1-.2.05,1.5,1.5,0,0,0-.7,0,.56.56,0,0,1-.25.05.38.38,0,0,0,.15,0,.5.5,0,0,1,.4.25.58.58,0,0,0,.15.1,1.11,1.11,0,0,0,.35.15.82.82,0,0,0,.25,0q.35-.1.5.05a.44.44,0,0,0,.2,0,.7.7,0,0,1,.3.05l.25.1a.14.14,0,0,0,.1.05l.25.1a3.91,3.91,0,0,1,.8.3l.6.2a1.19,1.19,0,0,1,.55.2l.45.25a8.34,8.34,0,0,1,1,.4h.1l.5.1a.14.14,0,0,0,.1.05l.25.1h.1a1.17,1.17,0,0,1,.4.25.58.58,0,0,0,.15.1h.15a1.11,1.11,0,0,1,.35.15q0,.1.1.1l.35.15.9.3a2.22,2.22,0,0,1,.4.2l.3.1a.14.14,0,0,0,.1.05.82.82,0,0,0,.25,0,2.32,2.32,0,0,0,.45,0q.6.05,1.15.05a4.94,4.94,0,0,0,.7-.05.14.14,0,0,0,.1,0,4.37,4.37,0,0,1,.85-.5s.07,0,.1-.1a.73.73,0,0,1,.35-.25.29.29,0,0,0,.2-.1q.35-.25.65-.5a2.08,2.08,0,0,0,.3-.4.49.49,0,0,0,.1-.35q0-.25.35-.3h.35a.82.82,0,0,0,.45-.1,2.85,2.85,0,0,1,.8-.3.82.82,0,0,1,.25-.05,1.25,1.25,0,0,0,.55-.1l.25-.1a.14.14,0,0,0,.1-.05l.25-.1a.14.14,0,0,0,.1-.05,2.74,2.74,0,0,0,.55-.45.93.93,0,0,1-.6-.1.2.2,0,0,0-.15-.05l-.7-.1a5.39,5.39,0,0,1-1-.2q-.75-.25-1.6-.5l-.35-.1a3.52,3.52,0,0,1-.8-.2l-.25-.1a6.75,6.75,0,0,0-.8-.15l-.55-.1-.35-.1-.8-.1-1-.1H439q-.9,0-1.85-.15M400.75,61a.44.44,0,0,0,.2.05,14.15,14.15,0,0,1,2.1.15,2.32,2.32,0,0,0,.45,0q.55,0,1.05.05a.14.14,0,0,0,.1,0,.82.82,0,0,0,.25.05,12.6,12.6,0,0,1,1.95,0,4.14,4.14,0,0,0,.9.1,2.85,2.85,0,0,1,.5.15.44.44,0,0,0,.2,0,.63.63,0,0,1,.5,0,.54.54,0,0,0,.3.1q.65,0,1.25.05a8.61,8.61,0,0,0,1,0q.85,0,1.7,0a34888,34888,0,0,1,.5-.1h.1a2.85,2.85,0,0,0,.9-.3,1.78,1.78,0,0,1,.5-.15s.05,0,.05-.1.13-.15.3-.15a.41.41,0,0,0,.3-.1.63.63,0,0,1,.25-.15h.1a2.5,2.5,0,0,0,.75-.45,1.26,1.26,0,0,1,.3-.15.87.87,0,0,0,.2-.1.14.14,0,0,1-.1,0,.44.44,0,0,0-.2-.05q-.55,0-1.15,0h-.25q-2-.05-3.9-.05a1.47,1.47,0,0,0-.35.05h-.1a1.51,1.51,0,0,0-.9.25.58.58,0,0,1-.15.1,1,1,0,0,1-.45.1l-.25.1a3.09,3.09,0,0,1-.8.25,1.12,1.12,0,0,0-.4.15.29.29,0,0,1-.2.05,1.78,1.78,0,0,1-1.2-.2l-.2-.1a.78.78,0,0,0-.15-.2.57.57,0,0,1-.2-.2,1.07,1.07,0,0,0-.2-.25,2.32,2.32,0,0,0-.45-.35.56.56,0,0,0-.25,0h-.1a12.48,12.48,0,0,1-1.5.4l-1.05.2a1.11,1.11,0,0,1-.35,0,4,4,0,0,0-.65.05q-.5,0-1.05,0a12.6,12.6,0,0,1-1.95,0,1.55,1.55,0,0,1-.35-.1.62.62,0,0,0-.35,0q-.3,0-.35-.15s0-.05-.1-.05h-.45a.82.82,0,0,1,.65.25.58.58,0,0,1,.15.1,1.78,1.78,0,0,0,.45.15,5.1,5.1,0,0,0,1.15.25,2.81,2.81,0,0,0,.55.05,1.47,1.47,0,0,1,.35,0,.38.38,0,0,0,.15,0m-29.55,1.3.2-.1.4-.1a.94.94,0,0,0,.3,0h.2a5,5,0,0,1,1,0,.62.62,0,0,1,.35.1.58.58,0,0,0,.15.1.14.14,0,0,1,.1.05q.7.45,1.3.9a7.3,7.3,0,0,0,.9.55,8.33,8.33,0,0,0,.8.35,6.79,6.79,0,0,0,1.7.55h.2a.81.81,0,0,1,.45.2.58.58,0,0,0,.15.1.78.78,0,0,1,.2.15,5.6,5.6,0,0,1,.7.6,1.39,1.39,0,0,1,.35.7v.1a6.27,6.27,0,0,1,.35,1.3q.05.25.35.15a.33.33,0,0,0,.15-.15,4.35,4.35,0,0,0,.75-1.7q.15-.5.25-.9a4.53,4.53,0,0,1,.25-.8,3.65,3.65,0,0,1,.5-1A2.23,2.23,0,0,1,384,63a5.25,5.25,0,0,0,.8-.5l.2-.1a.14.14,0,0,1,.1-.05,6.85,6.85,0,0,0,.7-.35,1.55,1.55,0,0,1,.7-.15.44.44,0,0,0,.2,0l.4-.1a12.61,12.61,0,0,1,2-.25h.2a1.78,1.78,0,0,0,.5-.15,1.09,1.09,0,0,1,.4-.2,4.05,4.05,0,0,0,1.2-.6,1.38,1.38,0,0,0,.2-.2,6,6,0,0,1-.7-.4,1.88,1.88,0,0,1-.6-.55,3.7,3.7,0,0,1-.95-1.35.14.14,0,0,0-.05-.1l-.35-.6q-.05-.1-.25-.1a.86.86,0,0,0-.75.7.78.78,0,0,1-.15.2l-.5.7a3.23,3.23,0,0,0-.35,1,.14.14,0,0,1-.05.1,1.87,1.87,0,0,1-.9.1q-.9,0-1.8.05a.14.14,0,0,0-.1,0,1.16,1.16,0,0,1-.7.35.14.14,0,0,0-.1,0,1.8,1.8,0,0,1-.8.15,16.21,16.21,0,0,0-1.8,0,10.83,10.83,0,0,1-2.1-.1q-.5-.1-1-.25l-.8-.2a.94.94,0,0,1-.3,0h-.3l-.4-.1a.44.44,0,0,0-.2,0q-1.25,0-2.5,0h-.2a3.15,3.15,0,0,0-1,.25l-.8.2-.2.1a7.37,7.37,0,0,1-.8.25.14.14,0,0,0-.1.05,1.11,1.11,0,0,0-.35.15.63.63,0,0,1-.25.15,1.24,1.24,0,0,0-.45.25.63.63,0,0,1-.25.15l-.1.1q-.35.35-.05.65a1.11,1.11,0,0,0,.35.15l.4.1a.09.09,0,0,0,.1.1,2.63,2.63,0,0,0,1.4-.15,2,2,0,0,1,.4-.15M263.3,21.4a1.5,1.5,0,0,1-.35.3.62.62,0,0,0-.25.5q0,.1,0,.15a1.18,1.18,0,0,1-.2.75.56.56,0,0,0-.05.25,7.29,7.29,0,0,0,.1,1.2.94.94,0,0,0,.05.3l.1.5a5.67,5.67,0,0,0,.5,1.5.38.38,0,0,1,.05.15,3.62,3.62,0,0,1,0,.85.2.2,0,0,1-.05.15q-.25.75-.4,1.35a4.06,4.06,0,0,1-.15.55,3.27,3.27,0,0,1-.1.45.2.2,0,0,1,0,.15l-.1.5a1.11,1.11,0,0,1-.05.35A.63.63,0,0,1,262,32s0,0,0,.15,0,.38-.1.45a.63.63,0,0,0-.15.25.43.43,0,0,1-.15.3,7.51,7.51,0,0,1-.7.8,1.9,1.9,0,0,1-.55.45,1.33,1.33,0,0,0-.35.25,5.4,5.4,0,0,1-.85.55.58.58,0,0,0-.1.15,2.36,2.36,0,0,0,.05,1.3,1.47,1.47,0,0,1,.05.35q0,.25.35.2l1.45-.1a.9.9,0,0,0,.55-.15,1.26,1.26,0,0,1,.3-.15.33.33,0,0,0,.15-.15,1.9,1.9,0,0,1,.35-.5l.35-.2a3.37,3.37,0,0,0,.85-.55q.4-.4.75-.8a5.23,5.23,0,0,0,.65-.8,4.93,4.93,0,0,0,.4-.65.54.54,0,0,0,.1-.3q0-.15.1-.35a.58.58,0,0,0,.1-.15,2.54,2.54,0,0,0,.05-.5q0-.6.15-1.15a1.47,1.47,0,0,1,.05-.35.58.58,0,0,0,.1-.15,8.3,8.3,0,0,1,.9-1A.36.36,0,0,0,267,29a.58.58,0,0,0,.1-.15,2.54,2.54,0,0,0,.05-.5.63.63,0,0,0-.25-.65q-.1,0-.15-.2a3.51,3.51,0,0,0-.2-.65.06.06,0,0,0,0,0,.63.63,0,0,1-.15-.25q-.1-.3-.2-.55l-.1-.5a.48.48,0,0,0-.2-.25,1,1,0,0,1-.2-.7.16.16,0,0,0,0-.2,1.76,1.76,0,0,0-.85-.85l-.15-.15a.33.33,0,0,1-.15-.15l-.1-.5a.38.38,0,0,0-.05-.15,1.09,1.09,0,0,0-.4-.7l-.15-.15-.5-.3M277,13.05q-.15.5-.25,1a.2.2,0,0,1,0,.15q-.1.45-.2.85a6.44,6.44,0,0,0-.15.85,7.53,7.53,0,0,0,.05,1.5.2.2,0,0,0,.05.15l.1.5a.58.58,0,0,0,.1.15,1.9,1.9,0,0,1,.35.5,3.27,3.27,0,0,0,.9,1.25.23.23,0,0,1,.05.25,1,1,0,0,0,.1.7.54.54,0,0,1,.1.3,9.32,9.32,0,0,0,.1,2q0,.35.1.65l.1.2a4.44,4.44,0,0,0,.35.8q.55,0,.6-.8a2.54,2.54,0,0,1,.1-.7,4.8,4.8,0,0,0,.2-1.5.2.2,0,0,0,0-.15q0-.75.15-1.5a.38.38,0,0,1,.05-.15l.35-.7q.15-.3.3-.55a2,2,0,0,0,.25-.45.58.58,0,0,0,.1-.15l.1-.5a.2.2,0,0,0,0-.15q.2-.9-.2-1.25a.36.36,0,0,1-.15-.25,1.26,1.26,0,0,0-.1-.25,3.06,3.06,0,0,0-1.2-1.55l-.3-.2a4.23,4.23,0,0,1-.9-.6l-.2-.1a5,5,0,0,0-.75-.25l-.3,0m19.25,7.3-.15-.15a5.23,5.23,0,0,0-.8-.65.78.78,0,0,1-.15-.2.57.57,0,0,0-.55-.4.38.38,0,0,1-.15,0l-.35-.1a.38.38,0,0,1-.15-.05,1.84,1.84,0,0,1-.55-.15,1.55,1.55,0,0,0-.3-.1.58.58,0,0,0-.15-.1,2,2,0,0,0-.45-.2,2.59,2.59,0,0,0-.7-.15A5.65,5.65,0,0,1,291,18a3.23,3.23,0,0,0-.05.55,1.19,1.19,0,0,0,.3.8,1.26,1.26,0,0,0,.3.15l.45.05.4,0a.38.38,0,0,0,.15.05l.5.1a1.11,1.11,0,0,1,.35.05l.5.1a.16.16,0,0,1,.1.15.38.38,0,0,0,.35.3.54.54,0,0,1,.1.2.38.38,0,0,1,.05.15,1.44,1.44,0,0,1-.15,1.05.54.54,0,0,0-.1.3,1,1,0,0,0,.8,1.35l.2.1a2.88,2.88,0,0,1,1,.55V23.7q0-.95,0-1.85a.54.54,0,0,0,.1-.2,2,2,0,0,0-.2-1.3M291.55,6.1a2.11,2.11,0,0,1-.65-.2q-.4-.1-.85-.25a.38.38,0,0,1-.15-.05,1.66,1.66,0,0,0-.5-.15,1.47,1.47,0,0,0-.15.3.48.48,0,0,1-.2.25l-.2.2-.15.25a1.26,1.26,0,0,0-.15.3.33.33,0,0,1-.15.15q-.25.15-.25.65a.21.21,0,0,1,0,.2q-.1.8.6.9a.62.62,0,0,1,.35.1q.1.1.15.1h.2a.59.59,0,0,1,.4.35.3.3,0,0,0,.2.2q.35.1.3.65v.2a3.7,3.7,0,0,0,.15,1.15l.1.3.1.2a.63.63,0,0,0,.15.25.29.29,0,0,0,.2,0q.5,0,.55-.65a2.87,2.87,0,0,1,.3-1,.54.54,0,0,0,.1-.3q0-.15.1-.35a.58.58,0,0,0,.1-.15V9.7a3.78,3.78,0,0,0,.3-.65,4.59,4.59,0,0,0,.35-1.15,7.71,7.71,0,0,0,.05-.85.71.71,0,0,0-.1-.4.36.36,0,0,0-.25-.15s-.08,0-.15-.1a1.07,1.07,0,0,0-.65-.25A.44.44,0,0,1,291.55,6.1Z"/></g></g></g></svg>