
<svg xmlns="http://www.w3.org/2000/svg" version="1.1" xmlns:xlink="http://www.w3.org/1999/xlink" preserveAspectRatio="none" x="0px" y="0px" width="313px" height="95px" viewBox="0 0 313 95">
<defs>
<filter id="Filter_1" x="-75.45115879972546%" y="-74.46445791329744%" width="250.90231759945092%" height="248.92891582659487%" color-interpolation-filters="sRGB">
<feFlood flood-color="#000000" flood-opacity="1" in="SourceGraphic" result="result1"/>

<feGaussianBlur in="SourceGraphic" stdDeviation="3.3333333333333335,3.3333333333333335" result="result2"/>

<feComposite in2="result2" in="result1" operator="in" result="result3"/>

<feComposite in2="result3" in="SourceGraphic" operator="over" result="result4"/>
</filter>

<filter id="Filter_2" x="-69.94592114367379%" y="-69.94592114367379%" width="239.89184228734757%" height="239.89184228734757%" color-interpolation-filters="sRGB">
<feFlood flood-color="#000000" flood-opacity="1" in="SourceGraphic" result="result1"/>

<feGaussianBlur in="SourceGraphic" stdDeviation="3.3333333333333335,3.3333333333333335" result="result2"/>

<feComposite in2="result2" in="result1" operator="in" result="result3"/>

<feComposite in2="result3" in="SourceGraphic" operator="over" result="result4"/>
</filter>

<g id="Layer2_0_FILL">
<path fill="#797984" stroke="none" d="
M 63.6 87.5
L 66.55 86.45 61.2 81.25 60.55 83.4 63.6 87.5
M 64.75 69
L 62.8 69 59.45 79.9 41.4 84.3 44.05 85.65 61.2 81.25 64.75 69
M 130.05 87.5
L 132.15 85.75 132.4 74.15 130.05 87.5
M 77.3 49.85
L 73.9 52.8 75.7 57.35 76.8 60.1 78.65 58.4 78.3 57.35 76.65 52.8 77.3 49.85
M 20.15 11.65
L 18.7 8.6 9.1 30.2 12.3 30.2 20.15 11.65
M 33.7 8.6
L 32.8 3.7 30.7 11.65 33.7 8.6
M 158.6 51
L 158.8 49.85 153.95 52.8 155.75 57.8 156.55 60.1 157.85 58.95 157.5 57.8 156 52.8 158.6 51
M 162.85 58.95
L 162.4 57.8 160.6 52.8 161.8 49.85 161.55 49.25 160.3 49.85 159 52.8 160.75 57.8 161.55 60.1 162.85 58.95 Z"/>

<path fill="#64646D" stroke="none" d="
M 63.2 80.85
L 61.2 81.25 66.55 86.45 69.75 87.5 63.2 80.85
M 161.55 49.25
L 158.8 43.3 158.8 49.85 158.6 51 160.3 49.85 161.55 49.25 Z"/>

<path fill="#ABA8B2" stroke="none" d="
M 44.05 87.5
L 60.55 83.4 61.2 81.25 44.05 85.65 44.05 87.5
M 60.15 66.15
L 44.1 66.15 41.4 69 62.8 69 60.15 66.15
M 63.75 66.15
L 66.7 69 160.85 69 162.85 66.15 63.75 66.15
M 20.45 49.85
L 18.7 52.8 73.9 52.8 77.3 49.85 20.45 49.85
M 63.7 2.45
L 64.6 1.6 63.4 0.7 61.9 2.65 63.3 3.75 60.9 6.45 64.75 3.05 63.7 2.45
M 153.95 52.8
L 158.8 49.85 77.3 49.85 76.65 52.8 153.95 52.8
M 160.3 49.85
L 158.6 51 156 52.8 159 52.8 160.3 49.85
M 195.7 52.8
L 198.65 49.85 161.8 49.85 160.6 52.8 195.7 52.8
M 289.1 87.5
L 293.45 84.55 198.65 84.55 195.7 87.5 289.1 87.5
M 302.35 84.55
L 295.6 84.55 292.15 87.5 305.3 87.5 302.35 84.55 Z"/>

<path fill="#9C99A2" stroke="none" d="
M 60.55 83.4
L 44.05 87.5 63.6 87.5 60.55 83.4
M 41.4 84.3
L 59.45 79.9 62.8 69 41.4 69 41.4 84.3
M 62.8 69
L 64.75 69 63.35 67.6 60.15 66.15 62.8 69
M 134.15 87.5
L 160.85 87.5 160.85 69 66.7 69 63.2 80.85 69.75 87.5 130.05 87.5 132.4 74.15 134.15 87.5
M 155.75 57.8
L 153.95 52.8 76.65 52.8 78.3 57.35
Q 117.05 57.75 155.75 57.8
M 157.5 57.8
Q 159.1 57.8 160.75 57.8
L 159 52.8 156 52.8 157.5 57.8
M 289.35 92.3
L 289.1 87.5 195.7 87.5 195.7 52.8 160.6 52.8 162.4 57.8
Q 165.6 57.8 168.8 57.8 169.65 57.8 170.55 57.8
L 179.1 57.8
Q 180.2 57.75 181.35 57.75 181.85 57.75 182.35 57.75 185.15 57.75 187.95 57.75 188.2 57.75 188.45 57.75
L 190.75 57.75 190.9 92.3 289.35 92.3
M 292.15 87.5
L 292.35 92.3 310.1 92.3 310.45 80.65 305.3 80.5 305.3 87.5 292.15 87.5
M 295.6 84.55
L 302.35 84.55 302.35 82.05 295.7 83.1 295.6 84.55
M 305.2 8.6
L 305.25 8.55 305.3 77.25 310.5 77.55 312.65 0.7 247.6 0.7 243 2.8 234.05 0.7 66.3 0.7 65.45 1.8 66.25 2.6 60.9 6.45 63.3 3.75 61.9 2.65 63.4 0.7 13.2 0.7 0 30.1 0 30.2 10.3 46.95
Q 10.7 46.3 11.25 46.3 11.8 46.3 12.2 46.95 12.6 47.6 12.6 48.5 12.6 49.35 12.2 50
L 12.7 50.85
Q 12.85 50.6 13.1 50.6 13.35 50.6 13.5 50.85 13.7 51.15 13.7 51.5 13.7 51.9 13.5 52.15
L 14.25 53.4
Q 14.3 53.45 14.35 53.5 14.45 53.4 14.55 53.25 15.2 52.75 16.1 52.75 16.95 52.75 17.6 53.25 18.25 53.8 18.25 54.55 18.25 55.3 17.6 55.8 17.45 55.95 17.3 56.05 18.45 56.55 19.85 56.6 47.8 57.05 75.7 57.35
L 73.9 52.8 18.7 52.8 9.1 30.2 18.7 8.6 27.2 8.6 32.8 3.7 33.7 8.6 305.2 8.6
M 4.35 32.25
Q 4.35 32.55 4.2 32.7 4 32.95 3.7 32.95 3.45 32.95 3.25 32.7 3.1 32.55 3.1 32.25 3.1 31.95 3.25 31.7 3.45 31.55 3.7 31.55 4 31.55 4.2 31.7 4.35 31.95 4.35 32.25
M 302.35 19.1
Q 302.25 19 302.15 18.9 301.6 18.35 301.6 17.6 301.6 17.25 301.7 16.95 165.9 13.4 30.75 16.95 30.7 16.95 30.65 16.95 28.4 17 26.15 17.1 23.65 17.15 21.8 18.6 22 18.7 22.2 18.85 23 19.55 23 20.45 23 21.4 22.2 22 21.35 22.7 20.2 22.7 19.5 22.7 18.95 22.45 16.25 28.2 16.35 40
L 20.45 49.85 77.3 49.85 158.8 49.85 158.8 43.3 161.55 49.25 161.8 49.85 198.65 49.85 198.65 84.55 293.45 84.55 293.45 81.2 302.35 79.55 302.35 19.1
M 27.1 17.1
Q 27.45 17.1 27.65 17.35 27.85 17.65 27.85 18.05 27.85 18.1 27.85 18.15 28 18.35 28 18.55 28 19 27.4 19.35 26.8 19.7 26 19.7 25.15 19.7 24.55 19.35 24 19 24 18.55 24 18.1 24.55 17.75 25.15 17.4 26 17.4 26.25 17.4 26.55 17.5 26.55 17.4 26.6 17.35 26.8 17.1 27.1 17.1
M 18.4 25.25
Q 18.8 24.8 19.3 24.8 19.8 24.8 20.2 25.25 20.55 25.65 20.55 26.25 20.55 26.85 20.2 27.25 19.8 27.7 19.3 27.7 18.8 27.7 18.4 27.25 18.05 26.85 18.05 26.25 18.05 25.65 18.4 25.25 Z"/>

<path fill="#93939E" stroke="none" d="
M 64.75 69
L 66.7 69 63.75 66.15 63.35 67.6 64.75 69
M 12.6 48.5
Q 12.6 47.6 12.2 46.95 11.8 46.3 11.25 46.3 10.7 46.3 10.3 46.95
L 0 30.2 13.3 60.1 76.8 60.1 75.7 57.35
Q 47.8 57.05 19.85 56.6 18.45 56.55 17.3 56.05 17.45 55.95 17.6 55.8 18.25 55.3 18.25 54.55 18.25 53.8 17.6 53.25 16.95 52.75 16.1 52.75 15.2 52.75 14.55 53.25 14.45 53.4 14.35 53.5 14.3 53.45 14.25 53.4
L 13.5 52.15
Q 13.7 51.9 13.7 51.5 13.7 51.15 13.5 50.85 13.35 50.6 13.1 50.6 12.85 50.6 12.7 50.85
L 12.2 50
Q 12.6 49.35 12.6 48.5
M 161.55 60.1
L 160.75 57.8
Q 159.1 57.8 157.5 57.8
L 157.85 58.95 158.15 60.1 161.55 60.1
M 156.55 60.1
L 155.75 57.8
Q 117.05 57.75 78.3 57.35
L 78.65 58.4 79.25 60.1 156.55 60.1
M 310.5 77.55
L 312.65 77.65 312.65 0.7 310.5 77.55
M 289.5 94.85
L 289.35 92.3 190.9 92.3 190.75 57.75 188.45 57.75
Q 188.2 57.75 187.95 57.75 185.15 57.75 182.35 57.75 181.85 57.75 181.35 57.75 180.2 57.75 179.1 57.8
L 170.55 57.8
Q 169.65 57.8 168.8 57.8 165.6 57.8 162.4 57.8
L 162.85 58.95 163.25 60.1 188.45 60.1 188.35 94.85 289.5 94.85
M 303.1 81
L 295.1 82.45 295.1 83.8 291.65 86.85 291.65 93.9 292.4 94.85 312.65 94.85 312.65 80.7 311.35 80 305.95 79.55 303.1 81
M 295.7 83.1
L 302.35 82.05 305.3 80.5 310.45 80.65 310.1 92.3 292.35 92.3 292.15 87.5 295.6 84.55 295.7 83.1
M 4.2 32.7
Q 4.35 32.55 4.35 32.25 4.35 31.95 4.2 31.7 4 31.55 3.7 31.55 3.45 31.55 3.25 31.7 3.1 31.95 3.1 32.25 3.1 32.55 3.25 32.7 3.45 32.95 3.7 32.95 4 32.95 4.2 32.7
M 19.3 24.8
Q 18.8 24.8 18.4 25.25 18.05 25.65 18.05 26.25 18.05 26.85 18.4 27.25 18.8 27.7 19.3 27.7 19.8 27.7 20.2 27.25 20.55 26.85 20.55 26.25 20.55 25.65 20.2 25.25 19.8 24.8 19.3 24.8
M 27.65 17.35
Q 27.45 17.1 27.1 17.1 26.8 17.1 26.6 17.35 26.55 17.4 26.55 17.5 26.25 17.4 26 17.4 25.15 17.4 24.55 17.75 24 18.1 24 18.55 24 19 24.55 19.35 25.15 19.7 26 19.7 26.8 19.7 27.4 19.35 28 19 28 18.55 28 18.35 27.85 18.15 27.85 18.1 27.85 18.05 27.85 17.65 27.65 17.35
M 302.15 18.9
Q 302.25 19 302.35 19.1
L 302.35 11.65 169.5 12.2 30.7 11.65 30.65 11.65 20.15 11.6 20.45 12.2 20.15 11.65 12.3 30.2 16.35 40
Q 16.25 28.2 18.95 22.45 19.5 22.7 20.2 22.7 21.35 22.7 22.2 22 23 21.4 23 20.45 23 19.55 22.2 18.85 22 18.7 21.8 18.6 23.65 17.15 26.15 17.1 28.4 17 30.65 16.95 30.7 16.95 30.75 16.95 165.9 13.4 301.7 16.95 301.6 17.25 301.6 17.6 301.6 18.35 302.15 18.9 Z"/>

<path fill="#878793" stroke="none" d="
M 66.7 69
L 64.75 69 61.2 81.25 63.2 80.85 66.7 69
M 132.15 85.75
L 134.15 87.5 132.4 74.15 132.15 85.75
M 162.85 82.45
L 162.85 66.15 160.85 69 160.85 87.5 162.85 82.45
M 16.35 40
L 12.3 30.2 9.1 30.2 18.7 52.8 20.45 49.85 16.35 40
M 30.7 11.65
L 32.8 3.7 27.2 8.6 30.65 11.65 30.7 11.65
M 64.6 1.6
L 63.7 2.45 64.75 3.05 60.9 6.45 66.25 2.6 65.45 1.8 66.3 0.7 64.6 1.6
M 198.65 49.85
L 195.7 52.8 195.7 87.5 198.65 84.55 198.65 49.85
M 295.1 83.8
L 295.1 82.45 293.45 81.2 293.45 84.55 289.1 87.5 289.35 92.3 289.5 94.85 291.65 93.9 291.65 86.85 295.1 83.8
M 302.35 82.05
L 302.35 84.55 305.3 87.5 305.3 80.5 302.35 82.05
M 243 2.8
L 247.6 0.7 234.05 0.7 243 2.8
M 302.35 11.65
L 302.35 19.1 302.35 79.55 305.3 77.25 305.25 8.55 305.2 8.6 302.35 11.6 302.35 11.65 Z"/>

<path fill="#6E6E7A" stroke="none" d="
M 30.65 11.65
L 27.2 8.6 18.7 8.6 20.15 11.65 20.15 11.6 30.65 11.65
M 295.1 82.45
L 303.1 81 305.95 79.55 311.35 80 312.65 77.65 310.5 77.55 305.3 77.25 302.35 79.55 293.45 81.2 295.1 82.45
M 302.35 11.6
L 305.2 8.6 33.7 8.6 30.7 11.65 169.5 12.2 302.35 11.65 302.35 11.6 Z"/>
</g>

<g id="darksword_0_Layer0_0_FILL">
<path fill="#7F6D68" stroke="none" d="
M 176.6 253.35
Q 176.95 253.25 177.3 253.2 177.5 252.8 177.8 252.55
L 178.35 251.75
Q 178.85 250.95 178.5 249.9 178.3 249.2 177.85 248.7
L 165.75 250.55 168.2 253.6 169.05 254.7 176.6 253.35
M 203.3 230.85
L 204.15 230.95
Q 204.45 230.05 204.6 229.25 204.6 228.3 204.4 227.9 204.25 227.15 203.75 226.5 203.6 226.3 203.45 226.1 198.3 226.25 195.85 223.75
L 196.15 224.8
Q 196.2 225 196.25 225.2 197.65 230.1 203.3 230.85
M 257.75 278.25
Q 258.45 279.35 259.15 280.05
L 269.3 278.55
Q 269.1 276.95 268.4 275.5 267.9 274.5 267.25 273.75
L 256.5 275.55
Q 256.55 276.15 256.75 276.55 257.15 277.5 257.75 278.25
M 275.35 256.2
L 274.35 252.35
Q 274.5 253.45 274.45 254.65 274.4 254.9 274.35 255.15
L 274.05 257.5
Q 274.55 257.45 275.05 257.4
L 272.3 273.4 272.85 274.35
Q 273.2 274.95 273.3 275.4 273.45 275.95 273.6 277.2 273.6 277.35 273.65 277.5
L 276.05 261.1
Q 276.15 259.85 276.05 258.75 275.95 258 275.75 257.35 275.6 256.75 275.35 256.2
M 147.55 254.1
Q 149.05 254.95 152.05 254.95
L 165.25 255.35 167.35 255 163.8 250.85 149.7 253.05
Q 146.75 253.3 145.95 252.25 146 252.35 146.05 252.4 146.55 253.55 147.55 254.1
M 165.75 237.7
Q 166.15 237.35 166.15 236.75 166.15 236.2 165.75 235.8 165.4 235.45 164.85 235.45 164.25 235.45 163.9 235.8 163.5 236.2 163.5 236.75 163.5 237.35 163.9 237.7 164.25 238.1 164.85 238.1 165.4 238.1 165.75 237.7
M 170.95 235
Q 170.75 234.75 170.35 234.75 170 234.75 169.75 235 169.5 235.25 169.5 235.65 169.5 236 169.75 236.25 170 236.5 170.35 236.5 170.75 236.5 170.95 236.25 171.25 236 171.25 235.65 171.25 235.25 170.95 235
M 169 235
Q 169.3 235 169.5 234.75 169.75 234.55 169.75 234.25 169.75 233.95 169.5 233.75 169.3 233.55 169 233.55 168.7 233.55 168.45 233.75 168.25 233.95 168.25 234.25 168.25 234.55 168.45 234.75 168.7 235 169 235
M 166.1 232.45
Q 166.1 232.25 165.95 232.15 165.85 232 165.65 232 165.45 232 165.3 232.15 165.15 232.25 165.15 232.45 165.15 232.65 165.3 232.8 165.45 232.95 165.65 232.95 165.85 232.95 165.95 232.8 166.1 232.65 166.1 232.45
M 164.45 233.3
Q 164 233.3 163.7 233.6 163.4 233.95 163.4 234.35 163.4 234.8 163.7 235.1 164 235.45 164.45 235.45 164.85 235.45 165.15 235.1 165.5 234.8 165.5 234.35 165.5 233.95 165.15 233.6 164.85 233.3 164.45 233.3
M 151.8 239.75
Q 151.8 239.6 151.65 239.45 151.55 239.3 151.35 239.3 151.2 239.3 151.05 239.45 150.95 239.6 150.95 239.75 150.95 239.9 151.05 240.05 151.2 240.2 151.35 240.2 151.55 240.2 151.65 240.05 151.8 239.9 151.8 239.75
M 23.4 93.6
Q 24.05 95.55 25.1 97.4 27.95 102.45 33.6 106.65
L 71 132.6
Q 85.3 140.05 107.2 156 121.35 166.3 126 169.55 136.7 177 145.55 181.9 146.05 181.5 146.25 180.9
L 30.2 100.9
Q 25.4 97.25 23.4 93.6
M 124.2 70.65
L 124.4 66.1 113.5 66.1 124.2 70.65
M 224.65 187.55
Q 225 188.25 225.4 188.9
L 236.15 189.55
Q 236.25 189.35 236.25 189.2 236.6 188.2 236.6 187.8 236.6 187.05 236.2 186.2 235.95 185.75 235.65 185.3 229.55 185.45 223.7 184.6 223.95 186.05 224.65 187.55
M 241.8 162.95
Q 241.75 163.05 241.75 163.15
L 243.05 164.45 244.2 166.85 243.7 164.5 249.35 164.5 251.15 169.15 253.45 155.9
Q 253.55 154.55 253.45 153.35 253.25 152.05 252.8 150.95
L 251.55 146.4
Q 250.55 142 245.5 139.4 244.85 139.1 244.1 138.8 244.1 138.95 244.15 139.2 244.4 144.25 243.7 150.35 243.2 154.7 241.9 162.2
L 239.1 160.7 241.8 162.95
M 242.8 166.75
L 242.45 165.2 239.1 160.7 241.4 164.85 236.8 167.9 235.4 168.55 242 165.9 242.8 166.75
M 224.8 172
Q 224.15 172 223.7 172.45 223.2 172.95 223.2 173.55 223.2 174.2 223.7 174.65 224.05 175 224.6 175.1 224.45 175.2 224.35 175.3 223.9 175.7 223.85 176.4 223.6 176.45 223.35 176.7 223 177.05 223 177.55 223 178.05 223.35 178.4 220.8 179.05 219.45 180 217.05 181.6 215.5 184.9 215.35 185.25 215.2 185.6 217.35 182.5 221.4 182.8
L 235.15 183.65
Q 240.3 183.75 243.35 181.6 246.1 179.6 247.2 175.8 247.4 174.8 247.6 173.85
L 247.4 174.9
Q 247.3 175.35 247.2 175.8 247.15 176.05 247.1 176.3 246.3 180.65 244.5 182.55 244.2 182.9 243.8 183.2 243.9 183.3 243.9 183.4 244.4 184.3 245.75 185.95 246 186.25 246.2 186.5 248.3 184.4 249.05 180.9
L 250.6 172.15 249.65 169.5 248.8 167.05 244.2 166.85 242.8 166.75 235.05 168.8 240.7 167.8
Q 240.4 168.95 240.05 169.85 238.7 173.25 236.35 175.05 234.3 176.55 229.75 177.3 229.8 177.1 229.8 176.8 229.8 176 229.2 175.4 229.15 175.3 229.05 175.25 228.95 174.9 228.65 174.65 228.35 174.35 228 174.3 228.15 174.05 228.15 173.75 228.15 173.3 227.85 172.95 227.55 172.65 227.1 172.65 226.7 172.65 226.35 172.95 226.3 173 226.3 173.05 226.15 172.75 225.9 172.45 225.4 172 224.8 172
M 225.9 174.65
Q 226.1 174.45 226.2 174.25 226.25 174.35 226.35 174.45 226.45 174.55 226.55 174.65 226.4 174.75 226.3 174.95 226.05 174.8 225.75 174.8 225.8 174.7 225.9 174.65
M 179.3 177.4
Q 178.95 177.2 178.5 177.05 177.05 176.6 174.85 177.5 171.5 178.8 171.15 178.9 168.75 179.45 165.8 178.3 164.65 177.9 163.1 177 163.3 176.9 163.4 176.7 164.4 175.75 164.4 174.4 164.4 173.05 163.4 172.05 162.45 171.05 161.1 171.05 159.7 171.05 158.7 172.05 158 172.75 157.8 173.7
L 113.25 144.95
Q 113.6 144.75 113.9 144.45 115 143.35 115 141.75 115 140.15 113.9 139 112.8 137.9 111.2 137.9 110.45 137.9 109.85 138.15 109.45 136.9 108.5 135.95 106.95 134.4 104.8 134.4 102.65 134.4 101.1 135.95 100.75 136.3 100.5 136.7
L 65.85 114.4
Q 55.6 107.75 51.2 104.55 43.2 98.8 37.65 93.2 28.3 83.65 20.25 68.9 17 62.95 12.5 53
L 21.75 87.65
Q 21.85 88.05 22.05 88.45 24.65 95.3 31.9 100.7
L 155.3 186.25
Q 157 187.45 158.1 189 159.25 190.65 159.8 192.75
L 160.1 195.55 161.35 205.75
Q 166.55 210.5 169.85 217.15 173.95 225.5 173.85 234.4 173.8 235.75 173.65 236.5 173.4 237.65 172.8 238.4 172.15 239.3 170.85 239.8 170 240.1 168.35 240.45 168.05 239.95 167.65 239.5 166.55 238.4 164.95 238.4 163.4 238.4 162.3 239.5 161.3 240.5 161.25 241.9
L 161.05 241.95
Q 155.75 243 152.65 243 150.15 242.9 148.25 242.3 148.45 242.15 148.65 242 149.7 241.35 149.7 240.4 149.7 239.8 149.3 239.3 149.45 239.1 149.45 238.9 149.45 238.7 149.25 238.5 149 238.35 148.65 238.35 148.35 238.35 148.15 238.5 147.35 238.1 146.25 238.1 144.8 238.1 143.75 238.75 143.55 238.9 143.45 239 142.5 237.9 141.7 236.35 140.85 234.75 139.6 231.3 137.9 226.55 137.4 223.8 137 221.55 137.1 219.6 131.8 220.7 133.1 227.5
L 134.1 231.05 138.65 243.85
Q 141.15 250 145.8 251.45 147.7 252 149.95 251.75
L 164.45 249.25 165.35 247 165.55 249.05 174.9 247.4
Q 175 247.4 175.1 247.4 181.6 245.85 183.15 239.9 183.3 240.2 183.7 240.5 183.85 240.7 184.1 240.9 184.2 240.9 184.4 241 184.55 241.1 184.7 241.1 184.9 241.05 185 240.7
L 185 240.1
Q 185 239.9 185.2 239.2
L 184.4 227.4
Q 184.1 222.6 188.45 220.4
L 190.15 219.6
Q 190.15 219.3 190.15 218.9 190.15 218.15 190 217.75
L 189.5 217.15 188.5 216.25
Q 187.85 215.65 187.5 215.5 187.25 215.35 186.8 215.35 186.2 215.65 185.65 216.1 184.65 217.05 184.1 218.4 183.4 220.3 183.5 224 183.5 226.2 183.6 235.05
L 182.75 221.4
Q 182.5 217.45 185.4 215.35 186.05 214.85 186.8 214.45
L 190.95 212.45
Q 194.8 211.05 194.65 213.85
L 194.2 217.2
Q 194.25 217.6 194.3 218 194.45 219 194.85 219.9 195.25 221.1 196 222.05 197 223.3 198.6 224.05 200.45 224.3 201.7 224.9
L 211.6 225.9 243.05 257.35 243.6 260.05 219.3 235.5
Q 219.2 235.75 219.1 235.95 219.05 236.3 219.05 237.05 219.1 237.4 219.45 238.05
L 244.15 262.75 245.3 268.5
Q 245.65 269.2 246 269.8 249.35 275.05 255.1 274.4
L 271.9 271.95 274.05 257.5
Q 273.7 257.6 273.35 257.8 271.7 258.55 269.8 260.1 269.65 259.9 269.45 259.7 268.85 259.1 268 259.1 267.2 259.1 266.6 259.7 266.2 260.1 266.05 260.6 265.25 260 264.2 260 262.85 260 261.9 261 260.9 261.95 260.9 263.3 260.9 264.7 261.9 265.65 262.4 266.15 263 266.4 258.35 269.3 253.75 261.5 248.25 252.15 243.7 247.75 238.65 242.4 236.1 239.8 229.35 232.85 221.3 227.1 221.3 227 221.3 226.9 221.3 226.7 221.15 226.55 221 226.4 220.8 226.4 220.6 226.4 220.5 226.55 219.5 225.9 218.6 225.25 218.6 225.1 218.6 224.95 218.6 224.5 218.3 224.2 218 223.9 217.6 223.9 217.2 223.9 216.95 224.15 216.05 223.6 215.15 223.05 215.8 222.9 216.3 222.4 216.95 221.75 216.95 220.8 216.95 219.8 216.3 219.15 215.65 218.5 214.65 218.5 213.7 218.5 213.05 219.15 212.35 219.8 212.35 220.8 212.35 221.1 212.45 221.4 209.65 219.7 208.45 218.7 205.7 216.35 205 213.6 204.85 213.1 204.5 211.05 204.2 209.45 203.75 208.6 202.4 206.25 198.5 205.95 193.85 206.1 191.65 205.95 186 205.7 182.15 200.6 178.3 195.55 179.5 189.95 179.75 188.9 180.6 186.45 181.35 184.3 181.5 183 181.7 181.35 181.2 179.9 181.25 179.8 181.3 179.75 181.8 179.3 181.8 178.65 181.8 178 181.3 177.55 180.85 177.1 180.2 177.1 179.7 177.1 179.3 177.4
M 227.05 224.65
Q 227.05 224.5 226.95 224.4 226.9 224.35 226.75 224.35 226.6 224.35 226.5 224.4 226.45 224.5 226.45 224.65 226.45 224.8 226.5 224.85 226.6 224.95 226.75 224.95 226.9 224.95 226.95 224.85 227.05 224.8 227.05 224.65
M 223.95 222.6
Q 223.8 222.45 223.55 222.45 223.3 222.45 223.15 222.6 223 222.8 223 223 223 223.25 223.15 223.4 223.3 223.6 223.55 223.6 223.8 223.6 223.95 223.4 224.1 223.25 224.1 223 224.1 222.8 223.95 222.6
M 264.1 257.05
Q 263.7 257.45 263.7 258.05 263.7 258.6 264.1 259 264.5 259.4 265.1 259.4 265.65 259.4 266.05 259 266.5 258.6 266.5 258.05 266.5 257.45 266.05 257.05 265.65 256.65 265.1 256.65 264.5 256.65 264.1 257.05
M 114.3 128.45
Q 114.3 126.9 113.2 125.8 112.1 124.7 110.55 124.7 108.95 124.7 107.85 125.8 106.75 126.9 106.75 128.45 106.75 130.05 107.85 131.15 108.95 132.25 110.55 132.25 112.1 132.25 113.2 131.15 114.3 130.05 114.3 128.45
M 100.4 128.95
Q 99.8 128.95 99.4 129.35 99 129.75 99 130.35 99 130.9 99.4 131.3 99.8 131.75 100.4 131.75 100.95 131.75 101.35 131.3 101.75 130.9 101.75 130.35 101.75 129.75 101.35 129.35 100.95 128.95 100.4 128.95
M 76.45 97.6
Q 75.3 96.45 73.6 96.45 71.9 96.45 70.7 97.6 69.5 98.8 69.5 100.5 69.5 102.2 70.7 103.35 71.9 104.55 73.6 104.55 75.3 104.55 76.45 103.35 77.65 102.2 77.65 100.5 77.65 98.8 76.45 97.6
M 77 76.75
Q 77.2 76.5 77.2 76.2 77.2 75.85 77 75.6 76.75 75.4 76.4 75.4 76.1 75.4 75.85 75.6 75.6 75.85 75.6 76.2 75.6 76.5 75.85 76.75 76.1 77 76.4 77 76.75 77 77 76.75
M 70.8 70.3
Q 70.8 70.2 70.7 70.1 70.6 70 70.5 70 70.4 70 70.3 70.1 70.25 70.2 70.25 70.3 70.25 70.4 70.3 70.45 70.4 70.55 70.5 70.55 70.6 70.55 70.7 70.45 70.8 70.4 70.8 70.3
M 40.4 86.65
Q 39.6 87.45 39.6 88.6 39.6 89.75 40.4 90.5 41.25 91.35 42.35 91.35 43.5 91.35 44.3 90.5 45.15 89.75 45.15 88.6 45.15 87.45 44.3 86.65 43.5 85.85 42.35 85.85 41.25 85.85 40.4 86.65
M 236.9 164.25
Q 236.9 164.1 236.75 164 236.65 163.85 236.45 163.85 236.3 163.85 236.15 164 236.05 164.1 236.05 164.25 236.05 164.45 236.15 164.55 236.3 164.7 236.45 164.7 236.65 164.7 236.75 164.55 236.9 164.45 236.9 164.25
M 232.85 160.5
Q 232.65 160.3 232.25 160.3 231.9 160.3 231.65 160.5 231.4 160.8 231.4 161.15 231.4 161.5 231.65 161.75 231.9 162 232.25 162 232.65 162 232.85 161.75 233.15 161.5 233.15 161.15 233.15 160.8 232.85 160.5
M 181.5 174.7
Q 181.3 174.55 181 174.55 180.7 174.55 180.45 174.7 180.25 174.95 180.25 175.25 180.25 175.55 180.45 175.75 180.7 176 181 176 181.3 176 181.5 175.75 181.7 175.55 181.7 175.25 181.7 174.95 181.5 174.7
M 181.85 173.25
Q 181.6 173.25 181.4 173.45 181.2 173.65 181.2 173.9 181.2 174.15 181.4 174.35 181.6 174.55 181.85 174.55 182.1 174.55 182.3 174.35 182.5 174.15 182.5 173.9 182.5 173.65 182.3 173.45 182.1 173.25 181.85 173.25
M 185.85 170.3
Q 185.85 170 185.65 169.8 185.45 169.6 185.15 169.6 184.85 169.6 184.65 169.8 184.45 170 184.45 170.3 184.45 170.6 184.65 170.8 184.85 171 185.15 171 185.45 171 185.65 170.8 185.85 170.6 185.85 170.3 Z"/>

<path fill="#A6A098" stroke="none" d="
M 201.65 224.9
L 201.7 224.9
Q 200.45 224.3 198.6 224.05 199.9 224.65 201.65 224.9
M 134 230.75
L 134.1 231.05 133.1 227.5
Q 133.4 229 134 230.75
M 137.6 219.5
Q 137.35 219.5 137.1 219.6 137 221.55 137.4 223.8 137.9 226.55 139.6 231.3 140.85 234.75 141.7 236.35 142.5 237.9 143.45 239 143.55 238.9 143.75 238.75 144.8 238.1 146.25 238.1 147.35 238.1 148.15 238.5 148.35 238.35 148.65 238.35 149 238.35 149.25 238.5 149.45 238.7 149.45 238.9 149.45 239.1 149.3 239.3 149.7 239.8 149.7 240.4 149.7 241.35 148.65 242 148.45 242.15 148.25 242.3 150.15 242.9 152.65 243 155.75 243 161.05 241.95
L 161.25 241.9
Q 161.3 240.5 162.3 239.5 163.4 238.4 164.95 238.4 166.55 238.4 167.65 239.5 168.05 239.95 168.35 240.45 170 240.1 170.85 239.8 172.15 239.3 172.8 238.4 173.4 237.65 173.65 236.5 173.8 235.75 173.85 234.4 173.95 225.5 169.85 217.15 166.55 210.5 161.35 205.75
L 162.2 212.8
Q 162 216.65 156.9 217.8
L 137.6 219.5
M 151.65 239.45
Q 151.8 239.6 151.8 239.75 151.8 239.9 151.65 240.05 151.55 240.2 151.35 240.2 151.2 240.2 151.05 240.05 150.95 239.9 150.95 239.75 150.95 239.6 151.05 239.45 151.2 239.3 151.35 239.3 151.55 239.3 151.65 239.45
M 163.7 233.6
Q 164 233.3 164.45 233.3 164.85 233.3 165.15 233.6 165.5 233.95 165.5 234.35 165.5 234.8 165.15 235.1 164.85 235.45 164.45 235.45 164 235.45 163.7 235.1 163.4 234.8 163.4 234.35 163.4 233.95 163.7 233.6
M 165.95 232.15
Q 166.1 232.25 166.1 232.45 166.1 232.65 165.95 232.8 165.85 232.95 165.65 232.95 165.45 232.95 165.3 232.8 165.15 232.65 165.15 232.45 165.15 232.25 165.3 232.15 165.45 232 165.65 232 165.85 232 165.95 232.15
M 169.5 234.75
Q 169.3 235 169 235 168.7 235 168.45 234.75 168.25 234.55 168.25 234.25 168.25 233.95 168.45 233.75 168.7 233.55 169 233.55 169.3 233.55 169.5 233.75 169.75 233.95 169.75 234.25 169.75 234.55 169.5 234.75
M 170.35 234.75
Q 170.75 234.75 170.95 235 171.25 235.25 171.25 235.65 171.25 236 170.95 236.25 170.75 236.5 170.35 236.5 170 236.5 169.75 236.25 169.5 236 169.5 235.65 169.5 235.25 169.75 235 170 234.75 170.35 234.75
M 166.15 236.75
Q 166.15 237.35 165.75 237.7 165.4 238.1 164.85 238.1 164.25 238.1 163.9 237.7 163.5 237.35 163.5 236.75 163.5 236.2 163.9 235.8 164.25 235.45 164.85 235.45 165.4 235.45 165.75 235.8 166.15 236.2 166.15 236.75
M 247.6 173.85
Q 247.4 174.8 247.2 175.8 247.3 175.35 247.4 174.9
L 247.6 173.85
M 226.2 174.25
Q 226.1 174.45 225.9 174.65 225.8 174.7 225.75 174.8 226.05 174.8 226.3 174.95 226.4 174.75 226.55 174.65 226.45 174.55 226.35 174.45 226.25 174.35 226.2 174.25
M 229.75 136.85
Q 229.6 136.8 229.45 136.8 227.05 136.4 225.45 136.6 223.25 136.9 222.1 138.2 221.3 139.2 220.9 141.2 220.4 143.95 220.2 144.45 220.1 144.75 218.6 147.7
L 217.8 156.9
Q 216.65 162 212.75 162.2
L 192.75 159.8
Q 188.75 158.8 186.2 155.35
L 128.95 72.65 124.2 70.65 113.5 66.1 124.4 66.1 109 43.9
Q 108.45 43.2 107.95 42.6 101.7 35.3 95.25 31.1 89.35 27.2 81 24.45 75.9 22.8 65.7 20.4 55 17.9 42.25 14.9 30.65 12.15 17.35 9 7.15 6.7 4.05 11.3 2.8 13.2 2.95 17.25
L 12.5 53
Q 17 62.95 20.25 68.9 28.3 83.65 37.65 93.2 43.2 98.8 51.2 104.55 55.6 107.75 65.85 114.4
L 100.5 136.7
Q 100.75 136.3 101.1 135.95 102.65 134.4 104.8 134.4 106.95 134.4 108.5 135.95 109.45 136.9 109.85 138.15 110.45 137.9 111.2 137.9 112.8 137.9 113.9 139 115 140.15 115 141.75 115 143.35 113.9 144.45 113.6 144.75 113.25 144.95
L 157.8 173.7
Q 158 172.75 158.7 172.05 159.7 171.05 161.1 171.05 162.45 171.05 163.4 172.05 164.4 173.05 164.4 174.4 164.4 175.75 163.4 176.7 163.3 176.9 163.1 177 164.65 177.9 165.8 178.3 168.75 179.45 171.15 178.9 171.5 178.8 174.85 177.5 177.05 176.6 178.5 177.05 178.95 177.2 179.3 177.4 179.7 177.1 180.2 177.1 180.85 177.1 181.3 177.55 181.8 178 181.8 178.65 181.8 179.3 181.3 179.75 181.25 179.8 181.2 179.9 181.7 181.35 181.5 183 181.35 184.3 180.6 186.45 179.75 188.9 179.5 189.95 178.3 195.55 182.15 200.6 186 205.7 191.65 205.95 193.85 206.1 198.5 205.95 202.4 206.25 203.75 208.6 204.2 209.45 204.5 211.05 204.85 213.1 205 213.6 205.7 216.35 208.45 218.7 209.65 219.7 212.45 221.4 212.35 221.1 212.35 220.8 212.35 219.8 213.05 219.15 213.7 218.5 214.65 218.5 215.65 218.5 216.3 219.15 216.95 219.8 216.95 220.8 216.95 221.75 216.3 222.4 215.8 222.9 215.15 223.05 216.05 223.6 216.95 224.15 217.2 223.9 217.6 223.9 218 223.9 218.3 224.2 218.6 224.5 218.6 224.95 218.6 225.1 218.6 225.25 219.5 225.9 220.5 226.55 220.6 226.4 220.8 226.4 221 226.4 221.15 226.55 221.3 226.7 221.3 226.9 221.3 227 221.3 227.1 229.35 232.85 236.1 239.8 238.65 242.4 243.7 247.75 248.25 252.15 253.75 261.5 258.35 269.3 263 266.4 262.4 266.15 261.9 265.65 260.9 264.7 260.9 263.3 260.9 261.95 261.9 261 262.85 260 264.2 260 265.25 260 266.05 260.6 266.2 260.1 266.6 259.7 267.2 259.1 268 259.1 268.85 259.1 269.45 259.7 269.65 259.9 269.8 260.1 271.7 258.55 273.35 257.8 272.7 255.05 270.95 252.65 268.7 249.55 265.3 247.95 263.9 247.25 260.85 246.35 257.9 245.4 256.5 244.7 252.7 242.7 249.3 237.35 247.3 233.85 245.75 231.45
L 225.9 211.6 225.3 205.7
Q 224.05 203.5 223.3 202.1 221.6 199.1 220.4 197.95 218.2 195.8 215.8 196 214.5 196.25 213.85 196.3 213.65 196.3 213.45 196.3 212.6 196.25 212.15 195.8 211.6 195.35 211.6 194.65 211.6 194.3 211.7 193.95 211.8 193.6 211.95 193.3 211.9 192.4 212.45 190.95
L 214.45 186.8
Q 214.8 186.15 215.2 185.6 215.35 185.25 215.5 184.9 217.05 181.6 219.45 180 220.8 179.05 223.35 178.4 223 178.05 223 177.55 223 177.05 223.35 176.7 223.6 176.45 223.85 176.4 223.9 175.7 224.35 175.3 224.45 175.2 224.6 175.1 224.05 175 223.7 174.65 223.2 174.2 223.2 173.55 223.2 172.95 223.7 172.45 224.15 172 224.8 172 225.4 172 225.9 172.45 226.15 172.75 226.3 173.05 226.3 173 226.35 172.95 226.7 172.65 227.1 172.65 227.55 172.65 227.85 172.95 228.15 173.3 228.15 173.75 228.15 174.05 228 174.3 228.35 174.35 228.65 174.65 228.95 174.9 229.05 175.25 229.15 175.3 229.2 175.4 229.8 176 229.8 176.8 229.8 177.1 229.75 177.3 234.3 176.55 236.35 175.05 238.7 173.25 240.05 169.85 240.4 168.95 240.7 167.8
L 235.05 168.8 234.7 168.85 235.4 168.55 236.8 167.9 241.4 164.85 239.1 160.7 241.9 162.2
Q 243.2 154.7 243.7 150.35 244.4 144.25 244.15 139.2 234.75 137.55 229.75 136.85
M 185.65 169.8
Q 185.85 170 185.85 170.3 185.85 170.6 185.65 170.8 185.45 171 185.15 171 184.85 171 184.65 170.8 184.45 170.6 184.45 170.3 184.45 170 184.65 169.8 184.85 169.6 185.15 169.6 185.45 169.6 185.65 169.8
M 181.4 173.45
Q 181.6 173.25 181.85 173.25 182.1 173.25 182.3 173.45 182.5 173.65 182.5 173.9 182.5 174.15 182.3 174.35 182.1 174.55 181.85 174.55 181.6 174.55 181.4 174.35 181.2 174.15 181.2 173.9 181.2 173.65 181.4 173.45
M 181 174.55
Q 181.3 174.55 181.5 174.7 181.7 174.95 181.7 175.25 181.7 175.55 181.5 175.75 181.3 176 181 176 180.7 176 180.45 175.75 180.25 175.55 180.25 175.25 180.25 174.95 180.45 174.7 180.7 174.55 181 174.55
M 232.25 160.3
Q 232.65 160.3 232.85 160.5 233.15 160.8 233.15 161.15 233.15 161.5 232.85 161.75 232.65 162 232.25 162 231.9 162 231.65 161.75 231.4 161.5 231.4 161.15 231.4 160.8 231.65 160.5 231.9 160.3 232.25 160.3
M 236.75 164
Q 236.9 164.1 236.9 164.25 236.9 164.45 236.75 164.55 236.65 164.7 236.45 164.7 236.3 164.7 236.15 164.55 236.05 164.45 236.05 164.25 236.05 164.1 236.15 164 236.3 163.85 236.45 163.85 236.65 163.85 236.75 164
M 39.6 88.6
Q 39.6 87.45 40.4 86.65 41.25 85.85 42.35 85.85 43.5 85.85 44.3 86.65 45.15 87.45 45.15 88.6 45.15 89.75 44.3 90.5 43.5 91.35 42.35 91.35 41.25 91.35 40.4 90.5 39.6 89.75 39.6 88.6
M 70.7 70.1
Q 70.8 70.2 70.8 70.3 70.8 70.4 70.7 70.45 70.6 70.55 70.5 70.55 70.4 70.55 70.3 70.45 70.25 70.4 70.25 70.3 70.25 70.2 70.3 70.1 70.4 70 70.5 70 70.6 70 70.7 70.1
M 77.2 76.2
Q 77.2 76.5 77 76.75 76.75 77 76.4 77 76.1 77 75.85 76.75 75.6 76.5 75.6 76.2 75.6 75.85 75.85 75.6 76.1 75.4 76.4 75.4 76.75 75.4 77 75.6 77.2 75.85 77.2 76.2
M 73.6 96.45
Q 75.3 96.45 76.45 97.6 77.65 98.8 77.65 100.5 77.65 102.2 76.45 103.35 75.3 104.55 73.6 104.55 71.9 104.55 70.7 103.35 69.5 102.2 69.5 100.5 69.5 98.8 70.7 97.6 71.9 96.45 73.6 96.45
M 99.4 129.35
Q 99.8 128.95 100.4 128.95 100.95 128.95 101.35 129.35 101.75 129.75 101.75 130.35 101.75 130.9 101.35 131.3 100.95 131.75 100.4 131.75 99.8 131.75 99.4 131.3 99 130.9 99 130.35 99 129.75 99.4 129.35
M 113.2 125.8
Q 114.3 126.9 114.3 128.45 114.3 130.05 113.2 131.15 112.1 132.25 110.55 132.25 108.95 132.25 107.85 131.15 106.75 130.05 106.75 128.45 106.75 126.9 107.85 125.8 108.95 124.7 110.55 124.7 112.1 124.7 113.2 125.8
M 263.7 258.05
Q 263.7 257.45 264.1 257.05 264.5 256.65 265.1 256.65 265.65 256.65 266.05 257.05 266.5 257.45 266.5 258.05 266.5 258.6 266.05 259 265.65 259.4 265.1 259.4 264.5 259.4 264.1 259 263.7 258.6 263.7 258.05
M 223.55 222.45
Q 223.8 222.45 223.95 222.6 224.1 222.8 224.1 223 224.1 223.25 223.95 223.4 223.8 223.6 223.55 223.6 223.3 223.6 223.15 223.4 223 223.25 223 223 223 222.8 223.15 222.6 223.3 222.45 223.55 222.45
M 226.95 224.4
Q 227.05 224.5 227.05 224.65 227.05 224.8 226.95 224.85 226.9 224.95 226.75 224.95 226.6 224.95 226.5 224.85 226.45 224.8 226.45 224.65 226.45 224.5 226.5 224.4 226.6 224.35 226.75 224.35 226.9 224.35 226.95 224.4 Z"/>

<path fill="#665753" stroke="none" d="
M 187.5 215.5
Q 187.85 215.65 188.5 216.25
L 189.5 217.15 190 217.75
Q 190.15 218.15 190.15 218.9 190.15 219.3 190.15 219.6
L 192.6 218.4
Q 193.55 218.05 194.3 218 194.25 217.6 194.2 217.2
L 194.65 213.85
Q 194.8 211.05 190.95 212.45
L 186.8 214.45
Q 186.05 214.85 185.4 215.35 182.5 217.45 182.75 221.4
L 183.6 235.05
Q 183.5 226.2 183.5 224 183.4 220.3 184.1 218.4 184.65 217.05 185.65 216.1 186.2 215.65 186.8 215.35 187.25 215.35 187.5 215.5
M 243.6 260.05
L 243.05 257.35 211.6 225.9 201.7 224.9 201.65 224.9
Q 199.9 224.65 198.6 224.05 197 223.3 196 222.05 195.25 221.1 194.85 219.9
L 195.85 223.75
Q 198.3 226.25 203.45 226.1 203.6 226.3 203.75 226.5 204.25 227.15 204.4 227.9 204.6 228.3 204.6 229.25 204.45 230.05 204.15 230.95
L 213.25 231.85 219.45 238.05
Q 219.1 237.4 219.05 237.05 219.05 236.3 219.1 235.95 219.2 235.75 219.3 235.5
L 243.6 260.05
M 275.05 257.4
Q 274.55 257.45 274.05 257.5
L 271.9 271.95 255.1 274.4
Q 249.35 275.05 246 269.8 245.65 269.2 245.3 268.5
L 247 274.45
Q 250.35 281.05 256.75 280.35
L 259.15 280.05
Q 258.45 279.35 257.75 278.25 257.15 277.5 256.75 276.55 256.55 276.15 256.5 275.55
L 267.25 273.75
Q 267.9 274.5 268.4 275.5 269.1 276.95 269.3 278.55
L 273.55 277.9 273.65 277.5
Q 273.6 277.35 273.6 277.2 273.45 275.95 273.3 275.4 273.2 274.95 272.85 274.35
L 272.3 273.4 275.05 257.4
M 134.8 233.65
Q 135.1 235.05 135.7 236.75
L 140.3 249.8
Q 143.85 258.5 151.65 257.75
L 165.25 255.35 152.05 254.95
Q 149.05 254.95 147.55 254.1 146.55 253.55 146.05 252.4 146 252.35 145.95 252.25 146.75 253.3 149.7 253.05
L 163.8 250.85 167.35 255 168.2 253.6 165.75 250.55 177.85 248.7
Q 178.3 249.2 178.5 249.9 178.85 250.95 178.35 251.75
L 177.8 252.55
Q 177.5 252.8 177.3 253.2 185.5 250.95 185.3 241.15
L 185.2 239.2
Q 185 239.9 185 240.1
L 185 240.7
Q 184.9 241.05 184.7 241.1 184.55 241.1 184.4 241 184.2 240.9 184.1 240.9 183.85 240.7 183.7 240.5 183.3 240.2 183.15 239.9 181.6 245.85 175.1 247.4 175 247.4 174.9 247.4
L 165.55 249.05 165.35 247 164.45 249.25 149.95 251.75
Q 147.7 252 145.8 251.45 141.15 250 138.65 243.85
L 134.1 231.05 134.8 233.65
M 22.05 88.45
L 23.4 93.6
Q 25.4 97.25 30.2 100.9
L 146.25 180.9
Q 146.05 181.5 145.55 181.9 136.7 177 126 169.55 121.35 166.3 107.2 156 85.3 140.05 71 132.6
L 157 192.2
Q 158.95 193.65 160.1 195.55
L 159.8 192.75
Q 159.25 190.65 158.1 189 157 187.45 155.3 186.25
L 31.9 100.7
Q 24.65 95.3 22.05 88.45
M 248.8 167.05
L 249.65 169.5 251.15 169.15 249.35 164.5 243.7 164.5 244.2 166.85 248.8 167.05
M 221.4 182.8
Q 217.35 182.5 215.2 185.6 214.8 186.15 214.45 186.8
L 212.45 190.95
Q 211.9 192.4 211.95 193.3 212.1 194.75 213.85 194.65
L 215.3 194.45 216.15 192.75
Q 218.3 188.4 223.05 188.75
L 225.4 188.9
Q 225 188.25 224.65 187.55 223.95 186.05 223.7 184.6 229.55 185.45 235.65 185.3 235.95 185.75 236.2 186.2 236.6 187.05 236.6 187.8 236.6 188.2 236.25 189.2 236.25 189.35 236.15 189.55
L 236.85 189.6
Q 243 189.75 246.2 186.5 246 186.25 245.75 185.95 244.4 184.3 243.9 183.4 243.9 183.3 243.8 183.2 244.2 182.9 244.5 182.55 246.3 180.65 247.1 176.3 247.15 176.05 247.2 175.8 246.1 179.6 243.35 181.6 240.3 183.75 235.15 183.65
L 221.4 182.8
M 242.8 166.75
L 242 165.9 235.4 168.55 234.7 168.85 235.05 168.8 242.8 166.75
M 242.45 165.2
L 242.8 166.75 244.2 166.85 243.05 164.45 241.75 163.15
Q 241.75 163.05 241.8 162.95
L 239.1 160.7 242.45 165.2 Z"/>

<path fill="#CCC4BA" stroke="none" d="
M 268.5 245.3
L 257.35 243.05 245.75 231.45
Q 247.3 233.85 249.3 237.35 252.7 242.7 256.5 244.7 257.9 245.4 260.85 246.35 263.9 247.25 265.3 247.95 268.7 249.55 270.95 252.65 272.7 255.05 273.35 257.8 273.7 257.6 274.05 257.5
L 274.35 255.15
Q 274.4 254.9 274.45 254.65 274.5 253.45 274.35 252.35 274.2 251.55 273.95 250.9 272.75 247.5 268.5 245.3
M 100.7 31.9
Q 95 24.3 87.65 21.75
L 7.4 0.35
Q 2.8 -0.6 1.1 1.1 -0.6 2.8 0.35 7.4
L 2.95 17.25
Q 2.8 13.2 4.05 11.3 7.15 6.7 17.35 9 30.65 12.15 42.25 14.9 55 17.9 65.7 20.4 75.9 22.8 81 24.45 89.35 27.2 95.25 31.1 101.7 35.3 107.95 42.6 108.45 43.2 109 43.9
L 100.7 31.9
M 211.95 193.3
Q 211.8 193.6 211.7 193.95 211.6 194.3 211.6 194.65 211.6 195.35 212.15 195.8 212.6 196.25 213.45 196.3 213.65 196.3 213.85 196.3 214.5 196.25 215.8 196 218.2 195.8 220.4 197.95 221.6 199.1 223.3 202.1 224.05 203.5 225.3 205.7
L 224.85 201.7
Q 224.8 201.2 224.7 200.8 224.55 200 224.3 199.25 224.2 199.15 224.2 199.1 222.5 194.8 217.2 194.25
L 215.3 194.45 213.85 194.65
Q 212.1 194.75 211.95 193.3
M 230.75 134
Q 220.5 130.55 219.45 137.65
L 218.6 147.7
Q 220.1 144.75 220.2 144.45 220.4 143.95 220.9 141.2 221.3 139.2 222.1 138.2 223.25 136.9 225.45 136.6 227.05 136.4 229.45 136.8 229.6 136.8 229.75 136.85 234.75 137.55 244.15 139.2 244.1 138.95 244.1 138.8 244 138.7 243.85 138.65
L 230.75 134 Z"/>
</g>

<g id="darkhealth_0_Layer0_0_FILL">
<path fill="#665753" stroke="none" d="
M 127.3 226.15
L 129.05 226.15 127.3 217.2 127.3 226.15
M 137.55 205.65
L 127.65 207.85 139.75 207.85 139.75 139.75 137.55 205.65
M 127.65 207.85
L 125.45 198.65 126 207.85 129.05 211.85 129.05 226.15 132 229 132 217.45 132 211.85 127.65 207.85
M 90 162.8
L 89.25 139.75 89.25 207.85 104.75 207.85 91.35 205.95 90 162.8
M 139.75 52.7
L 139.45 60 138.1 89.35 139.75 89.35 139.75 52.7
M 89.25 89.35
L 85.6 85.65 15.85 85.65 21.05 89.35 21.05 139.75 22.95 139.75 21.6 116.55 22.45 97.05 22.8 89.35 89.25 89.35
M 136.9 21.2
Q 139.25 28.65 139.75 40.1
L 139.75 21.2 143.45 17.2 85.6 17.2 89.25 21.2 89.25 89.35 90.4 89.35 89.9 67.85 89.75 60.45 89.75 60.2
Q 89.65 36.2 93 21.2
L 136.9 21.2
M 163.95 89.35
L 166.9 85.65 143.45 85.65 139.75 89.35 161.9 89.35 163.95 89.35
M 165.3 98.45
L 165.25 96.3 162.2 99.75 158.25 103.25 159.25 107.95 159.25 104.25 165.3 98.45
M 71.95 106.25
L 71.75 106.2
Q 71.7 106.15 71.65 106.05 71.4 105.5 70.75 105.5 70.7 105.5 70.6 105.45 70.25 105.35 70 105.15 69.95 105.05 69.75 105.05 68.85 105.1 68.1 104.8 67.95 104.75 67.75 104.8 67.5 104.85 67.35 104.85 67.2 104.9 67.1 104.9 66.05 105.3 65.2 105.7 65.1 105.75 64.95 105.8 64.85 105.85 64.75 105.85 64 105.95 63.55 106.2 63.15 106.4 63 107.05 62.95 107.3 62.95 107.55 63 108.15 62.6 108.4 62.15 108.65 61.85 109.2 61.8 109.35 61.65 109.45 61.5 109.55 61.4 109.65 61.3 109.75 61.1 109.75 60.3 109.65 59.65 110 59.55 110.1 59.4 110.2 59.3 110.35 59.15 110.45 58.55 110.9 58.45 111.55 58.45 111.95 58.15 112.3 58.1 112.4 58.1 112.55 58.05 113.15 58 113.75 57.95 114.35 58.1 114.85 58.1 114.9 58.2 114.95 58.45 115.1 58.75 115.25 58.75 114.75 58.8 114.25 58.8 114.1 58.85 114 59.15 113.65 59.15 113.25 59.25 112.6 59.85 112.15 60 112.05 60.1 111.9 60.25 111.8 60.35 111.7 61 111.35 61.8 111.45 62 111.45 62.1 111.35 62.2 111.25 62.35 111.15 62.5 111.05 62.55 110.9 62.85 110.35 63.3 110.1 63.7 109.85 63.65 109.25 63.65 109 63.7 108.75 63.85 108.1 64.25 107.9 64.7 107.65 65.45 107.55 65.55 107.55 65.65 107.5 65.8 107.45 65.9 107.4 66.75 107 67.8 106.6 67.9 106.6 68.05 106.55 68.2 106.55 68.45 106.5 68.65 106.45 68.8 106.5 69.55 106.8 70.45 106.75 70.65 106.75 70.7 106.85 70.95 107.05 71.3 107.15 71.4 107.2 71.45 107.2 72.1 107.2 72.35 107.75 72.4 107.85 72.45 107.9
L 72.65 107.95
Q 72.6 107.25 72.2 106.95 72 106.75 71.95 106.25
M 168.65 77.85
L 168.35 85.65 165.25 89.35 165.25 96.3 170 105 170.6 102.4 167.15 97.4 168.55 89.35 170.65 89.35 206.05 89.35 207 111.45 207.05 112.05 205.6 139.75 207.45 139.75 207.45 89.35 211.85 85.65 171.8 85.65 168.65 77.85 Z"/>

<path fill="#CCC4BA" stroke="none" d="
M 127.3 211.85
L 124.35 207.85 118.05 207.85 104.75 207.85 89.25 207.85 85.6 211.85 127.3 211.85
M 127.65 207.85
L 132 211.85 143.45 211.85 139.75 207.85 127.65 207.85
M 22.95 139.75
L 21.05 139.75 15.85 143.45 85.6 143.45 89.25 139.75 22.95 139.75
M 16.25 73.6
L 8.4 71.7 14.3 74.8 16.25 73.6
M 211.85 143.45
L 207.45 139.75 205.6 139.75 139.75 139.75 143.45 143.45 211.85 143.45 Z"/>

<path fill="#7F6D68" stroke="none" d="
M 126 207.85
L 125.45 198.65 124.35 207.85 127.3 211.85 127.3 217.2 129.05 226.15 129.05 211.85 126 207.85
M 159 192.85
Q 158.75 193.05 158.45 193.2 158.1 193.45 157.85 193.7 157.7 193.95 157.6 194.3 157.55 194.65 157.5 195 157.35 196.75 157.5 198.55 157.55 198.9 157.6 199.25 157.7 199.8 157.75 200.3 158.15 203.85 156.7 206 156.5 206.3 156.2 206.55 155.95 206.85 155.7 207.1 154.7 208.15 153.95 208.9 153.7 209.15 153.65 209.5 153.65 210.7 153.2 211.3 153 211.6 152.9 211.95 152.8 212.3 152.65 212.5 151.7 213.4 151.55 214.45 151.55 214.65 151.3 214.7 149.3 215.2 147.1 215.15 146.75 215.15 146.6 215.3 146.3 215.75 145.35 215.6 144.5 215.5 143.6 215.65 143.45 215.7 143.2 215.8 142 216.45 140.4 216.25 140.05 216.2 139.8 216.35 137.7 217.7 135.1 217.65 133.55 217.6 132 217.45
L 132 229 159 229 159 192.85
M 91.85 169.7
Q 91.2 166.15 90 162.8
L 91.35 205.95 104.75 207.85 118.05 207.85
Q 117.3 207.4 116.3 207.45 116.1 207.45 115.95 207.35 115.45 207.15 114.7 207 114.6 206.95 114.5 206.9 113.45 206.55 112.55 206.05 112.45 206 112.35 205.95 110.4 205.35 108.8 204.7 108.5 204.6 108.25 204.45 107.95 204.25 107.4 204.2 107.2 204.2 107 204.15 106.5 204.1 106 204 105.75 203.95 105.45 203.95 105.25 203.9 105.1 203.8 104.6 203.6 103.85 203.45 103.65 203.4 103.45 203.35 103.05 203.2 102.65 203.05 102.45 203 102.25 202.95 101.75 202.9 101.3 202.8 101.2 202.8 101.1 202.8 100 202.6 99.1 201.95 98.15 201.3 97.35 200.9 97.25 200.85 97.2 200.75 96.5 199.55 96.2 198.35 96.15 198.15 96.15 197.95 96.15 197.9 96.15 197.85 96.4 198.6 96.95 199.15 97.95 200.15 99.35 200.15 100.75 200.15 101.7 199.15 102.7 198.2 102.7 196.8 102.7 195.4 101.7 194.4 100.75 193.45 99.35 193.45 97.95 193.45 96.95 194.4 96.35 195.05 96.15 195.9 96.1 195.15 96.05 194.4 96 193.15 96.05 191.85 96.1 189.95 95.85 188.3 95.5 186.05 94.75 183.95 94.1 182.1 93.6 180.2 93.45 179.5 93.3 178.8 93.3 178.7 93.25 178.6 93.15 175.5 92.4 172.5 92.1 171.1 91.85 169.7
M 89.25 139.75
L 85.6 143.45 85.6 211.85 89.25 207.85 89.25 139.75
M 143.45 143.45
L 139.75 139.75 139.75 207.85 143.45 211.85 143.45 143.45
M 21.05 89.35
L 15.85 85.65 15.85 143.45 21.05 139.75 21.05 89.35
M 1.9 73.95
Q 1.85 73.75 1.8 73.6
L 0 73.6 0 159 70 159 70 229 127.3 229 127.3 226.15 127.3 217.2
Q 126.45 217.15 125.6 217.1 123.9 217 123 217.45 122.75 217.6 122.5 217.75 120.85 218.9 119.25 219.8 117.6 220.75 115.7 220.5 115.2 220.45 114.7 220.3 113.5 219.95 112.5 219.75 111.3 219.55 110.35 218.7 110.05 218.5 109.8 218.2 109.15 217.6 107.9 217.75 107.4 217.8 106.85 217.9 104.25 218.5 101.55 218.7 100.1 218.8 99.1 219.35 97.4 220.3 95.2 220.15 94.85 220.1 94.55 220.25 93.6 220.7 92.8 220.95 90.85 221.55 88.85 220.75 88.5 220.65 88.15 220.5 84.05 218.9 80.35 217.25 80 217.1 79.95 216.85 79.65 214.95 79.65 213 79.65 212.15 79.5 211.25 79.4 210.4 79.35 209.55 79.25 208.3 79.3 207 79.3 206.65 79.15 206.4 78.55 205.4 78.45 204.2 78.45 204.05 78.4 203.85 78.25 201.35 78.4 198.9 78.45 198.75 78.45 198.55 78.55 197.05 79.05 196.1 79.3 195.7 79.45 195.05 79.5 194.85 79.6 194.6 79.9 194.05 80.25 193.2 80.7 192.1 81.2 191.1 81.85 189.65 82.55 188.3 83.2 187.05 82.4 185.9 81.9 185.15 81.2 184.2 80.8 183.6 80.35 183 79.85 182.3 79.55 181.5 77.9 176.8 78.2 171.7 78.25 171.2 78.05 170.75 77.8 170.2 77.75 169.2 77.75 168.85 77.55 168.5 77 167.3 77.35 165.4 77.4 165.2 77.45 164.95 77.85 164.1 78.35 163.65 79.2 162.9 80 162.15 80.2 162 80.2 161.8 80.35 159 80.35 156.15 80.35 155.8 80.25 155.75 79.6 155.55 79.3 154.55 77.2 154.4 75.05 154.4 74.7 154.4 74.45 154.25 74.2 154.05 73.9 153.95 72.9 153.5 71.95 152.55 71.55 152.1 70.9 151.75 69.6 151.1 68 151.35 67.65 151.4 67.3 151.4 66.05 151.55 64.85 151.55 61.8 151.55 58.8 151.7 58.45 151.75 58.1 151.7 56.4 151.65 55.4 152.05 55.35 151.25 54.75 150.65 54.15 150.05 53.25 150.05 52.35 150.05 51.7 150.65 51.1 151.3 51.1 152.2 51.1 152.85 51.4 153.35 51.25 153.4 51.15 153.45 50.5 153.9 50 154 49.65 154.05 49.35 154.15 49.15 154.25 48.95 154.2 47.35 154.15 45.75 154.05 44.65 154 43.65 153.75 43.3 153.7 43.25 153.6 42.95 152.8 41.85 152.8 41.5 152.8 41.2 152.5 40.85 152.15 40.45 151.95 40.35 151.8 40.2 151.65 39.95 151.4 39.6 151.4 39.35 151.4 39.15 151.55 38.6 151.45 38 151.5 37.65 151.55 37.3 151.4 37.15 151.35 37 151.3 37.05 151.25 37.1 151.2 37.65 150.65 37.65 149.9 37.65 149.15 37.1 148.6 36.55 148.05 35.8 148.05 35.05 148.05 34.5 148.6 33.95 149.15 33.95 149.9 33.95 150.65 34.5 151.2 34.55 151.25 34.6 151.25 34.35 151.3 34.15 151.4 33.4 151.7 32 151.7 31.45 151.75 30.9 151.75 30.15 151.8 29.5 152.2 26.6 154.1 22.8 153.7 23.4 153.55 23.05 152.65 23 152.45 22.8 152.25 22.1 151.75 21.5 151.1 21.25 150.85 20.95 150.65 20.5 150.35 20.15 149.95 19.2 148.9 17.85 149.05 17.5 149.1 17.5 149.2 17.15 150.5 17.15 151.9 17.2 153.9 16.4 155.05 15.5 156.25 13.6 156 13.45 156 13.25 156 12.5 156.05 12.55 155.45 12.65 152 12.15 148.75 12.1 148.35 11.6 147.9 11.35 147.65 11.1 147.35 10 146.05 9.4 145.15 8.9 144.4 8.55 143.85 8.25 143.25 7.8 142.4 7.6 142 7.55 141.6 7.25 140.1 7.4 138.5 7.45 137.8 7.55 137.05 7.6 136.7 7.75 136.45 8.05 135.9 8.05 134.95 8.15 132.9 7.5 131.1 7.45 130.9 7.4 130.7 7.35 130.05 7.35 129.45 7.55 130.3 8.2 130.95 9.15 131.9 10.5 131.9 11.85 131.9 12.8 130.95 13.75 130 13.75 128.65 13.75 127.3 12.8 126.35 11.85 125.4 10.5 125.4 9.15 125.4 8.2 126.35 7.45 127.1 7.3 128.15 7.25 126.75 7.25 125.4 7.25 125.05 7.4 124.8 7.7 124.25 7.75 123.3 7.8 122.6 7.9 121.9 7.95 121.55 8.1 121.3 8.45 120.8 8.65 120.1 9.05 118.65 9.8 117.35 9.9 117.15 9.95 116.9 10.1 116.05 10.15 115.15 10.2 114.5 10.15 113.95 10 112.8 9.35 112 9.2 111.85 9.1 111.6 9 111.3 8.85 111.05 7.95 109.6 7.5 108.1 7.25 107.25 7 106.3 6.9 105.85 6.85 105.3 6.8 104.85 6.8 104.4 6.4 103.85 6.1 103.3 5.75 102.7 5.35 102.1 4.9 101.35 4.7 100.6 4.5 99.8 4.5 98.8 4.5 96.65 4.4 94.5 4.25 92.35 4.15 90.4 4.1 88.85 4.45 87.75 4.5 87.55 4.6 87.4 4.75 87.05 4.75 86.65 4.8 86.05 4.95 85.7 5.05 85.6 5.05 85.4 5.15 83.4 4.6 81.65 4.35 80.95 4.05 80.15 3.85 79.75 3.55 79.3 3.5 79.25 3.45 79.15 3.3 78.7 3.1 78.55 2.9 78.4 2.8 78.05 2.45 77 2.3 76.1 2.25 75.65 2.15 75.2 2 74.6 1.9 73.95
M 139.45 60
Q 138.6 61.95 138.4 64.2 138.1 67.15 138.55 70.1 138.55 70.2 138.55 70.3 138.65 72.25 138.6 74.25 138.6 74.9 138.45 75.45 138.2 76.4 138.05 77.45 138 77.65 137.9 77.8 137.65 78.05 137.6 78.6 137.6 78.8 137.55 79 137.4 79.4 137.35 79.8 137.3 80.1 137.25 80.4 137.2 80.6 137.15 80.8 137.1 81.1 137.05 81.4 137 81.6 136.95 81.8 136.9 82.1 136.85 82.35 136.8 82.55 136.75 82.75 136.45 83.5 136.4 84.35 136.4 84.55 136.4 84.75 136.3 85.7 136.3 86.7 136.3 87.3 136.2 87.9 136.2 88 136.2 88.1 136.05 89.1 135.85 90.1 135.55 91.8 135.8 93.65 135.8 93.85 135.9 94.05 136.25 94.65 136.2 95.4 136.2 95.5 136.2 95.6 136.3 96.6 136.35 97.6 136.35 97.95 136.9 97.9 138.45 97.7 139.85 96.85 140.7 96.3 141.65 96.05 141.95 96 142.25 96.05 143.15 96.1 143.65 95.9 143.8 95.8 144 95.8 145.3 95.75 146.45 96.3 146.5 96.35 146.55 96.35 146.45 96.5 146.45 96.65 146.45 96.8 146.55 96.9 146.7 97.05 146.85 97.05 147 97.05 147.1 96.9 147.25 96.8 147.25 96.65 147.25 96.6 147.25 96.55 148.2 96.75 149.35 96.65 150.55 96.6 151.7 96.5 151.8 96.5 151.9 96.45 152.85 96.1 153.75 95.7 153.9 95.6 154.1 95.6 155.85 95.6 157.65 95.5 157.75 95.5 157.85 95.4 158.25 94.9 159.25 94.9 160 94.7 160.45 94.45 160.85 94.2 161.4 94.15 161.9 94.1 161.9 93.65 161.9 92.85 161.95 92.05 162 90.75 161.9 89.35
L 139.75 89.35 138.1 89.35 139.45 60
M 90.65 70.3
Q 90.2 69.05 89.9 67.85
L 90.4 89.35 89.25 89.35 22.8 89.35 22.45 97.05
Q 22.7 96.6 22.85 96.3 22.95 96.15 23.05 96 23.15 95.85 23.25 95.7 23.7 94.85 24.55 94.7 24.65 94.65 24.75 94.65 25.4 94.5 25.95 94.15 26.05 94.05 26.15 94.05 26.65 93.95 27.15 93.9 27.35 93.85 27.55 93.8 28.05 93.75 28.55 93.65 28.65 93.65 28.75 93.65 29.9 93.6 30.9 93.25 31.65 93.05 32.75 93.1 33.25 93.15 33.75 93.2 34.15 93.25 34.6 93.3 34.1 93.5 33.7 93.9 32.85 94.8 32.85 96.05 32.85 97.3 33.7 98.15 34.6 99.05 35.85 99.05 37.1 99.05 37.95 98.15 38.85 97.3 38.85 96.05 38.85 94.8 37.95 93.9 37.65 93.6 37.3 93.4 37.55 93.45 37.75 93.45 37.95 93.45 38.15 93.45 39.15 93.55 40.15 93.65 40.25 93.65 40.35 93.65 41.65 93.6 42.75 93.9 42.95 93.95 43.1 94.05 43.4 94.2 43.95 94.25 45 94.3 45.75 94.5 45.95 94.55 46.1 94.65 46.4 94.8 46.95 94.8 47.95 94.75 48.95 94.65 49.15 94.65 49.35 94.65 51.55 94.6 53.55 94.15 55.65 93.65 57.75 93.15 58.05 93.05 58.35 93.05 62.25 92.95 66.15 92.95 66.35 92.95 66.4 93.05 66.55 93.3 66.95 93.2 67.45 93.15 67.95 93.25 69.1 93.5 70.35 93.6 70.65 93.65 70.95 93.7 71.55 93.75 72.15 93.8 73 93.95 73.95 94 74.35 94.05 74.75 94.15 75.7 94.45 76.35 94.7 76.55 94.75 76.7 94.85 77 95 77.55 95 78.65 94.95 79.55 95.3 80.35 95.6 81.2 95.7 81.35 95.75 81.55 95.75 82.6 95.8 83.55 95.5 83.65 95.45 83.75 95.45 84.2 95.5 84.25 95.15 84.25 95.05 84.35 95 86.65 94.3 88.95 94 89.15 93.95 89.3 93.85 89.7 93.65 89.95 93.6 91.25 93.25 92.1 92.5 92.25 92.35 92.4 92.2 92.75 91.8 92.75 91.35 92.75 90.45 92.65 89.55 92.45 87.7 92.5 85.75 92.55 83.75 92.45 81.75 92.45 81.25 92.4 80.75 92.35 79.55 92.25 78.35 92.1 76.3 92.05 74.15 92.05 74.05 92 73.95 91.8 73.2 91.4 72.35 90.95 71.35 90.65 70.3
M 89.25 21.2
L 85.6 17.2 85.6 85.65 89.25 89.35 89.25 21.2
M 133 29.2
Q 133 28.6 132.75 28.05 132.85 28.05 132.95 28.05 133.5 28.05 133.9 28.25 134.2 28.4 134.4 28.65 134.5 28.8 134.55 29 134.6 29.1 134.65 29.2 135.15 30.2 135.45 31.2 135.5 31.4 135.6 31.55 135.7 31.85 135.85 32.15 136 32.65 136.15 33.15 136.2 33.25 136.25 33.35 136.5 34.15 136.5 35.15 136.5 36.15 136.75 37.1 136.8 37.3 136.85 37.5 136.9 37.8 136.95 38.1 137 38.3 137 38.5 137 39.55 137.15 40.45 137.25 40.95 137.3 41.45 137.35 42.5 137.6 43.45 137.65 43.75 137.7 44.05 137.75 44.25 137.75 44.4 137.8 44.95 137.95 45.45 138.05 45.7 138.15 45.95 138.25 46.3 138.4 46.6 138.75 47.4 139.1 48.4 139.15 48.5 139.2 48.55 139.45 49.25 139.75 49.75
L 139.75 52.7 139.75 89.35 143.45 85.65 143.45 17.2 139.75 21.2 139.75 40.1
Q 139.25 28.65 136.9 21.2
L 93 21.2
Q 89.65 36.2 89.75 60.2
L 89.75 60.45
Q 89.9 60.15 90.05 59.85 90.5 59.05 90.7 58.25 90.95 57.45 91.4 56.7 91.6 56.35 91.95 55.85 92.35 55.3 92.85 54.5 92.9 54.4 93 54.3 93.3 54 93.5 53.65 93.6 53.5 93.7 53.35 93.8 53.2 93.9 53.05 94 52.9 94.1 52.75 94.2 52.65 94.3 52.5 94.4 52.35 94.45 52.15 94.5 52.05 94.55 51.95 95 51.2 95.25 50.35 95.45 49.75 95.7 48.95 96 48.25 96.05 47.4 96.05 47.3 96.1 47.2 96.15 46.9 96.2 46.6 96.25 46.4 96.3 46.2 96.45 45.6 96.6 45.1 97.75 46 99.25 46 101 46 102.25 44.75 103.5 43.5 103.5 41.75 103.5 40 102.25 38.75 101.3 37.8 100.1 37.6 100.2 37.2 100.4 36.85 100.5 36.7 100.5 36.5 100.5 35.35 100.6 34.15 100.6 34.05 100.6 33.95 100.65 33.4 100.9 33.15 101 33.05 101 32.95 101.05 32.4 101.4 32.2 101.5 32.15 101.55 31.95 101.65 31.6 101.9 31.55 102.1 31.5 102.3 31.35 102.55 31.2 103.1 30.95 103.65 30.7 104.5 30.25 105.4 29.75 106.45 29.45 106.75 29.4 107.05 29.4 109.2 29.5 110.8 29.05 111.1 29 111.4 29 112.85 29.05 114.15 28.75 114.25 28.7 114.35 28.65 115.8 28.15 116.55 27.3 116.7 27.15 116.9 27.1 120.5 25.95 124.45 26.2 125.65 26.25 126.8 26.35 127.2 26.35 127.6 26.5 128.2 26.75 128.8 26.95 128.6 27.1 128.4 27.3 127.6 28.1 127.6 29.2 127.6 30.3 128.4 31.1 129.2 31.9 130.3 31.9 131.4 31.9 132.2 31.1 133 30.3 133 29.2
M 229 95.9
Q 228.55 96.2 228.05 96.5 227.85 96.65 227.85 96.8 227.85 97.45 227.25 97.75 226.15 98.3 225.4 99.2 225.2 99.5 225.2 99.65 225.15 101.5 223.45 102.2 223.25 102.3 223.15 102.5 223.05 102.8 222.9 103.05 222.6 103.6 222.55 104.6 222.55 104.8 222.45 105 221 108.15 217.8 109.95 217.6 110.1 217.55 110.25 217.35 112.85 216.8 115.15 216.7 115.55 216.55 115.85 216.2 116.6 216.35 118 216.55 119.6 215.95 120.45 215.85 120.65 215.75 120.9 215.65 121.2 215.5 121.45 215.15 121.9 215.05 122.6 214.85 124.45 215.6 125.45 215.85 125.75 216.1 126 217.4 127.45 219.2 128.95 219.4 129.15 219.45 129.35 219.8 130.7 219.15 131.8 218.65 132.65 218.05 133.5 217.95 133.75 217.9 133.9 217.75 135.3 217.75 136.7 217.75 137.25 217.9 137.75 218.1 138.45 218.55 139.5 218.95 140.45 219 141.65 219.15 145.2 218.05 148.4 217.95 148.75 217.95 149.1 217.95 149.75 217.4 150.1 217.05 150.35 216.7 150.85 214.9 150.95 213.85 151.4 213.55 151.55 213.35 151.7 212.4 152.65 210.35 152.6 209.65 152.6 209.05 152.8 208.2 153.1 206.8 152.95 205.4 152.8 204.75 153.35 204.55 153.5 204.35 153.5 202.25 153.7 200.1 153.7 199.75 153.7 199.5 153.85 198.95 154.15 198 154.2 197.5 154.25 196.95 154.3 196.4 154.4 195.85 154.5 195.5 154.6 195.15 154.55 192.6 154.45 190.6 155.5 188.85 156.45 187.1 157.25 186.9 157.4 186.65 157.45 185.2 158 183.5 157.95 181.2 157.9 178.9 157.6 178.4 157.55 177.95 157.35 177.3 157 176.45 157.1 175.05 157.2 173.6 157.35 173.1 157.4 172.55 157.4 166.2 157.4 160.2 159
L 229 159 229 95.9
M 211.85 85.65
L 207.45 89.35 207.45 139.75 211.85 143.45 211.85 85.65
M 165.25 96.3
L 165.3 98.45 168.1 102.4 169.4 107.6 170 105 165.25 96.3
M 110.95 189
Q 110.6 189.4 110.6 189.95 110.6 190.5 110.95 190.85 111.35 191.25 111.9 191.25 112.45 191.25 112.8 190.85 113.2 190.5 113.2 189.95 113.2 189.4 112.8 189 112.45 188.65 111.9 188.65 111.35 188.65 110.95 189
M 107.7 184.9
Q 107.25 184.9 106.95 185.2 106.65 185.5 106.65 185.95 106.65 186.4 106.95 186.7 107.25 187 107.7 187 108.15 187 108.45 186.7 108.75 186.4 108.75 185.95 108.75 185.5 108.45 185.2 108.15 184.9 107.7 184.9
M 71.45 107.2
Q 71.4 107.2 71.3 107.15 70.95 107.05 70.7 106.85 70.65 106.75 70.45 106.75 69.55 106.8 68.8 106.5 68.65 106.45 68.45 106.5 68.2 106.55 68.05 106.55 67.9 106.6 67.8 106.6 66.75 107 65.9 107.4 65.8 107.45 65.65 107.5 65.55 107.55 65.45 107.55 64.7 107.65 64.25 107.9 63.85 108.1 63.7 108.75 63.65 109 63.65 109.25 63.7 109.85 63.3 110.1 62.85 110.35 62.55 110.9 62.5 111.05 62.35 111.15 62.2 111.25 62.1 111.35 62 111.45 61.8 111.45 61 111.35 60.35 111.7 60.25 111.8 60.1 111.9 60 112.05 59.85 112.15 59.25 112.6 59.15 113.25 59.15 113.65 58.85 114 58.8 114.1 58.8 114.25 58.75 114.75 58.75 115.25 58.85 115.35 58.95 115.35 59.85 115.5 60.75 115.6 60.95 115.6 61.15 115.7 61.3 115.75 61.45 115.8 61.6 115.85 61.75 115.85 62.1 115.95 62.45 116.1 62.55 116.15 62.6 116.2 62.85 116.25 63.1 116.3 63.2 116.35 63.25 116.35 64.05 116.45 64.65 116.1 64.8 116.05 64.9 116 65.5 115.75 65.75 115.05 65.85 114.8 66 114.65 66.1 114.6 66.15 114.45 66.3 114.1 66.45 113.9 66.65 113.45 66.9 112.95 66.95 112.9 67.1 112.85 67.65 112.65 68.3 112.1 68.7 111.75 68.95 111.6 69.4 111.3 69.95 111.3 70.1 111.35 70.25 111.3 70.7 111.25 71.1 111.2 71.3 111.15 71.45 111.1 71.75 110.95 72.1 110.85 72.2 110.85 72.25 110.75 72.65 110.4 72.7 109.75 72.75 109 72.7 108.25 72.7 108.15 72.7 108.1
L 72.65 108.05
Q 72.65 108 72.65 107.95
L 72.45 107.9
Q 72.4 107.85 72.35 107.75 72.1 107.2 71.45 107.2
M 59.4 98.3
Q 59.4 97.55 58.85 97 58.3 96.45 57.55 96.45 56.8 96.45 56.25 97 55.7 97.55 55.7 98.3 55.7 99.05 56.25 99.6 56.8 100.15 57.55 100.15 58.3 100.15 58.85 99.6 59.4 99.05 59.4 98.3
M 54.5 97.1
Q 55.1 97.1 55.5 96.65 55.95 96.25 55.95 95.65 55.95 95.05 55.5 94.6 55.1 94.2 54.5 94.2 53.9 94.2 53.45 94.6 53.05 95.05 53.05 95.65 53.05 96.25 53.45 96.65 53.9 97.1 54.5 97.1
M 44.35 97.1
Q 43.8 97.65 43.8 98.45 43.8 99.25 44.35 99.8 44.9 100.35 45.7 100.35 46.5 100.35 47.05 99.8 47.6 99.25 47.6 98.45 47.6 97.65 47.05 97.1 46.5 96.55 45.7 96.55 44.9 96.55 44.35 97.1
M 109.55 57.4
Q 109.55 57 109.25 56.7 109 56.45 108.6 56.45 108.2 56.45 107.9 56.7 107.65 57 107.65 57.4 107.65 57.8 107.9 58.05 108.2 58.35 108.6 58.35 109 58.35 109.25 58.05 109.55 57.8 109.55 57.4
M 105.25 53.5
Q 105.25 53.15 105 52.9 104.8 52.7 104.45 52.7 104.1 52.7 103.85 52.9 103.65 53.15 103.65 53.5 103.65 53.85 103.85 54.05 104.1 54.3 104.45 54.3 104.8 54.3 105 54.05 105.25 53.85 105.25 53.5
M 121.3 35.3
Q 121.3 35.05 121.1 34.85 120.95 34.7 120.7 34.7 120.45 34.7 120.25 34.85 120.1 35.05 120.1 35.3 120.1 35.55 120.25 35.7 120.45 35.9 120.7 35.9 120.95 35.9 121.1 35.7 121.3 35.55 121.3 35.3
M 115.85 34.55
Q 115.85 33.95 115.4 33.5 115 33.1 114.4 33.1 113.8 33.1 113.35 33.5 112.95 33.95 112.95 34.55 112.95 35.15 113.35 35.55 113.8 36 114.4 36 115 36 115.4 35.55 115.85 35.15 115.85 34.55
M 127.1 38.55
Q 127.1 38.3 126.9 38.1 126.7 37.9 126.45 37.9 126.2 37.9 126 38.1 125.8 38.3 125.8 38.55 125.8 38.8 126 39 126.2 39.2 126.45 39.2 126.7 39.2 126.9 39 127.1 38.8 127.1 38.55
M 170.65 89.35
Q 170.5 89.65 170.35 89.95 170.2 90.25 170.1 90.65 169.9 91.7 169.8 92.85 169.7 93.9 170.25 94.7 170.3 94.8 170.5 94.8 171.35 94.8 172.25 94.7 172.35 94.7 172.45 94.7 173.85 94.6 175.25 94.5 175.45 94.5 175.65 94.45 176.1 94.3 176.45 94.55 176.7 94.7 177 94.85 179.7 96.2 182.4 97.1 182.65 97.2 182.95 97.2 183.65 97.15 184.25 97.45 184.15 97.8 184.15 98.25 184.15 100 185.4 101.25 186.65 102.5 188.4 102.5 190.15 102.5 191.4 101.25 192.25 100.4 192.5 99.4 192.6 99.4 192.65 99.4 193.4 99.55 194.2 99.6 194.95 99.7 195.25 99.4 195.55 99.05 196 98.9 196.2 98.85 196.4 98.7 196.95 98.3 197.4 98.1 197.55 98 197.75 97.95 198.6 97.8 199.05 98.3 199.35 98.7 199.7 99 201.05 100.1 201.75 101.55 201.8 101.65 201.9 101.75 202.35 102.15 202.55 102.9 202.6 103.1 202.7 103.3 203 104.25 203.4 104.95 203.6 105.3 203.75 105.65 203.9 106 204 106.35 204.1 106.6 204.2 106.9 204.75 108.2 205.15 109.05 205.2 109.15 205.3 109.2 205.9 109.55 206.35 110.3 206.45 110.45 206.55 110.6 206.8 111.05 207 111.45
L 206.05 89.35 170.65 89.35
M 47.1 150.55
Q 47.1 149.95 46.65 149.5 46.2 149.05 45.6 149.05 45 149.05 44.55 149.5 44.1 149.95 44.1 150.55 44.1 151.15 44.55 151.6 45 152.05 45.6 152.05 46.2 152.05 46.65 151.6 47.1 151.15 47.1 150.55
M 168.35 85.65
L 168.65 77.85 168.1 76.45 166.9 85.65 163.95 89.35 163.55 96.1 157.85 101.55 158.25 103.25 162.2 99.75 165.25 96.3 165.25 89.35 168.35 85.65 Z"/>

<path fill="#A6A098" stroke="none" d="
M 170.35 89.95
Q 170.5 89.65 170.65 89.35
L 168.55 89.35 167.15 97.4 170.6 102.4 170 105 169.4 107.6 168.1 102.4 165.3 98.45 159.25 104.25 159.25 107.95 158.25 103.25 157.85 101.55 163.55 96.1 163.95 89.35 161.9 89.35
Q 162 90.75 161.95 92.05 161.9 92.85 161.9 93.65 161.9 94.1 161.4 94.15 160.85 94.2 160.45 94.45 160 94.7 159.25 94.9 158.25 94.9 157.85 95.4 157.75 95.5 157.65 95.5 155.85 95.6 154.1 95.6 153.9 95.6 153.75 95.7 152.85 96.1 151.9 96.45 151.8 96.5 151.7 96.5 150.55 96.6 149.35 96.65 148.2 96.75 147.25 96.55 147.25 96.6 147.25 96.65 147.25 96.8 147.1 96.9 147 97.05 146.85 97.05 146.7 97.05 146.55 96.9 146.45 96.8 146.45 96.65 146.45 96.5 146.55 96.35 146.5 96.35 146.45 96.3 145.3 95.75 144 95.8 143.8 95.8 143.65 95.9 143.15 96.1 142.25 96.05 141.95 96 141.65 96.05 140.7 96.3 139.85 96.85 138.45 97.7 136.9 97.9 136.35 97.95 136.35 97.6 136.3 96.6 136.2 95.6 136.2 95.5 136.2 95.4 136.25 94.65 135.9 94.05 135.8 93.85 135.8 93.65 135.55 91.8 135.85 90.1 136.05 89.1 136.2 88.1 136.2 88 136.2 87.9 136.3 87.3 136.3 86.7 136.3 85.7 136.4 84.75 136.4 84.55 136.4 84.35 136.45 83.5 136.75 82.75 136.8 82.55 136.85 82.35 136.9 82.1 136.95 81.8 137 81.6 137.05 81.4 137.1 81.1 137.15 80.8 137.2 80.6 137.25 80.4 137.3 80.1 137.35 79.8 137.4 79.4 137.55 79 137.6 78.8 137.6 78.6 137.65 78.05 137.9 77.8 138 77.65 138.05 77.45 138.2 76.4 138.45 75.45 138.6 74.9 138.6 74.25 138.65 72.25 138.55 70.3 138.55 70.2 138.55 70.1 138.1 67.15 138.4 64.2 138.6 61.95 139.45 60
L 139.75 52.7 139.75 49.75
Q 139.45 49.25 139.2 48.55 139.15 48.5 139.1 48.4 138.75 47.4 138.4 46.6 138.25 46.3 138.15 45.95 138.05 45.7 137.95 45.45 137.8 44.95 137.75 44.4 137.75 44.25 137.7 44.05 137.65 43.75 137.6 43.45 137.35 42.5 137.3 41.45 137.25 40.95 137.15 40.45 137 39.55 137 38.5 137 38.3 136.95 38.1 136.9 37.8 136.85 37.5 136.8 37.3 136.75 37.1 136.5 36.15 136.5 35.15 136.5 34.15 136.25 33.35 136.2 33.25 136.15 33.15 136 32.65 135.85 32.15 135.7 31.85 135.6 31.55 135.5 31.4 135.45 31.2 135.15 30.2 134.65 29.2 134.6 29.1 134.55 29 134.5 28.8 134.4 28.65 134.2 28.4 133.9 28.25 133.5 28.05 132.95 28.05 132.85 28.05 132.75 28.05 133 28.6 133 29.2 133 30.3 132.2 31.1 131.4 31.9 130.3 31.9 129.2 31.9 128.4 31.1 127.6 30.3 127.6 29.2 127.6 28.1 128.4 27.3 128.6 27.1 128.8 26.95 128.2 26.75 127.6 26.5 127.2 26.35 126.8 26.35 125.65 26.25 124.45 26.2 120.5 25.95 116.9 27.1 116.7 27.15 116.55 27.3 115.8 28.15 114.35 28.65 114.25 28.7 114.15 28.75 112.85 29.05 111.4 29 111.1 29 110.8 29.05 109.2 29.5 107.05 29.4 106.75 29.4 106.45 29.45 105.4 29.75 104.5 30.25 103.65 30.7 103.1 30.95 102.55 31.2 102.3 31.35 102.1 31.5 101.9 31.55 101.65 31.6 101.55 31.95 101.5 32.15 101.4 32.2 101.05 32.4 101 32.95 101 33.05 100.9 33.15 100.65 33.4 100.6 33.95 100.6 34.05 100.6 34.15 100.5 35.35 100.5 36.5 100.5 36.7 100.4 36.85 100.2 37.2 100.1 37.6 101.3 37.8 102.25 38.75 103.5 40 103.5 41.75 103.5 43.5 102.25 44.75 101 46 99.25 46 97.75 46 96.6 45.1 96.45 45.6 96.3 46.2 96.25 46.4 96.2 46.6 96.15 46.9 96.1 47.2 96.05 47.3 96.05 47.4 96 48.25 95.7 48.95 95.45 49.75 95.25 50.35 95 51.2 94.55 51.95 94.5 52.05 94.45 52.15 94.4 52.35 94.3 52.5 94.2 52.65 94.1 52.75 94 52.9 93.9 53.05 93.8 53.2 93.7 53.35 93.6 53.5 93.5 53.65 93.3 54 93 54.3 92.9 54.4 92.85 54.5 92.35 55.3 91.95 55.85 91.6 56.35 91.4 56.7 90.95 57.45 90.7 58.25 90.5 59.05 90.05 59.85 89.9 60.15 89.75 60.45
L 89.9 67.85
Q 90.2 69.05 90.65 70.3 90.95 71.35 91.4 72.35 91.8 73.2 92 73.95 92.05 74.05 92.05 74.15 92.1 76.3 92.25 78.35 92.35 79.55 92.4 80.75 92.45 81.25 92.45 81.75 92.55 83.75 92.5 85.75 92.45 87.7 92.65 89.55 92.75 90.45 92.75 91.35 92.75 91.8 92.4 92.2 92.25 92.35 92.1 92.5 91.25 93.25 89.95 93.6 89.7 93.65 89.3 93.85 89.15 93.95 88.95 94 86.65 94.3 84.35 95 84.25 95.05 84.25 95.15 84.2 95.5 83.75 95.45 83.65 95.45 83.55 95.5 82.6 95.8 81.55 95.75 81.35 95.75 81.2 95.7 80.35 95.6 79.55 95.3 78.65 94.95 77.55 95 77 95 76.7 94.85 76.55 94.75 76.35 94.7 75.7 94.45 74.75 94.15 74.35 94.05 73.95 94 73 93.95 72.15 93.8 71.55 93.75 70.95 93.7 70.65 93.65 70.35 93.6 69.1 93.5 67.95 93.25 67.45 93.15 66.95 93.2 66.55 93.3 66.4 93.05 66.35 92.95 66.15 92.95 62.25 92.95 58.35 93.05 58.05 93.05 57.75 93.15 55.65 93.65 53.55 94.15 51.55 94.6 49.35 94.65 49.15 94.65 48.95 94.65 47.95 94.75 46.95 94.8 46.4 94.8 46.1 94.65 45.95 94.55 45.75 94.5 45 94.3 43.95 94.25 43.4 94.2 43.1 94.05 42.95 93.95 42.75 93.9 41.65 93.6 40.35 93.65 40.25 93.65 40.15 93.65 39.15 93.55 38.15 93.45 37.95 93.45 37.75 93.45 37.55 93.45 37.3 93.4 37.65 93.6 37.95 93.9 38.85 94.8 38.85 96.05 38.85 97.3 37.95 98.15 37.1 99.05 35.85 99.05 34.6 99.05 33.7 98.15 32.85 97.3 32.85 96.05 32.85 94.8 33.7 93.9 34.1 93.5 34.6 93.3 34.15 93.25 33.75 93.2 33.25 93.15 32.75 93.1 31.65 93.05 30.9 93.25 29.9 93.6 28.75 93.65 28.65 93.65 28.55 93.65 28.05 93.75 27.55 93.8 27.35 93.85 27.15 93.9 26.65 93.95 26.15 94.05 26.05 94.05 25.95 94.15 25.4 94.5 24.75 94.65 24.65 94.65 24.55 94.7 23.7 94.85 23.25 95.7 23.15 95.85 23.05 96 22.95 96.15 22.85 96.3 22.7 96.6 22.45 97.05
L 21.6 116.55 22.95 139.75 89.25 139.75 90 162.8
Q 91.2 166.15 91.85 169.7 92.1 171.1 92.4 172.5 93.15 175.5 93.25 178.6 93.3 178.7 93.3 178.8 93.45 179.5 93.6 180.2 94.1 182.1 94.75 183.95 95.5 186.05 95.85 188.3 96.1 189.95 96.05 191.85 96 193.15 96.05 194.4 96.1 195.15 96.15 195.9 96.35 195.05 96.95 194.4 97.95 193.45 99.35 193.45 100.75 193.45 101.7 194.4 102.7 195.4 102.7 196.8 102.7 198.2 101.7 199.15 100.75 200.15 99.35 200.15 97.95 200.15 96.95 199.15 96.4 198.6 96.15 197.85 96.15 197.9 96.15 197.95 96.15 198.15 96.2 198.35 96.5 199.55 97.2 200.75 97.25 200.85 97.35 200.9 98.15 201.3 99.1 201.95 100 202.6 101.1 202.8 101.2 202.8 101.3 202.8 101.75 202.9 102.25 202.95 102.45 203 102.65 203.05 103.05 203.2 103.45 203.35 103.65 203.4 103.85 203.45 104.6 203.6 105.1 203.8 105.25 203.9 105.45 203.95 105.75 203.95 106 204 106.5 204.1 107 204.15 107.2 204.2 107.4 204.2 107.95 204.25 108.25 204.45 108.5 204.6 108.8 204.7 110.4 205.35 112.35 205.95 112.45 206 112.55 206.05 113.45 206.55 114.5 206.9 114.6 206.95 114.7 207 115.45 207.15 115.95 207.35 116.1 207.45 116.3 207.45 117.3 207.4 118.05 207.85
L 124.35 207.85 125.45 198.65 127.65 207.85 137.55 205.65 139.75 139.75 205.6 139.75 207.05 112.05 207 111.45
Q 206.8 111.05 206.55 110.6 206.45 110.45 206.35 110.3 205.9 109.55 205.3 109.2 205.2 109.15 205.15 109.05 204.75 108.2 204.2 106.9 204.1 106.6 204 106.35 203.9 106 203.75 105.65 203.6 105.3 203.4 104.95 203 104.25 202.7 103.3 202.6 103.1 202.55 102.9 202.35 102.15 201.9 101.75 201.8 101.65 201.75 101.55 201.05 100.1 199.7 99 199.35 98.7 199.05 98.3 198.6 97.8 197.75 97.95 197.55 98 197.4 98.1 196.95 98.3 196.4 98.7 196.2 98.85 196 98.9 195.55 99.05 195.25 99.4 194.95 99.7 194.2 99.6 193.4 99.55 192.65 99.4 192.6 99.4 192.5 99.4 192.25 100.4 191.4 101.25 190.15 102.5 188.4 102.5 186.65 102.5 185.4 101.25 184.15 100 184.15 98.25 184.15 97.8 184.25 97.45 183.65 97.15 182.95 97.2 182.65 97.2 182.4 97.1 179.7 96.2 177 94.85 176.7 94.7 176.45 94.55 176.1 94.3 175.65 94.45 175.45 94.5 175.25 94.5 173.85 94.6 172.45 94.7 172.35 94.7 172.25 94.7 171.35 94.8 170.5 94.8 170.3 94.8 170.25 94.7 169.7 93.9 169.8 92.85 169.9 91.7 170.1 90.65 170.2 90.25 170.35 89.95
M 126.9 38.1
Q 127.1 38.3 127.1 38.55 127.1 38.8 126.9 39 126.7 39.2 126.45 39.2 126.2 39.2 126 39 125.8 38.8 125.8 38.55 125.8 38.3 126 38.1 126.2 37.9 126.45 37.9 126.7 37.9 126.9 38.1
M 115.4 33.5
Q 115.85 33.95 115.85 34.55 115.85 35.15 115.4 35.55 115 36 114.4 36 113.8 36 113.35 35.55 112.95 35.15 112.95 34.55 112.95 33.95 113.35 33.5 113.8 33.1 114.4 33.1 115 33.1 115.4 33.5
M 121.1 34.85
Q 121.3 35.05 121.3 35.3 121.3 35.55 121.1 35.7 120.95 35.9 120.7 35.9 120.45 35.9 120.25 35.7 120.1 35.55 120.1 35.3 120.1 35.05 120.25 34.85 120.45 34.7 120.7 34.7 120.95 34.7 121.1 34.85
M 105 52.9
Q 105.25 53.15 105.25 53.5 105.25 53.85 105 54.05 104.8 54.3 104.45 54.3 104.1 54.3 103.85 54.05 103.65 53.85 103.65 53.5 103.65 53.15 103.85 52.9 104.1 52.7 104.45 52.7 104.8 52.7 105 52.9
M 109.25 56.7
Q 109.55 57 109.55 57.4 109.55 57.8 109.25 58.05 109 58.35 108.6 58.35 108.2 58.35 107.9 58.05 107.65 57.8 107.65 57.4 107.65 57 107.9 56.7 108.2 56.45 108.6 56.45 109 56.45 109.25 56.7
M 43.8 98.45
Q 43.8 97.65 44.35 97.1 44.9 96.55 45.7 96.55 46.5 96.55 47.05 97.1 47.6 97.65 47.6 98.45 47.6 99.25 47.05 99.8 46.5 100.35 45.7 100.35 44.9 100.35 44.35 99.8 43.8 99.25 43.8 98.45
M 55.5 96.65
Q 55.1 97.1 54.5 97.1 53.9 97.1 53.45 96.65 53.05 96.25 53.05 95.65 53.05 95.05 53.45 94.6 53.9 94.2 54.5 94.2 55.1 94.2 55.5 94.6 55.95 95.05 55.95 95.65 55.95 96.25 55.5 96.65
M 58.85 97
Q 59.4 97.55 59.4 98.3 59.4 99.05 58.85 99.6 58.3 100.15 57.55 100.15 56.8 100.15 56.25 99.6 55.7 99.05 55.7 98.3 55.7 97.55 56.25 97 56.8 96.45 57.55 96.45 58.3 96.45 58.85 97
M 71.75 106.2
L 71.95 106.25
Q 72 106.75 72.2 106.95 72.6 107.25 72.65 107.95 72.65 108 72.65 108.05
L 72.7 108.1
Q 72.7 108.15 72.7 108.25 72.75 109 72.7 109.75 72.65 110.4 72.25 110.75 72.2 110.85 72.1 110.85 71.75 110.95 71.45 111.1 71.3 111.15 71.1 111.2 70.7 111.25 70.25 111.3 70.1 111.35 69.95 111.3 69.4 111.3 68.95 111.6 68.7 111.75 68.3 112.1 67.65 112.65 67.1 112.85 66.95 112.9 66.9 112.95 66.65 113.45 66.45 113.9 66.3 114.1 66.15 114.45 66.1 114.6 66 114.65 65.85 114.8 65.75 115.05 65.5 115.75 64.9 116 64.8 116.05 64.65 116.1 64.05 116.45 63.25 116.35 63.2 116.35 63.1 116.3 62.85 116.25 62.6 116.2 62.55 116.15 62.45 116.1 62.1 115.95 61.75 115.85 61.6 115.85 61.45 115.8 61.3 115.75 61.15 115.7 60.95 115.6 60.75 115.6 59.85 115.5 58.95 115.35 58.85 115.35 58.75 115.25 58.45 115.1 58.2 114.95 58.1 114.9 58.1 114.85 57.95 114.35 58 113.75 58.05 113.15 58.1 112.55 58.1 112.4 58.15 112.3 58.45 111.95 58.45 111.55 58.55 110.9 59.15 110.45 59.3 110.35 59.4 110.2 59.55 110.1 59.65 110 60.3 109.65 61.1 109.75 61.3 109.75 61.4 109.65 61.5 109.55 61.65 109.45 61.8 109.35 61.85 109.2 62.15 108.65 62.6 108.4 63 108.15 62.95 107.55 62.95 107.3 63 107.05 63.15 106.4 63.55 106.2 64 105.95 64.75 105.85 64.85 105.85 64.95 105.8 65.1 105.75 65.2 105.7 66.05 105.3 67.1 104.9 67.2 104.9 67.35 104.85 67.5 104.85 67.75 104.8 67.95 104.75 68.1 104.8 68.85 105.1 69.75 105.05 69.95 105.05 70 105.15 70.25 105.35 70.6 105.45 70.7 105.5 70.75 105.5 71.4 105.5 71.65 106.05 71.7 106.15 71.75 106.2
M 106.95 185.2
Q 107.25 184.9 107.7 184.9 108.15 184.9 108.45 185.2 108.75 185.5 108.75 185.95 108.75 186.4 108.45 186.7 108.15 187 107.7 187 107.25 187 106.95 186.7 106.65 186.4 106.65 185.95 106.65 185.5 106.95 185.2
M 110.6 189.95
Q 110.6 189.4 110.95 189 111.35 188.65 111.9 188.65 112.45 188.65 112.8 189 113.2 189.4 113.2 189.95 113.2 190.5 112.8 190.85 112.45 191.25 111.9 191.25 111.35 191.25 110.95 190.85 110.6 190.5 110.6 189.95
M 168.1 76.45
L 168.65 77.85 171.8 85.65 211.85 85.65 211.85 143.45 143.45 143.45 143.45 211.85 132 211.85 132 217.45
Q 133.55 217.6 135.1 217.65 137.7 217.7 139.8 216.35 140.05 216.2 140.4 216.25 142 216.45 143.2 215.8 143.45 215.7 143.6 215.65 144.5 215.5 145.35 215.6 146.3 215.75 146.6 215.3 146.75 215.15 147.1 215.15 149.3 215.2 151.3 214.7 151.55 214.65 151.55 214.45 151.7 213.4 152.65 212.5 152.8 212.3 152.9 211.95 153 211.6 153.2 211.3 153.65 210.7 153.65 209.5 153.7 209.15 153.95 208.9 154.7 208.15 155.7 207.1 155.95 206.85 156.2 206.55 156.5 206.3 156.7 206 158.15 203.85 157.75 200.3 157.7 199.8 157.6 199.25 157.55 198.9 157.5 198.55 157.35 196.75 157.5 195 157.55 194.65 157.6 194.3 157.7 193.95 157.85 193.7 158.1 193.45 158.45 193.2 158.75 193.05 159 192.85
L 159 159 160.2 159
Q 166.2 157.4 172.55 157.4 173.1 157.4 173.6 157.35 175.05 157.2 176.45 157.1 177.3 157 177.95 157.35 178.4 157.55 178.9 157.6 181.2 157.9 183.5 157.95 185.2 158 186.65 157.45 186.9 157.4 187.1 157.25 188.85 156.45 190.6 155.5 192.6 154.45 195.15 154.55 195.5 154.6 195.85 154.5 196.4 154.4 196.95 154.3 197.5 154.25 198 154.2 198.95 154.15 199.5 153.85 199.75 153.7 200.1 153.7 202.25 153.7 204.35 153.5 204.55 153.5 204.75 153.35 205.4 152.8 206.8 152.95 208.2 153.1 209.05 152.8 209.65 152.6 210.35 152.6 212.4 152.65 213.35 151.7 213.55 151.55 213.85 151.4 214.9 150.95 216.7 150.85 217.05 150.35 217.4 150.1 217.95 149.75 217.95 149.1 217.95 148.75 218.05 148.4 219.15 145.2 219 141.65 218.95 140.45 218.55 139.5 218.1 138.45 217.9 137.75 217.75 137.25 217.75 136.7 217.75 135.3 217.9 133.9 217.95 133.75 218.05 133.5 218.65 132.65 219.15 131.8 219.8 130.7 219.45 129.35 219.4 129.15 219.2 128.95 217.4 127.45 216.1 126 215.85 125.75 215.6 125.45 214.85 124.45 215.05 122.6 215.15 121.9 215.5 121.45 215.65 121.2 215.75 120.9 215.85 120.65 215.95 120.45 216.55 119.6 216.35 118 216.2 116.6 216.55 115.85 216.7 115.55 216.8 115.15 217.35 112.85 217.55 110.25 217.6 110.1 217.8 109.95 221 108.15 222.45 105 222.55 104.8 222.55 104.6 222.6 103.6 222.9 103.05 223.05 102.8 223.15 102.5 223.25 102.3 223.45 102.2 225.15 101.5 225.2 99.65 225.2 99.5 225.4 99.2 226.15 98.3 227.25 97.75 227.85 97.45 227.85 96.8 227.85 96.65 228.05 96.5 228.55 96.2 229 95.9
L 229 70 159 70 159 0 70 0 70 70 22 70 16.25 73.6 14.3 74.8 8.4 71.7 5.2 73.6 1.8 73.6
Q 1.85 73.75 1.9 73.95 2 74.6 2.15 75.2 2.25 75.65 2.3 76.1 2.45 77 2.8 78.05 2.9 78.4 3.1 78.55 3.3 78.7 3.45 79.15 3.5 79.25 3.55 79.3 3.85 79.75 4.05 80.15 4.35 80.95 4.6 81.65 5.15 83.4 5.05 85.4 5.05 85.6 4.95 85.7 4.8 86.05 4.75 86.65 4.75 87.05 4.6 87.4 4.5 87.55 4.45 87.75 4.1 88.85 4.15 90.4 4.25 92.35 4.4 94.5 4.5 96.65 4.5 98.8 4.5 99.8 4.7 100.6 4.9 101.35 5.35 102.1 5.75 102.7 6.1 103.3 6.4 103.85 6.8 104.4 6.8 104.85 6.85 105.3 6.9 105.85 7 106.3 7.25 107.25 7.5 108.1 7.95 109.6 8.85 111.05 9 111.3 9.1 111.6 9.2 111.85 9.35 112 10 112.8 10.15 113.95 10.2 114.5 10.15 115.15 10.1 116.05 9.95 116.9 9.9 117.15 9.8 117.35 9.05 118.65 8.65 120.1 8.45 120.8 8.1 121.3 7.95 121.55 7.9 121.9 7.8 122.6 7.75 123.3 7.7 124.25 7.4 124.8 7.25 125.05 7.25 125.4 7.25 126.75 7.3 128.15 7.45 127.1 8.2 126.35 9.15 125.4 10.5 125.4 11.85 125.4 12.8 126.35 13.75 127.3 13.75 128.65 13.75 130 12.8 130.95 11.85 131.9 10.5 131.9 9.15 131.9 8.2 130.95 7.55 130.3 7.35 129.45 7.35 130.05 7.4 130.7 7.45 130.9 7.5 131.1 8.15 132.9 8.05 134.95 8.05 135.9 7.75 136.45 7.6 136.7 7.55 137.05 7.45 137.8 7.4 138.5 7.25 140.1 7.55 141.6 7.6 142 7.8 142.4 8.25 143.25 8.55 143.85 8.9 144.4 9.4 145.15 10 146.05 11.1 147.35 11.35 147.65 11.6 147.9 12.1 148.35 12.15 148.75 12.65 152 12.55 155.45 12.5 156.05 13.25 156 13.45 156 13.6 156 15.5 156.25 16.4 155.05 17.2 153.9 17.15 151.9 17.15 150.5 17.5 149.2 17.5 149.1 17.85 149.05 19.2 148.9 20.15 149.95 20.5 150.35 20.95 150.65 21.25 150.85 21.5 151.1 22.1 151.75 22.8 152.25 23 152.45 23.05 152.65 23.4 153.55 22.8 153.7 26.6 154.1 29.5 152.2 30.15 151.8 30.9 151.75 31.45 151.75 32 151.7 33.4 151.7 34.15 151.4 34.35 151.3 34.6 151.25 34.55 151.25 34.5 151.2 33.95 150.65 33.95 149.9 33.95 149.15 34.5 148.6 35.05 148.05 35.8 148.05 36.55 148.05 37.1 148.6 37.65 149.15 37.65 149.9 37.65 150.65 37.1 151.2 37.05 151.25 37 151.3 37.15 151.35 37.3 151.4 37.65 151.55 38 151.5 38.6 151.45 39.15 151.55 39.35 151.4 39.6 151.4 39.95 151.4 40.2 151.65 40.35 151.8 40.45 151.95 40.85 152.15 41.2 152.5 41.5 152.8 41.85 152.8 42.95 152.8 43.25 153.6 43.3 153.7 43.65 153.75 44.65 154 45.75 154.05 47.35 154.15 48.95 154.2 49.15 154.25 49.35 154.15 49.65 154.05 50 154 50.5 153.9 51.15 153.45 51.25 153.4 51.4 153.35 51.1 152.85 51.1 152.2 51.1 151.3 51.7 150.65 52.35 150.05 53.25 150.05 54.15 150.05 54.75 150.65 55.35 151.25 55.4 152.05 56.4 151.65 58.1 151.7 58.45 151.75 58.8 151.7 61.8 151.55 64.85 151.55 66.05 151.55 67.3 151.4 67.65 151.4 68 151.35 69.6 151.1 70.9 151.75 71.55 152.1 71.95 152.55 72.9 153.5 73.9 153.95 74.2 154.05 74.45 154.25 74.7 154.4 75.05 154.4 77.2 154.4 79.3 154.55 79.6 155.55 80.25 155.75 80.35 155.8 80.35 156.15 80.35 159 80.2 161.8 80.2 162 80 162.15 79.2 162.9 78.35 163.65 77.85 164.1 77.45 164.95 77.4 165.2 77.35 165.4 77 167.3 77.55 168.5 77.75 168.85 77.75 169.2 77.8 170.2 78.05 170.75 78.25 171.2 78.2 171.7 77.9 176.8 79.55 181.5 79.85 182.3 80.35 183 80.8 183.6 81.2 184.2 81.9 185.15 82.4 185.9 83.2 187.05 82.55 188.3 81.85 189.65 81.2 191.1 80.7 192.1 80.25 193.2 79.9 194.05 79.6 194.6 79.5 194.85 79.45 195.05 79.3 195.7 79.05 196.1 78.55 197.05 78.45 198.55 78.45 198.75 78.4 198.9 78.25 201.35 78.4 203.85 78.45 204.05 78.45 204.2 78.55 205.4 79.15 206.4 79.3 206.65 79.3 207 79.25 208.3 79.35 209.55 79.4 210.4 79.5 211.25 79.65 212.15 79.65 213 79.65 214.95 79.95 216.85 80 217.1 80.35 217.25 84.05 218.9 88.15 220.5 88.5 220.65 88.85 220.75 90.85 221.55 92.8 220.95 93.6 220.7 94.55 220.25 94.85 220.1 95.2 220.15 97.4 220.3 99.1 219.35 100.1 218.8 101.55 218.7 104.25 218.5 106.85 217.9 107.4 217.8 107.9 217.75 109.15 217.6 109.8 218.2 110.05 218.5 110.35 218.7 111.3 219.55 112.5 219.75 113.5 219.95 114.7 220.3 115.2 220.45 115.7 220.5 117.6 220.75 119.25 219.8 120.85 218.9 122.5 217.75 122.75 217.6 123 217.45 123.9 217 125.6 217.1 126.45 217.15 127.3 217.2
L 127.3 211.85 85.6 211.85 85.6 143.45 15.85 143.45 15.85 85.65 85.6 85.65 85.6 17.2 143.45 17.2 143.45 85.65 166.9 85.65 168.1 76.45
M 46.65 149.5
Q 47.1 149.95 47.1 150.55 47.1 151.15 46.65 151.6 46.2 152.05 45.6 152.05 45 152.05 44.55 151.6 44.1 151.15 44.1 150.55 44.1 149.95 44.55 149.5 45 149.05 45.6 149.05 46.2 149.05 46.65 149.5 Z"/>
</g>
</defs>

<g transform="matrix( 1, 0, 0, 1, 0,0) ">
<use xlink:href="#Layer2_0_FILL"/>
</g>

<g filter="url(#Filter_1)" transform="matrix( 1, 0, 0, 1, 0,0) ">
<g transform="matrix( 0.070953369140625, 0, 0, 0.070953369140625, 254.3,57.8) ">
<g transform="matrix( 1, 0, 0, 1, 0,0) ">
<use xlink:href="#darksword_0_Layer0_0_FILL"/>
</g>
</g>
</g>

<g filter="url(#Filter_2)" transform="matrix( 1, 0, 0, 1, 0,0) ">
<g transform="matrix( 0.093414306640625, 0, 0, 0.093414306640625, 202.25,57.35) ">
<g transform="matrix( 1, 0, 0, 1, 0,0) ">
<use xlink:href="#darkhealth_0_Layer0_0_FILL"/>
</g>
</g>
</g>
</svg>
