<svg xmlns="http://www.w3.org/2000/svg" viewBox="0 0 425.05 74.5"><defs><style>.cls-1{fill:#878793;}.cls-2{fill:#797984;}.cls-3{fill:#6e6e7a;}.cls-4{fill:#aba8b2;}.cls-5{fill:#93939e;}.cls-6{fill:#9c99a2;}</style></defs><title>buttonarea</title><g id="Layer_2" data-name="Layer 2"><g id="Layer_1-2" data-name="Layer 1"><g id="buttonarea_0_Layer0_0_FILL" data-name="buttonarea 0 Layer0 0 FILL"><path class="cls-1" d="M15.4,37h-4L23.45,65.3l2.15-3.65L20.5,49.3,15.4,37M38.45,13.75l0-.05,2.6-9.9-7,6.1,4.3,3.85h0M370.3,54.1l-2.5,7.55,1.4,1.8,1.1-9.35M413.65,37h-4l-5.1,12.3L399.4,61.65l2.2,3.65Z"/><path class="cls-2" d="M25.25,13.7l-1.8-3.8L11.4,37h4l9.85-23.3m17-3.8L41.1,3.8l-2.6,9.9,3.75-3.8M96.1,65.3l.8-3.65L92.6,65.3,94.95,71l1.35,3.5,2.3-2.15-.45-1.3L96.1,65.3m273.7,3.6L373,65.3l-2.65-3.65V54.1l-1.1,9.35,1.4,1.85-.8,3.6M409.65,37h4l-12-27.1-1.85,3.8Z"/><path class="cls-3" d="M25.25,13.7v-.05l13.15.1L34.1,9.9H23.45l1.8,3.8m374.5-.05v.05l1.85-3.8H42.25L38.5,13.7l0,.05,174,.65Z"/><path class="cls-4" d="M92.6,65.3l4.3-3.65H25.6L23.45,65.3H92.6m276.6-1.85-1.4-1.8H96.9l-.8,3.65H370.6l-1.4-1.85m32.4,1.85-2.2-3.65H370.3L373,65.3Z"/><path class="cls-5" d="M96.3,74.5,94.95,71q-35-.35-70-.95a8.68,8.68,0,0,1-3.2-.65l.4-.3a2,2,0,0,0,.8-1.6,2.08,2.08,0,0,0-.8-1.6,3.12,3.12,0,0,0-2-.65,2.92,2.92,0,0,0-1.9.65l-.3.3a.14.14,0,0,0-.05-.1L17,64.5a1.42,1.42,0,0,0,.2-.8,1.58,1.58,0,0,0-.2-.8.58.58,0,0,0-.5-.35.52.52,0,0,0-.5.3l-.65-1a3.61,3.61,0,0,0,.5-1.95,3.51,3.51,0,0,0-.5-1.9,1.43,1.43,0,0,0-1.2-.8,1.43,1.43,0,0,0-1.2.8L0,37,16.7,74.5H96.3m-71-43.75a1.46,1.46,0,0,0-2.2,0,1.87,1.87,0,0,0-.5,1.3,1.81,1.81,0,0,0,.5,1.25,1.38,1.38,0,0,0,2.2,0A1.92,1.92,0,0,0,25.75,32a2,2,0,0,0-.45-1.3m8-9.85a.58.58,0,0,0-.1.15,2.38,2.38,0,0,0-.65-.1,3.44,3.44,0,0,0-1.8.45,1.16,1.16,0,0,0-.7,1,1.24,1.24,0,0,0,.7,1,3.78,3.78,0,0,0,1.8.4,3.66,3.66,0,0,0,1.75-.4q.75-.45.75-1a.68.68,0,0,0-.2-.5v-.15a1.42,1.42,0,0,0-.25-.85.78.78,0,0,0-1.3,0m357.9,1.65a.61.61,0,0,0,.35.55,1.09,1.09,0,0,0,1.5,0,.61.61,0,0,0,.35-.55.73.73,0,0,0-.35-.6,1.25,1.25,0,0,0-1.5,0,.73.73,0,0,0-.35.6m-2.8-1.85h.8l3.4.1a13.8,13.8,0,0,1,2.05.15.54.54,0,0,0,.4.25.81.81,0,0,0,.35-.1,2.85,2.85,0,0,1,.5.15l-.1,0q-.4.15-.4.35t.4.4a4.11,4.11,0,0,0,2.2,0h.05a10.53,10.53,0,0,1,2,1.25H400a1,1,0,0,0-.25.65.86.86,0,0,0,.9.9.72.72,0,0,0,.6-.25h.05q5.65,6.55,3.2,24.7l5.1-12.3-9.9-23.3-.35.7.35-.75L212.5,14.4l-174-.65h0l-13.15-.1.35.75-.35-.7L15.4,37l5.1,12.3q-.15-14.85,3.25-22a3.9,3.9,0,0,0,1.55.3,3.85,3.85,0,0,0,2.5-.85,2.38,2.38,0,0,0,1.05-2,2.42,2.42,0,0,0-1.05-2,2.32,2.32,0,0,0-.45-.35,8.59,8.59,0,0,1,5.4-1.9q2.85-.1,5.65-.15h.15Q208,15.9,378.3,20.4a1.88,1.88,0,0,0-.15.75,2.35,2.35,0,0,0,.65,1.65,2.48,2.48,0,0,0,1.75.7,2.31,2.31,0,0,0,1.7-.7,2.26,2.26,0,0,0,.7-1.65,4,4,0,0,0-.05-.65l3.6.1a1.11,1.11,0,0,0,.35,0,.94.94,0,0,0,.3,0h.3l-.3,0h.4a7.31,7.31,0,0,0,.9.05M409.25,59q-.3,0-.5,1a8.92,8.92,0,0,0-.25,2.25,10.62,10.62,0,0,0,.1,1.5l-.75,1.2a11.75,11.75,0,0,1-1.1,1.8.93.93,0,0,0-.6-.2,1.24,1.24,0,0,0-.9.4,1.46,1.46,0,0,0-.35,1,1,1,0,0,0,.15.55,6.87,6.87,0,0,1-4.45,1.45Q249.55,72.5,98.15,71.05l.45,1.3.8,2.15h309L425,37,410,61.45A14.46,14.46,0,0,0,409.8,60q-.25-.95-.55-1M5.5,39.55a.88.88,0,0,0-.25-.65.82.82,0,0,0-.6-.25.67.67,0,0,0-.55.25.88.88,0,0,0-.25.65.82.82,0,0,0,.25.6.67.67,0,0,0,.55.25.85.85,0,0,0,.85-.85M410.9,56.2a.34.34,0,0,0-.1-.25.56.56,0,0,0-.25,0,.94.94,0,0,0-.3,0,.34.34,0,0,0-.1.25q0,.2.1.25a.54.54,0,0,0,.3.1.34.34,0,0,0,.25-.1q.1,0,.1-.25M412,52.9a.71.71,0,0,0,.1-.4A.82.82,0,0,0,412,52a.43.43,0,0,0-.3-.15.29.29,0,0,0-.25.15.82.82,0,0,0-.1.45.71.71,0,0,0,.1.4q.1.2.25.2a.4.4,0,0,0,.3-.2m2.6-3.55a1.21,1.21,0,0,0,.25-.8,1.13,1.13,0,0,0-.25-.75.76.76,0,0,0-.6-.3.63.63,0,0,0-.55.3,1.13,1.13,0,0,0-.25.75,1.21,1.21,0,0,0,.25.8.63.63,0,0,0,.55.3A.76.76,0,0,0,414.65,49.35Z"/><path class="cls-6" d="M389.25,20.7h-.8a7.31,7.31,0,0,1-.9-.05h-.4l.3,0h-.3a.94.94,0,0,1-.3,0,1.11,1.11,0,0,1-.35,0l-3.6-.1a4,4,0,0,1,.05.65,2.26,2.26,0,0,1-.7,1.65,2.31,2.31,0,0,1-1.7.7,2.48,2.48,0,0,1-1.75-.7,2.35,2.35,0,0,1-.65-1.65,1.88,1.88,0,0,1,.15-.75Q208,15.9,38.55,20.4H38.4q-2.8.05-5.65.15a8.59,8.59,0,0,0-5.4,1.9,2.32,2.32,0,0,1,.45.35,2.42,2.42,0,0,1,1.05,2,2.38,2.38,0,0,1-1.05,2,3.85,3.85,0,0,1-2.5.85,3.9,3.9,0,0,1-1.55-.3q-3.4,7.15-3.25,22l5.1,12.35H367.8l2.5-7.55v7.55h29.1l5.15-12.35q2.45-18.15-3.2-24.7h-.05a.72.72,0,0,1-.6.25.86.86,0,0,1-.9-.9,1,1,0,0,1,.25-.65h.05a10.53,10.53,0,0,0-2-1.25H398a4.11,4.11,0,0,1-2.2,0q-.4-.15-.4-.4t.4-.35l.1,0a2.85,2.85,0,0,0-.5-.15.81.81,0,0,1-.35.1.54.54,0,0,1-.4-.25,13.8,13.8,0,0,0-2.05-.15l-3.4-.1m2.35,2.4a.61.61,0,0,1-.35-.55.73.73,0,0,1,.35-.6,1.25,1.25,0,0,1,1.5,0,.73.73,0,0,1,.35.6.61.61,0,0,1-.35.55,1.09,1.09,0,0,1-1.5,0M33.25,21a.58.58,0,0,1,.1-.15.78.78,0,0,1,1.3,0,1.42,1.42,0,0,1,.25.85v.15a.68.68,0,0,1,.2.5q0,.55-.75,1a3.66,3.66,0,0,1-1.75.4,3.78,3.78,0,0,1-1.8-.4,1.24,1.24,0,0,1-.7-1,1.16,1.16,0,0,1,.7-1A3.44,3.44,0,0,1,32.6,21a2.38,2.38,0,0,1,.65.1m-9,9.2a1.42,1.42,0,0,1,1.1.5,2,2,0,0,1,.45,1.3,1.92,1.92,0,0,1-.45,1.25,1.38,1.38,0,0,1-2.2,0A1.81,1.81,0,0,1,22.6,32a1.87,1.87,0,0,1,.5-1.3,1.42,1.42,0,0,1,1.1-.5M425,37v-.1L408.5,0h-392L0,36.9V37L12.9,58a1.43,1.43,0,0,1,1.2-.8,1.43,1.43,0,0,1,1.2.8,3.51,3.51,0,0,1,.5,1.9,3.61,3.61,0,0,1-.5,1.95l.65,1a.52.52,0,0,1,.5-.3.58.58,0,0,1,.5.35,1.58,1.58,0,0,1,.2.8,1.42,1.42,0,0,1-.2.8l.95,1.6a.14.14,0,0,1,.05.1l.3-.3a2.92,2.92,0,0,1,1.9-.65,3.12,3.12,0,0,1,2,.65,2.08,2.08,0,0,1,.8,1.6,2,2,0,0,1-.8,1.6l-.4.3a8.68,8.68,0,0,0,3.2.65q35,.6,70,.95L92.6,65.3H23.45L11.4,37,23.45,9.9H34.1l7-6.1,1.15,6.1H401.6l12,27.1-12,28.3H373l-3.15,3.6.8-3.6H96.1l2.05,5.75q151.4,1.45,302.45-1.1A6.87,6.87,0,0,0,405,68.5a1,1,0,0,1-.15-.55,1.46,1.46,0,0,1,.35-1,1.24,1.24,0,0,1,.9-.4.93.93,0,0,1,.6.2,11.75,11.75,0,0,0,1.1-1.8l.75-1.2a10.62,10.62,0,0,1-.1-1.5,8.92,8.92,0,0,1,.25-2.25q.2-.95.5-1t.55,1a14.46,14.46,0,0,1,.25,1.45L425,37M414.9,48.55a1.21,1.21,0,0,1-.25.8.76.76,0,0,1-.6.3.63.63,0,0,1-.55-.3,1.21,1.21,0,0,1-.25-.8,1.13,1.13,0,0,1,.25-.75.63.63,0,0,1,.55-.3.76.76,0,0,1,.6.3,1.13,1.13,0,0,1,.25.75m-2.75,4a.71.71,0,0,1-.1.4.4.4,0,0,1-.3.2q-.15,0-.25-.2a.71.71,0,0,1-.1-.4.82.82,0,0,1,.1-.45.29.29,0,0,1,.25-.15.43.43,0,0,1,.3.15.82.82,0,0,1,.1.45M410.8,56a.34.34,0,0,1,.1.25q0,.2-.1.25a.34.34,0,0,1-.25.1.54.54,0,0,1-.3-.1q-.1,0-.1-.25a.34.34,0,0,1,.1-.25.94.94,0,0,1,.3,0,.56.56,0,0,1,.25,0M5.25,38.9a.88.88,0,0,1,.25.65.85.85,0,0,1-.85.85.67.67,0,0,1-.55-.25.82.82,0,0,1-.25-.6.88.88,0,0,1,.25-.65.67.67,0,0,1,.55-.25A.82.82,0,0,1,5.25,38.9Z"/></g></g></g></svg>