<svg xmlns="http://www.w3.org/2000/svg" viewBox="0 0 372.25 369.75"><defs><style>.cls-1{fill:#93939e;}.cls-2{fill:#9c99a2;}.cls-3{fill:none;stroke:#389958;stroke-linecap:round;stroke-linejoin:round;}.cls-4{fill:#84848e;}.cls-5{fill:#aba8b2;}.cls-6{fill:#6e6e7a;}</style></defs><title>squareinternalbox</title><g id="Layer_2" data-name="Layer 2"><g id="Layer_1-2" data-name="Layer 1"><g id="thing2_0_Layer1_0_FILL" data-name="thing2 0 Layer1 0 FILL"><path class="cls-1" d="M348.55,345.9V17.3H12.7V345.9H348.55M327.6,123.95q2.65,10.05,2.75,15.5A19.9,19.9,0,0,1,326.1,153a56.24,56.24,0,0,1-6.55,5.9,22,22,0,0,0-5.7,6.35,18.11,18.11,0,0,0-1.65,8.15q0,2.25.8,8.75,1.35,11.15-2.65,15.45,4.8-2.4,9,3a24.78,24.78,0,0,1,4.7,11.4l4.9,29.85q3,18.05-.2,31.45-4,17-17.3,20.05.65,5.9,1.6,15.9a6.66,6.66,0,0,0-6.1,1.9,24.39,24.39,0,0,0-4.3,6.3q-3.15,5.9-4.2,7.45a13.65,13.65,0,0,1-5.75,5.2q-4,1.65-9.35-.55a72.67,72.67,0,0,1-8.9-5,19.2,19.2,0,0,0-9.85-3q-5.75-.1-7.65,4.05a8.77,8.77,0,0,1-5.75-5.15,36.67,36.67,0,0,1-2.1-8.75,84.64,84.64,0,0,0-1.8-9.55,13.56,13.56,0,0,0-4.75-7.3,6.91,6.91,0,0,0-6-1.05,11,11,0,0,0-5.45,3.5,11.25,11.25,0,0,0-2.95,5.8,7.06,7.06,0,0,0,1.65,5.9,19.83,19.83,0,0,1-14,5.15,20.3,20.3,0,0,1-14-5.15q-13.3,13.65-37,17.65Q149,329.3,121.5,328a9.35,9.35,0,0,0,4.7-5,9.2,9.2,0,0,0,.3-6.9q-2.9-2.8-7.4-1.25t-5,5.65q-8.15-5.3-16.85-10.75a8,8,0,0,0-4,6.1A8.48,8.48,0,0,0,95,323a28,28,0,0,0-4.75-3.65,8.44,8.44,0,0,0-5.5-1.25q-3,.55-3.75,4.1t2.1,4.15q-26.25-2.1-39.35-3.25a17.3,17.3,0,0,0,5.3-9.2A23,23,0,0,0,49,303,22.69,22.69,0,0,0,44,293.4a17.61,17.61,0,0,0-9-5.8,65.84,65.84,0,0,0,4.25-18.8,67.48,67.48,0,0,0-1.25-19.2l22.15-89.85a19.85,19.85,0,0,1,8.5,4.5,18.57,18.57,0,0,1,5.35,8,17.68,17.68,0,0,0,4.3-13.35,17.64,17.64,0,0,0-19.2-17,17.48,17.48,0,0,0-12.7,6q.55-48.55-.75-97.1,4.8,1.2,8-3.9,3-4.86.2-8.5Q60,45.6,71.9,47.5q8.3,1.3,22.2.1,27.75-2.65,96.9-9.1a25.22,25.22,0,0,1,11.85,15.6q4.25,1.25,7.7-2.4T212.5,44a268.45,268.45,0,0,0,29.75,1.6,24.87,24.87,0,0,0,4.1,12,23.91,23.91,0,0,0,9.4,8.5,23.24,23.24,0,0,0,5.55-7.7,22.7,22.7,0,0,0,2.05-9.15A27.24,27.24,0,0,1,295,42q3.2,1.45,9.85,4.85a16.23,16.23,0,0,0,2.25.7q-.47,1.65-1,3.45,5.3-4.1,11.15,1.75a17.69,17.69,0,0,1,5.5,13.1q0,4.65-.85,14.3-.1,8.25,3.7,12.6Q322.8,99,324,107.9A146,146,0,0,0,327.6,123.95Z"/><path class="cls-2" d="M330.35,139.45q-.1-5.45-2.75-15.5a146,146,0,0,1-3.65-16Q322.8,99,325.6,92.75q-3.8-4.35-3.7-12.6.85-9.65.85-14.3a17.69,17.69,0,0,0-5.5-13.1Q311.4,46.9,306.1,51q.53-1.8,1-3.45a16.23,16.23,0,0,1-2.25-.7Q298.2,43.45,295,42a27.24,27.24,0,0,0-31.65,7.25,22.7,22.7,0,0,1-2.05,9.15,23.24,23.24,0,0,1-5.55,7.7,23.91,23.91,0,0,1-9.4-8.5,24.87,24.87,0,0,1-4.1-12A268.45,268.45,0,0,1,212.5,44q1.5,4.05-1.95,7.7t-7.7,2.4A25.22,25.22,0,0,0,191,38.5q-69.15,6.45-96.9,9.1-13.9,1.2-22.2-.1Q60,45.6,53.9,38.35q2.85,3.64-.2,8.5-3.15,5.1-8,3.9,1.3,48.55.75,97.1a17.48,17.48,0,0,1,12.7-6,17.64,17.64,0,0,1,19.2,17,17.68,17.68,0,0,1-4.3,13.35,18.57,18.57,0,0,0-5.35-8,19.85,19.85,0,0,0-8.5-4.5L38.1,249.6a67.48,67.48,0,0,1,1.25,19.2,65.84,65.84,0,0,1-4.25,18.8,17.61,17.61,0,0,1,9,5.8A22.69,22.69,0,0,1,49,303,23,23,0,0,1,49,313.9a17.3,17.3,0,0,1-5.3,9.2q13.1,1.15,39.35,3.25-2.85-.65-2.1-4.15t3.75-4.1a8.44,8.44,0,0,1,5.5,1.25A28,28,0,0,1,95,323a8.48,8.48,0,0,1-1.75-7.15,8,8,0,0,1,4-6.1q8.7,5.45,16.85,10.75.55-4,5-5.65t7.4,1.25a9.2,9.2,0,0,1-.3,6.9,9.35,9.35,0,0,1-4.7,5q27.55,1.3,43.35-1.35,23.7-4,37-17.65a20.3,20.3,0,0,0,14,5.15,19.83,19.83,0,0,0,14-5.15,7.06,7.06,0,0,1-1.65-5.9,11.25,11.25,0,0,1,2.95-5.8,11,11,0,0,1,5.45-3.5,6.91,6.91,0,0,1,6,1.05,13.56,13.56,0,0,1,4.75,7.3,84.64,84.64,0,0,1,1.8,9.55,36.67,36.67,0,0,0,2.1,8.75A8.77,8.77,0,0,0,257,325.6q1.9-4.15,7.65-4.05a19.2,19.2,0,0,1,9.85,3,72.67,72.67,0,0,0,8.9,5q5.35,2.2,9.35.55a13.65,13.65,0,0,0,5.75-5.2q1-1.55,4.2-7.45a24.39,24.39,0,0,1,4.3-6.3,6.66,6.66,0,0,1,6.1-1.9q-.95-10-1.6-15.9,13.25-3.1,17.3-20.05,3.15-13.4.2-31.45L324.1,212a24.78,24.78,0,0,0-4.7-11.4q-4.25-5.4-9-3,4-4.3,2.65-15.45-.8-6.5-.8-8.75a18.11,18.11,0,0,1,1.65-8.15,22,22,0,0,1,5.7-6.35,56.24,56.24,0,0,0,6.55-5.9A19.9,19.9,0,0,0,330.35,139.45Z"/></g><path id="thing2_0_Layer1_0_1_STROKES" data-name="thing2 0 Layer1 0 1 STROKES" class="cls-3" d="M12.7,17.3H348.55V345.9H12.7Z"/><g id="thing2_0_Layer0_0_FILL" data-name="thing2 0 Layer0 0 FILL"><path class="cls-1" d="M372.25,369.75V.1H313.7V0H200.8V.1H171.45V0H58.55V.1H0V369.75H372.25M340.3,17.3a3.14,3.14,0,0,0-1.15.4,1.45,1.45,0,0,0-.7,1.2,1.33,1.33,0,0,0,.7,1.15,3.17,3.17,0,0,0,1.8.5,2.93,2.93,0,0,0,1.75-.5,1.32,1.32,0,0,0,.75-1.15,1.43,1.43,0,0,0-.75-1.2,2.7,2.7,0,0,0-1.1-.4h17.95V61.65A3.13,3.13,0,0,0,359,60a1.45,1.45,0,0,0-1.2-.7,1.58,1.58,0,0,0-1.25.7,3.17,3.17,0,0,0-.5,1.8,2.93,2.93,0,0,0,.5,1.75,1.56,1.56,0,0,0,1.25.75,1.43,1.43,0,0,0,1.2-.75,2.87,2.87,0,0,0,.55-1.65v8.7a2.81,2.81,0,0,0-.55-.05,3.56,3.56,0,0,0-3,2.1,11.44,11.44,0,0,0,0,10.2,3.56,3.56,0,0,0,3,2.1,2.81,2.81,0,0,0,.55-.05v12.2a2.71,2.71,0,0,0-1.45-.4,3.3,3.3,0,0,0-2.7,1.6,7,7,0,0,0-1.1,3.95,6.72,6.72,0,0,0,1.1,3.9,3.28,3.28,0,0,0,2.7,1.65,2.71,2.71,0,0,0,1.45-.4v6q0,.15,0,.35v5.8a.2.2,0,0,0-.15.05,7,7,0,0,0-.35-1.5q-.45-1.45-1.1-1.45t-1.15,1.45a11.91,11.91,0,0,0-.45,3.5v.65h3.2V243.15a.72.72,0,0,0-.5-.25q-.8,0-1.35,2a20.79,20.79,0,0,0,0,9.5,4.54,4.54,0,0,0,.7,1.6q-1.6.1-2.75,2.25a12.95,12.95,0,0,0,0,11.1q1.25,2.3,3,2.3a2.83,2.83,0,0,0,.9-.15v37.7a5.05,5.05,0,0,0-2-.75,5.87,5.87,0,0,0,.55-2.65,5.61,5.61,0,0,0-.65-2.8,1.69,1.69,0,0,0-3.2,0,6.36,6.36,0,0,0,0,5.6,2.63,2.63,0,0,0,.25.4,8,8,0,0,0-3.2,3.35,19.29,19.29,0,0,0-2.25,9.6,19,19,0,0,0,2.25,9.55q2.3,4,5.55,4a4.92,4.92,0,0,0,2.7-.8V356.2H242.1a3,3,0,0,0,.9-2.2,3.13,3.13,0,0,0-1.1-2.4,4.17,4.17,0,0,0-5.3,0,3.13,3.13,0,0,0-1.1,2.4,2.91,2.91,0,0,0,.95,2.2h-3.5a3,3,0,0,0-1.1,0h-68.1v-.05a2.54,2.54,0,0,0-.05-.5,2.27,2.27,0,0,0-.45-1,5.14,5.14,0,0,0-.75-.7,5.08,5.08,0,0,0-3.05-.9,5.33,5.33,0,0,0-1.95.35,4.25,4.25,0,0,0-1.1.55,2.65,2.65,0,0,0-1.25,2.2v.05H140.4a3,3,0,0,0-1.1,0h-3.5a2.91,2.91,0,0,0,.95-2.2,3.13,3.13,0,0,0-1.1-2.4,4.17,4.17,0,0,0-5.3,0,3.13,3.13,0,0,0-1.1,2.4,3,3,0,0,0,.9,2.2H12.7V334.65a4.92,4.92,0,0,0,2.7.8q3.25,0,5.55-4a19,19,0,0,0,2.25-9.55A19.29,19.29,0,0,0,21,312.3a8,8,0,0,0-3.2-3.35,2.63,2.63,0,0,0,.25-.4,6.36,6.36,0,0,0,0-5.6,1.87,1.87,0,0,0-1.6-1.15A1.87,1.87,0,0,0,14.8,303a5.61,5.61,0,0,0-.65,2.8,5.87,5.87,0,0,0,.55,2.65,5.05,5.05,0,0,0-2,.75v-37.7a2.83,2.83,0,0,0,.9.15q1.75,0,3-2.3a12.95,12.95,0,0,0,0-11.1q-1.15-2.15-2.75-2.25a4.54,4.54,0,0,0,.7-1.6,17.71,17.71,0,0,0,.55-4.75,17.71,17.71,0,0,0-.55-4.75q-.55-2-1.35-2a.72.72,0,0,0-.5.25V122.2h3.2q0-.3,0-.65a11.91,11.91,0,0,0-.45-3.5q-.5-1.45-1.15-1.45t-1.1,1.45a7,7,0,0,0-.35,1.5.2.2,0,0,0-.15-.05V107.35a2.71,2.71,0,0,0,1.45.4,3.28,3.28,0,0,0,2.7-1.65,6.72,6.72,0,0,0,1.1-3.9,7,7,0,0,0-1.1-3.95,3.3,3.3,0,0,0-2.7-1.6,2.71,2.71,0,0,0-1.45.4V84.85a2.81,2.81,0,0,0,.55.05,3.56,3.56,0,0,0,3-2.1,11.44,11.44,0,0,0,0-10.2,3.56,3.56,0,0,0-3-2.1,2.81,2.81,0,0,0-.55.05v-8.7a2.87,2.87,0,0,0,.55,1.65,1.43,1.43,0,0,0,1.2.75,1.55,1.55,0,0,0,1.25-.75,2.93,2.93,0,0,0,.5-1.75,3.17,3.17,0,0,0-.5-1.8,1.58,1.58,0,0,0-1.25-.7,1.45,1.45,0,0,0-1.2.7,3.13,3.13,0,0,0-.55,1.7V17.3H30.65a2.7,2.7,0,0,0-1.1.4,1.43,1.43,0,0,0-.75,1.2A1.32,1.32,0,0,0,29.55,20a2.93,2.93,0,0,0,1.75.5,3.17,3.17,0,0,0,1.8-.5,1.33,1.33,0,0,0,.7-1.15,1.45,1.45,0,0,0-.7-1.2A3.14,3.14,0,0,0,32,17.3H98.6a1.64,1.64,0,0,0,0,.4q0,1.3,2.2,2.2a.14.14,0,0,1,.1.05,13.76,13.76,0,0,0,5.15.85,14,14,0,0,0,5.3-.9q1.75-.75,2-1.7a1.34,1.34,0,0,0,.1-.5,1.64,1.64,0,0,0,0-.4H258.85a1.64,1.64,0,0,0-.05.4,1.34,1.34,0,0,0,.1.5q.3.95,2.05,1.7a14,14,0,0,0,5.3.9A13.76,13.76,0,0,0,271.4,20a.14.14,0,0,1,.1-.05q2.2-.9,2.2-2.2a1.64,1.64,0,0,0-.05-.4H340.3m-118,333.6a2.79,2.79,0,0,0-1.35-.3,3.09,3.09,0,0,0-1.4.3,1,1,0,0,0-.55.85.9.9,0,0,0,.55.8,2.73,2.73,0,0,0,1.4.35,2.47,2.47,0,0,0,1.35-.35.9.9,0,0,0,.6-.8,1,1,0,0,0-.6-.85m4,3.7a3.21,3.21,0,0,0,1.45-.3q.6-.3.6-.75t-.6-.75a3.65,3.65,0,0,0-2.9,0q-.6.3-.6.75t.6.75a3.21,3.21,0,0,0,1.45.3m-81.8-1.8q-.6.3-.6.75t.6.75a3.65,3.65,0,0,0,2.9,0q.6-.3.6-.75t-.6-.75a3.65,3.65,0,0,0-2.9,0m8.2-.25a.9.9,0,0,0,.55-.8,1,1,0,0,0-.55-.85,3.09,3.09,0,0,0-1.4-.3,2.79,2.79,0,0,0-1.35.3,1,1,0,0,0-.6.85.9.9,0,0,0,.6.8,2.47,2.47,0,0,0,1.35.35,2.73,2.73,0,0,0,1.4-.35M15.45,281.9a5.44,5.44,0,0,0-.55,2.55,7.41,7.41,0,0,0,.15,1.55,4.48,4.48,0,0,0,.4,1q.5,1,1.2,1t1.25-1a7,7,0,0,0,.35-1,7.41,7.41,0,0,0,.15-1.55,5.9,5.9,0,0,0-.5-2.55q-.55-1.05-1.25-1t-1.2,1m.35-100.15a1.51,1.51,0,0,0,0,1.5.45.45,0,0,0,.4.3.56.56,0,0,0,.45-.3,2,2,0,0,0,0-1.5.56.56,0,0,0-.45-.3.45.45,0,0,0-.4.3m4.3-8.4a2.28,2.28,0,0,0-.35,1.25,2,2,0,0,0,.35,1.2.9.9,0,0,0,.8.55,1,1,0,0,0,.85-.55,2.29,2.29,0,0,0,.3-1.2,2.57,2.57,0,0,0-.3-1.25,1,1,0,0,0-.85-.5.9.9,0,0,0-.8.5m2.3-4.8A5.12,5.12,0,0,0,23,171.2q.6,1.15,1.45,1.15T26,171.2a5.46,5.46,0,0,0,.6-2.65,5.76,5.76,0,0,0-.6-2.7,1.82,1.82,0,0,0-1.5-1.1q-.85,0-1.45,1.1a5.4,5.4,0,0,0-.65,2.7M19.45,44.7q-1,0-1.7,2A13.86,13.86,0,0,0,17,51.55a13.86,13.86,0,0,0,.75,4.85q.7,2,1.7,2t1.75-2a14.76,14.76,0,0,0,.7-4.85,14.76,14.76,0,0,0-.7-4.85q-.75-2-1.75-2m30.3-24.8q-.9.3-.9.75t.9.75a8.22,8.22,0,0,0,4.4,0q.9-.3.9-.75t-.9-.75a8.22,8.22,0,0,0-4.4,0M150.7,21.1q-.55.2-.55.45t.55.45a3.23,3.23,0,0,0,1.2.2,3.64,3.64,0,0,0,1.25-.2q.5-.2.5-.45t-.5-.45a3.64,3.64,0,0,0-1.25-.2,3.23,3.23,0,0,0-1.2.2m-7.9,2.6q0,.25.4.45a1.69,1.69,0,0,0,.85.2,2,2,0,0,0,.9-.2q.35-.2.35-.45t-.35-.45a2,2,0,0,0-.9-.2,1.69,1.69,0,0,0-.85.2q-.4.2-.4.45m79.3-2.15q0-.25-.55-.45a3.23,3.23,0,0,0-1.2-.2,3.64,3.64,0,0,0-1.25.2q-.5.2-.5.45t.5.45a3.64,3.64,0,0,0,1.25.2,3.23,3.23,0,0,0,1.2-.2q.55-.2.55-.45m6.95,2.6q.4-.2.4-.45t-.4-.45a1.69,1.69,0,0,0-.85-.2,2,2,0,0,0-.9.2q-.35.2-.35.45t.35.45a2,2,0,0,0,.9.2,1.69,1.69,0,0,0,.85-.2m94.35-3.5q0-.45-.9-.75a8.22,8.22,0,0,0-4.4,0q-.9.3-.9.75t.9.75a8.22,8.22,0,0,0,4.4,0q.9-.3.9-.75m34,263.8a5.44,5.44,0,0,0-.55-2.55q-.5-1.05-1.2-1t-1.25,1a5.9,5.9,0,0,0-.5,2.55A7.41,7.41,0,0,0,354,286a7,7,0,0,0,.35,1q.55,1,1.25,1t1.2-1a4.48,4.48,0,0,0,.4-1,7.41,7.41,0,0,0,.15-1.55M352.5,174.6a2.28,2.28,0,0,0-.35-1.25.9.9,0,0,0-.8-.5,1,1,0,0,0-.85.5,2.57,2.57,0,0,0-.3,1.25,2.29,2.29,0,0,0,.3,1.2,1,1,0,0,0,.85.55.9.9,0,0,0,.8-.55,2,2,0,0,0,.35-1.2m4,8.65a1.51,1.51,0,0,0,0-1.5.45.45,0,0,0-.4-.3.56.56,0,0,0-.45.3,2,2,0,0,0,0,1.5.56.56,0,0,0,.45.3.45.45,0,0,0,.4-.3M349.2,171.2a5.12,5.12,0,0,0,.65-2.65,5.4,5.4,0,0,0-.65-2.7q-.6-1.1-1.45-1.1a1.82,1.82,0,0,0-1.5,1.1,5.76,5.76,0,0,0-.6,2.7,5.46,5.46,0,0,0,.6,2.65q.65,1.15,1.5,1.15t1.45-1.15m5.3-124.5q-.7-2-1.7-2t-1.75,2a14.76,14.76,0,0,0-.7,4.85,14.76,14.76,0,0,0,.7,4.85q.75,2,1.75,2t1.7-2a13.86,13.86,0,0,0,.75-4.85A13.86,13.86,0,0,0,354.5,46.7Z"/><path class="cls-2" d="M339.15,17.7a3.14,3.14,0,0,1,1.15-.4H273.65a1.64,1.64,0,0,1,.05.4q0,1.3-2.2,2.2a.14.14,0,0,0-.1.05,13.76,13.76,0,0,1-5.15.85,14,14,0,0,1-5.3-.9q-1.75-.75-2.05-1.7a1.34,1.34,0,0,1-.1-.5,1.64,1.64,0,0,1,.05-.4H113.4a1.64,1.64,0,0,1,0,.4,1.34,1.34,0,0,1-.1.5q-.3.95-2,1.7a14,14,0,0,1-5.3.9,13.76,13.76,0,0,1-5.15-.85.14.14,0,0,0-.1-.05q-2.2-.9-2.2-2.2a1.64,1.64,0,0,1,0-.4H32a3.14,3.14,0,0,1,1.15.4,1.45,1.45,0,0,1,.7,1.2A1.33,1.33,0,0,1,33.1,20a3.17,3.17,0,0,1-1.8.5,2.93,2.93,0,0,1-1.75-.5,1.32,1.32,0,0,1-.75-1.15,1.43,1.43,0,0,1,.75-1.2,2.7,2.7,0,0,1,1.1-.4H12.7V61.65a3.13,3.13,0,0,1,.55-1.7,1.45,1.45,0,0,1,1.2-.7,1.58,1.58,0,0,1,1.25.7,3.17,3.17,0,0,1,.5,1.8,2.93,2.93,0,0,1-.5,1.75,1.55,1.55,0,0,1-1.25.75,1.43,1.43,0,0,1-1.2-.75,2.87,2.87,0,0,1-.55-1.65v8.7a2.81,2.81,0,0,1,.55-.05,3.56,3.56,0,0,1,3,2.1,11.44,11.44,0,0,1,0,10.2,3.56,3.56,0,0,1-3,2.1,2.81,2.81,0,0,1-.55-.05v12.2a2.71,2.71,0,0,1,1.45-.4,3.3,3.3,0,0,1,2.7,1.6A7,7,0,0,1,18,102.2a6.72,6.72,0,0,1-1.1,3.9,3.28,3.28,0,0,1-2.7,1.65,2.71,2.71,0,0,1-1.45-.4V119.5a.2.2,0,0,1,.15.05,7,7,0,0,1,.35-1.5q.45-1.45,1.1-1.45t1.15,1.45a11.91,11.91,0,0,1,.45,3.5q0,.35,0,.65H12.7V243.15a.72.72,0,0,1,.5-.25q.8,0,1.35,2a17.71,17.71,0,0,1,.55,4.75,17.71,17.71,0,0,1-.55,4.75,4.54,4.54,0,0,1-.7,1.6q1.6.1,2.75,2.25a12.95,12.95,0,0,1,0,11.1q-1.25,2.3-3,2.3a2.83,2.83,0,0,1-.9-.15v37.7a5.05,5.05,0,0,1,2-.75,5.87,5.87,0,0,1-.55-2.65,5.61,5.61,0,0,1,.65-2.8,1.87,1.87,0,0,1,1.6-1.15A1.87,1.87,0,0,1,18,303a6.36,6.36,0,0,1,0,5.6,2.63,2.63,0,0,1-.25.4A8,8,0,0,1,21,312.3a19.29,19.29,0,0,1,2.25,9.6A19,19,0,0,1,21,331.45q-2.3,4-5.55,4a4.92,4.92,0,0,1-2.7-.8V356.2H130.15a3,3,0,0,1-.9-2.2,3.13,3.13,0,0,1,1.1-2.4,4.17,4.17,0,0,1,5.3,0,3.13,3.13,0,0,1,1.1,2.4,2.91,2.91,0,0,1-.95,2.2h3.5a3,3,0,0,1,1.1,0h14.75v-.05a2.65,2.65,0,0,1,1.25-2.2,4.25,4.25,0,0,1,1.1-.55,5.33,5.33,0,0,1,1.95-.35,5.08,5.08,0,0,1,3.05.9,5.14,5.14,0,0,1,.75.7,2.27,2.27,0,0,1,.45,1,2.54,2.54,0,0,1,.05.5v.05h68.1a3,3,0,0,1,1.1,0h3.5a2.91,2.91,0,0,1-.95-2.2,3.13,3.13,0,0,1,1.1-2.4,4.17,4.17,0,0,1,5.3,0A3.13,3.13,0,0,1,243,354a3,3,0,0,1-.9,2.2H359.55V334.65a4.92,4.92,0,0,1-2.7.8q-3.25,0-5.55-4A19,19,0,0,1,349,321.9a19.29,19.29,0,0,1,2.25-9.6,8,8,0,0,1,3.2-3.35,2.63,2.63,0,0,1-.25-.4,6.36,6.36,0,0,1,0-5.6,1.69,1.69,0,0,1,3.2,0,5.61,5.61,0,0,1,.65,2.8,5.87,5.87,0,0,1-.55,2.65,5.05,5.05,0,0,1,2,.75v-37.7a2.83,2.83,0,0,1-.9.15q-1.75,0-3-2.3a12.95,12.95,0,0,1,0-11.1q1.15-2.15,2.75-2.25a4.54,4.54,0,0,1-.7-1.6,20.79,20.79,0,0,1,0-9.5q.55-2,1.35-2a.72.72,0,0,1,.5.25V122.2h-3.2v-.65a11.91,11.91,0,0,1,.45-3.5q.5-1.45,1.15-1.45t1.1,1.45a7,7,0,0,1,.35,1.5.2.2,0,0,1,.15-.05v-5.8q0-.2,0-.35v-6a2.71,2.71,0,0,1-1.45.4,3.28,3.28,0,0,1-2.7-1.65,6.72,6.72,0,0,1-1.1-3.9,7,7,0,0,1,1.1-3.95,3.3,3.3,0,0,1,2.7-1.6,2.71,2.71,0,0,1,1.45.4V84.85a2.81,2.81,0,0,1-.55.05,3.56,3.56,0,0,1-3-2.1,11.44,11.44,0,0,1,0-10.2,3.56,3.56,0,0,1,3-2.1,2.81,2.81,0,0,1,.55.05v-8.7A2.87,2.87,0,0,1,359,63.5a1.43,1.43,0,0,1-1.2.75,1.56,1.56,0,0,1-1.25-.75,2.93,2.93,0,0,1-.5-1.75,3.17,3.17,0,0,1,.5-1.8,1.58,1.58,0,0,1,1.25-.7,1.45,1.45,0,0,1,1.2.7,3.13,3.13,0,0,1,.55,1.7V17.3H341.6a2.7,2.7,0,0,1,1.1.4,1.43,1.43,0,0,1,.75,1.2A1.32,1.32,0,0,1,342.7,20a2.93,2.93,0,0,1-1.75.5,3.17,3.17,0,0,1-1.8-.5,1.33,1.33,0,0,1-.7-1.15,1.45,1.45,0,0,1,.7-1.2m7.3,2.2A7.14,7.14,0,0,1,351.7,22a7.25,7.25,0,0,1,0,10.4,7.14,7.14,0,0,1-5.25,2.15,7.31,7.31,0,0,1-5.3-2.15,7.36,7.36,0,0,1,0-10.4,7.31,7.31,0,0,1,5.3-2.15M329.4,28.7v14h14V329.35h-14v14.3H42.85v-14.3h-14V42.7h14v-14H329.4m23.4,16q1,0,1.7,2a13.86,13.86,0,0,1,.75,4.85,13.86,13.86,0,0,1-.75,4.85q-.7,2-1.7,2t-1.75-2a14.76,14.76,0,0,1-.7-4.85,14.76,14.76,0,0,1,.7-4.85q.75-2,1.75-2m-2.95,123.85a5.12,5.12,0,0,1-.65,2.65q-.6,1.15-1.45,1.15t-1.5-1.15a5.46,5.46,0,0,1-.6-2.65,5.76,5.76,0,0,1,.6-2.7,1.82,1.82,0,0,1,1.5-1.1q.85,0,1.45,1.1a5.4,5.4,0,0,1,.65,2.7m6.8,13.95a1.32,1.32,0,0,1-.2.75.45.45,0,0,1-.4.3.56.56,0,0,1-.45-.3,2,2,0,0,1,0-1.5.56.56,0,0,1,.45-.3.45.45,0,0,1,.4.3,1.32,1.32,0,0,1,.2.75m-4.5-9.15a2.28,2.28,0,0,1,.35,1.25,2,2,0,0,1-.35,1.2.9.9,0,0,1-.8.55,1,1,0,0,1-.85-.55,2.29,2.29,0,0,1-.3-1.2,2.57,2.57,0,0,1,.3-1.25,1,1,0,0,1,.85-.5.9.9,0,0,1,.8.5M356.8,281.9a5.44,5.44,0,0,1,.55,2.55,7.41,7.41,0,0,1-.15,1.55,4.48,4.48,0,0,1-.4,1q-.5,1-1.2,1t-1.25-1a7,7,0,0,1-.35-1,7.41,7.41,0,0,1-.15-1.55,5.9,5.9,0,0,1,.5-2.55q.55-1.05,1.25-1t1.2,1M339,345.5a7.08,7.08,0,0,1,2.15-5.2,7.31,7.31,0,0,1,5.3-2.15,7.14,7.14,0,0,1,5.25,2.15,7.25,7.25,0,0,1,0,10.4,7.14,7.14,0,0,1-5.25,2.15,7.31,7.31,0,0,1-5.3-2.15,7.08,7.08,0,0,1-2.15-5.2M322.5,19.9q.9.3.9.75t-.9.75a8.22,8.22,0,0,1-4.4,0q-.9-.3-.9-.75t.9-.75a8.22,8.22,0,0,1,4.4,0m-93.05,3.8q0,.25-.4.45a1.69,1.69,0,0,1-.85.2,2,2,0,0,1-.9-.2q-.35-.2-.35-.45t.35-.45a2,2,0,0,1,.9-.2,1.69,1.69,0,0,1,.85.2q.4.2.4.45m-7.9-2.6q.55.2.55.45t-.55.45a3.23,3.23,0,0,1-1.2.2,3.64,3.64,0,0,1-1.25-.2q-.5-.2-.5-.45t.5-.45a3.64,3.64,0,0,1,1.25-.2,3.23,3.23,0,0,1,1.2.2m-78.35,3q-.4-.2-.4-.45t.4-.45a1.69,1.69,0,0,1,.85-.2,2,2,0,0,1,.9.2q.35.2.35.45t-.35.45a2,2,0,0,1-.9.2,1.69,1.69,0,0,1-.85-.2m6.95-2.6q0-.25.55-.45a3.23,3.23,0,0,1,1.2-.2,3.64,3.64,0,0,1,1.25.2q.5.2.5.45t-.5.45a3.64,3.64,0,0,1-1.25.2,3.23,3.23,0,0,1-1.2-.2q-.55-.2-.55-.45m-101.3-.9q0-.45.9-.75a8.22,8.22,0,0,1,4.4,0q.9.3.9.75t-.9.75a8.22,8.22,0,0,1-4.4,0q-.9-.3-.9-.75M20.55,22A7.14,7.14,0,0,1,25.8,19.9,7.31,7.31,0,0,1,31.1,22a7.36,7.36,0,0,1,0,10.4,7.31,7.31,0,0,1-5.3,2.15,7.14,7.14,0,0,1-5.25-2.15,7.25,7.25,0,0,1,0-10.4M17.75,46.7q.7-2,1.7-2t1.75,2a14.76,14.76,0,0,1,.7,4.85,14.76,14.76,0,0,1-.7,4.85q-.75,2-1.75,2t-1.7-2A13.86,13.86,0,0,1,17,51.55a13.86,13.86,0,0,1,.75-4.85M23,171.2a5.12,5.12,0,0,1-.65-2.65,5.4,5.4,0,0,1,.65-2.7q.6-1.1,1.45-1.1a1.82,1.82,0,0,1,1.5,1.1,5.76,5.76,0,0,1,.6,2.7,5.46,5.46,0,0,1-.6,2.65q-.65,1.15-1.5,1.15T23,171.2m-3.3,3.4a2.28,2.28,0,0,1,.35-1.25.9.9,0,0,1,.8-.5,1,1,0,0,1,.85.5,2.57,2.57,0,0,1,.3,1.25,2.29,2.29,0,0,1-.3,1.2,1,1,0,0,1-.85.55.9.9,0,0,1-.8-.55,2,2,0,0,1-.35-1.2m-4.15,7.9a1.32,1.32,0,0,1,.2-.75.45.45,0,0,1,.4-.3.56.56,0,0,1,.45.3,2,2,0,0,1,0,1.5.56.56,0,0,1-.45.3.45.45,0,0,1-.4-.3,1.32,1.32,0,0,1-.2-.75m-.7,102a5.44,5.44,0,0,1,.55-2.55q.5-1.05,1.2-1t1.25,1a5.9,5.9,0,0,1,.5,2.55,7.41,7.41,0,0,1-.15,1.55,7,7,0,0,1-.35,1q-.55,1-1.25,1t-1.2-1a4.48,4.48,0,0,1-.4-1,7.41,7.41,0,0,1-.15-1.55m5.65,55.85a7.14,7.14,0,0,1,5.25-2.15,7.31,7.31,0,0,1,5.3,2.15,7.36,7.36,0,0,1,0,10.4,7.31,7.31,0,0,1-5.3,2.15,7.14,7.14,0,0,1-5.25-2.15,7.25,7.25,0,0,1,0-10.4m132.7,11.45a.9.9,0,0,1-.55.8,2.73,2.73,0,0,1-1.4.35,2.47,2.47,0,0,1-1.35-.35.9.9,0,0,1-.6-.8,1,1,0,0,1,.6-.85,2.79,2.79,0,0,1,1.35-.3,3.09,3.09,0,0,1,1.4.3,1,1,0,0,1,.55.85m-9.35,1.8q0-.45.6-.75a3.65,3.65,0,0,1,2.9,0q.6.3.6.75t-.6.75a3.65,3.65,0,0,1-2.9,0q-.6-.3-.6-.75m83.85.75a3.65,3.65,0,0,1-2.9,0q-.6-.3-.6-.75t.6-.75a3.65,3.65,0,0,1,2.9,0q.6.3.6.75t-.6.75m-6.8-3.7a2.79,2.79,0,0,1,1.35.3,1,1,0,0,1,.6.85.9.9,0,0,1-.6.8,2.47,2.47,0,0,1-1.35.35,2.73,2.73,0,0,1-1.4-.35.9.9,0,0,1-.55-.8,1,1,0,0,1,.55-.85,3.09,3.09,0,0,1,1.4-.3M23.4,341.1a3.08,3.08,0,0,0-.95,2.25,3.25,3.25,0,0,0,3.15,3.15,3.08,3.08,0,0,0,2.25-1,3,3,0,0,0,.9-2.2,3.08,3.08,0,0,0-3.15-3.15,3,3,0,0,0-2.2.9m.9-318.35a3.25,3.25,0,0,0-2.45,1,3.75,3.75,0,0,0,0,5.1,3.38,3.38,0,0,0,4.9,0,3.75,3.75,0,0,0,0-5.1,3.25,3.25,0,0,0-2.45-1m324.55,322.8a2.91,2.91,0,0,0,.95-2.2,3.08,3.08,0,0,0-.95-2.25,3,3,0,0,0-2.2-.9,3.08,3.08,0,0,0-3.15,3.15,3,3,0,0,0,.9,2.2,3.08,3.08,0,0,0,2.25,1,2.91,2.91,0,0,0,2.2-1M348,22.75a3.25,3.25,0,0,0-2.45,1,3.75,3.75,0,0,0,0,5.1,3.38,3.38,0,0,0,4.9,0,3.75,3.75,0,0,0,0-5.1A3.25,3.25,0,0,0,348,22.75Z"/><path class="cls-4" d="M25.8,338.15a7.14,7.14,0,0,0-5.25,2.15,7.25,7.25,0,0,0,0,10.4,7.14,7.14,0,0,0,5.25,2.15,7.31,7.31,0,0,0,5.3-2.15,7.36,7.36,0,0,0,0-10.4,7.31,7.31,0,0,0-5.3-2.15m-3.35,5.2a3.08,3.08,0,0,1,.95-2.25,3,3,0,0,1,2.2-.9,3.08,3.08,0,0,1,3.15,3.15,3,3,0,0,1-.9,2.2,3.08,3.08,0,0,1-2.25,1,3.25,3.25,0,0,1-3.15-3.15M25.8,19.9A7.14,7.14,0,0,0,20.55,22a7.25,7.25,0,0,0,0,10.4A7.14,7.14,0,0,0,25.8,34.6a7.31,7.31,0,0,0,5.3-2.15,7.36,7.36,0,0,0,0-10.4,7.31,7.31,0,0,0-5.3-2.15m-3.95,3.9a3.38,3.38,0,0,1,4.9,0,3.75,3.75,0,0,1,0,5.1,3.38,3.38,0,0,1-4.9,0,3.75,3.75,0,0,1,0-5.1m319.3,316.5a7.36,7.36,0,0,0,0,10.4,7.31,7.31,0,0,0,5.3,2.15,7.14,7.14,0,0,0,5.25-2.15,7.25,7.25,0,0,0,0-10.4,7.14,7.14,0,0,0-5.25-2.15,7.31,7.31,0,0,0-5.3,2.15m8.65,3.05a3.25,3.25,0,0,1-3.15,3.15,3.08,3.08,0,0,1-2.25-1,3,3,0,0,1-.9-2.2,3.08,3.08,0,0,1,3.15-3.15,3,3,0,0,1,2.2.9,3.08,3.08,0,0,1,.95,2.25M48.45,323.75l-5.6,5.6v14.3l5.6-5.95v-14M34.8,48.35,28.85,42.7V329.35l5.95-5.6V48.35m8-5.65,5.6,5.65V34.7l-5.6-6v14M329.4,343.65v-14.3l-5.6-5.6v14l5.6,5.95m14-300.95-5.95,5.65v275.4l5.95,5.6V42.7m-14,0v-14l-5.6,6V48.35l5.6-5.65M351.7,22a7.14,7.14,0,0,0-5.25-2.15,7.31,7.31,0,0,0-5.3,2.15,7.36,7.36,0,0,0,0,10.4,7.31,7.31,0,0,0,5.3,2.15,7.14,7.14,0,0,0,5.25-2.15,7.25,7.25,0,0,0,0-10.4m-6.2,1.75a3.38,3.38,0,0,1,4.9,0,3.75,3.75,0,0,1,0,5.1,3.38,3.38,0,0,1-4.9,0,3.75,3.75,0,0,1,0-5.1Z"/><path class="cls-5" d="M48.45,337.7l-5.6,5.95H329.4l-5.6-5.95H48.45m-5.6-8.35,5.6-5.6H34.8l-5.95,5.6h14m300.55,0-5.95-5.6H323.8l5.6,5.6Z"/><path class="cls-6" d="M42.85,28.7l5.6,6H323.8l5.6-6H42.85m5.6,19.65-5.6-5.65h-14l5.95,5.65H48.45m289,0,5.95-5.65h-14l-5.6,5.65Z"/></g></g></g></svg>