<svg xmlns="http://www.w3.org/2000/svg" viewBox="0 0 324.25 163.4"><defs><style>.cls-1{fill:#93939e;}.cls-2{fill:#9c99a2;}.cls-3{fill:#797984;}.cls-4{fill:#6e6e7a;}.cls-5{fill:#878793;}.cls-6{fill:#aba8b2;}.cls-7{fill:#797982;}.cls-8{fill:#74747c;}</style></defs><title>titlebox</title><g id="Layer_2" data-name="Layer 2"><g id="Layer_1-2" data-name="Layer 1"><g id="namthing_0_Layer1_0_FILL" data-name="namthing 0 Layer1 0 FILL"><path class="cls-1" d="M13.05,13.5V153.8H307.1V13.5H13.05m18.4,24a16,16,0,0,1,6.9-3,51.94,51.94,0,0,1,7.6-.8L90.4,31.4l8.35-.4a7,7,0,0,1,3.4-.6q.47.08,1,.2,6.91,0,15.8,0,21.86.1,55.7.1a175.84,175.84,0,0,1,22.65,1.1q12.45,1.75,21,7,1.7-3.55,6.5-5a31.7,31.7,0,0,1,9-1l52-.35a40.92,40.92,0,0,1,1.65,23.1,9.25,9.25,0,0,0-6.5.8,9.08,9.08,0,0,0-4.5,4.7,7.5,7.5,0,0,1,6.35,1.4,7.61,7.61,0,0,1,3.5,5.6q1.4-1.6,4-5a167,167,0,0,1,3.15,37.9,57.1,57.1,0,0,1-1.6,11.9,22.62,22.62,0,0,1-5.4,10.2q-4.35,4.35-12,6a78.67,78.67,0,0,1-14,1.2l-137.65,1.5q-40.6.35-60.85.6-13.24.23-24,.25.71.68-.15,1.4a2.59,2.59,0,0,1-3,0,6.86,6.86,0,0,1-2.6-2.4A25.9,25.9,0,0,1,27.9,115a25.5,25.5,0,0,1,6.45-15.75,51.75,51.75,0,0,1-4.5-23.85,50.73,50.73,0,0,1,6.6-23.3q-4.25-.85-6.35-1.35-2.9-2.3-2.3-6.65A9.55,9.55,0,0,1,31.45,37.5Z"/><path class="cls-2" d="M38.35,34.55a16,16,0,0,0-6.9,3,9.55,9.55,0,0,0-3.65,6.6q-.6,4.35,2.3,6.65,2.1.5,6.35,1.35a50.73,50.73,0,0,0-6.6,23.3,51.75,51.75,0,0,0,4.5,23.85A25.5,25.5,0,0,0,27.9,115a25.9,25.9,0,0,0,4.2,16.6,6.86,6.86,0,0,0,2.6,2.4,2.59,2.59,0,0,0,3,0q.86-.73.15-1.4,10.76,0,24-.25,20.25-.25,60.85-.6l137.65-1.5a78.67,78.67,0,0,0,14-1.2q7.6-1.6,12-6a22.62,22.62,0,0,0,5.4-10.2,57.1,57.1,0,0,0,1.6-11.9,167,167,0,0,0-3.15-37.9q-2.6,3.4-4,5a7.61,7.61,0,0,0-3.5-5.6,7.5,7.5,0,0,0-6.35-1.4,9.08,9.08,0,0,1,4.5-4.7,9.25,9.25,0,0,1,6.5-.8,40.92,40.92,0,0,0-1.65-23.1l-52,.35a31.7,31.7,0,0,0-9,1q-4.8,1.4-6.5,5-8.5-5.25-21-7a175.84,175.84,0,0,0-22.65-1.1q-33.84,0-55.7-.1-8.89,0-15.8,0-.48-.12-1-.2a7,7,0,0,0-3.4.6l-8.35.4L46,33.75A51.94,51.94,0,0,0,38.35,34.55Z"/></g><g id="cornerpeice_0_Layer0_0_FILL" data-name="cornerpeice 0 Layer0 0 FILL"><path class="cls-3" d="M21.75,19,11.5,8.6,3.3.25l1.5,4.3L24.2,24.1,21.75,19m15.75-2.1L34.85,19l5.2,5.15Z"/><path class="cls-4" d="M40.05,24.1,34.85,19H21.75L24.2,24.1H40.05m40.35,0L82.7,19H41.05l-3.55-2.1,2.55,7.25Z"/><path class="cls-1" d="M82.7,19V11.9A15.38,15.38,0,0,1,75.65,15a52.06,52.06,0,0,1-9.5.5q-28.1-1-43.25-1.4a3.36,3.36,0,0,0-1.5-3.3,7.55,7.55,0,0,0-3.85-1.55q-2.7-.1-4-.25a11.22,11.22,0,0,1-2.05-.4L21.75,19h13.1l2.65-2.1L41.05,19H82.7m-49.2-7.8a2.26,2.26,0,0,0-1.5-.5,2.47,2.47,0,0,0-1.55.5,1.71,1.71,0,0,0-.6,1.3,1.56,1.56,0,0,0,.6,1.25,2.32,2.32,0,0,0,1.55.55,2.14,2.14,0,0,0,1.5-.55,1.52,1.52,0,0,0,.65-1.25,1.66,1.66,0,0,0-.65-1.3m27.3-3.6q-.55.25-.55.6t.55.55a3.77,3.77,0,0,0,2.7,0q.55-.2.55-.55t-.55-.6a4.66,4.66,0,0,0-2.7,0M56.35,10.1a2.19,2.19,0,0,0-1.15.3,1,1,0,0,0-.45.8.88.88,0,0,0,.45.75,2,2,0,0,0,1.15.35,1.74,1.74,0,0,0,1.1-.35.87.87,0,0,0,.5-.75,1,1,0,0,0-.5-.8,1.94,1.94,0,0,0-1.1-.3M69,13.85q0-.65-.85-1.1a4.89,4.89,0,0,0-4.1,0q-.85.45-.85,1.1t.85,1.1a4.89,4.89,0,0,0,4.1,0q.85-.45.85-1.1M74.8,7.4a.67.67,0,0,0-.55-.25.82.82,0,0,0-.6.25,1.15,1.15,0,0,0-.2.65.93.93,0,0,0,.2.6.76.76,0,0,0,.6.3.63.63,0,0,0,.55-.3.82.82,0,0,0,.25-.6A1,1,0,0,0,74.8,7.4Z"/><path class="cls-2" d="M82.7,3,80.45.25H3.3L11.5,8.6a11.22,11.22,0,0,0,2.05.4q1.3.15,4,.25A7.55,7.55,0,0,1,21.4,10.8a3.36,3.36,0,0,1,1.5,3.3q15.15.4,43.25,1.4a52.06,52.06,0,0,0,9.5-.5,15.38,15.38,0,0,0,7.05-3.1V3M74.25,7.15a.67.67,0,0,1,.55.25,1,1,0,0,1,.25.65.82.82,0,0,1-.25.6.63.63,0,0,1-.55.3.76.76,0,0,1-.6-.3.93.93,0,0,1-.2-.6,1.15,1.15,0,0,1,.2-.65.82.82,0,0,1,.6-.25m-6.15,5.6q.85.45.85,1.1t-.85,1.1a4.89,4.89,0,0,1-4.1,0q-.85-.45-.85-1.1t.85-1.1a4.89,4.89,0,0,1,4.1,0M55.2,10.4a2.19,2.19,0,0,1,1.15-.3,1.94,1.94,0,0,1,1.1.3,1,1,0,0,1,.5.8.87.87,0,0,1-.5.75,1.74,1.74,0,0,1-1.1.35,2,2,0,0,1-1.15-.35.88.88,0,0,1-.45-.75,1,1,0,0,1,.45-.8m5-2.25q0-.35.55-.6a4.66,4.66,0,0,1,2.7,0q.55.25.55.6t-.55.55a3.77,3.77,0,0,1-2.7,0q-.55-.2-.55-.55M32,10.65a2.26,2.26,0,0,1,1.5.5,1.66,1.66,0,0,1,.65,1.3,1.52,1.52,0,0,1-.65,1.25,2.14,2.14,0,0,1-1.5.55,2.32,2.32,0,0,1-1.55-.55,1.56,1.56,0,0,1-.6-1.25,1.71,1.71,0,0,1,.6-1.3A2.47,2.47,0,0,1,32,10.65Z"/></g><g id="cornerpeice_0_Layer0_0_FILL-2" data-name="cornerpeice 0 Layer0 0 FILL"><path class="cls-3" d="M302.75,18.7,313,8.35,321.2,0l-1.5,4.3L300.3,23.85l2.45-5.15M287,16.6l2.65,2.1-5.2,5.15Z"/><path class="cls-4" d="M284.45,23.85l5.2-5.15h13.1l-2.45,5.15H284.45m-40.35,0-2.3-5.15h41.65L287,16.6l-2.55,7.25Z"/><path class="cls-1" d="M241.8,18.7V11.65a15.38,15.38,0,0,0,7.05,3.1,52.06,52.06,0,0,0,9.5.5q28.1-1,43.25-1.4a3.36,3.36,0,0,1,1.5-3.3A7.55,7.55,0,0,1,306.95,9q2.7-.1,4-.25a11.22,11.22,0,0,0,2.05-.4L302.75,18.7h-13.1L287,16.6l-3.55,2.1H241.8M291,10.9a2.26,2.26,0,0,1,1.5-.5,2.47,2.47,0,0,1,1.55.5,1.71,1.71,0,0,1,.6,1.3,1.56,1.56,0,0,1-.6,1.25,2.32,2.32,0,0,1-1.55.55,2.14,2.14,0,0,1-1.5-.55,1.52,1.52,0,0,1-.65-1.25,1.66,1.66,0,0,1,.65-1.3M263.7,7.3q.55.25.55.6t-.55.55a3.77,3.77,0,0,1-2.7,0q-.55-.2-.55-.55t.55-.6a4.66,4.66,0,0,1,2.7,0m4.45,2.55a2.19,2.19,0,0,1,1.15.3,1,1,0,0,1,.45.8.88.88,0,0,1-.45.75,2,2,0,0,1-1.15.35,1.74,1.74,0,0,1-1.1-.35.87.87,0,0,1-.5-.75,1,1,0,0,1,.5-.8,1.94,1.94,0,0,1,1.1-.3m-12.6,3.75q0-.65.85-1.1a4.89,4.89,0,0,1,4.1,0q.85.45.85,1.1t-.85,1.1a4.89,4.89,0,0,1-4.1,0q-.85-.45-.85-1.1M249.7,7.15a.67.67,0,0,1,.55-.25.82.82,0,0,1,.6.25,1.15,1.15,0,0,1,.2.65.93.93,0,0,1-.2.6.76.76,0,0,1-.6.3.63.63,0,0,1-.55-.3.82.82,0,0,1-.25-.6A1,1,0,0,1,249.7,7.15Z"/><path class="cls-2" d="M241.8,2.75,244,0H321.2L313,8.35a11.22,11.22,0,0,1-2.05.4q-1.3.15-4,.25a7.55,7.55,0,0,0-3.85,1.55,3.36,3.36,0,0,0-1.5,3.3q-15.15.4-43.25,1.4a52.06,52.06,0,0,1-9.5-.5,15.38,15.38,0,0,1-7.05-3.1V2.75m8.45,4.15a.67.67,0,0,0-.55.25,1,1,0,0,0-.25.65.82.82,0,0,0,.25.6.63.63,0,0,0,.55.3.76.76,0,0,0,.6-.3.93.93,0,0,0,.2-.6,1.15,1.15,0,0,0-.2-.65.82.82,0,0,0-.6-.25m6.15,5.6q-.85.45-.85,1.1t.85,1.1a4.89,4.89,0,0,0,4.1,0q.85-.45.85-1.1t-.85-1.1a4.89,4.89,0,0,0-4.1,0m12.9-2.35a2.19,2.19,0,0,0-1.15-.3,1.94,1.94,0,0,0-1.1.3,1,1,0,0,0-.5.8.87.87,0,0,0,.5.75,1.74,1.74,0,0,0,1.1.35,2,2,0,0,0,1.15-.35.88.88,0,0,0,.45-.75,1,1,0,0,0-.45-.8m-5-2.25q0-.35-.55-.6a4.66,4.66,0,0,0-2.7,0q-.55.25-.55.6t.55.55a3.77,3.77,0,0,0,2.7,0q.55-.2.55-.55m28.25,2.5a2.26,2.26,0,0,0-1.5.5,1.66,1.66,0,0,0-.65,1.3,1.52,1.52,0,0,0,.65,1.25,2.14,2.14,0,0,0,1.5.55,2.32,2.32,0,0,0,1.55-.55,1.56,1.56,0,0,0,.6-1.25,1.71,1.71,0,0,0-.6-1.3A2.47,2.47,0,0,0,292.5,10.4Z"/></g><g id="bottombrick_0_Layer0_0_FILL" data-name="bottombrick 0 Layer0 0 FILL"><path class="cls-3" d="M256.3,140.35l-2.85,9.8,5-5.45-2.15-4.35m46.15,4.35,9.1,9.2,9.35,9.5-1.5-4.3L300,139.55Z"/><path class="cls-5" d="M252.85,150.8l.6-.65,2.85-9.8-7.15,4.35Z"/><path class="cls-6" d="M302.45,144.7,300,139.55H243.8l-2.3,5.15h7.65l7.15-4.35,2.15,4.35Z"/><path class="cls-1" d="M320.9,163.4l-9.35-9.5a3.83,3.83,0,0,1-.15.5,3,3,0,0,1-1.9,2q-2.05.6-5.5-1.1-1.35,3.3-7.9,1.6-.85,2.5-1,3a12.45,12.45,0,0,0-5.4-1.75,30.31,30.31,0,0,0-5-.05,1.64,1.64,0,0,0,.2-.8,1.85,1.85,0,0,0-.65-1.4,2.14,2.14,0,0,0-1.5-.55,2.32,2.32,0,0,0-1.55.55,1.92,1.92,0,0,0-.6,1.4,1.78,1.78,0,0,0,.25,1q-2.25.12-5.8.25-5.19.27-13.1.65-5.15.15-6.95.15a36.21,36.21,0,0,1-6.8-.75,14.44,14.44,0,0,1-6.75-3.15v5.25l2.25,2.75H320.9m-24.3-7.9a.56.56,0,0,0-.3-.45,1.15,1.15,0,0,0-.6-.15,1.43,1.43,0,0,0-.65.15.57.57,0,0,0-.25.45.45.45,0,0,0,.25.4,1.15,1.15,0,0,0,.65.2.93.93,0,0,0,.6-.2.45.45,0,0,0,.3-.4m-13.35-2.95a.43.43,0,0,0-.2-.35.91.91,0,0,0-1,0,.41.41,0,0,0,0,.7.91.91,0,0,0,1,0,.43.43,0,0,0,.2-.35m2.85,1.65a.69.69,0,0,0-.35-.55,1.32,1.32,0,0,0-.75-.2,1.58,1.58,0,0,0-.8.2.72.72,0,0,0-.3.55.59.59,0,0,0,.3.5,1.34,1.34,0,0,0,.8.25,1.13,1.13,0,0,0,.75-.25.58.58,0,0,0,.35-.5m3,2a.56.56,0,0,0-.3-.45,1.25,1.25,0,0,0-.65-.15,1.55,1.55,0,0,0-.7.15.57.57,0,0,0-.25.45.45.45,0,0,0,.25.4,1.23,1.23,0,0,0,.7.2,1,1,0,0,0,.65-.2.45.45,0,0,0,.3-.4m1.35-4.05q-.15.1-.15.2t.15.2a.66.66,0,0,0,.7,0q.15-.1.15-.2t-.15-.2a.66.66,0,0,0-.7,0m12.9,2.85q.75-.35.75-.85t-.75-.85a5.06,5.06,0,0,0-3.7,0q-.75.35-.75.85t.75.85a5.06,5.06,0,0,0,3.7,0Z"/><path class="cls-2" d="M311.55,153.9l-9.1-9.2h-44l-5,5.45-.6.65-3.7-6.1H241.5v10.7a14.44,14.44,0,0,0,6.75,3.15,36.21,36.21,0,0,0,6.8.75q1.8,0,6.95-.15,7.91-.38,13.1-.65,3.55-.13,5.8-.25a1.78,1.78,0,0,1-.25-1,1.92,1.92,0,0,1,.6-1.4,2.32,2.32,0,0,1,1.55-.55,2.14,2.14,0,0,1,1.5.55,1.85,1.85,0,0,1,.65,1.4,1.64,1.64,0,0,1-.2.8,30.31,30.31,0,0,1,5,.05,12.45,12.45,0,0,1,5.4,1.75q.15-.5,1-3,6.55,1.7,7.9-1.6,3.45,1.7,5.5,1.1a3,3,0,0,0,1.9-2,3.83,3.83,0,0,0,.15-.5m-7.5.2q0,.5-.75.85a5.06,5.06,0,0,1-3.7,0q-.75-.35-.75-.85t.75-.85a5.06,5.06,0,0,1,3.7,0q.75.35.75.85m-13.8-1.8q0-.1.15-.2a.66.66,0,0,1,.7,0q.15.1.15.2t-.15.2a.66.66,0,0,1-.7,0q-.15-.1-.15-.2m-1.5,3.4a.56.56,0,0,1,.3.45.45.45,0,0,1-.3.4,1,1,0,0,1-.65.2,1.23,1.23,0,0,1-.7-.2.45.45,0,0,1-.25-.4.57.57,0,0,1,.25-.45,1.55,1.55,0,0,1,.7-.15,1.25,1.25,0,0,1,.65.15m-3-2a.69.69,0,0,1,.35.55.58.58,0,0,1-.35.5,1.13,1.13,0,0,1-.75.25,1.34,1.34,0,0,1-.8-.25.59.59,0,0,1-.3-.5.72.72,0,0,1,.3-.55,1.58,1.58,0,0,1,.8-.2,1.32,1.32,0,0,1,.75.2M283,152.2a.41.41,0,0,1,0,.7.91.91,0,0,1-1,0,.41.41,0,0,1,0-.7.91.91,0,0,1,1,0M296.3,155a.56.56,0,0,1,.3.45.45.45,0,0,1-.3.4.93.93,0,0,1-.6.2,1.15,1.15,0,0,1-.65-.2.45.45,0,0,1-.25-.4A.57.57,0,0,1,295,155a1.43,1.43,0,0,1,.65-.15A1.15,1.15,0,0,1,296.3,155Z"/></g><g id="topbricks_0_Layer0_0_FILL" data-name="topbricks 0 Layer0 0 FILL"><path class="cls-3" d="M166.25,144.7l3.85-2L169,148.6Z"/><path class="cls-5" d="M172.05,144.7l-3.1,3.9,1.15-5.9Z"/><path class="cls-6" d="M203.05,139.55l2,3,1.5,2.15H172.05l-1.95-2-3.85,2H162.1l2.45-5.15h38.5m36.15,0,2.3,5.15H209.2l-3.3-5.15Z"/><path class="cls-4" d="M209.2,144.7l-3,8.35.4-8.35-1.5-2.15.8-3Z"/><path class="cls-2" d="M241.5,157q-3.47.31-5.4.35a27.14,27.14,0,0,1-6.9-.7q-1.3-.4-2-.55a8,8,0,0,0-2.1-.2,6,6,0,0,0-2,.45q-1.4.55-2.1.8a26.09,26.09,0,0,1-7.6,1.65,72.27,72.27,0,0,1-7.9.1q-15.6-.25-18.5-.25l-3.3-.1a.76.76,0,0,0,.2-.5q0-.7-1.25-1.2a8.73,8.73,0,0,0-6.1,0q-1.25.5-1.25,1.2s0,.06,0,.1A86.7,86.7,0,0,1,162.1,156V144.7h4.15l2.7,3.9,3.1-3.9H206.6l-.4,8.35,3-8.35h32.3V157m-17-5.25a1.69,1.69,0,0,0-.85.2.53.53,0,0,0,0,1,1.91,1.91,0,0,0,1.7,0,.53.53,0,0,0,0-1,1.69,1.69,0,0,0-.85-.2m5.2,2.8a.42.42,0,0,0-.25-.35.81.81,0,0,0-.5-.15,1,1,0,0,0-.55.15.41.41,0,0,0,0,.7,1,1,0,0,0,.55.15.81.81,0,0,0,.5-.15.42.42,0,0,0,.25-.35m-33.65,2q0-.4-.85-.65a5.58,5.58,0,0,0-1.95-.3,6,6,0,0,0-2,.3q-.8.25-.8.65t.8.7a7.12,7.12,0,0,0,2,.25,6.6,6.6,0,0,0,1.95-.25q.85-.3.85-.7m-9.15-2.35q-.35.15-.35.4t.35.45a2.48,2.48,0,0,0,1.7,0q.35-.2.35-.45t-.35-.4a1.91,1.91,0,0,0-1.7,0Z"/><path class="cls-1" d="M186.55,154.55q0-.25.35-.4a1.91,1.91,0,0,1,1.7,0q.35.15.35.4t-.35.45a2.48,2.48,0,0,1-1.7,0q-.35-.2-.35-.45m8.65,1.3q.85.25.85.65t-.85.7a6.6,6.6,0,0,1-1.95.25,7.12,7.12,0,0,1-2-.25q-.8-.3-.8-.7t.8-.65a6,6,0,0,1,2-.3,5.58,5.58,0,0,1,1.95.3m34.25-1.65a.37.37,0,0,1,0,.7.81.81,0,0,1-.5.15,1,1,0,0,1-.55-.15.41.41,0,0,1,0-.7A1,1,0,0,1,229,154a.81.81,0,0,1,.5.15m-5.8-2.25a1.91,1.91,0,0,1,1.7,0,.53.53,0,0,1,0,1,1.91,1.91,0,0,1-1.7,0,.53.53,0,0,1,0-1m17.85,5v3.65l-2.25,2.75h-74.9l-2.25-2.75V156a86.7,86.7,0,0,0,13.15,2.15s0-.07,0-.1q0-.7,1.25-1.2a8.73,8.73,0,0,1,6.1,0q1.25.5,1.25,1.2a.76.76,0,0,1-.2.5l3.3.1q2.9,0,18.5.25a72.27,72.27,0,0,0,7.9-.1,26.09,26.09,0,0,0,7.6-1.65q.7-.25,2.1-.8a6,6,0,0,1,2-.45,8,8,0,0,1,2.1.2q.7.15,2,.55a27.14,27.14,0,0,0,6.9.7Q238,157.31,241.5,157Z"/></g><g id="bottombrick_0_Layer0_0_FILL-2" data-name="bottombrick 0 Layer0 0 FILL"><path class="cls-3" d="M68.2,140.35l2.85,9.8-5-5.45,2.15-4.35M22,144.7l-9.1,9.2L3.6,163.4l1.5-4.3,19.4-19.55Z"/><path class="cls-5" d="M71.65,150.8l-.6-.65-2.85-9.8,7.15,4.35Z"/><path class="cls-6" d="M22,144.7l2.45-5.15H80.7L83,144.7H75.35l-7.15-4.35L66,144.7Z"/><path class="cls-1" d="M3.6,163.4l9.35-9.5a3.83,3.83,0,0,0,.15.5,3,3,0,0,0,1.9,2q2.05.6,5.5-1.1,1.35,3.3,7.9,1.6.85,2.5,1,3a12.45,12.45,0,0,1,5.4-1.75,30.31,30.31,0,0,1,5-.05,1.64,1.64,0,0,1-.2-.8,1.85,1.85,0,0,1,.65-1.4,2.14,2.14,0,0,1,1.5-.55,2.32,2.32,0,0,1,1.55.55,1.92,1.92,0,0,1,.6,1.4,1.78,1.78,0,0,1-.25,1q2.25.12,5.8.25,5.19.27,13.1.65,5.15.15,6.95.15a36.21,36.21,0,0,0,6.8-.75A14.44,14.44,0,0,0,83,155.4v5.25l-2.25,2.75H3.6m24.3-7.9a.56.56,0,0,1,.3-.45,1.15,1.15,0,0,1,.6-.15,1.43,1.43,0,0,1,.65.15.57.57,0,0,1,.25.45.45.45,0,0,1-.25.4,1.15,1.15,0,0,1-.65.2.93.93,0,0,1-.6-.2.45.45,0,0,1-.3-.4m13.35-2.95a.43.43,0,0,1,.2-.35.91.91,0,0,1,1,0,.41.41,0,0,1,0,.7.91.91,0,0,1-1,0,.43.43,0,0,1-.2-.35M38.4,154.2a.69.69,0,0,1,.35-.55,1.32,1.32,0,0,1,.75-.2,1.58,1.58,0,0,1,.8.2.72.72,0,0,1,.3.55.59.59,0,0,1-.3.5,1.34,1.34,0,0,1-.8.25,1.13,1.13,0,0,1-.75-.25.58.58,0,0,1-.35-.5m-3,2a.56.56,0,0,1,.3-.45,1.25,1.25,0,0,1,.65-.15,1.55,1.55,0,0,1,.7.15.57.57,0,0,1,.25.45.45.45,0,0,1-.25.4,1.23,1.23,0,0,1-.7.2,1,1,0,0,1-.65-.2.45.45,0,0,1-.3-.4M34.1,152.1q.15.1.15.2t-.15.2a.66.66,0,0,1-.7,0q-.15-.1-.15-.2t.15-.2a.66.66,0,0,1,.7,0m-12.9,2.85q-.75-.35-.75-.85t.75-.85A4.36,4.36,0,0,1,23,152.9a4.36,4.36,0,0,1,1.85.35q.75.35.75.85t-.75.85a4.36,4.36,0,0,1-1.85.35A4.36,4.36,0,0,1,21.2,154.95Z"/><path class="cls-2" d="M12.95,153.9l9.1-9.2H66l5,5.45.6.65,3.7-6.1H83v10.7a14.44,14.44,0,0,1-6.75,3.15,36.21,36.21,0,0,1-6.8.75q-1.8,0-6.95-.15-7.91-.38-13.1-.65-3.55-.13-5.8-.25a1.78,1.78,0,0,0,.25-1,1.92,1.92,0,0,0-.6-1.4,2.32,2.32,0,0,0-1.55-.55,2.14,2.14,0,0,0-1.5.55,1.85,1.85,0,0,0-.65,1.4,1.64,1.64,0,0,0,.2.8,30.31,30.31,0,0,0-5,.05,12.45,12.45,0,0,0-5.4,1.75q-.15-.5-1-3-6.55,1.7-7.9-1.6-3.45,1.7-5.5,1.1a3,3,0,0,1-1.9-2,3.83,3.83,0,0,1-.15-.5m7.5.2q0,.5.75.85a4.36,4.36,0,0,0,1.85.35,4.36,4.36,0,0,0,1.85-.35q.75-.35.75-.85t-.75-.85A4.36,4.36,0,0,0,23,152.9a4.36,4.36,0,0,0-1.85.35q-.75.35-.75.85m13.8-1.8q0-.1-.15-.2a.66.66,0,0,0-.7,0q-.15.1-.15.2t.15.2a.66.66,0,0,0,.7,0q.15-.1.15-.2m1.5,3.4a.56.56,0,0,0-.3.45.45.45,0,0,0,.3.4,1,1,0,0,0,.65.2,1.23,1.23,0,0,0,.7-.2.45.45,0,0,0,.25-.4.57.57,0,0,0-.25-.45,1.55,1.55,0,0,0-.7-.15,1.25,1.25,0,0,0-.65.15m3-2a.69.69,0,0,0-.35.55.58.58,0,0,0,.35.5,1.13,1.13,0,0,0,.75.25,1.34,1.34,0,0,0,.8-.25.59.59,0,0,0,.3-.5.72.72,0,0,0-.3-.55,1.58,1.58,0,0,0-.8-.2,1.32,1.32,0,0,0-.75.2m2.7-1.45a.41.41,0,0,0,0,.7.91.91,0,0,0,1,0,.41.41,0,0,0,0-.7.91.91,0,0,0-1,0M28.2,155a.56.56,0,0,0-.3.45.45.45,0,0,0,.3.4.93.93,0,0,0,.6.2,1.15,1.15,0,0,0,.65-.2.45.45,0,0,0,.25-.4.57.57,0,0,0-.25-.45,1.43,1.43,0,0,0-.65-.15A1.15,1.15,0,0,0,28.2,155Z"/></g><g id="sidebrick_0_Layer0_0_FILL" data-name="sidebrick 0 Layer0 0 FILL"><path class="cls-7" d="M18.7,75.7v6l5.15-2.3V72.3L18.7,75.7m5.15-52.5L18.7,20.75V71.9L20,71.2l3.9-2.1Z"/><path class="cls-4" d="M14.4,75.4l4.3.3,5.15-3.4L20,71.2l-1.25.7-3.4-3.4.3-5.4-2,6.6L17,72.6Z"/><path class="cls-1" d="M3,13.15a1.93,1.93,0,0,1,1.9-.6A2.4,2.4,0,0,1,6.2,14.3q.25.85.65,2.6a5.89,5.89,0,0,0,2.6,2.35q1.52.89,2.35,1.45a4.09,4.09,0,0,0-.3.45,4.88,4.88,0,0,0-.5,2.3,4.88,4.88,0,0,0,.5,2.3q.55.95,1.25.95t1.2-.95a3.13,3.13,0,0,0,.25-.55q.17.89.4,2.35.3,2.1,1,5.15l1.2,5.1q.8,3.33,1.85,9.45V20.75L0,2.3V19q1.07-2.68,1.75-4A4.9,4.9,0,0,1,3,13.15M14.3,43.1a2.92,2.92,0,0,0-.1.8,2.4,2.4,0,0,0,.1.75q.15.35.35.35t.3-.35a1.67,1.67,0,0,0,.15-.75,2,2,0,0,0-.15-.8q-.1-.3-.3-.3t-.35.3m.1-1.25a1.06,1.06,0,0,0-.25-.7.63.63,0,0,0-.55-.3.76.76,0,0,0-.6.3,1.33,1.33,0,0,0,0,1.4.76.76,0,0,0,.6.3.63.63,0,0,0,.55-.3,1.06,1.06,0,0,0,.25-.7M7.6,45.7v.55q0,.15.1.15s.05,0,.05-.15A.56.56,0,0,0,7.8,46a.94.94,0,0,0-.05-.3q0-.1-.05-.1s-.07,0-.1.1m.9-7.5a.62.62,0,0,0,.2.45.93.93,0,0,0,.6.2.74.74,0,0,0,.55-.2.53.53,0,0,0,0-.9.74.74,0,0,0-.55-.2.93.93,0,0,0-.6.2.62.62,0,0,0-.2.45m.5-6a.34.34,0,0,0,.1.25.25.25,0,0,0,.4,0,.36.36,0,0,0,0-.5.25.25,0,0,0-.4,0,.34.34,0,0,0-.1.25m-2.5-3.5a1.3,1.3,0,0,0,.05.4q.1.2.2.2t.15-.2a.71.71,0,0,0,.1-.4,1,1,0,0,0-.1-.45q0-.15-.15-.15t-.2.15a1.86,1.86,0,0,0-.05.45M4,25.15a1.15,1.15,0,0,0,.15.6.44.44,0,0,0,.8,0,1.28,1.28,0,0,0,0-1.2.44.44,0,0,0-.8,0,1.15,1.15,0,0,0-.15.6m1.75-6.6q-.35,0-.65.55a3.77,3.77,0,0,0-.25,1.45,3.4,3.4,0,0,0,.25,1.4q.3.6.65.6t.6-.6a2.9,2.9,0,0,0,.3-1.4,3.21,3.21,0,0,0-.3-1.45Q6.1,18.55,5.75,18.55Z"/><path class="cls-2" d="M4.85,12.55a1.93,1.93,0,0,0-1.9.6A4.9,4.9,0,0,0,1.75,15Q1.07,16.37,0,19v25.4l2,3.8-2,3.9v27.3L2.75,81.7h16v-6l-4.3-.3L17,72.6l-3.4-2.9,2-6.6-.3,5.4,3.4,3.4V47.25q-1-6.12-1.85-9.45l-1.2-5.1q-.75-3-1-5.15-.23-1.46-.4-2.35a3.13,3.13,0,0,1-.25.55q-.5.95-1.2.95t-1.25-.95a4.88,4.88,0,0,1-.5-2.3,4.88,4.88,0,0,1,.5-2.3,4.09,4.09,0,0,1,.3-.45q-.83-.56-2.35-1.45a5.89,5.89,0,0,1-2.6-2.35q-.4-1.75-.65-2.6a2.4,2.4,0,0,0-1.35-1.75M5.1,19.1q.3-.55.65-.55t.6.55a3.21,3.21,0,0,1,.3,1.45,2.9,2.9,0,0,1-.3,1.4q-.25.6-.6.6t-.65-.6a3.4,3.4,0,0,1-.25-1.4A3.77,3.77,0,0,1,5.1,19.1m-.95,6.65a1.28,1.28,0,0,1,0-1.2.44.44,0,0,1,.8,0,1.28,1.28,0,0,1,0,1.2.44.44,0,0,1-.8,0m2.4,3.4a1.3,1.3,0,0,1-.05-.4,1.86,1.86,0,0,1,.05-.45q.1-.15.2-.15t.15.15a1,1,0,0,1,.1.45.71.71,0,0,1-.1.4q0,.2-.15.2t-.2-.2M9.1,32.5a.36.36,0,0,1,0-.5.25.25,0,0,1,.4,0,.36.36,0,0,1,0,.5.25.25,0,0,1-.4,0m-.4,6.15a.61.61,0,0,1,0-.9.93.93,0,0,1,.6-.2.74.74,0,0,1,.55.2.53.53,0,0,1,0,.9.74.74,0,0,1-.55.2.93.93,0,0,1-.6-.2M7.6,46v-.3q0-.1.1-.1s.05,0,.05.1a.94.94,0,0,1,.05.3.56.56,0,0,1-.05.25q0,.15-.05.15s-.07,0-.1-.15V46m6.55-4.85a1.11,1.11,0,0,1,0,1.4.63.63,0,0,1-.55.3.76.76,0,0,1-.6-.3,1.33,1.33,0,0,1,0-1.4.76.76,0,0,1,.6-.3.63.63,0,0,1,.55.3m.05,2.75a2.92,2.92,0,0,1,.1-.8q.15-.3.35-.3t.3.3a2,2,0,0,1,.15.8,1.67,1.67,0,0,1-.15.75q-.1.35-.3.35t-.35-.35A2.4,2.4,0,0,1,14.2,43.9Z"/><path class="cls-3" d="M4.3,3.8,0,2.3,18.7,20.75l5.15,2.45Z"/></g><g id="sidebrick_0_Layer0_0_FILL-2" data-name="sidebrick 0 Layer0 0 FILL"><path class="cls-7" d="M19.3,87.7v-6L24.45,84v7.1L19.3,87.7m5.15,52.5-5.15,2.45V91.5l1.25.7,3.9,2.1Z"/><path class="cls-4" d="M15,88l4.3-.3,5.15,3.4-3.9,1.1-1.25-.7-3.4,3.4.3,5.4-2-6.6,3.4-2.9Z"/><path class="cls-1" d="M3.55,150.25a1.93,1.93,0,0,0,1.9.6A2.4,2.4,0,0,0,6.8,149.1q.25-.85.65-2.6a5.89,5.89,0,0,1,2.6-2.35q1.52-.89,2.35-1.45a4.09,4.09,0,0,1-.3-.45,5.54,5.54,0,0,1,0-4.6q.55-.95,1.25-.95t1.2.95a3.13,3.13,0,0,1,.25.55q.17-.89.4-2.35.3-2.1,1-5.15l1.2-5.1q.8-3.33,1.85-9.45v26.5L.6,161.1V144.35q1.07,2.68,1.75,4a4.9,4.9,0,0,0,1.2,1.9M14.9,120.3a2.92,2.92,0,0,1-.1-.8,2.4,2.4,0,0,1,.1-.75q.15-.35.35-.35t.3.35a1.67,1.67,0,0,1,.15.75,2,2,0,0,1-.15.8q-.1.3-.3.3t-.35-.3m.1,1.25a1.06,1.06,0,0,1-.25.7.63.63,0,0,1-.55.3.76.76,0,0,1-.6-.3,1.33,1.33,0,0,1,0-1.4.76.76,0,0,1,.6-.3.63.63,0,0,1,.55.3,1.06,1.06,0,0,1,.25.7M8.2,117.7v-.55q0-.15.1-.15s.05,0,.05.15a.56.56,0,0,1,.05.25.94.94,0,0,1-.05.3q0,.1-.05.1s-.07,0-.1-.1m.9,7.5a.62.62,0,0,1,.2-.45.93.93,0,0,1,.6-.2.74.74,0,0,1,.55.2.53.53,0,0,1,0,.9.74.74,0,0,1-.55.2.93.93,0,0,1-.6-.2.62.62,0,0,1-.2-.45m.5,6a.34.34,0,0,1,.1-.25.25.25,0,0,1,.4,0,.36.36,0,0,1,0,.5.25.25,0,0,1-.4,0,.34.34,0,0,1-.1-.25m-2.5,3.5a1.3,1.3,0,0,1,.05-.4q.1-.2.2-.2t.15.2a.71.71,0,0,1,.1.4,1,1,0,0,1-.1.45q0,.15-.15.15t-.2-.15a1.86,1.86,0,0,1-.05-.45m-2.5,3.6a1.15,1.15,0,0,1,.15-.6.44.44,0,0,1,.8,0,1.28,1.28,0,0,1,0,1.2.44.44,0,0,1-.8,0,1.15,1.15,0,0,1-.15-.6m1.75,6.6q-.35,0-.65-.55a3.77,3.77,0,0,1-.25-1.45,3.4,3.4,0,0,1,.25-1.4q.3-.6.65-.6t.6.6a2.9,2.9,0,0,1,.3,1.4A3.21,3.21,0,0,1,7,144.3Q6.7,144.85,6.35,144.85Z"/><path class="cls-2" d="M5.45,150.85a1.93,1.93,0,0,1-1.9-.6,4.9,4.9,0,0,1-1.2-1.9q-.68-1.32-1.75-4v-25.4l2-3.8-2-3.9V83.95L3.35,81.7h16v6L15,88l2.6,2.8-3.4,2.9,2,6.6-.3-5.4,3.4-3.4v24.65q-1,6.12-1.85,9.45l-1.2,5.1q-.75,3-1,5.15-.23,1.46-.4,2.35a3.13,3.13,0,0,0-.25-.55q-.5-.95-1.2-.95t-1.25.95a5.54,5.54,0,0,0,0,4.6,4.09,4.09,0,0,0,.3.45q-.83.56-2.35,1.45a5.89,5.89,0,0,0-2.6,2.35q-.4,1.75-.65,2.6a2.4,2.4,0,0,1-1.35,1.75m.25-6.55q.3.55.65.55t.6-.55a3.21,3.21,0,0,0,.3-1.45,2.9,2.9,0,0,0-.3-1.4q-.25-.6-.6-.6t-.65.6a3.4,3.4,0,0,0-.25,1.4,3.77,3.77,0,0,0,.25,1.45m-.95-6.65a1.28,1.28,0,0,0,0,1.2.44.44,0,0,0,.8,0,1.28,1.28,0,0,0,0-1.2.44.44,0,0,0-.8,0m2.4-3.4a1.3,1.3,0,0,0-.05.4,1.86,1.86,0,0,0,.05.45q.1.15.2.15t.15-.15a1,1,0,0,0,.1-.45.71.71,0,0,0-.1-.4q0-.2-.15-.2t-.2.2M9.7,130.9a.36.36,0,0,0,0,.5.25.25,0,0,0,.4,0,.36.36,0,0,0,0-.5.25.25,0,0,0-.4,0m-.4-6.15a.61.61,0,0,0,0,.9.93.93,0,0,0,.6.2.74.74,0,0,0,.55-.2.53.53,0,0,0,0-.9.74.74,0,0,0-.55-.2.93.93,0,0,0-.6.2M8.2,117.4v.3q0,.1.1.1s.05,0,.05-.1a.94.94,0,0,0,.05-.3.56.56,0,0,0-.05-.25q0-.15-.05-.15s-.07,0-.1.15v.25m6.55,4.85a1.11,1.11,0,0,0,0-1.4.63.63,0,0,0-.55-.3.76.76,0,0,0-.6.3,1.33,1.33,0,0,0,0,1.4.76.76,0,0,0,.6.3.63.63,0,0,0,.55-.3m.05-2.75a2.92,2.92,0,0,0,.1.8q.15.3.35.3t.3-.3a2,2,0,0,0,.15-.8,1.67,1.67,0,0,0-.15-.75q-.1-.35-.3-.35t-.35.35A2.4,2.4,0,0,0,14.8,119.5Z"/><path class="cls-3" d="M4.9,159.6.6,161.1l18.7-18.45,5.15-2.45Z"/></g><g id="sidebrick_0_Layer0_0_FILL-3" data-name="sidebrick 0 Layer0 0 FILL"><path class="cls-7" d="M305.55,75.7v6l-5.15-2.3V72.3l5.15,3.4M300.4,23.2l5.15-2.45V71.9l-1.25-.7-3.9-2.1Z"/><path class="cls-4" d="M309.85,75.4l-4.3.3-5.15-3.4,3.9-1.1,1.25.7,3.4-3.4-.3-5.4,2,6.6-3.4,2.9Z"/><path class="cls-1" d="M321.3,13.15a1.93,1.93,0,0,0-1.9-.6,2.4,2.4,0,0,0-1.35,1.75q-.25.85-.65,2.6a5.89,5.89,0,0,1-2.6,2.35q-1.52.89-2.35,1.45a4.09,4.09,0,0,1,.3.45,4.88,4.88,0,0,1,.5,2.3,4.88,4.88,0,0,1-.5,2.3q-.55.95-1.25.95t-1.2-.95a3.13,3.13,0,0,1-.25-.55q-.17.89-.4,2.35-.3,2.1-1,5.15l-1.2,5.1q-.8,3.33-1.85,9.45V20.75L324.25,2.3V19q-1.07-2.68-1.75-4a4.9,4.9,0,0,0-1.2-1.9M310,43.1a2.92,2.92,0,0,1,.1.8,2.4,2.4,0,0,1-.1.75q-.15.35-.35.35t-.3-.35a1.67,1.67,0,0,1-.15-.75,2,2,0,0,1,.15-.8q.1-.3.3-.3t.35.3m-.1-1.25a1.06,1.06,0,0,1,.25-.7.63.63,0,0,1,.55-.3.76.76,0,0,1,.6.3,1.33,1.33,0,0,1,0,1.4.76.76,0,0,1-.6.3.63.63,0,0,1-.55-.3,1.06,1.06,0,0,1-.25-.7m6.8,3.85v.55q0,.15-.1.15s-.05,0-.05-.15a.56.56,0,0,1-.05-.25.94.94,0,0,1,.05-.3q0-.1.05-.1s.07,0,.1.1m-.9-7.5a.62.62,0,0,1-.2.45.93.93,0,0,1-.6.2.74.74,0,0,1-.55-.2.53.53,0,0,1,0-.9.74.74,0,0,1,.55-.2.93.93,0,0,1,.6.2.62.62,0,0,1,.2.45m-.5-6a.34.34,0,0,1-.1.25.25.25,0,0,1-.4,0,.36.36,0,0,1,0-.5.25.25,0,0,1,.4,0,.34.34,0,0,1,.1.25m2.5-3.5a1.3,1.3,0,0,1-.05.4q-.1.2-.2.2t-.15-.2a.71.71,0,0,1-.1-.4,1,1,0,0,1,.1-.45q0-.15.15-.15t.2.15a1.86,1.86,0,0,1,.05.45m2.5-3.6a1.15,1.15,0,0,1-.15.6.44.44,0,0,1-.8,0,1.28,1.28,0,0,1,0-1.2.44.44,0,0,1,.8,0,1.15,1.15,0,0,1,.15.6m-1.75-6.6q.35,0,.65.55a3.77,3.77,0,0,1,.25,1.45,3.4,3.4,0,0,1-.25,1.4q-.3.6-.65.6t-.6-.6a2.9,2.9,0,0,1-.3-1.4,3.21,3.21,0,0,1,.3-1.45Q318.15,18.55,318.5,18.55Z"/><path class="cls-2" d="M319.4,12.55a1.93,1.93,0,0,1,1.9.6,4.9,4.9,0,0,1,1.2,1.9q.68,1.32,1.75,4v25.4l-1.95,3.8,1.95,3.9v27.3L321.5,81.7h-16v-6l4.3-.3-2.6-2.8,3.4-2.9-2-6.6.3,5.4-3.4,3.4V47.25q1-6.12,1.85-9.45l1.2-5.1q.75-3,1-5.15.23-1.46.4-2.35a3.13,3.13,0,0,0,.25.55q.5.95,1.2.95t1.25-.95a4.88,4.88,0,0,0,.5-2.3,4.88,4.88,0,0,0-.5-2.3,4.09,4.09,0,0,0-.3-.45q.83-.56,2.35-1.45a5.89,5.89,0,0,0,2.6-2.35q.4-1.75.65-2.6a2.4,2.4,0,0,1,1.35-1.75m-.25,6.55q-.3-.55-.65-.55t-.6.55a3.21,3.21,0,0,0-.3,1.45,2.9,2.9,0,0,0,.3,1.4q.25.6.6.6t.65-.6a3.4,3.4,0,0,0,.25-1.4,3.77,3.77,0,0,0-.25-1.45m.95,6.65a1.28,1.28,0,0,0,0-1.2.44.44,0,0,0-.8,0,1.28,1.28,0,0,0,0,1.2.44.44,0,0,0,.8,0m-2.4,3.4a1.3,1.3,0,0,0,.05-.4,1.86,1.86,0,0,0-.05-.45q-.1-.15-.2-.15t-.15.15a1,1,0,0,0-.1.45.71.71,0,0,0,.1.4q0,.2.15.2t.2-.2m-2.55,3.35a.36.36,0,0,0,0-.5.25.25,0,0,0-.4,0,.36.36,0,0,0,0,.5.25.25,0,0,0,.4,0m.4,6.15a.61.61,0,0,0,0-.9.93.93,0,0,0-.6-.2.74.74,0,0,0-.55.2.53.53,0,0,0,0,.9.74.74,0,0,0,.55.2.93.93,0,0,0,.6-.2m1.1,7.35v-.3q0-.1-.1-.1s-.05,0-.05.1a.94.94,0,0,0-.05.3.56.56,0,0,0,.05.25q0,.15.05.15s.07,0,.1-.15V46m-6.55-4.85a1.11,1.11,0,0,0,0,1.4.63.63,0,0,0,.55.3.76.76,0,0,0,.6-.3,1.33,1.33,0,0,0,0-1.4.76.76,0,0,0-.6-.3.63.63,0,0,0-.55.3m-.05,2.75a2.92,2.92,0,0,0-.1-.8q-.15-.3-.35-.3t-.3.3a2,2,0,0,0-.15.8,1.67,1.67,0,0,0,.15.75q.1.35.3.35t.35-.35A2.4,2.4,0,0,0,310.05,43.9Z"/><path class="cls-3" d="M320,3.8l4.3-1.5-18.7,18.45L300.4,23.2Z"/></g><g id="sidebrick_0_Layer0_0_FILL-4" data-name="sidebrick 0 Layer0 0 FILL"><path class="cls-7" d="M305.55,87.7v-6L300.4,84v7.1l5.15-3.4m-5.15,52.5,5.15,2.45V91.5l-1.25.7-3.9,2.1Z"/><path class="cls-4" d="M309.85,88l-4.3-.3-5.15,3.4,3.9,1.1,1.25-.7,3.4,3.4-.3,5.4,2-6.6-3.4-2.9Z"/><path class="cls-1" d="M321.3,150.25a1.93,1.93,0,0,1-1.9.6,2.4,2.4,0,0,1-1.35-1.75q-.25-.85-.65-2.6a5.89,5.89,0,0,0-2.6-2.35q-1.52-.89-2.35-1.45a4.09,4.09,0,0,0,.3-.45,5.54,5.54,0,0,0,0-4.6q-.55-.95-1.25-.95t-1.2.95a3.13,3.13,0,0,0-.25.55q-.17-.89-.4-2.35-.3-2.1-1-5.15l-1.2-5.1q-.8-3.33-1.85-9.45v26.5l18.7,18.45V144.35q-1.07,2.68-1.75,4a4.9,4.9,0,0,1-1.2,1.9M310,120.3a2.92,2.92,0,0,0,.1-.8,2.4,2.4,0,0,0-.1-.75q-.15-.35-.35-.35t-.3.35a1.67,1.67,0,0,0-.15.75,2,2,0,0,0,.15.8q.1.3.3.3t.35-.3m-.1,1.25a1.06,1.06,0,0,0,.25.7.63.63,0,0,0,.55.3.76.76,0,0,0,.6-.3,1.33,1.33,0,0,0,0-1.4.76.76,0,0,0-.6-.3.63.63,0,0,0-.55.3,1.06,1.06,0,0,0-.25.7m6.8-3.85v-.55q0-.15-.1-.15s-.05,0-.05.15a.56.56,0,0,0-.05.25.94.94,0,0,0,.05.3q0,.1.05.1s.07,0,.1-.1m-.9,7.5a.62.62,0,0,0-.2-.45.93.93,0,0,0-.6-.2.74.74,0,0,0-.55.2.53.53,0,0,0,0,.9.74.74,0,0,0,.55.2.93.93,0,0,0,.6-.2.62.62,0,0,0,.2-.45m-.5,6a.34.34,0,0,0-.1-.25.25.25,0,0,0-.4,0,.36.36,0,0,0,0,.5.25.25,0,0,0,.4,0,.34.34,0,0,0,.1-.25m2.5,3.5a1.3,1.3,0,0,0-.05-.4q-.1-.2-.2-.2t-.15.2a.71.71,0,0,0-.1.4,1,1,0,0,0,.1.45q0,.15.15.15t.2-.15a1.86,1.86,0,0,0,.05-.45m2.5,3.6a1.15,1.15,0,0,0-.15-.6.44.44,0,0,0-.8,0,1.28,1.28,0,0,0,0,1.2.44.44,0,0,0,.8,0,1.15,1.15,0,0,0,.15-.6m-1.75,6.6q.35,0,.65-.55a3.77,3.77,0,0,0,.25-1.45,3.4,3.4,0,0,0-.25-1.4q-.3-.6-.65-.6t-.6.6a2.9,2.9,0,0,0-.3,1.4,3.21,3.21,0,0,0,.3,1.45Q318.15,144.85,318.5,144.85Z"/><path class="cls-2" d="M319.4,150.85a1.93,1.93,0,0,0,1.9-.6,4.9,4.9,0,0,0,1.2-1.9q.68-1.32,1.75-4v-25.4l-1.95-3.8,1.95-3.9V83.95L321.5,81.7h-16v6l4.3.3-2.6,2.8,3.4,2.9-2,6.6.3-5.4-3.4-3.4v24.65q1,6.12,1.85,9.45l1.2,5.1q.75,3,1,5.15.23,1.46.4,2.35a3.13,3.13,0,0,1,.25-.55q.5-.95,1.2-.95t1.25.95a5.54,5.54,0,0,1,0,4.6,4.09,4.09,0,0,1-.3.45q.83.56,2.35,1.45a5.89,5.89,0,0,1,2.6,2.35q.4,1.75.65,2.6a2.4,2.4,0,0,0,1.35,1.75m-.25-6.55q-.3.55-.65.55t-.6-.55a3.21,3.21,0,0,1-.3-1.45,2.9,2.9,0,0,1,.3-1.4q.25-.6.6-.6t.65.6a3.4,3.4,0,0,1,.25,1.4,3.77,3.77,0,0,1-.25,1.45m.95-6.65a1.28,1.28,0,0,1,0,1.2.44.44,0,0,1-.8,0,1.28,1.28,0,0,1,0-1.2.44.44,0,0,1,.8,0m-2.4-3.4a1.3,1.3,0,0,1,.05.4,1.86,1.86,0,0,1-.05.45q-.1.15-.2.15t-.15-.15a1,1,0,0,1-.1-.45.71.71,0,0,1,.1-.4q0-.2.15-.2t.2.2m-2.55-3.35a.36.36,0,0,1,0,.5.25.25,0,0,1-.4,0,.36.36,0,0,1,0-.5.25.25,0,0,1,.4,0m.4-6.15a.61.61,0,0,1,0,.9.93.93,0,0,1-.6.2.74.74,0,0,1-.55-.2.53.53,0,0,1,0-.9.74.74,0,0,1,.55-.2.93.93,0,0,1,.6.2m1.1-7.35v.3q0,.1-.1.1s-.05,0-.05-.1a.94.94,0,0,1-.05-.3.56.56,0,0,1,.05-.25q0-.15.05-.15s.07,0,.1.15v.25m-6.55,4.85a1.11,1.11,0,0,1,0-1.4.63.63,0,0,1,.55-.3.76.76,0,0,1,.6.3,1.33,1.33,0,0,1,0,1.4.76.76,0,0,1-.6.3.63.63,0,0,1-.55-.3m-.05-2.75a2.92,2.92,0,0,1-.1.8q-.15.3-.35.3t-.3-.3a2,2,0,0,1-.15-.8,1.67,1.67,0,0,1,.15-.75q.1-.35.3-.35t.35.35A2.4,2.4,0,0,1,310.05,119.5Z"/><path class="cls-3" d="M320,159.6l4.3,1.5-18.7-18.45-5.15-2.45Z"/></g><g id="topbrick_0_Layer0_0_FILL" data-name="topbrick 0 Layer0 0 FILL"><path class="cls-3" d="M178,23.85l-3.5-8.15-3.7,3Z"/><path class="cls-4" d="M162.4,18.7l2.45,5.15H178l-7.2-5.15h-8.4m77.1,5.15,2.3-5.15H178.35L175,15.35l-.5.35,3.5,8.15Z"/><path class="cls-8" d="M222.7,7.85l-.35-5L221.15,9l3.45,5.45Z"/><path class="cls-1" d="M236.5,11.7a2.66,2.66,0,0,0-3.9,0,3.13,3.13,0,0,0-.8,2.15v.25l-1.65.15q-2.6.15-5.55.2-5.9.1-13.2-.2l-1.3-.05a2.66,2.66,0,0,0,1.2-.55,1.93,1.93,0,0,0,0-3.2,3,3,0,0,0-2-.65,3.2,3.2,0,0,0-2,.65,2,2,0,0,0,0,3.2,2.7,2.7,0,0,0,1,.5q-14.42-.29-22.55-.2-12.91.09-23.45.95v3.8h8.4l3.7-3,.5-.35,3.35,3.35H241.8V12.8q-2.09.38-4.55.7a2.92,2.92,0,0,0-.75-1.8M202.25,7.85a.45.45,0,0,0-.3-.4,1.25,1.25,0,0,0-.65-.15,1.55,1.55,0,0,0-.7.15.45.45,0,0,0,0,.8,1.55,1.55,0,0,0,.7.15,1.25,1.25,0,0,0,.65-.15.45.45,0,0,0,.3-.4m37,2.2a.29.29,0,0,0-.1-.2A.2.2,0,0,0,239,9.8a.44.44,0,0,0-.2.05.44.44,0,0,0-.05.2.2.2,0,0,0,.05.15.29.29,0,0,0,.2.1.46.46,0,0,0,.25-.25M233.6,7.6a.76.76,0,0,0-.3-.6.93.93,0,0,0-.6-.2A1.15,1.15,0,0,0,232,7a.82.82,0,0,0-.25.6.67.67,0,0,0,.25.55,1,1,0,0,0,.65.25.82.82,0,0,0,.6-.25.63.63,0,0,0,.3-.55m3.35,1.35q0-.15-.45-.3a4.21,4.21,0,0,0-1-.1,4.88,4.88,0,0,0-1,.1q-.4.15-.4.3t.4.25a3.32,3.32,0,0,0,1,.15,2.87,2.87,0,0,0,1-.15Q236.95,9.1,236.95,8.95Z"/><path class="cls-2" d="M241.8,2.75,239.55,0h-74.9L162.4,2.75V14.9q10.54-.86,23.45-.95,8.13-.09,22.55.2a2.7,2.7,0,0,1-1-.5,2,2,0,0,1,0-3.2,3.2,3.2,0,0,1,2-.65,3,3,0,0,1,2,.65,1.93,1.93,0,0,1,0,3.2,2.66,2.66,0,0,1-1.2.55l1.3.05q7.3.3,13.2.2L221.15,9l1.2-6.2.35,5,1.9,6.6q3,0,5.55-.2l1.65-.15v-.25a3.13,3.13,0,0,1,.8-2.15,2.66,2.66,0,0,1,3.9,0,2.92,2.92,0,0,1,.75,1.8q2.46-.32,4.55-.7V2.75m-5.3,5.9q.45.15.45.3t-.45.25a2.87,2.87,0,0,1-1,.15,3.32,3.32,0,0,1-1-.15q-.4-.1-.4-.25t.4-.3a4.88,4.88,0,0,1,1-.1,4.21,4.21,0,0,1,1,.1M233.3,7a.76.76,0,0,1,.3.6.63.63,0,0,1-.3.55.82.82,0,0,1-.6.25,1,1,0,0,1-.65-.25.67.67,0,0,1-.25-.55A.82.82,0,0,1,232,7a1.15,1.15,0,0,1,.65-.2.93.93,0,0,1,.6.2m5.85,2.85a.29.29,0,0,1,.1.2.46.46,0,0,1-.25.25.29.29,0,0,1-.2-.1.2.2,0,0,1-.05-.15.44.44,0,0,1,.05-.2.44.44,0,0,1,.2-.05.2.2,0,0,1,.15.05m-37.2-2.4a.42.42,0,0,1,0,.8,1.25,1.25,0,0,1-.65.15,1.55,1.55,0,0,1-.7-.15.45.45,0,0,1,0-.8,1.55,1.55,0,0,1,.7-.15A1.25,1.25,0,0,1,201.95,7.45Z"/></g><g id="topbricks_0_Layer0_0_FILL-2" data-name="topbricks 0 Layer0 0 FILL"><path class="cls-3" d="M86.85,144.7l3.85-2-1.15,5.9Z"/><path class="cls-5" d="M92.65,144.7l-3.1,3.9,1.15-5.9Z"/><path class="cls-6" d="M123.65,139.55l2,3,1.5,2.15H92.65l-1.95-2-3.85,2H82.7l2.45-5.15h38.5m36.15,0,2.3,5.15H129.8l-3.3-5.15Z"/><path class="cls-4" d="M129.8,144.7l-3,8.35.4-8.35-1.5-2.15.8-3Z"/><path class="cls-2" d="M162.1,157q-3.47.31-5.4.35a27.14,27.14,0,0,1-6.9-.7q-1.3-.4-2-.55a8,8,0,0,0-2.1-.2,6,6,0,0,0-2,.45q-1.4.55-2.1.8a26.09,26.09,0,0,1-7.6,1.65,72.27,72.27,0,0,1-7.9.1q-15.6-.25-18.5-.25l-3.3-.1a.76.76,0,0,0,.2-.5q0-.7-1.25-1.2a8.73,8.73,0,0,0-6.1,0q-1.25.5-1.25,1.2s0,.06,0,.1A86.7,86.7,0,0,1,82.7,156V144.7h4.15l2.7,3.9,3.1-3.9H127.2l-.4,8.35,3-8.35h32.3V157m-17-5.25a1.69,1.69,0,0,0-.85.2.53.53,0,0,0,0,1,1.91,1.91,0,0,0,1.7,0,.53.53,0,0,0,0-1,1.69,1.69,0,0,0-.85-.2m5.2,2.8a.42.42,0,0,0-.25-.35.81.81,0,0,0-.5-.15,1,1,0,0,0-.55.15.41.41,0,0,0,0,.7,1,1,0,0,0,.55.15.81.81,0,0,0,.5-.15.42.42,0,0,0,.25-.35m-33.65,2q0-.4-.85-.65a5.58,5.58,0,0,0-1.95-.3,6,6,0,0,0-2,.3q-.8.25-.8.65t.8.7a7.12,7.12,0,0,0,2,.25,6.6,6.6,0,0,0,1.95-.25q.85-.3.85-.7m-9.15-2.35q-.35.15-.35.4t.35.45a2.48,2.48,0,0,0,1.7,0q.35-.2.35-.45t-.35-.4a1.91,1.91,0,0,0-1.7,0Z"/><path class="cls-1" d="M107.15,154.55q0-.25.35-.4a1.91,1.91,0,0,1,1.7,0q.35.15.35.4t-.35.45a2.48,2.48,0,0,1-1.7,0q-.35-.2-.35-.45m8.65,1.3q.85.25.85.65t-.85.7a6.6,6.6,0,0,1-1.95.25,7.12,7.12,0,0,1-2-.25q-.8-.3-.8-.7t.8-.65a6,6,0,0,1,2-.3,5.58,5.58,0,0,1,1.95.3m34.25-1.65a.37.37,0,0,1,0,.7.81.81,0,0,1-.5.15,1,1,0,0,1-.55-.15.41.41,0,0,1,0-.7,1,1,0,0,1,.55-.15.81.81,0,0,1,.5.15m-5.8-2.25a1.91,1.91,0,0,1,1.7,0,.53.53,0,0,1,0,1,1.91,1.91,0,0,1-1.7,0,.53.53,0,0,1,0-1m17.85,5v3.65l-2.25,2.75H85l-2.25-2.75V156a86.7,86.7,0,0,0,13.15,2.15s0-.07,0-.1q0-.7,1.25-1.2a8.73,8.73,0,0,1,6.1,0q1.25.5,1.25,1.2a.76.76,0,0,1-.2.5l3.3.1q2.9,0,18.5.25a72.27,72.27,0,0,0,7.9-.1,26.09,26.09,0,0,0,7.6-1.65q.7-.25,2.1-.8a6,6,0,0,1,2-.45,8,8,0,0,1,2.1.2q.7.15,2,.55a27.14,27.14,0,0,0,6.9.7Q158.63,157.31,162.1,157Z"/></g><g id="topbrick_0_Layer0_0_FILL-2" data-name="topbrick 0 Layer0 0 FILL"><path class="cls-3" d="M98.6,23.85,95.1,15.7l-3.7,3Z"/><path class="cls-4" d="M83,18.7l2.45,5.15H98.6L91.4,18.7H83m77.1,5.15,2.3-5.15H98.95L95.6,15.35l-.5.35,3.5,8.15Z"/><path class="cls-8" d="M143.3,7.85l-.35-5L141.75,9l3.45,5.45Z"/><path class="cls-1" d="M157.1,11.7a2.66,2.66,0,0,0-3.9,0,3.13,3.13,0,0,0-.8,2.15v.25l-1.65.15q-2.6.15-5.55.2-5.9.1-13.2-.2l-1.3-.05a2.66,2.66,0,0,0,1.2-.55,1.93,1.93,0,0,0,0-3.2,3,3,0,0,0-2-.65,3.2,3.2,0,0,0-2,.65,2,2,0,0,0,0,3.2,2.7,2.7,0,0,0,1,.5q-14.42-.29-22.55-.2Q93.54,14,83,14.9v3.8h8.4l3.7-3,.5-.35,3.35,3.35H162.4V12.8q-2.09.38-4.55.7a2.92,2.92,0,0,0-.75-1.8M122.85,7.85a.45.45,0,0,0-.3-.4,1.25,1.25,0,0,0-.65-.15,1.55,1.55,0,0,0-.7.15.45.45,0,0,0,0,.8,1.55,1.55,0,0,0,.7.15,1.25,1.25,0,0,0,.65-.15.45.45,0,0,0,.3-.4m37,2.2a.29.29,0,0,0-.1-.2.2.2,0,0,0-.15-.05.44.44,0,0,0-.2.05.44.44,0,0,0-.05.2.2.2,0,0,0,.05.15.29.29,0,0,0,.2.1.46.46,0,0,0,.25-.25M154.2,7.6a.76.76,0,0,0-.3-.6.93.93,0,0,0-.6-.2,1.15,1.15,0,0,0-.65.2.82.82,0,0,0-.25.6.67.67,0,0,0,.25.55,1,1,0,0,0,.65.25.82.82,0,0,0,.6-.25.63.63,0,0,0,.3-.55m3.35,1.35q0-.15-.45-.3a4.21,4.21,0,0,0-1-.1,4.88,4.88,0,0,0-1,.1q-.4.15-.4.3t.4.25a3.32,3.32,0,0,0,1,.15,2.87,2.87,0,0,0,1-.15Q157.55,9.1,157.55,8.95Z"/><path class="cls-2" d="M162.4,2.75,160.15,0H85.25L83,2.75V14.9q10.54-.86,23.45-.95,8.13-.09,22.55.2a2.7,2.7,0,0,1-1-.5,2,2,0,0,1,0-3.2,3.2,3.2,0,0,1,2-.65,3,3,0,0,1,2,.65,1.93,1.93,0,0,1,0,3.2,2.66,2.66,0,0,1-1.2.55l1.3.05q7.3.3,13.2.2L141.75,9,143,2.8l.35,5,1.9,6.6q3,0,5.55-.2l1.65-.15v-.25a3.13,3.13,0,0,1,.8-2.15,2.66,2.66,0,0,1,3.9,0,2.92,2.92,0,0,1,.75,1.8q2.46-.32,4.55-.7V2.75m-5.3,5.9q.45.15.45.3t-.45.25a2.87,2.87,0,0,1-1,.15,3.32,3.32,0,0,1-1-.15q-.4-.1-.4-.25t.4-.3a4.88,4.88,0,0,1,1-.1,4.21,4.21,0,0,1,1,.1M153.9,7a.76.76,0,0,1,.3.6.63.63,0,0,1-.3.55.82.82,0,0,1-.6.25,1,1,0,0,1-.65-.25.67.67,0,0,1-.25-.55.82.82,0,0,1,.25-.6,1.15,1.15,0,0,1,.65-.2.93.93,0,0,1,.6.2m5.85,2.85a.29.29,0,0,1,.1.2.46.46,0,0,1-.25.25.29.29,0,0,1-.2-.1.2.2,0,0,1-.05-.15.44.44,0,0,1,.05-.2.44.44,0,0,1,.2-.05.2.2,0,0,1,.15.05m-37.2-2.4a.42.42,0,0,1,0,.8,1.25,1.25,0,0,1-.65.15,1.55,1.55,0,0,1-.7-.15.45.45,0,0,1,0-.8,1.55,1.55,0,0,1,.7-.15A1.25,1.25,0,0,1,122.55,7.45Z"/></g></g></g></svg>