<svg xmlns="http://www.w3.org/2000/svg" viewBox="0 0 552.9 156.25"><defs><style>.cls-1{fill:#797984;}.cls-2{fill:#aba8b2;}.cls-3{fill:#93939e;}.cls-4{fill:#878793;}.cls-5{fill:#6e6e7a;}.cls-6{fill:#777279;}.cls-7{fill:#9c99a2;}</style></defs><title>titlearea2</title><g id="Layer_2" data-name="Layer 2"><g id="Layer_1-2" data-name="Layer 1"><g id="title2_0_Layer0_0_FILL" data-name="title2 0 Layer0 0 FILL"><path class="cls-1" d="M125,144.3l1.05-4.75-5.55,4.75,3,7.45,1.8,4.5,3-2.75-.6-1.7-2.7-7.5M55,72.25,53.5,64.3l-1.75,7.95L50.1,77.2,55,72.25M32.9,77.2l-2.4-4.95L14.85,107.5H20L32.9,77.2M218.55,54.7l-.75,4.65h3.6l-2.85-4.65M196.5,51.15l.85,1.6L203.1,55l.15.9,1-2-5.85-3.7-1.3-4-.6,5.1m-1.6,8.2-5.2-8.85-1.3,4.6,2.6,4.25h3.9m33.5-32-1.3,4.6,7.95,12.85.75-4.9L228.4,27.3m79.45,32-.2-.9-.5.9h.7m-62.6-.9-.2.9h.7l-.5-.9M256.6,31.8l-1,4.8,6.8,11.5.85-5-1.15-1.95L256.6,31.8m7-8.55,1.4-6.7-2-2.15L262,11.45l.65,4.2,1,1.15v6.45M297.25,36.6l-1-4.8L293,37.4l-3.4,5.7.85,5,6.8-11.5m3.5-19.7,1.3,2.55-.6,6.6.15.8-.1,3.7.45.25,1.15-1.35,1.45-1.8L303.2,21.8l1.5-2.4-3.2-5.95-.75,3.45m181,122.65v-9.8l-1.45,12.15,1.8,2.4-1,4.7,4.1-4.7-3.4-4.75M335.1,59.35l-.75-4.65-2.9,4.65h3.65m28.1-8.85L358,59.35h3.9l2.65-4.25-1.3-4.6M325.8,31.9l-1.3-4.6-7.4,12.55L302,30.8l0,4.45h0l15.8,9.5L325.8,31.9M522.4,72.25,520,77.2l12.85,30.3H538Z"/><path class="cls-2" d="M33.35,139.55,30.5,144.3h90l5.55-4.75H33.35M482,144.3l-1.8-2.4-1.8-2.35H126.05L125,144.3H482m40.35,0-2.85-4.75H481.7l3.4,4.75Z"/><path class="cls-3" d="M19.9,134.8a1.85,1.85,0,0,0-1.55-1.05,1.85,1.85,0,0,0-1.55,1.05L.05,107.5l21.7,48.75H125.3l-1.8-4.5q-45.55-.5-91.1-1.25a11,11,0,0,1-4.15-.85l.5-.4a2.56,2.56,0,0,0,1-2.05,2.7,2.7,0,0,0-1-2.1,4.1,4.1,0,0,0-5,0,3.75,3.75,0,0,0-.35.4.58.58,0,0,0-.1-.15L22,143.3a2,2,0,0,0,0-2.1.71.71,0,0,0-1.3-.05l-.85-1.35a5.13,5.13,0,0,0,0-5M213.75,59.35,213,58l-2.25,1.35h3m-26.5,0-3.2-5.45-9.1,5.45h12.3m18.85-17.5a10.13,10.13,0,0,0,.95-1.75l-9.95,6,1.3,4,5.85,3.7-1,2-.15-.9-5.75-2.2-.85-1.6-1.85-3.6-4.95,3,5.2,8.85h8.35l26.9-16.1-.65-1a30.51,30.51,0,0,1-4.15,2.4Q219.1,47.7,218.7,48q-3.55,2.2-5.4,3.2A20.61,20.61,0,0,1,210,52.7v-.15a3.11,3.11,0,0,0,.05-.6,4,4,0,0,0-.05-.65q0-.25-.1-.25s-.07.08-.1.25a4,4,0,0,0-.05.65,3.11,3.11,0,0,0,.05.6.29.29,0,0,0,.05.2q-.85.3-1.65.5a.2.2,0,0,0-.15,0,.34.34,0,0,0-.25.1.82.82,0,0,1-.25,0,2.9,2.9,0,0,1-2-.5.63.63,0,0,1-.15-.25.58.58,0,0,0,.2-.4.34.34,0,0,0-.1-.25v-.2a3.64,3.64,0,0,0-.2-1.25q-.15-.5-.4-.5t-.35.35a2,2,0,0,1-.25-.3,9.23,9.23,0,0,1-.75-1.1,2.23,2.23,0,0,1-.2-.55.62.62,0,0,0,.45.2q.35,0,.6-.5a2.55,2.55,0,0,0,0-2.4q-.25-.5-.55-.5a6.84,6.84,0,0,1,.7-1.25q1.5-2.05,1.55-2.1m4.75,8.85a.51.51,0,1,0-.15.35.48.48,0,0,0,.15-.35m-1.7-1.25a.14.14,0,0,0,0-.1v0l-.05,0v.2l.05,0v0a.14.14,0,0,0,0-.1m-2.4-.65a.88.88,0,0,0-.65-.25.87.87,0,0,0-1,1,.88.88,0,0,0,.25.65,1,1,0,0,0,.7.3,1,1,0,0,0,.95-1,1,1,0,0,0-.3-.7M205,47.1q-.15,0-.3.25a1.85,1.85,0,0,0,0,1.2q.15.25.3.25t.25-.25a1.28,1.28,0,0,0,0-1.2q-.1-.25-.25-.25m75.7,4.8q-1.05-1.25-1.5-1.7-.95-.75-1.45-1.2v6.15l7,4.2h22.35l.5-.9-8.6-5.2a3.75,3.75,0,0,1-1.75,1.85,9.23,9.23,0,0,1-3.5.85,19.45,19.45,0,0,1-3,0v-.15a1.89,1.89,0,0,0-1-1.6,4.76,4.76,0,0,0-4.8,0,3.28,3.28,0,0,0-.5.4,6.75,6.75,0,0,1-3.75-2.65M275,55.15V53a38.05,38.05,0,0,1-5.5,2.5,18.35,18.35,0,0,1-4.1.9,9.08,9.08,0,0,1-2.55-.25,2,2,0,0,0-.55-1.4,1.62,1.62,0,0,0-1.25-.55,1.81,1.81,0,0,0-1.25.5,8.4,8.4,0,0,1-1.15-1.05,3.76,3.76,0,0,1-1.25-2.15.46.46,0,0,1,0-.3l-12.2,7.3.5.9H268l5.4-3.25h0l1.65-.95m16.85-.9a.29.29,0,0,0-.1-.2.36.36,0,0,0-.5,0,.25.25,0,0,0,0,.4.36.36,0,0,0,.5,0,.29.29,0,0,0,.1-.2M290,53a.34.34,0,0,0,.1.25.25.25,0,0,0,.4,0,.36.36,0,0,0,0-.5.25.25,0,0,0-.4,0,.34.34,0,0,0-.1.25M262.4,52a.75.75,0,0,0-1.2,0,1.25,1.25,0,0,0,0,1.5.75.75,0,0,0,1.2,0,1.25,1.25,0,0,0,0-1.5m3.2,1.15a.54.54,0,0,0-.1.3.34.34,0,0,0,.1.25.28.28,0,0,0,.5,0,.34.34,0,0,0,.1-.25.54.54,0,0,0-.1-.3.36.36,0,0,0-.5,0m-.7-.75A.54.54,0,0,0,265,52a.73.73,0,0,0-.15-.45.29.29,0,0,0-.25-.15.43.43,0,0,0-.3.15,1,1,0,0,0-.1.45.71.71,0,0,0,.1.4.4.4,0,0,0,.3.2q.15,0,.25-.2M272,51.6a.36.36,0,0,0,0,.5.54.54,0,0,0,.3.1.34.34,0,0,0,.25-.1.28.28,0,0,0,0-.5.34.34,0,0,0-.25-.1.54.54,0,0,0-.3.1m-.8-.6a.16.16,0,0,0,.1-.15.29.29,0,0,0-.1-.2.42.42,0,0,0-.4,0,.29.29,0,0,0-.1.2.16.16,0,0,0,.1.15.25.25,0,0,0,.4,0m-.9-1.65a.61.61,0,0,0-.8,0,.73.73,0,0,0-.15.45.54.54,0,0,0,.15.4.5.5,0,0,0,.8,0,.54.54,0,0,0,.15-.4.73.73,0,0,0-.15-.45m3-12.3L275,36V33.75a4.71,4.71,0,0,1-.75.85,8.29,8.29,0,0,1-1.6,1.1,1.11,1.11,0,0,0-.5-.1,1.69,1.69,0,0,0-.85.2.72.72,0,0,0-.3.55.2.2,0,0,0,.05.15l-.4.2L267,39.6a4.84,4.84,0,0,1-3.75,1.75,3.34,3.34,0,0,1-1.15-.2l1.15,1.95,10.05-6,0,0m-36.35,16.2a.86.86,0,0,0-.2-.55.61.61,0,0,0-.9,0,.86.86,0,0,0-.2.55.68.68,0,0,0,.2.5.53.53,0,0,0,.9,0,.68.68,0,0,0,.2-.5m4.65-1.35a2.15,2.15,0,0,0-.15-.85q-.15-.35-.35-.35t-.35.35a2.48,2.48,0,0,0,0,1.7q.15.35.35.35t.35-.35a2.15,2.15,0,0,0,.15-.85m.8-1.25a.42.42,0,0,0-.35.25,2,2,0,0,0-.1.65,1.61,1.61,0,0,0,.1.6q.15.3.35.3t.3-.3a1.15,1.15,0,0,0,.15-.6,1.43,1.43,0,0,0-.15-.65q-.1-.25-.3-.25m.8-2.2a.62.62,0,0,0-.1-.35q-.1-.15-.2-.15t-.2.15a.66.66,0,0,0,0,.7q.1.15.2.15t.2-.15a.62.62,0,0,0,.1-.35m1.15.7a.29.29,0,0,0-.25-.15.43.43,0,0,0-.3.15.85.85,0,0,0,0,.8.43.43,0,0,0,.3.15.29.29,0,0,0,.25-.15.61.61,0,0,0,0-.8m12.95-2.5-1.85-3.2a60.35,60.35,0,0,0-10,7q-1.7,1.35-1.85,1.45a9.33,9.33,0,0,1-2,1.2,9,9,0,0,1-1.25.45V53.2a1.32,1.32,0,0,0-.2-.75.57.57,0,0,0-1,0,1.32,1.32,0,0,0-.2.75,1.35,1.35,0,0,0-1.7,0,1.1,1.1,0,0,0-.35.8q-1,.05-1.85,0a.88.88,0,0,0,.35-.35,1.82,1.82,0,0,0,0-2,.71.71,0,0,0-.6-.4.83.83,0,0,0-.65.4,2.12,2.12,0,0,0,0,2,1.11,1.11,0,0,0,.45.35h-.85a.93.93,0,0,0-.2-.6.72.72,0,0,0-1,0,.74.74,0,0,0-.2.55,17,17,0,0,1-4.75-1q-.85-.2-1-.75a1.53,1.53,0,0,1,.5-1.1q.8-1.1,2.4-3L218.55,54.7l2.85,4.65h14.85l21.15-12.7M270.75,34a1.36,1.36,0,0,0-1-.4A1.37,1.37,0,0,0,268.3,35a1.36,1.36,0,0,0,.4,1,1.44,1.44,0,0,0,1,.45A1.55,1.55,0,0,0,271.2,35a1.44,1.44,0,0,0-.45-1M268,31.1q-.25,0-.45.35a2.71,2.71,0,0,0-.15,1,2.3,2.3,0,0,0,.15.9q.2.4.45.4t.4-.4a1.8,1.8,0,0,0,.2-.9,2.1,2.1,0,0,0-.2-1q-.15-.35-.4-.35m-4.4-7.85-.15-1.55-1.5.9a51.08,51.08,0,0,1-8.55,3.55l-.2.1a2,2,0,0,0,.1-.65,1.8,1.8,0,0,0-.7-1.4,2.9,2.9,0,0,0-3.4,0,1.8,1.8,0,0,0-.7,1.4,1.66,1.66,0,0,0,.7,1.35,3.61,3.61,0,0,0,.7.45,1.78,1.78,0,0,0-.5.15,1.82,1.82,0,0,0-.65-.95,2.19,2.19,0,0,0-1.45-.5,2.39,2.39,0,0,0-1.5.5,1.66,1.66,0,0,0-.6,1.25,1,1,0,0,0-.45-.1,1.06,1.06,0,0,0-.75,1.8.48.48,0,0,0,.25.2q-1.15.6-1.8.9a14,14,0,0,1-2.5,1.05,8.55,8.55,0,0,1-2.75.15,4.73,4.73,0,0,1-2.5-1q-1.65-1.35-1.85-4.6-.05-.9-.1-1.6L228.4,27.3l7.4,12.55,27.8-16.6m-15.7-1.1a.4.4,0,0,0-.2-.3.71.71,0,0,0-.4-.1,1,1,0,0,0-.45.1.43.43,0,0,0-.15.3.29.29,0,0,0,.15.25.73.73,0,0,0,.45.15.54.54,0,0,0,.4-.15q.2-.1.2-.25m-3.2,2.05a.43.43,0,0,0-.35.2,1.3,1.3,0,0,0,0,1,.43.43,0,0,0,.35.2.32.32,0,0,0,.3-.2.91.91,0,0,0,0-1,.32.32,0,0,0-.3-.2m23.45-10.75a1.16,1.16,0,0,0-.85-.35A1.2,1.2,0,0,0,266,14.35a1.16,1.16,0,0,0,.35.85,1.24,1.24,0,0,0,.9.4,1.09,1.09,0,0,0,.85-.4,1.09,1.09,0,0,0,.4-.85,1.24,1.24,0,0,0-.4-.9m2.4,3.6a.25.25,0,1,0,.15,0,.2.2,0,0,0-.15,0m0-2.6a.76.76,0,0,0-.6.3,1.13,1.13,0,0,0-.25.75.44.44,0,0,0,0,.2h-.2a.93.93,0,0,0-.6.2.53.53,0,0,0,0,.9,1,1,0,0,0,1.2,0l.25-.25h.15a.76.76,0,0,0,.6-.3,1.25,1.25,0,0,0,0-1.5.76.76,0,0,0-.6-.3m43.8,14.4h.1a1.11,1.11,0,0,0,.35,0,.7.7,0,0,0,.3,0h.15l-.15-.05h-.65l-.1.05m0,0a.51.51,0,1,0-.15.35.48.48,0,0,0,.15-.35m1.85.1a0,0,0,0,0,0-.05.14.14,0,0,0,0-.1h-.3a.14.14,0,0,0,0,.1,0,0,0,0,0,0,.05.25.25,0,0,0,.3,0m-1.3-2.65a1.28,1.28,0,0,0,0-1.2q-.1-.25-.3-.25a.42.42,0,0,0-.35.25,1.85,1.85,0,0,0,0,1.2.42.42,0,0,0,.35.25q.2,0,.3-.25M289,34.75a6.32,6.32,0,0,0-.55-2.75q-.55-1.1-1.35-1.1T285.75,32a6.32,6.32,0,0,0-.55,2.75,6,6,0,0,0,.55,2.7,2,2,0,0,0,.25.45l0-.05q-1.8-1.05-2.7-1.55a11.71,11.71,0,0,0-2.8-1.2,7.47,7.47,0,0,1-2.15-.9,2.15,2.15,0,0,1-.55-.55V36L279.5,37l0,0,10.05,6,3.4-5.7a12.74,12.74,0,0,1-1.45.45,6.86,6.86,0,0,1-3.5.75l-.45-.1a2.37,2.37,0,0,0,.85-1,6,6,0,0,0,.55-2.7m14.1-5.3L302,30.8l15.15,9,7.4-12.55-6.4-3.85a12.36,12.36,0,0,1,.45,2.15,4,4,0,0,1-.85,2.5,7.78,7.78,0,0,1-3.3,2.5,1.77,1.77,0,0,0-.3-.55,1.23,1.23,0,0,0-1.9,0,1.79,1.79,0,0,0-.4,1.15v.1a11.83,11.83,0,0,1-3.75-.1,23.35,23.35,0,0,1-4.95-1.75M287.85,19.3a1.16,1.16,0,0,0-.85.35,1.54,1.54,0,0,0-.3,1,1.47,1.47,0,0,0,0,.35q-2.3-1.05-4.7-2.05L299.7,29.45l.95-1.3q-.95-.6-2.2-1.3-4.75-2.7-10-5.15l.2-.2a1.22,1.22,0,0,0,.35-.9,1.4,1.4,0,0,0-.35-1,1,1,0,0,0-.8-.35m5.6,3.4a.44.44,0,0,0-.05.2.2.2,0,0,0,.05.15.29.29,0,0,0,.2.1.46.46,0,0,0,.25-.25.29.29,0,0,0-.1-.2.2.2,0,0,0-.15-.05.44.44,0,0,0-.2.05m-1.85-2.15a.73.73,0,0,0-.15-.45.61.61,0,0,0-.8,0,.73.73,0,0,0-.15.45.54.54,0,0,0,.15.4.5.5,0,0,0,.8,0,.54.54,0,0,0,.15-.4m1.2,1a.48.48,0,0,0-.7,0,.61.61,0,0,0,0,.8.48.48,0,0,0,.7,0,.61.61,0,0,0,0-.8M290,18.2a.59.59,0,0,0-.5.3,1.51,1.51,0,0,0,0,1.5.57.57,0,0,0,1,0,1.51,1.51,0,0,0,0-1.5.59.59,0,0,0-.5-.3m87.9,41.15-9-5.45-3.25,5.45h12.3M325,51a6.13,6.13,0,0,1-.2,4,2.7,2.7,0,0,1-1,1.4,4.29,4.29,0,0,1-1.75.25q-2.9-.15-4.15-.35A12,12,0,0,1,314,55.1q-1.45-.85-2.2-1.25a7.33,7.33,0,0,0-2.3-.9,5.37,5.37,0,0,0-1.8,0l-1.45.15,10.4,6.25h14.85l2.9-4.65L323.5,48.15A7.09,7.09,0,0,1,325,51m-10.45-.85A1.92,1.92,0,0,0,312.8,49a2,2,0,0,0-1.3.45,1.35,1.35,0,0,0,0,2.1,2.4,2.4,0,0,0,.7.4v.1a1.08,1.08,0,0,0,.3.8.87.87,0,0,0,1.4,0,.78.78,0,0,0,.15-.2,1,1,0,0,0,.8-.4,1.46,1.46,0,0,0,0-1.9,2,2,0,0,0-.3-.25m24.55,9.2h3L339.9,58l-.8,1.35m15.55-14q0,1.05-.1,2.5a7.36,7.36,0,0,1-1.5,4.6,4.34,4.34,0,0,1-2.55,1.65,1.15,1.15,0,0,0,.2-.65,1.3,1.3,0,0,0-.6-1,2.06,2.06,0,0,0-1.35-.45,2.27,2.27,0,0,0-1.4.45,1.33,1.33,0,0,0-.55,1,1,1,0,0,0,.1.45q-1.15-.25-2.85-.8-2.25-.8-3-1-1-.25-4.65-.65l13.2,7.9H358l5.25-8.85-8.55-5.15m-3,6.5a1.15,1.15,0,0,0-.15-.6.45.45,0,0,0-.8,0,1.28,1.28,0,0,0,0,1.2.45.45,0,0,0,.8,0,1.15,1.15,0,0,0,.15-.6m-.35-2.55a.61.61,0,0,0-.9,0,.72.72,0,0,0,0,1,.61.61,0,0,0,.9,0,.72.72,0,0,0,0-1m-.35-1.7a1.55,1.55,0,0,0-.15-.7q-.15-.3-.35-.3t-.35.3a1.71,1.71,0,0,0,0,1.4q.15.3.35.3t.35-.3a1.55,1.55,0,0,0,.15-.7m182.45,91.7a14.21,14.21,0,0,0-.3-1.9q-.3-1.2-.7-1.2t-.7,1.2a12.76,12.76,0,0,0-.3,3,11.88,11.88,0,0,0,.15,1.95l-1,1.55a17.51,17.51,0,0,1-1.4,2.35,1.34,1.34,0,0,0-.8-.25,1.58,1.58,0,0,0-1.15.5,2,2,0,0,0-.45,1.3,1.88,1.88,0,0,0,.15.75,9.08,9.08,0,0,1-5.8,1.85Q324.6,153.7,127.7,151.8l.6,1.7,1,2.75H531.15l21.7-48.75-19.5,31.8m-528-29.35a1.26,1.26,0,0,0-.3.85,1.08,1.08,0,0,0,.3.8,1,1,0,0,0,1.5,0,1.08,1.08,0,0,0,.3-.8,1.26,1.26,0,0,0-.3-.85,1.09,1.09,0,0,0-1.5,0M534.5,132.5a.48.48,0,0,0-.15-.35.66.66,0,0,0-.7,0,.48.48,0,0,0-.15.35.34.34,0,0,0,.15.3.48.48,0,0,0,.7,0,.34.34,0,0,0,.15-.3m1.6-4.85a1.15,1.15,0,0,0-.15-.6.41.41,0,0,0-.7,0,1.14,1.14,0,0,0-.15.6.9.9,0,0,0,.15.55.37.37,0,0,0,.7,0,.9.9,0,0,0,.15-.55m3.55-5.1a1.62,1.62,0,0,0-.3-1,.9.9,0,0,0-1.5,0,1.82,1.82,0,0,0,0,2,.9.9,0,0,0,1.5,0,1.62,1.62,0,0,0,.3-1M33,102.7a2.57,2.57,0,0,0,0-3.3,1.85,1.85,0,0,0-2.9,0,2.57,2.57,0,0,0,0,3.3,1.85,1.85,0,0,0,2.9,0M40.1,87.2a1.36,1.36,0,0,0,0,2.6,5.08,5.08,0,0,0,4.6,0,1.56,1.56,0,0,0,1-1.3,1.15,1.15,0,0,0-.2-.65v-.2a1.74,1.74,0,0,0-.35-1.1,1,1,0,0,0-1.7,0l-.1.2a4.14,4.14,0,0,0-.9-.1,4.52,4.52,0,0,0-2.3.55m471.25,2.25a.91.91,0,0,0,.4-.75,1,1,0,0,0-.4-.8,1.82,1.82,0,0,0-2,0,1,1,0,0,0-.4.8.91.91,0,0,0,.4.75,1.6,1.6,0,0,0,2,0m-7.25-3.2q.5,0,1.2.05h1l4.45.1a23,23,0,0,1,2.65.25.72.72,0,0,0,.55.3.89.89,0,0,0,.4-.1,5.25,5.25,0,0,1,.7.15.38.38,0,0,0-.15.05q-.55.2-.55.5t.55.5a4.61,4.61,0,0,0,1.45.2,4.15,4.15,0,0,0,1.4-.2h0a11.82,11.82,0,0,1,2.6,1.65h-.05a1.26,1.26,0,0,0-.3.85,1.08,1.08,0,0,0,.3.8,1.16,1.16,0,0,0,.85.35,1,1,0,0,0,.8-.35h0q7.35,8.55,4.15,32.15l6.65-16L520,77.2l-.45.9.45-.95-283.1.8L50,77.25h0l-17.1-.1.45.95-.45-.9L20,107.5l6.65,16q-.2-19.3,4.2-28.65a5.39,5.39,0,0,0,5.3-.7,3.14,3.14,0,0,0,1.35-2.55A3.27,3.27,0,0,0,36.2,89a3.13,3.13,0,0,0-.6-.4,11.42,11.42,0,0,1,7.05-2.5L50,85.9h.15q41.76-1.11,83.55-1.8l18.1-.3q1.92,0,3.8-.05t3.8-.05q1.69,0,3.35,0,3.86,0,7.65-.1t7.4-.05l4.05-.05,3.65,0,10.9-.1,7.65-.1a9.41,9.41,0,0,0,1.05,0q.66,0,1.3,0h2.9q1.43,0,2.8,0,8.16,0,16.3-.1h8.1q19.27-.08,38.55-.1,1.35,0,2.7,0,19.39,0,38.75.15l8.1.05,16.1.1,2.9.05h2.55q.8,0,1.55,0l1.3,0,7.7.05q5.3.07,10.6.1,1.83,0,3.65.05,2,0,4,0,3.85.07,7.7.1t7.65.1q1.53.05,3,0,1.89,0,3.75.05t3.85,0l18.5.35q36.27.64,72.55,1.6a2.44,2.44,0,0,0-.2,1,2.93,2.93,0,0,0,.9,2.15,3.16,3.16,0,0,0,2.25.9,3,3,0,0,0,2.2-.9,2.86,2.86,0,0,0,.95-2.15,3.49,3.49,0,0,0-.1-.85q2.3,0,4.7.15a1.86,1.86,0,0,0,.45.05,1.64,1.64,0,0,0,.4-.05h.4l-.4.05Z"/><path class="cls-4" d="M20,107.5h-5.2L30.5,144.3l2.85-4.75L26.7,123.5,20,107.5M53.5,64.3l-9.15,7.95,5.65,5h0l0-.05,1.65-4.95L53.5,64.3m164.3-5L213,58l.75,1.35h4.05M188.4,55.1l-4.35-1.2,3.2,5.45H191l-2.6-4.25m38.7-23.2-4.35-1.2,6.75,11.5.65,1,4.9,1.5L227.1,31.9m23.8,3.35h0l4.7,8.2,1.85,3.2,5.05,1.45-6.8-11.5-4.75-1.35M263.45,21.7l.15,1.55V16.8l-1-1.15-.65-4.2-.5,3.25,1.65,3.1.35,3.9M302,35.25h0l-4.75,1.35-6.8,11.5,5-1.45L302,35.25m179.65,94.5-3.25,9.8,1.8,2.35,1.45-12.15M368.85,53.9l-4.35,1.2-2.65,4.25h3.75l3.25-5.45M335.1,59.35h4l.8-1.35-4.8,1.35m-5-28.65-4.35,1.2-7.95,12.85,4.9-1.5,7.4-12.55M538,107.5h-5.2l-6.65,16-6.65,16.05,2.85,4.75Z"/><path class="cls-5" d="M32.9,77.2v0l17.1.1-5.65-5H30.5l2.4,4.95m487.1,0v0l2.4-4.95H55L50.1,77.2l0,.05,186.85.7Z"/><path class="cls-6" d="M235.05,44.75l-4.9-1.5-26.9,16.1h7.5L213,58l4.8,1.35.75-4.65L229.6,48l5.45-3.3m27.4,3.35-5.05-1.45-21.15,12.7h8.8l.2-.9,12.2-7.3,5-3.05m33-1.45-5,1.45,8.6,5.15,8.6,5.2.2.9h8.75L306.2,53.1l-10.7-6.45m6.1-19.8-1,1.3-.95,1.3L282,18.9l-4.3-2.55V1.3l1.5-1.3a7,7,0,0,1-5.55,0L275,.95V16.4L263.6,23.25l-27.8,16.6-.75,4.9,15.8-9.5h0l4.75,1.35,1-4.8,17.6-10.5.85.9V36l-1.65,1,0,0-10.05,6-.85,5,10.9-6.55h0l.25-.15,1.4,1.25v12.5l-1.65.95h0L268,59.35H284.8l-7-4.2V42.55l1.75-1,0,0,10.9,6.5-.85-5-10.05-6,0,0L277.75,36V22.5l1.45-1L296.3,31.8l1,4.8L302,35.25l0-4.45-.45-.25.1-3.7m.45-7.4-1.6,2,1,4.55.6-6.6M339.9,58l2.25,1.35h7.45l-13.2-7.9-13.65-8.2-4.9,1.5,5.65,3.4,10.85,6.55.75,4.65Z"/><path class="cls-7" d="M207.05,40.1a10.13,10.13,0,0,1-.95,1.75s-.55.73-1.55,2.1a6.84,6.84,0,0,0-.7,1.25q.3,0,.55.5a2.55,2.55,0,0,1,0,2.4q-.25.5-.6.5a.62.62,0,0,1-.45-.2,2.23,2.23,0,0,0,.2.55,9.23,9.23,0,0,0,.75,1.1,2,2,0,0,0,.25.3q.15-.35.35-.35t.4.5a3.64,3.64,0,0,1,.2,1.25V52a.34.34,0,0,1,.1.25.58.58,0,0,1-.2.4.63.63,0,0,0,.15.25,2.9,2.9,0,0,0,2,.5.82.82,0,0,0,.25,0,.34.34,0,0,1,.25-.1.2.2,0,0,1,.15,0q.8-.2,1.65-.5a.29.29,0,0,1-.05-.2,3.11,3.11,0,0,1-.05-.6,4,4,0,0,1,.05-.65q0-.25.1-.25s.07.08.1.25a4,4,0,0,1,.05.65,3.11,3.11,0,0,1-.05.6v.15a20.61,20.61,0,0,0,3.3-1.55q1.85-1,5.4-3.2.4-.25,6.65-3.35a30.51,30.51,0,0,0,4.15-2.4l-6.75-11.5-15.7,9.4m-2.35,7.25q.15-.25.3-.25t.25.25a1.28,1.28,0,0,1,0,1.2q-.1.25-.25.25t-.3-.25a1.85,1.85,0,0,1,0-1.2m1.4,1.2a.88.88,0,0,1,.65.25,1,1,0,0,1,.3.7,1,1,0,0,1-.95,1,1,1,0,0,1-.7-.3.88.88,0,0,1-.25-.65.87.87,0,0,1,1-1m3,.8a.13.13,0,0,1,0,.2v0l-.05,0v-.2l.05,0v0m1.6,1a.48.48,0,1,1-.35-.15.48.48,0,0,1,.35.15m67.05-7.8V49q.5.45,1.45,1.2.45.45,1.5,1.7a6.75,6.75,0,0,0,3.75,2.65,3.28,3.28,0,0,1,.5-.4,4.76,4.76,0,0,1,4.8,0,1.89,1.89,0,0,1,1,1.6v.15a19.45,19.45,0,0,0,3,0,9.23,9.23,0,0,0,3.5-.85A3.75,3.75,0,0,0,299,53.25l-8.6-5.15-10.9-6.5,0,0-1.75,1M290,53.3a.36.36,0,0,1,0-.5.25.25,0,0,1,.4,0,.36.36,0,0,1,0,.5.25.25,0,0,1-.4,0m1.75.75a.25.25,0,0,1,0,.4.36.36,0,0,1-.5,0,.25.25,0,0,1,0-.4.36.36,0,0,1,.5,0M275,42.65l-1.4-1.25-.25.15h0l-10.9,6.55-5,3.05a.46.46,0,0,0,0,.3,3.76,3.76,0,0,0,1.25,2.15,8.4,8.4,0,0,0,1.15,1.05,1.81,1.81,0,0,1,1.25-.5,1.62,1.62,0,0,1,1.25.55,2,2,0,0,1,.55,1.4,9.08,9.08,0,0,0,2.55.25,18.35,18.35,0,0,0,4.1-.9A38.05,38.05,0,0,0,275,53V42.65M270,49.2a.54.54,0,0,1,.4.15.73.73,0,0,1,.15.45.54.54,0,0,1-.15.4.5.5,0,0,1-.8,0,.54.54,0,0,1-.15-.4.73.73,0,0,1,.15-.45.54.54,0,0,1,.4-.15m1.4,1.65a.16.16,0,0,1-.1.15.25.25,0,0,1-.4,0,.16.16,0,0,1-.1-.15.29.29,0,0,1,.1-.2.42.42,0,0,1,.4,0,.29.29,0,0,1,.1.2m.6,1a.34.34,0,0,1,.1-.25.54.54,0,0,1,.3-.1.34.34,0,0,1,.25.1.28.28,0,0,1,0,.5.34.34,0,0,1-.25.1.54.54,0,0,1-.3-.1.34.34,0,0,1-.1-.25M265,52a.54.54,0,0,1-.15.4q-.1.2-.25.2a.4.4,0,0,1-.3-.2.71.71,0,0,1-.1-.4,1,1,0,0,1,.1-.45.43.43,0,0,1,.3-.15.29.29,0,0,1,.25.15A.73.73,0,0,1,265,52m.45,1.45a.54.54,0,0,1,.1-.3.36.36,0,0,1,.5,0,.54.54,0,0,1,.1.3.34.34,0,0,1-.1.25.28.28,0,0,1-.5,0,.34.34,0,0,1-.1-.25m-3.7-1.75a.76.76,0,0,1,.6.3,1.25,1.25,0,0,1,0,1.5.75.75,0,0,1-1.2,0,1.25,1.25,0,0,1,0-1.5.76.76,0,0,1,.6-.3m-6.25-8.3-4.7-8.2-15.8,9.5L229.6,48q-1.6,2-2.4,3a1.53,1.53,0,0,0-.5,1.1q.15.55,1,.75a17,17,0,0,0,4.75,1,.74.74,0,0,1,.2-.55.72.72,0,0,1,1,0,.93.93,0,0,1,.2.6h.85a1.11,1.11,0,0,1-.45-.35,2.13,2.13,0,0,1,0-2,.83.83,0,0,1,.65-.4.71.71,0,0,1,.6.4,1.82,1.82,0,0,1,0,2,.88.88,0,0,1-.35.35q.9,0,1.85,0a1.1,1.1,0,0,1,.35-.8,1.35,1.35,0,0,1,1.7,0,1.32,1.32,0,0,1,.2-.75.57.57,0,0,1,1,0,1.32,1.32,0,0,1,.2.75v.35a9,9,0,0,0,1.25-.45,9.33,9.33,0,0,0,2-1.2q.15-.1,1.85-1.45a60.35,60.35,0,0,1,10-7M244.2,49a.29.29,0,0,1,.25.15.61.61,0,0,1,0,.8.29.29,0,0,1-.25.15.43.43,0,0,1-.3-.15.85.85,0,0,1,0-.8.43.43,0,0,1,.3-.15m-1-.9a.66.66,0,0,1,0,.7q-.1.15-.2.15t-.2-.15a.66.66,0,0,1,0-.7q.1-.15.2-.15t.2.15m-1.05,2.8a.42.42,0,0,1,.35-.25q.2,0,.3.25a1.43,1.43,0,0,1,.15.65,1.15,1.15,0,0,1-.15.6q-.1.3-.3.3t-.35-.3a1.61,1.61,0,0,1-.1-.6,2,2,0,0,1,.1-.65m-.6.15a2.48,2.48,0,0,1,0,1.7q-.15.35-.35.35t-.35-.35a2.48,2.48,0,0,1,0-1.7q.15-.35.35-.35t.35.35m-4.7,1.65a.86.86,0,0,1,.2.55.68.68,0,0,1-.2.5.53.53,0,0,1-.9,0,.68.68,0,0,1-.2-.5.86.86,0,0,1,.2-.55.61.61,0,0,1,.9,0M275,22.2l-.85-.9L256.6,31.8l5.55,9.35a3.34,3.34,0,0,0,1.15.2A4.84,4.84,0,0,0,267,39.6l3.65-2.9.4-.2a.2.2,0,0,1-.05-.15.72.72,0,0,1,.3-.55,1.69,1.69,0,0,1,.85-.2,1.11,1.11,0,0,1,.5.1,8.29,8.29,0,0,0,1.6-1.1,4.71,4.71,0,0,0,.75-.85V22.2m-7.5,9.25q.2-.35.45-.35t.4.35a2.1,2.1,0,0,1,.2,1,1.8,1.8,0,0,1-.2.9q-.15.4-.4.4t-.45-.4a2.3,2.3,0,0,1-.15-.9,2.71,2.71,0,0,1,.15-1m2.2,2.1a1.36,1.36,0,0,1,1,.4,1.44,1.44,0,0,1,.45,1,1.55,1.55,0,0,1-1.45,1.45,1.44,1.44,0,0,1-1-.45,1.36,1.36,0,0,1-.4-1,1.37,1.37,0,0,1,1.45-1.45M275,.95,273.7,0l-41,24.65q0,.7.1,1.6.2,3.25,1.85,4.6a4.73,4.73,0,0,0,2.5,1,8.55,8.55,0,0,0,2.75-.15,14,14,0,0,0,2.5-1.05q.65-.3,1.8-.9a.48.48,0,0,1-.25-.2,1.05,1.05,0,0,1,.75-1.8,1,1,0,0,1,.45.1,1.66,1.66,0,0,1,.6-1.25,2.39,2.39,0,0,1,1.5-.5,2.19,2.19,0,0,1,1.45.5,1.82,1.82,0,0,1,.65.95,1.78,1.78,0,0,1,.5-.15,3.61,3.61,0,0,1-.7-.45,1.66,1.66,0,0,1-.7-1.35,1.8,1.8,0,0,1,.7-1.4,2.9,2.9,0,0,1,3.4,0,1.8,1.8,0,0,1,.7,1.4,2,2,0,0,1-.1.65l.2-.1A51.08,51.08,0,0,0,262,22.6l1.5-.9-.35-3.9-1.65-3.1.5-3.25L263,14.4l2,2.15-1.4,6.7L275,16.4V.95M270,14.75a.75.75,0,0,1,1.2,0,1.25,1.25,0,0,1,0,1.5.76.76,0,0,1-.6.3h-.15l-.25.25a1,1,0,0,1-1.2,0,.53.53,0,0,1,0-.9.93.93,0,0,1,.6-.2h.2a.44.44,0,0,1,0-.2,1.13,1.13,0,0,1,.25-.75m.55,2.45a.18.18,0,1,1,0,.15.2.2,0,0,1,0-.15m-3.2-4.1a1.16,1.16,0,0,1,.85.35,1.24,1.24,0,0,1,.4.9,1.09,1.09,0,0,1-.4.85,1.09,1.09,0,0,1-.85.4,1.24,1.24,0,0,1-.9-.4,1.16,1.16,0,0,1-.35-.85,1.2,1.2,0,0,1,1.25-1.25M244.35,24.4a.43.43,0,0,1,.35-.2.32.32,0,0,1,.3.2.91.91,0,0,1,0,1,.32.32,0,0,1-.3.2.43.43,0,0,1-.35-.2,1.3,1.3,0,0,1,0-1m3.35-2.55a.4.4,0,0,1,.2.3q0,.15-.2.25a.54.54,0,0,1-.4.15.73.73,0,0,1-.45-.15.29.29,0,0,1-.15-.25.43.43,0,0,1,.15-.3,1,1,0,0,1,.45-.1.71.71,0,0,1,.4.1M314.1,30a1.77,1.77,0,0,1,.3.55,7.78,7.78,0,0,0,3.3-2.5,4,4,0,0,0,.85-2.5,12.36,12.36,0,0,0-.45-2.15l-16.6-10,3.2,5.95-1.5,2.4,1.35,5.85-1.45,1.8A23.35,23.35,0,0,0,308,31.2a11.83,11.83,0,0,0,3.75.1v-.1a1.79,1.79,0,0,1,.4-1.15,1.23,1.23,0,0,1,1.9,0M315,25.7a1.15,1.15,0,0,1-.15.6q-.1.25-.3.25a.42.42,0,0,1-.35-.25,1.85,1.85,0,0,1,0-1.2.42.42,0,0,1,.35-.25q.2,0,.3.25a1.15,1.15,0,0,1,.15.6m1.2,3.2a0,0,0,0,1,0,.05.25.25,0,0,1-.3,0,0,0,0,0,1,0-.05.14.14,0,0,1,0-.1h.3a.14.14,0,0,1,0,.1m-2-.4a.48.48,0,0,1,.15.35l.1-.05h.65l.15.05h-.15a.7.7,0,0,1-.3,0,1.11,1.11,0,0,1-.35,0h-.1a.51.51,0,1,1-.15-.35M288.45,32a6.32,6.32,0,0,1,.55,2.75,6,6,0,0,1-.55,2.7,2.37,2.37,0,0,1-.85,1l.45.1a6.86,6.86,0,0,0,3.5-.75A12.74,12.74,0,0,0,293,37.4l3.3-5.6L279.2,21.55l-1.45,1V33.65a2.15,2.15,0,0,0,.55.55,7.47,7.47,0,0,0,2.15.9,11.71,11.71,0,0,1,2.8,1.2q.9.5,2.7,1.55l0,.05a2,2,0,0,1-.25-.45,6,6,0,0,1-.55-2.7,6.32,6.32,0,0,1,.55-2.75q.55-1.1,1.35-1.1t1.35,1.1M287,19.65a1.16,1.16,0,0,1,.85-.35,1,1,0,0,1,.8.35,1.4,1.4,0,0,1,.35,1,1.22,1.22,0,0,1-.35.9l-.2.2q5.25,2.45,10,5.15,1.25.7,2.2,1.3l1-1.3-.15-.8-1-4.55,1.6-2-1.3-2.55-3-5.75L279.25,0l-1.5,1.3V16.35L282,18.9q2.4,1,4.7,2.05a1.47,1.47,0,0,1,0-.35,1.54,1.54,0,0,1,.3-1m2.5-1.15a.57.57,0,0,1,1,0,1.51,1.51,0,0,1,0,1.5.57.57,0,0,1-1,0,1.51,1.51,0,0,1,0-1.5m3,2.9a.48.48,0,0,1,.35.15.61.61,0,0,1,0,.8.48.48,0,0,1-.7,0,.61.61,0,0,1,0-.8.48.48,0,0,1,.35-.15m-1-1.3a.73.73,0,0,1,.15.45.54.54,0,0,1-.15.4.5.5,0,0,1-.8,0,.54.54,0,0,1-.15-.4.73.73,0,0,1,.15-.45.61.61,0,0,1,.8,0m1.95,2.8a.2.2,0,0,1,.25-.25.2.2,0,0,1,.15.05.29.29,0,0,1,.1.2.46.46,0,0,1-.25.25.29.29,0,0,1-.2-.1.2.2,0,0,1-.05-.15M324.8,55a6.13,6.13,0,0,0,.2-4,7.09,7.09,0,0,0-1.5-2.85l-5.65-3.4L302,35.25l-6.55,11.4,10.7,6.45,1.45-.15a5.37,5.37,0,0,1,1.8,0,7.33,7.33,0,0,1,2.3.9q.75.4,2.2,1.25a12,12,0,0,0,3.95,1.15q1.25.2,4.15.35a4.29,4.29,0,0,0,1.75-.25,2.7,2.7,0,0,0,1-1.4M314,49.5a1.8,1.8,0,0,1,.5.65,2,2,0,0,1,.3.25,1.46,1.46,0,0,1,0,1.9,1,1,0,0,1-.8.4.78.78,0,0,1-.15.2.87.87,0,0,1-1.4,0,1.08,1.08,0,0,1-.3-.8V52a2.4,2.4,0,0,1-.7-.4,1.35,1.35,0,0,1,0-2.1,2,2,0,0,1,1.3-.45,1.8,1.8,0,0,1,1.25.45m40.5-1.65q.1-1.45.1-2.5L330.15,30.7l-7.4,12.55,13.65,8.2q3.6.4,4.65.65.75.2,3,1,1.7.55,2.85.8a1,1,0,0,1-.1-.45,1.33,1.33,0,0,1,.55-1,2.27,2.27,0,0,1,1.4-.45,2.06,2.06,0,0,1,1.35.45,1.3,1.3,0,0,1,.6,1,1.15,1.15,0,0,1-.2.65A4.34,4.34,0,0,0,353,52.45a7.36,7.36,0,0,0,1.5-4.6m-3.8-.95a1.71,1.71,0,0,1,0,1.4q-.15.3-.35.3t-.35-.3a1.71,1.71,0,0,1,0-1.4q.15-.3.35-.3t.35.3m0,2.2a.62.62,0,0,1,.45.2.72.72,0,0,1,0,1,.61.61,0,0,1-.9,0,.72.72,0,0,1,0-1,.62.62,0,0,1,.45-.2m.65,2.15a1.28,1.28,0,0,1,0,1.2.45.45,0,0,1-.8,0,1.28,1.28,0,0,1,0-1.2.45.45,0,0,1,.8,0m201.4,56.25.05-.15-21.55-48H21.55L0,107.35l.05.15L16.8,134.8a1.85,1.85,0,0,1,1.55-1.05,1.85,1.85,0,0,1,1.55,1.05,5.13,5.13,0,0,1,0,5l.85,1.35a.71.71,0,0,1,1.3.05,2,2,0,0,1,0,2.1l1.25,2.05a.58.58,0,0,1,.1.15,3.75,3.75,0,0,1,.35-.4,4.1,4.1,0,0,1,5,0,2.7,2.7,0,0,1,1,2.1,2.56,2.56,0,0,1-1,2.05l-.5.4a11,11,0,0,0,4.15.85q45.55.75,91.1,1.25l-3-7.45h-90L14.85,107.5,30.5,72.25H44.35L53.5,64.3,55,72.25H522.4L538,107.5,522.4,144.3H485.1L481,149l1-4.7H125l2.7,7.5q196.9,1.9,393.35-1.45a9.08,9.08,0,0,0,5.8-1.85,1.88,1.88,0,0,1-.15-.75,2,2,0,0,1,.45-1.3,1.58,1.58,0,0,1,1.15-.5,1.34,1.34,0,0,1,.8.25,17.51,17.51,0,0,0,1.4-2.35l1-1.55a11.88,11.88,0,0,1-.15-1.95,12.76,12.76,0,0,1,.3-3q.3-1.2.7-1.2t.7,1.2a14.21,14.21,0,0,1,.3,1.9l19.5-31.8m-13.5,14.05a1.82,1.82,0,0,1,0,2,.9.9,0,0,1-1.5,0,1.82,1.82,0,0,1,0-2,.9.9,0,0,1,1.5,0m-3.4,5.5a1.15,1.15,0,0,1,.15.6.9.9,0,0,1-.15.55.37.37,0,0,1-.7,0,.9.9,0,0,1-.15-.55,1.14,1.14,0,0,1,.15-.6.41.41,0,0,1,.7,0m-1.6,5.1a.48.48,0,0,1,.15.35.34.34,0,0,1-.15.3.48.48,0,0,1-.7,0,.34.34,0,0,1-.15-.3.48.48,0,0,1,.15-.35.66.66,0,0,1,.7,0M5.05,110.8a1.26,1.26,0,0,1,.3-.85,1.09,1.09,0,0,1,1.5,0,1.26,1.26,0,0,1,.3.85,1.08,1.08,0,0,1-.3.8,1,1,0,0,1-1.5,0,1.08,1.08,0,0,1-.3-.8M505.3,86.3q-.7,0-1.2-.05h-.5l.4-.05h-.4a1.64,1.64,0,0,1-.4.05,1.86,1.86,0,0,1-.45-.05q-2.4-.1-4.7-.15a3.49,3.49,0,0,1,.1.85,2.86,2.86,0,0,1-.95,2.15,3,3,0,0,1-2.2.9,3.16,3.16,0,0,1-2.25-.9,2.93,2.93,0,0,1-.9-2.15,2.44,2.44,0,0,1,.2-1q-36.28-1-72.55-1.6L401,83.95q-1.91,0-3.85,0t-3.75-.05q-1.52,0-3,0-3.81,0-7.65-.1t-7.7-.1q-2,0-4,0-1.82,0-3.65-.05-5.3,0-10.6-.1l-7.7-.05-1.3,0q-.75,0-1.55,0H343.6l-2.9-.05-16.1-.1-8.1-.05q-19.36-.1-38.75-.15-1.35,0-2.7,0-19.28,0-38.55.1h-8.1q-8.14.07-16.3.1-1.37,0-2.8,0h-2.9q-.64,0-1.3,0a9.41,9.41,0,0,1-1.05,0l-7.65.1-10.9.1-3.65,0-4.05.05q-3.67,0-7.4.05t-7.65.1q-1.66.05-3.35,0-1.89.05-3.8.05t-3.8.05l-18.1.3q-41.79.69-83.55,1.8H50l-7.35.2a11.42,11.42,0,0,0-7.05,2.5,3.13,3.13,0,0,1,.6.4,3.27,3.27,0,0,1,1.35,2.6,3.14,3.14,0,0,1-1.35,2.55,5.39,5.39,0,0,1-5.3.7q-4.4,9.35-4.2,28.65l6.65,16.05h445.1l3.25-9.8v9.8h37.85l6.65-16.05q3.2-23.6-4.15-32.15h0a1,1,0,0,1-.8.35,1.16,1.16,0,0,1-.85-.35,1.08,1.08,0,0,1-.3-.8,1.26,1.26,0,0,1,.3-.85h.05a11.82,11.82,0,0,0-2.6-1.65h0a4.15,4.15,0,0,1-1.4.2,4.61,4.61,0,0,1-1.45-.2q-.55-.2-.55-.5t.55-.5A.38.38,0,0,1,515,87a5.25,5.25,0,0,0-.7-.15.89.89,0,0,1-.4.1.72.72,0,0,1-.55-.3,23,23,0,0,0-2.65-.25l-4.45-.1h-1m6.45,2.4a.91.91,0,0,1-.4.75,1.6,1.6,0,0,1-2,0,.91.91,0,0,1-.4-.75,1,1,0,0,1,.4-.8,1.82,1.82,0,0,1,2,0,1,1,0,0,1,.4.8m-472.6-.2a1.56,1.56,0,0,1,.95-1.3,4.52,4.52,0,0,1,2.3-.55,4.14,4.14,0,0,1,.9.1l.1-.2a1,1,0,0,1,1.7,0,1.74,1.74,0,0,1,.35,1.1v.2a1.15,1.15,0,0,1,.2.65,1.56,1.56,0,0,1-1,1.3,5.08,5.08,0,0,1-4.6,0,1.56,1.56,0,0,1-.95-1.3m-5.6,12.55a2.45,2.45,0,0,1-.6,1.65,1.85,1.85,0,0,1-2.9,0,2.57,2.57,0,0,1,0-3.3,1.85,1.85,0,0,1,2.9,0A2.45,2.45,0,0,1,33.55,101.05Z"/></g></g></g></svg>