<svg xmlns="http://www.w3.org/2000/svg" viewBox="0 0 504.95 369.85"><defs><style>.cls-1{fill:#93939e;}.cls-2{fill:#9c99a2;}.cls-3{fill:#84848e;}.cls-4{fill:#aba8b2;}.cls-5{fill:#6e6e7a;}</style></defs><title>wideinternabox</title><g id="Layer_2" data-name="Layer 2"><g id="Layer_1-2" data-name="Layer 1"><g id="insideplate2_0_Layer1_0_FILL" data-name="insideplate2 0 Layer1 0 FILL"><path class="cls-1" d="M492.25,356.3V17.4H12.7V356.3H492.25m-87-308.4a12.55,12.55,0,0,1,6-1.65,9.18,9.18,0,0,1,6.15,3.35A55,55,0,0,1,422,56.15a28.48,28.48,0,0,0,4.6,6,6.15,6.15,0,0,0,6,1.6q-.1-10-.25-15h7.5A8.16,8.16,0,0,0,443.4,54a11.45,11.45,0,0,0,6.2,2.2,20.7,20.7,0,0,0,6.55-.85q2.2-.65,6.2-2.3.65,14.8,0,33.2-.45,11.5-1.8,33.2L458,162.75a40.53,40.53,0,0,1-3.25,14.35q-3.4,7.45-9.75,8,1.2,4.6,7.15,5.65a26.62,26.62,0,0,0,10.85-.5q-1.15,10.25-4.55,16.8-4.5,8.55-12.1,8.8,3,2,1.3,7.6-2.45,7.85-2.3,9.65.15,2.7,3.15,7t3.25,7a14.73,14.73,0,0,1-1.15,5.65,18.56,18.56,0,0,0-1.35,5.5q0,3.55,4.8,9.55t4.45,9.55q-.2,2.8-4.15,8.5-3.6,5.1-2.85,8.4a30.39,30.39,0,0,0,1.65,3.85,5.8,5.8,0,0,1,.6,3.9,4.76,4.76,0,0,1-3,3l-4.85,1.5a14.27,14.27,0,0,0-7.55,5.35,14.12,14.12,0,0,0-3,8.75,325.3,325.3,0,0,0-40.15,4.15q.9,3,2,7.6a10.53,10.53,0,0,1-4.25,1.95,10.2,10.2,0,0,1-4.6,0q1.7-5.4-2.55-10.25t-9.85-4q-1.85,6-9,8.6a24.41,24.41,0,0,1-13.6.75,93.46,93.46,0,0,1-12.9-4.25,65,65,0,0,0-12.85-3.85q-8.65-1.35-23.85,2.55-16.8,4.35-23.9,4.2a79.52,79.52,0,0,1-14.25-2.15,136.69,136.69,0,0,0-14.15-2.75,32.4,32.4,0,0,0-14.5,1.6q-7.5,2.7-10.5,8.8a25.47,25.47,0,0,1-10-6.6,25.86,25.86,0,0,1-6.1-10.4,20.56,20.56,0,0,1-11-3.15q2.9,2.9,1.85,7.65a11.35,11.35,0,0,1-4.6,7.1,20.13,20.13,0,0,1-7.85,3,67.21,67.21,0,0,1-8.65.65q-26.8.6-40.55-.45-22.4-1.75-39.1-8.3-5.7-2.2-6.4-2.45a21.7,21.7,0,0,0-6.6-1.2,11.42,11.42,0,0,0-6.55,2,7.75,7.75,0,0,0-3.55,5.4A35.83,35.83,0,0,0,60.75,317a26,26,0,0,1-4.7-1.45,6.34,6.34,0,0,1-3.3-3A6.16,6.16,0,0,1,52.5,309l.75-3.45q1.05-5.2-.7-13-2.35-8.65-3-13a21.69,21.69,0,0,1,1.85-13.25q3.25-6.85,9.5-7.1a17.19,17.19,0,0,1,5.5.8,31.85,31.85,0,0,0,5.4,1.2,9.76,9.76,0,0,0,7.45-2.4q3.55-2.9,2.8-6.6-.65-4-5.65-3.95t-4.75,3.95A35.28,35.28,0,0,1,54.75,242q-5.3-6-5-11.4a8.56,8.56,0,0,1,2.7-5.75A6,6,0,0,1,58.1,223a12.65,12.65,0,0,0-3-5.55,37.91,37.91,0,0,0-4.7-4.35,39.79,39.79,0,0,1-4.8-4.45,12.39,12.39,0,0,1-3-5.55,7.28,7.28,0,0,1,1.5-6.05q2.25-3,5.25-2.2a22.89,22.89,0,0,1-2.75-13.6,22.33,22.33,0,0,1,5.15-12.75,37.22,37.22,0,0,0,3.5-4.5q1.6-2.8.6-5-.7-1.5-4.4-3.7-3.2-1.9-3.35-3.95a8.38,8.38,0,0,1,1.15-3.55,5.79,5.79,0,0,0,.85-3.45,4.73,4.73,0,0,0-2.15-2.8q-2.9-2-3.1-2.2-2.9-3-.4-7.7a20.37,20.37,0,0,1,6.55-7q-4.05-2.25-3.4-7.75T52.75,110q1.05-.3,3.4-.85a3.62,3.62,0,0,0,2.45-1.9q1.05-2.3-1.75-3.75a8.06,8.06,0,0,0-5.5-.75q-8.25,1.75-9.35-2,3.2-3.9,2.15-11.5a67.33,67.33,0,0,1-1.9-12.9q-.15-8.6,7-16.85.91-1,2-2.15,11.48-2.63,23.3-6.1L70.85,43q5.5-2.45,13.65-1,4.7.85,14.1,3.4a80.29,80.29,0,0,0,16.75,1.75q5.05,0,16.9-.6,19.25-1.25,57.85-3.65a26,26,0,0,1,7.4.45,8.18,8.18,0,0,1,5.6,3.8,7.89,7.89,0,0,1,.7,5.2,17.36,17.36,0,0,1-2.05,5.2A50.81,50.81,0,0,0,222,65.6,22.79,22.79,0,0,1,210.85,44a41.63,41.63,0,0,0,12.65,8.65,41.45,41.45,0,0,0,14.85,3.7q6.95.5,9.15-3.1a10.84,10.84,0,0,0,1.05-3.9,30.88,30.88,0,0,1,.55-4.1q1.25-4.25,6.25-6.1a18.11,18.11,0,0,1,9.65-.8q.1,0,9.25,2.2a25.21,25.21,0,0,0,9.35.8,43.54,43.54,0,0,0,7.95-2.25,22.46,22.46,0,0,1,8.05-1.6q4.2.2,9.8,3.85a96.8,96.8,0,0,0,9.35,5.75q6.65,2.8,15.6,1.1a118.83,118.83,0,0,0,16.2-5q10.55-3.85,16-4.65,8.6-1.25,15,2.3a72,72,0,0,1,8.6,6.4q5.1,3.6,9.25,3A24.1,24.1,0,0,0,405.25,47.9Z"/><path class="cls-2" d="M411.25,46.25a12.55,12.55,0,0,0-6,1.65,24.1,24.1,0,0,1-5.9,2.35q-4.15.6-9.25-3a72,72,0,0,0-8.6-6.4q-6.35-3.55-15-2.3-5.45.8-16,4.65a118.83,118.83,0,0,1-16.2,5q-9,1.7-15.6-1.1a96.8,96.8,0,0,1-9.35-5.75q-5.6-3.65-9.8-3.85a22.46,22.46,0,0,0-8.05,1.6,43.54,43.54,0,0,1-7.95,2.25,25.21,25.21,0,0,1-9.35-.8q-9.15-2.2-9.25-2.2a18.11,18.11,0,0,0-9.65.8q-5,1.85-6.25,6.1a30.88,30.88,0,0,0-.55,4.1,10.84,10.84,0,0,1-1.05,3.9q-2.2,3.6-9.15,3.1a41.45,41.45,0,0,1-14.85-3.7A41.63,41.63,0,0,1,210.85,44,22.79,22.79,0,0,0,222,65.6a50.81,50.81,0,0,1-20.25-8.1,17.36,17.36,0,0,0,2.05-5.2,7.89,7.89,0,0,0-.7-5.2,8.18,8.18,0,0,0-5.6-3.8,26,26,0,0,0-7.4-.45q-38.6,2.4-57.85,3.65-11.85.65-16.9.6A80.29,80.29,0,0,1,98.6,45.35Q89.2,42.8,84.5,42q-8.15-1.4-13.65,1l3.75,8.25q-11.82,3.47-23.3,6.1-1.09,1.1-2,2.15-7.2,8.25-7,16.85a67.33,67.33,0,0,0,1.9,12.9q1.05,7.6-2.15,11.5,1.1,3.75,9.35,2a8.06,8.06,0,0,1,5.5.75q2.8,1.45,1.75,3.75a3.62,3.62,0,0,1-2.45,1.9q-2.35.55-3.4.85-4.5,1.3-5.15,6.85T51,124.6a20.37,20.37,0,0,0-6.55,7q-2.5,4.7.4,7.7.2.2,3.1,2.2a4.73,4.73,0,0,1,2.15,2.8,5.79,5.79,0,0,1-.85,3.45,8.38,8.38,0,0,0-1.15,3.55q.15,2,3.35,3.95,3.7,2.2,4.4,3.7,1,2.2-.6,5a37.22,37.22,0,0,1-3.5,4.5,22.33,22.33,0,0,0-5.15,12.75,22.89,22.89,0,0,0,2.75,13.6q-3-.75-5.25,2.2a7.28,7.28,0,0,0-1.5,6.05,12.39,12.39,0,0,0,3,5.55,39.79,39.79,0,0,0,4.8,4.45,37.91,37.91,0,0,1,4.7,4.35,12.65,12.65,0,0,1,3,5.55,6,6,0,0,0-5.65,1.85,8.56,8.56,0,0,0-2.7,5.75q-.3,5.45,5,11.4A35.28,35.28,0,0,0,71.6,252.25q-.25-4,4.75-3.95T82,252.25q.75,3.7-2.8,6.6a9.76,9.76,0,0,1-7.45,2.4,31.85,31.85,0,0,1-5.4-1.2,17.19,17.19,0,0,0-5.5-.8q-6.25.25-9.5,7.1A21.69,21.69,0,0,0,49.5,279.6q.7,4.4,3,13,1.75,7.75.7,13L52.5,309a6.16,6.16,0,0,0,.25,3.45,6.34,6.34,0,0,0,3.3,3,26,26,0,0,0,4.7,1.45,35.83,35.83,0,0,1,16.5,9.75,7.75,7.75,0,0,1,3.55-5.4,11.42,11.42,0,0,1,6.55-2,21.7,21.7,0,0,1,6.6,1.2q.7.25,6.4,2.45,16.7,6.55,39.1,8.3,13.75,1.05,40.55.45a67.21,67.21,0,0,0,8.65-.65,20.13,20.13,0,0,0,7.85-3,11.35,11.35,0,0,0,4.6-7.1q1-4.75-1.85-7.65a20.56,20.56,0,0,0,11,3.15,25.86,25.86,0,0,0,6.1,10.4,25.47,25.47,0,0,0,10,6.6q3-6.1,10.5-8.8a32.4,32.4,0,0,1,14.5-1.6,136.69,136.69,0,0,1,14.15,2.75A79.52,79.52,0,0,0,279.75,328q7.1.15,23.9-4.2,15.2-3.9,23.85-2.55a65,65,0,0,1,12.85,3.85,93.46,93.46,0,0,0,12.9,4.25,24.41,24.41,0,0,0,13.6-.75q7.15-2.6,9-8.6,5.6-.95,9.85,4t2.55,10.25a10.2,10.2,0,0,0,4.6,0,10.53,10.53,0,0,0,4.25-1.95q-1.1-4.65-2-7.6a325.3,325.3,0,0,1,40.15-4.15,14.12,14.12,0,0,1,3-8.75,14.27,14.27,0,0,1,7.55-5.35l4.85-1.5a4.76,4.76,0,0,0,3-3,5.8,5.8,0,0,0-.6-3.9,30.39,30.39,0,0,1-1.65-3.85q-.75-3.3,2.85-8.4,3.95-5.7,4.15-8.5.25-3.7-4.45-9.55t-4.8-9.55a18.56,18.56,0,0,1,1.35-5.5,14.73,14.73,0,0,0,1.15-5.65q-.2-2.5-3.25-7t-3.15-7q-.15-1.8,2.3-9.65,1.75-5.65-1.3-7.6,7.6-.25,12.1-8.8,3.4-6.55,4.55-16.8a26.62,26.62,0,0,1-10.85.5q-5.95-1-7.15-5.65,6.35-.55,9.75-8A40.53,40.53,0,0,0,458,162.75l2.6-43.25q1.35-21.7,1.8-33.2.6-18.4,0-33.2-4,1.65-6.2,2.3a20.7,20.7,0,0,1-6.55.85,11.45,11.45,0,0,1-6.2-2.2,8.16,8.16,0,0,1-3.55-5.3h-7.5q.15,5,.25,15a6.15,6.15,0,0,1-6-1.6,28.48,28.48,0,0,1-4.6-6,55,55,0,0,0-4.65-6.55A9.18,9.18,0,0,0,411.25,46.25Z"/></g><g id="insideplate2_0_Layer0_0_FILL" data-name="insideplate2 0 Layer0 0 FILL"><path class="cls-1" d="M446.4.2V.1H373.1V.2h-2.4V.1H358.55V0H319V.1H289.6V0H229.45V.1H200.8V.2H171.45V.1H58.55V.2H0V369.85H505V.2H446.4m45.85,61.55a3.13,3.13,0,0,0-.55-1.7,1.45,1.45,0,0,0-1.2-.7,1.58,1.58,0,0,0-1.25.7,3.17,3.17,0,0,0-.5,1.8,2.93,2.93,0,0,0,.5,1.75,1.55,1.55,0,0,0,1.25.75,1.43,1.43,0,0,0,1.2-.75,2.87,2.87,0,0,0,.55-1.65v8.7a2.81,2.81,0,0,0-.55-.05,3.56,3.56,0,0,0-3,2.1,11.44,11.44,0,0,0,0,10.2,3.56,3.56,0,0,0,3,2.1,2.81,2.81,0,0,0,.55-.05v12.2a2.71,2.71,0,0,0-1.45-.4,3.3,3.3,0,0,0-2.7,1.6,7,7,0,0,0-1.1,4,6.72,6.72,0,0,0,1.1,3.9,3.28,3.28,0,0,0,2.7,1.65,2.71,2.71,0,0,0,1.45-.4V119.6a.2.2,0,0,0-.15.05,7,7,0,0,0-.35-1.5q-.45-1.45-1.1-1.45t-1.15,1.45a11.9,11.9,0,0,0-.45,3.5q0,.35,0,.65h3.2V243.25a.72.72,0,0,0-.5-.25q-.8,0-1.35,1.95a20.79,20.79,0,0,0,0,9.5,4.54,4.54,0,0,0,.7,1.6q-1.6.1-2.75,2.25a12.95,12.95,0,0,0,0,11.1q1.25,2.3,3,2.3a2.83,2.83,0,0,0,.9-.15v37.7a5.05,5.05,0,0,0-2-.75,5.87,5.87,0,0,0,.55-2.65,5.61,5.61,0,0,0-.65-2.8,1.69,1.69,0,0,0-3.2,0,6.36,6.36,0,0,0,0,5.6,2.63,2.63,0,0,0,.25.4,8,8,0,0,0-3.2,3.35,19.29,19.29,0,0,0-2.25,9.6,19,19,0,0,0,2.25,9.55q2.3,4,5.55,4a4.92,4.92,0,0,0,2.7-.8V356.3h-87.1v-5.4a4.35,4.35,0,0,0-1.15-.15,3.92,3.92,0,0,0-2.65,1,3.13,3.13,0,0,0-1.1,2.4,2.91,2.91,0,0,0,1,2.2h-3.5a3.05,3.05,0,0,0-1.1,0H328.5v0a2.54,2.54,0,0,0,0-.5,2.27,2.27,0,0,0-.45-1,5.14,5.14,0,0,0-.75-.7,5.08,5.08,0,0,0-3-.9,5.33,5.33,0,0,0-2,.35,4.25,4.25,0,0,0-1.1.55,2.65,2.65,0,0,0-1.25,2.2v0H305.15a3.05,3.05,0,0,0-1.1,0h-3.5a2.91,2.91,0,0,0,1-2.2,3.13,3.13,0,0,0-1.1-2.4,4.17,4.17,0,0,0-5.3,0,3.13,3.13,0,0,0-1.1,2.4,3,3,0,0,0,.9,2.2H269.1v0a2.54,2.54,0,0,0-.05-.5,2.27,2.27,0,0,0-.45-1,5.14,5.14,0,0,0-.75-.7,5.08,5.08,0,0,0-3.05-.9,5.33,5.33,0,0,0-1.95.35,4.25,4.25,0,0,0-1.1.55,2.65,2.65,0,0,0-1.25,2.2v0H245.75a3.05,3.05,0,0,0-1.1,0h-3.5a2.91,2.91,0,0,0,1-2.2,3.12,3.12,0,0,0-1.7-2.8,3.24,3.24,0,0,0-1.6-.5,1.86,1.86,0,0,0-.45,0,3.92,3.92,0,0,0-2.65,1,3.13,3.13,0,0,0-1.1,2.4,3,3,0,0,0,.9,2.2H163.75v0a2.54,2.54,0,0,0-.05-.5,2.27,2.27,0,0,0-.45-1,5.14,5.14,0,0,0-.75-.7,5.08,5.08,0,0,0-3.05-.9,5.33,5.33,0,0,0-1.95.35,4.25,4.25,0,0,0-1.1.55,2.65,2.65,0,0,0-1.25,2.2v0H140.4a3.05,3.05,0,0,0-1.1,0h-3.5a2.91,2.91,0,0,0,.95-2.2,3.13,3.13,0,0,0-1.1-2.4,4.17,4.17,0,0,0-5.3,0,3.13,3.13,0,0,0-1.1,2.4,3,3,0,0,0,.9,2.2H12.7V334.75a4.92,4.92,0,0,0,2.7.8q3.25,0,5.55-4A19,19,0,0,0,23.2,322,19.29,19.29,0,0,0,21,312.4a8,8,0,0,0-3.2-3.35,2.63,2.63,0,0,0,.25-.4,6.36,6.36,0,0,0,0-5.6,1.87,1.87,0,0,0-1.6-1.15A1.87,1.87,0,0,0,14.8,303a5.61,5.61,0,0,0-.65,2.8,5.87,5.87,0,0,0,.55,2.65,5.05,5.05,0,0,0-2,.75v-37.7a2.83,2.83,0,0,0,.9.15q1.75,0,3-2.3a12.95,12.95,0,0,0,0-11.1q-1.15-2.15-2.75-2.25a4.54,4.54,0,0,0,.7-1.6,17.71,17.71,0,0,0,.55-4.75,17.71,17.71,0,0,0-.55-4.75Q14,243,13.2,243a.72.72,0,0,0-.5.25V122.3h3.2q0-.3,0-.65a11.91,11.91,0,0,0-.45-3.5q-.5-1.45-1.15-1.45t-1.1,1.45a7,7,0,0,0-.35,1.5.2.2,0,0,0-.15-.05V107.45a2.71,2.71,0,0,0,1.45.4,3.28,3.28,0,0,0,2.7-1.65,6.72,6.72,0,0,0,1.1-3.9,7,7,0,0,0-1.1-4,3.3,3.3,0,0,0-2.7-1.6,2.71,2.71,0,0,0-1.45.4V84.95a2.81,2.81,0,0,0,.55.05,3.56,3.56,0,0,0,3-2.1,11.44,11.44,0,0,0,0-10.2,3.56,3.56,0,0,0-3-2.1,2.81,2.81,0,0,0-.55.05V62a2.87,2.87,0,0,0,.55,1.65,1.43,1.43,0,0,0,1.2.75,1.55,1.55,0,0,0,1.25-.75,2.93,2.93,0,0,0,.5-1.75,3.17,3.17,0,0,0-.5-1.8,1.58,1.58,0,0,0-1.25-.7,1.45,1.45,0,0,0-1.2.7,3.13,3.13,0,0,0-.55,1.7V17.4H30.65a2.7,2.7,0,0,0-1.1.4A1.43,1.43,0,0,0,28.8,19a1.32,1.32,0,0,0,.75,1.15,2.93,2.93,0,0,0,1.75.5,3.17,3.17,0,0,0,1.8-.5A1.33,1.33,0,0,0,33.8,19a1.45,1.45,0,0,0-.7-1.2A3.14,3.14,0,0,0,32,17.4H98.6a1.64,1.64,0,0,0,0,.4q0,1.3,2.2,2.2a.14.14,0,0,1,.1,0,13.76,13.76,0,0,0,5.15.85,14,14,0,0,0,5.3-.9q1.75-.75,2-1.7a1.34,1.34,0,0,0,.1-.5,1.64,1.64,0,0,0,0-.4h116v2.5q1.75-.75,2.05-1.7a1.34,1.34,0,0,0,.1-.5q0-.15,0-.3a.14.14,0,0,1-.05-.1h79V20q1.75-.75,2.05-1.7a1.34,1.34,0,0,0,.1-.5,1.64,1.64,0,0,0-.05-.4H473a3.14,3.14,0,0,0-1.15.4,1.45,1.45,0,0,0-.7,1.2,1.33,1.33,0,0,0,.7,1.15,3.17,3.17,0,0,0,1.8.5,2.93,2.93,0,0,0,1.75-.5,1.32,1.32,0,0,0,.75-1.15,1.43,1.43,0,0,0-.75-1.2,2.7,2.7,0,0,0-1.1-.4h18V61.75m-183,292.65a3.65,3.65,0,0,0,2.9,0q.6-.3.6-.75t-.6-.75a3.65,3.65,0,0,0-2.9,0q-.6.3-.6.75t.6.75m5.45-3.4a1,1,0,0,0-.6.85.9.9,0,0,0,.6.8A2.46,2.46,0,0,0,316,353a2.73,2.73,0,0,0,1.4-.35.9.9,0,0,0,.55-.8,1,1,0,0,0-.55-.85,3.09,3.09,0,0,0-1.4-.3,2.79,2.79,0,0,0-1.35.3m-64.85,1.9q-.6.3-.6.75t.6.75a3.65,3.65,0,0,0,2.9,0q.6-.3.6-.75t-.6-.75a3.65,3.65,0,0,0-2.9,0m5.45-1.9a1,1,0,0,0-.6.85.9.9,0,0,0,.6.8,2.46,2.46,0,0,0,1.35.35,2.73,2.73,0,0,0,1.4-.35.9.9,0,0,0,.55-.8A1,1,0,0,0,258,351a3.09,3.09,0,0,0-1.4-.3,2.79,2.79,0,0,0-1.35.3m-33,0a2.79,2.79,0,0,0-1.35-.3,3.09,3.09,0,0,0-1.4.3,1,1,0,0,0-.55.85.9.9,0,0,0,.55.8,2.73,2.73,0,0,0,1.4.35,2.47,2.47,0,0,0,1.35-.35.9.9,0,0,0,.6-.8,1,1,0,0,0-.6-.85m4,3.7a4,4,0,0,0,.65-.05v-2a4,4,0,0,0-.65,0,3.21,3.21,0,0,0-1.45.3q-.6.3-.6.75t.6.75a3.21,3.21,0,0,0,1.45.3m-81.8-1.8q-.6.3-.6.75t.6.75a3.65,3.65,0,0,0,2.9,0q.6-.3.6-.75t-.6-.75a3.65,3.65,0,0,0-2.9,0m8.2-.25a.9.9,0,0,0,.55-.8,1,1,0,0,0-.55-.85,3.09,3.09,0,0,0-1.4-.3,2.79,2.79,0,0,0-1.35.3,1,1,0,0,0-.6.85.9.9,0,0,0,.6.8,2.47,2.47,0,0,0,1.35.35,2.73,2.73,0,0,0,1.4-.35M15.45,282a5.44,5.44,0,0,0-.55,2.55,7.41,7.41,0,0,0,.15,1.55,4.48,4.48,0,0,0,.4,1q.5,1.05,1.2,1t1.25-1a7,7,0,0,0,.35-1,7.41,7.41,0,0,0,.15-1.55,5.9,5.9,0,0,0-.5-2.55q-.55-1-1.25-1t-1.2,1m.35-100.15a1.51,1.51,0,0,0,0,1.5.45.45,0,0,0,.4.3.56.56,0,0,0,.45-.3,2,2,0,0,0,0-1.5.56.56,0,0,0-.45-.3.45.45,0,0,0-.4.3m4.3-8.4a2.28,2.28,0,0,0-.35,1.25,2,2,0,0,0,.35,1.2.9.9,0,0,0,.8.55,1,1,0,0,0,.85-.55,2.29,2.29,0,0,0,.3-1.2,2.57,2.57,0,0,0-.3-1.25,1,1,0,0,0-.85-.5.9.9,0,0,0-.8.5m2.3-4.8A5.12,5.12,0,0,0,23,171.3q.6,1.15,1.45,1.15T26,171.3a5.46,5.46,0,0,0,.6-2.65,5.76,5.76,0,0,0-.6-2.7,1.82,1.82,0,0,0-1.5-1.1q-.85,0-1.45,1.1a5.4,5.4,0,0,0-.65,2.7M19.45,44.8q-1,0-1.7,2A13.86,13.86,0,0,0,17,51.65a13.86,13.86,0,0,0,.75,4.85q.7,2,1.7,2t1.75-2a14.76,14.76,0,0,0,.7-4.85,14.76,14.76,0,0,0-.7-4.85q-.75-2-1.75-2M49.75,20q-.9.3-.9.75t.9.75a8.22,8.22,0,0,0,4.4,0q.9-.3.9-.75t-.9-.75a8.22,8.22,0,0,0-4.4,0M150.7,21.2q-.55.2-.55.45t.55.45a3.23,3.23,0,0,0,1.2.2,3.64,3.64,0,0,0,1.25-.2q.5-.2.5-.45t-.5-.45a3.64,3.64,0,0,0-1.25-.2,3.23,3.23,0,0,0-1.2.2m-7.9,2.6q0,.25.4.45a1.69,1.69,0,0,0,.85.2,2,2,0,0,0,.9-.2q.35-.2.35-.45t-.35-.45a2,2,0,0,0-.9-.2,1.69,1.69,0,0,0-.85.2q-.4.2-.4.45m79.3-2.15q0-.25-.55-.45a3.23,3.23,0,0,0-1.2-.2,3.64,3.64,0,0,0-1.25.2q-.5.2-.5.45t.5.45a3.64,3.64,0,0,0,1.25.2,3.23,3.23,0,0,0,1.2-.2q.55-.2.55-.45m5.2,1.7q-.35.2-.35.45t.35.45a2,2,0,0,0,.9.2,1.69,1.69,0,0,0,.85-.2q.4-.2.4-.45t-.4-.45a1.69,1.69,0,0,0-.85-.2,2,2,0,0,0-.9.2m34.05-.1q-.4.2-.4.45t.4.45a1.69,1.69,0,0,0,.85.2,2,2,0,0,0,.9-.2q.35-.2.35-.45t-.35-.45a2,2,0,0,0-.9-.2,1.69,1.69,0,0,0-.85.2m6.95-1.7q0,.25.55.45a3.23,3.23,0,0,0,1.2.2,3.64,3.64,0,0,0,1.25-.2q.5-.2.5-.45t-.5-.45a3.64,3.64,0,0,0-1.25-.2,3.23,3.23,0,0,0-1.2.2q-.55.2-.55.45M490,284.55a5.44,5.44,0,0,0-.55-2.55q-.5-1-1.2-1T487,282a5.9,5.9,0,0,0-.5,2.55,7.41,7.41,0,0,0,.15,1.55,7,7,0,0,0,.35,1q.55,1.05,1.25,1t1.2-1a4.47,4.47,0,0,0,.4-1,7.41,7.41,0,0,0,.15-1.55m-101,69.1q0,.45.6.75a3.65,3.65,0,0,0,2.9,0q.6-.3.6-.75t-.6-.75a3.65,3.65,0,0,0-2.9,0q-.6.3-.6.75M387,351a2.79,2.79,0,0,0-1.35-.3,3.09,3.09,0,0,0-1.4.3,1,1,0,0,0-.55.85.9.9,0,0,0,.55.8,2.73,2.73,0,0,0,1.4.35,2.46,2.46,0,0,0,1.35-.35.9.9,0,0,0,.6-.8,1,1,0,0,0-.6-.85M485.2,174.7a2.28,2.28,0,0,0-.35-1.25.9.9,0,0,0-.8-.5,1,1,0,0,0-.85.5,2.57,2.57,0,0,0-.3,1.25,2.29,2.29,0,0,0,.3,1.2,1,1,0,0,0,.85.55.9.9,0,0,0,.8-.55,2,2,0,0,0,.35-1.2m-3.3-3.4a5.12,5.12,0,0,0,.65-2.65,5.4,5.4,0,0,0-.65-2.7q-.6-1.1-1.45-1.1a1.82,1.82,0,0,0-1.5,1.1,5.76,5.76,0,0,0-.6,2.7,5.46,5.46,0,0,0,.6,2.65q.65,1.15,1.5,1.15t1.45-1.15m-139.45-148q-.4.2-.4.45t.4.45a1.69,1.69,0,0,0,.85.2,2,2,0,0,0,.9-.2q.35-.2.35-.45t-.35-.45a2,2,0,0,0-.9-.2,1.69,1.69,0,0,0-.85.2M350,21.2q-.55.2-.55.45t.55.45a3.23,3.23,0,0,0,1.2.2,3.64,3.64,0,0,0,1.25-.2q.5-.2.5-.45t-.5-.45a3.64,3.64,0,0,0-1.25-.2,3.23,3.23,0,0,0-1.2.2m71.4.45q0-.25-.55-.45a3.23,3.23,0,0,0-1.2-.2,3.64,3.64,0,0,0-1.25.2q-.5.2-.5.45t.5.45a3.64,3.64,0,0,0,1.25.2,3.23,3.23,0,0,0,1.2-.2q.55-.2.55-.45m6.95,2.6q.4-.2.4-.45t-.4-.45a1.69,1.69,0,0,0-.85-.2,2,2,0,0,0-.9.2q-.35.2-.35.45t.35.45a2,2,0,0,0,.9.2,1.69,1.69,0,0,0,.85-.2M453,21.8a7,7,0,0,0,2.2-.3q.9-.3.9-.75t-.9-.75a8.22,8.22,0,0,0-4.4,0q-.9.3-.9.75t.9.75a7,7,0,0,0,2.2.3m36.35,160.8a1.32,1.32,0,0,0-.2-.75.45.45,0,0,0-.4-.3.56.56,0,0,0-.45.3,2,2,0,0,0,0,1.5.56.56,0,0,0,.45.3.45.45,0,0,0,.4-.3,1.32,1.32,0,0,0,.2-.75M487.2,56.5a13.86,13.86,0,0,0,.75-4.85,13.86,13.86,0,0,0-.75-4.85q-.7-2-1.7-2t-1.75,2a14.76,14.76,0,0,0-.7,4.85,14.76,14.76,0,0,0,.7,4.85q.75,2,1.75,2T487.2,56.5Z"/><path class="cls-2" d="M491.7,60a3.13,3.13,0,0,1,.55,1.7V17.4h-18a2.7,2.7,0,0,1,1.1.4,1.43,1.43,0,0,1,.75,1.2,1.32,1.32,0,0,1-.75,1.15,2.93,2.93,0,0,1-1.75.5,3.17,3.17,0,0,1-1.8-.5,1.33,1.33,0,0,1-.7-1.15,1.45,1.45,0,0,1,.7-1.2,3.14,3.14,0,0,1,1.15-.4H312.65a1.64,1.64,0,0,1,.05.4,1.34,1.34,0,0,1-.1.5q-.3.95-2.05,1.7V17.3h-79a.14.14,0,0,0,.05.1q0,.15,0,.3a1.34,1.34,0,0,1-.1.5q-.3.95-2.05,1.7V17.4h-116a1.64,1.64,0,0,1,0,.4,1.34,1.34,0,0,1-.1.5q-.3.95-2,1.7a14,14,0,0,1-5.3.9,13.76,13.76,0,0,1-5.15-.85.14.14,0,0,0-.1,0q-2.2-.9-2.2-2.2a1.64,1.64,0,0,1,0-.4H32a3.14,3.14,0,0,1,1.15.4,1.45,1.45,0,0,1,.7,1.2,1.33,1.33,0,0,1-.7,1.15,3.17,3.17,0,0,1-1.8.5,2.93,2.93,0,0,1-1.75-.5A1.32,1.32,0,0,1,28.8,19a1.43,1.43,0,0,1,.75-1.2,2.7,2.7,0,0,1,1.1-.4H12.7V61.75a3.13,3.13,0,0,1,.55-1.7,1.45,1.45,0,0,1,1.2-.7,1.58,1.58,0,0,1,1.25.7,3.17,3.17,0,0,1,.5,1.8,2.93,2.93,0,0,1-.5,1.75,1.55,1.55,0,0,1-1.25.75,1.43,1.43,0,0,1-1.2-.75A2.87,2.87,0,0,1,12.7,62v8.7a2.81,2.81,0,0,1,.55-.05,3.56,3.56,0,0,1,3,2.1,11.44,11.44,0,0,1,0,10.2,3.56,3.56,0,0,1-3,2.1,2.81,2.81,0,0,1-.55-.05v12.2a2.71,2.71,0,0,1,1.45-.4,3.3,3.3,0,0,1,2.7,1.6,7,7,0,0,1,1.1,4,6.72,6.72,0,0,1-1.1,3.9,3.28,3.28,0,0,1-2.7,1.65,2.71,2.71,0,0,1-1.45-.4V119.6a.2.2,0,0,1,.15.05,7,7,0,0,1,.35-1.5q.45-1.45,1.1-1.45t1.15,1.45a11.91,11.91,0,0,1,.45,3.5q0,.35,0,.65H12.7V243.25a.72.72,0,0,1,.5-.25q.8,0,1.35,1.95a17.71,17.71,0,0,1,.55,4.75,17.71,17.71,0,0,1-.55,4.75,4.54,4.54,0,0,1-.7,1.6q1.6.1,2.75,2.25a12.95,12.95,0,0,1,0,11.1q-1.25,2.3-3,2.3a2.83,2.83,0,0,1-.9-.15v37.7a5.05,5.05,0,0,1,2-.75,5.87,5.87,0,0,1-.55-2.65,5.61,5.61,0,0,1,.65-2.8,1.87,1.87,0,0,1,1.6-1.15A1.87,1.87,0,0,1,18,303a6.36,6.36,0,0,1,0,5.6,2.63,2.63,0,0,1-.25.4A8,8,0,0,1,21,312.4,19.29,19.29,0,0,1,23.2,322,19,19,0,0,1,21,331.55q-2.3,4-5.55,4a4.92,4.92,0,0,1-2.7-.8V356.3H130.15a3,3,0,0,1-.9-2.2,3.13,3.13,0,0,1,1.1-2.4,4.17,4.17,0,0,1,5.3,0,3.13,3.13,0,0,1,1.1,2.4,2.91,2.91,0,0,1-.95,2.2h3.5a3.05,3.05,0,0,1,1.1,0h14.75v0a2.65,2.65,0,0,1,1.25-2.2,4.25,4.25,0,0,1,1.1-.55,5.33,5.33,0,0,1,1.95-.35,5.08,5.08,0,0,1,3.05.9,5.14,5.14,0,0,1,.75.7,2.27,2.27,0,0,1,.45,1,2.54,2.54,0,0,1,.05.5v0H235.5a3,3,0,0,1-.9-2.2,3.13,3.13,0,0,1,1.1-2.4,3.92,3.92,0,0,1,2.65-1,1.86,1.86,0,0,1,.45,0,3.24,3.24,0,0,1,1.6.5,3.12,3.12,0,0,1,1.7,2.8,2.91,2.91,0,0,1-1,2.2h3.5a3.05,3.05,0,0,1,1.1,0H260.5v0a2.65,2.65,0,0,1,1.25-2.2,4.25,4.25,0,0,1,1.1-.55,5.33,5.33,0,0,1,1.95-.35,5.08,5.08,0,0,1,3.05.9,5.14,5.14,0,0,1,.75.7,2.27,2.27,0,0,1,.45,1,2.54,2.54,0,0,1,.05.5v0h25.8a3,3,0,0,1-.9-2.2,3.13,3.13,0,0,1,1.1-2.4,4.17,4.17,0,0,1,5.3,0,3.13,3.13,0,0,1,1.1,2.4,2.91,2.91,0,0,1-1,2.2H304a3.05,3.05,0,0,1,1.1,0H319.9v0a2.65,2.65,0,0,1,1.25-2.2,4.25,4.25,0,0,1,1.1-.55,5.33,5.33,0,0,1,2-.35,5.08,5.08,0,0,1,3,.9,5.14,5.14,0,0,1,.75.7,2.27,2.27,0,0,1,.45,1,2.54,2.54,0,0,1,0,.5v0h68.1a3.05,3.05,0,0,1,1.1,0h3.5a2.91,2.91,0,0,1-1-2.2,3.13,3.13,0,0,1,1.1-2.4,3.92,3.92,0,0,1,2.65-1,4.35,4.35,0,0,1,1.15.15v5.4h87.1V334.75a4.92,4.92,0,0,1-2.7.8q-3.25,0-5.55-4a19,19,0,0,1-2.25-9.55,19.29,19.29,0,0,1,2.25-9.6,8,8,0,0,1,3.2-3.35,2.63,2.63,0,0,1-.25-.4,6.36,6.36,0,0,1,0-5.6,1.69,1.69,0,0,1,3.2,0,5.61,5.61,0,0,1,.65,2.8,5.87,5.87,0,0,1-.55,2.65,5.05,5.05,0,0,1,2,.75v-37.7a2.83,2.83,0,0,1-.9.15q-1.75,0-3-2.3a12.95,12.95,0,0,1,0-11.1q1.15-2.15,2.75-2.25a4.54,4.54,0,0,1-.7-1.6,20.79,20.79,0,0,1,0-9.5Q491,243,491.75,243a.72.72,0,0,1,.5.25V122.3H489q0-.3,0-.65a11.9,11.9,0,0,1,.45-3.5q.5-1.45,1.15-1.45t1.1,1.45a7,7,0,0,1,.35,1.5.2.2,0,0,1,.15-.05V107.45a2.71,2.71,0,0,1-1.45.4,3.28,3.28,0,0,1-2.7-1.65,6.72,6.72,0,0,1-1.1-3.9,7,7,0,0,1,1.1-4,3.3,3.3,0,0,1,2.7-1.6,2.71,2.71,0,0,1,1.45.4V84.95a2.81,2.81,0,0,1-.55.05,3.56,3.56,0,0,1-3-2.1,11.44,11.44,0,0,1,0-10.2,3.56,3.56,0,0,1,3-2.1,2.81,2.81,0,0,1,.55.05V62a2.87,2.87,0,0,1-.55,1.65,1.43,1.43,0,0,1-1.2.75,1.55,1.55,0,0,1-1.25-.75,2.93,2.93,0,0,1-.5-1.75,3.17,3.17,0,0,1,.5-1.8,1.58,1.58,0,0,1,1.25-.7,1.45,1.45,0,0,1,1.2.7M488,51.65a13.86,13.86,0,0,1-.75,4.85q-.7,2-1.7,2t-1.75-2a14.76,14.76,0,0,1-.7-4.85,14.76,14.76,0,0,1,.7-4.85q.75-2,1.75-2t1.7,2a13.86,13.86,0,0,1,.75,4.85m1.2,130.2a1.51,1.51,0,0,1,0,1.5.45.45,0,0,1-.4.3.56.56,0,0,1-.45-.3,2,2,0,0,1,0-1.5.56.56,0,0,1,.45-.3.45.45,0,0,1,.4.3M479.15,20a7.14,7.14,0,0,1,5.25,2.15,7.25,7.25,0,0,1,0,10.4,7.14,7.14,0,0,1-5.25,2.15,7.31,7.31,0,0,1-5.3-2.15,7.36,7.36,0,0,1,0-10.4,7.31,7.31,0,0,1,5.3-2.15M455.2,21.5a8.22,8.22,0,0,1-4.4,0q-.9-.3-.9-.75t.9-.75a8.22,8.22,0,0,1,4.4,0q.9.3.9.75t-.9.75m6.9,7.3v14h14V329.45h-14v14.3H42.85v-14.3h-14V42.8h14v-14h186.6v-.1h81.1v.1H462.1m-33.4-5q0,.25-.4.45a1.69,1.69,0,0,1-.85.2,2,2,0,0,1-.9-.2q-.35-.2-.35-.45t.35-.45a2,2,0,0,1,.9-.2,1.69,1.69,0,0,1,.85.2q.4.2.4.45m-7.9-2.6q.55.2.55.45t-.55.45a3.23,3.23,0,0,1-1.2.2,3.64,3.64,0,0,1-1.25-.2q-.5-.2-.5-.45t.5-.45a3.64,3.64,0,0,1,1.25-.2,3.23,3.23,0,0,1,1.2.2m-71.4.45q0-.25.55-.45a3.23,3.23,0,0,1,1.2-.2,3.64,3.64,0,0,1,1.25.2q.5.2.5.45t-.5.45a3.64,3.64,0,0,1-1.25.2,3.23,3.23,0,0,1-1.2-.2q-.55-.2-.55-.45M342,23.8q0-.25.4-.45a1.69,1.69,0,0,1,.85-.2,2,2,0,0,1,.9.2q.35.2.35.45t-.35.45a2,2,0,0,1-.9.2,1.69,1.69,0,0,1-.85-.2q-.4-.2-.4-.45m140.5,144.85a5.12,5.12,0,0,1-.65,2.65q-.6,1.15-1.45,1.15T479,171.3a5.46,5.46,0,0,1-.6-2.65,5.76,5.76,0,0,1,.6-2.7,1.82,1.82,0,0,1,1.5-1.1q.85,0,1.45,1.1a5.4,5.4,0,0,1,.65,2.7m2.3,4.8a2.28,2.28,0,0,1,.35,1.25,2,2,0,0,1-.35,1.2.9.9,0,0,1-.8.55,1,1,0,0,1-.85-.55,2.29,2.29,0,0,1-.3-1.2,2.57,2.57,0,0,1,.3-1.25,1,1,0,0,1,.85-.5.9.9,0,0,1,.8.5M385.7,350.7a2.79,2.79,0,0,1,1.35.3,1,1,0,0,1,.6.85.9.9,0,0,1-.6.8,2.46,2.46,0,0,1-1.35.35,2.73,2.73,0,0,1-1.4-.35.9.9,0,0,1-.55-.8,1,1,0,0,1,.55-.85,3.09,3.09,0,0,1,1.4-.3m3.9,3.7q-.6-.3-.6-.75t.6-.75a3.65,3.65,0,0,1,2.9,0q.6.3.6.75t-.6.75a3.65,3.65,0,0,1-2.9,0m82.1-8.8a7.08,7.08,0,0,1,2.15-5.2,7.31,7.31,0,0,1,5.3-2.15,7.14,7.14,0,0,1,5.25,2.15,7.25,7.25,0,0,1,0,10.4,7.14,7.14,0,0,1-5.25,2.15,7.31,7.31,0,0,1-5.3-2.15,7.08,7.08,0,0,1-2.15-5.2M489.5,282a5.44,5.44,0,0,1,.55,2.55,7.41,7.41,0,0,1-.15,1.55,4.47,4.47,0,0,1-.4,1q-.5,1.05-1.2,1t-1.25-1a7,7,0,0,1-.35-1,7.41,7.41,0,0,1-.15-1.55A5.9,5.9,0,0,1,487,282q.55-1,1.25-1t1.2,1M268.85,22q-.55-.2-.55-.45t.55-.45a3.23,3.23,0,0,1,1.2-.2,3.64,3.64,0,0,1,1.25.2q.5.2.5.45t-.5.45a3.64,3.64,0,0,1-1.25.2,3.23,3.23,0,0,1-1.2-.2M261,23.7q0-.25.4-.45a1.69,1.69,0,0,1,.85-.2,2,2,0,0,1,.9.2q.35.2.35.45t-.35.45a2,2,0,0,1-.9.2,1.69,1.69,0,0,1-.85-.2q-.4-.2-.4-.45m-34,.1q0-.25.35-.45a2,2,0,0,1,.9-.2,1.69,1.69,0,0,1,.85.2q.4.2.4.45t-.4.45a1.69,1.69,0,0,1-.85.2,2,2,0,0,1-.9-.2q-.35-.2-.35-.45m-5.4-2.6q.55.2.55.45t-.55.45a3.23,3.23,0,0,1-1.2.2,3.64,3.64,0,0,1-1.25-.2q-.5-.2-.5-.45t.5-.45a3.64,3.64,0,0,1,1.25-.2,3.23,3.23,0,0,1,1.2.2m-78.35,3q-.4-.2-.4-.45t.4-.45a1.69,1.69,0,0,1,.85-.2,2,2,0,0,1,.9.2q.35.2.35.45t-.35.45a2,2,0,0,1-.9.2,1.69,1.69,0,0,1-.85-.2m6.95-2.6q0-.25.55-.45a3.23,3.23,0,0,1,1.2-.2,3.64,3.64,0,0,1,1.25.2q.5.2.5.45t-.5.45a3.64,3.64,0,0,1-1.25.2,3.23,3.23,0,0,1-1.2-.2q-.55-.2-.55-.45m-101.3-.9q0-.45.9-.75a8.22,8.22,0,0,1,4.4,0q.9.3.9.75t-.9.75a8.22,8.22,0,0,1-4.4,0q-.9-.3-.9-.75m-28.3,1.4A7.14,7.14,0,0,1,25.8,20a7.31,7.31,0,0,1,5.3,2.15,7.36,7.36,0,0,1,0,10.4,7.31,7.31,0,0,1-5.3,2.15,7.14,7.14,0,0,1-5.25-2.15,7.25,7.25,0,0,1,0-10.4M17.75,46.8q.7-2,1.7-2t1.75,2a14.76,14.76,0,0,1,.7,4.85,14.76,14.76,0,0,1-.7,4.85q-.75,2-1.75,2t-1.7-2A13.86,13.86,0,0,1,17,51.65a13.86,13.86,0,0,1,.75-4.85M23,171.3a5.12,5.12,0,0,1-.65-2.65,5.4,5.4,0,0,1,.65-2.7q.6-1.1,1.45-1.1a1.82,1.82,0,0,1,1.5,1.1,5.76,5.76,0,0,1,.6,2.7,5.46,5.46,0,0,1-.6,2.65q-.65,1.15-1.5,1.15T23,171.3m-3.3,3.4a2.28,2.28,0,0,1,.35-1.25.9.9,0,0,1,.8-.5,1,1,0,0,1,.85.5,2.57,2.57,0,0,1,.3,1.25,2.29,2.29,0,0,1-.3,1.2,1,1,0,0,1-.85.55.9.9,0,0,1-.8-.55,2,2,0,0,1-.35-1.2m-4.15,7.9a1.32,1.32,0,0,1,.2-.75.45.45,0,0,1,.4-.3.56.56,0,0,1,.45.3,2,2,0,0,1,0,1.5.56.56,0,0,1-.45.3.45.45,0,0,1-.4-.3,1.32,1.32,0,0,1-.2-.75m-.7,101.95a5.44,5.44,0,0,1,.55-2.55q.5-1,1.2-1t1.25,1a5.9,5.9,0,0,1,.5,2.55,7.41,7.41,0,0,1-.15,1.55,7,7,0,0,1-.35,1q-.55,1.05-1.25,1t-1.2-1a4.48,4.48,0,0,1-.4-1,7.41,7.41,0,0,1-.15-1.55m5.65,55.85a7.14,7.14,0,0,1,5.25-2.15,7.31,7.31,0,0,1,5.3,2.15,7.36,7.36,0,0,1,0,10.4A7.31,7.31,0,0,1,25.8,353a7.14,7.14,0,0,1-5.25-2.15,7.25,7.25,0,0,1,0-10.4m132.7,11.45a.9.9,0,0,1-.55.8,2.73,2.73,0,0,1-1.4.35,2.47,2.47,0,0,1-1.35-.35.9.9,0,0,1-.6-.8,1,1,0,0,1,.6-.85,2.79,2.79,0,0,1,1.35-.3,3.09,3.09,0,0,1,1.4.3,1,1,0,0,1,.55.85m-9.35,1.8q0-.45.6-.75a3.65,3.65,0,0,1,2.9,0q.6.3.6.75t-.6.75a3.65,3.65,0,0,1-2.9,0q-.6-.3-.6-.75m83.05,1a4,4,0,0,1-.65.05,3.21,3.21,0,0,1-1.45-.3q-.6-.3-.6-.75t.6-.75a3.21,3.21,0,0,1,1.45-.3,4,4,0,0,1,.65,0v2m-6-3.95a2.79,2.79,0,0,1,1.35.3,1,1,0,0,1,.6.85.9.9,0,0,1-.6.8,2.47,2.47,0,0,1-1.35.35,2.73,2.73,0,0,1-1.4-.35.9.9,0,0,1-.55-.8,1,1,0,0,1,.55-.85,3.09,3.09,0,0,1,1.4-.3m33.75,1.15a1,1,0,0,1,.6-.85,2.79,2.79,0,0,1,1.35-.3,3.09,3.09,0,0,1,1.4.3,1,1,0,0,1,.55.85.9.9,0,0,1-.55.8,2.73,2.73,0,0,1-1.4.35,2.46,2.46,0,0,1-1.35-.35.9.9,0,0,1-.6-.8m-5.45,1.8q0-.45.6-.75a3.65,3.65,0,0,1,2.9,0q.6.3.6.75t-.6.75a3.65,3.65,0,0,1-2.9,0q-.6-.3-.6-.75m64.85-1.8a1,1,0,0,1,.6-.85,2.79,2.79,0,0,1,1.35-.3,3.09,3.09,0,0,1,1.4.3,1,1,0,0,1,.55.85.9.9,0,0,1-.55.8,2.73,2.73,0,0,1-1.4.35,2.46,2.46,0,0,1-1.35-.35.9.9,0,0,1-.6-.8m-3.4,2.85a3.21,3.21,0,0,1-1.45-.3q-.6-.3-.6-.75t.6-.75a3.65,3.65,0,0,1,2.9,0q.6.3.6.75t-.6.75a3.21,3.21,0,0,1-1.45.3M22.45,343.45a3.25,3.25,0,0,0,3.15,3.15,3.08,3.08,0,0,0,2.25-1,3,3,0,0,0,.9-2.2,3.08,3.08,0,0,0-3.15-3.15,3,3,0,0,0-2.2.9,3.08,3.08,0,0,0-.95,2.25M24.3,22.85a3.25,3.25,0,0,0-2.45,1,3.75,3.75,0,0,0,0,5.1,3.38,3.38,0,0,0,4.9,0,3.75,3.75,0,0,0,0-5.1,3.25,3.25,0,0,0-2.45-1m458.2,320.6a3.08,3.08,0,0,0-1-2.25,3,3,0,0,0-2.2-.9,3.08,3.08,0,0,0-3.15,3.15,3,3,0,0,0,.9,2.2,3.08,3.08,0,0,0,2.25,1,3.25,3.25,0,0,0,3.15-3.15m.6-319.55a3.38,3.38,0,0,0-4.9,0,3.75,3.75,0,0,0,0,5.1,3.38,3.38,0,0,0,4.9,0,3.75,3.75,0,0,0,0-5.1Z"/><path class="cls-3" d="M25.8,338.25a7.14,7.14,0,0,0-5.25,2.15,7.25,7.25,0,0,0,0,10.4A7.14,7.14,0,0,0,25.8,353a7.31,7.31,0,0,0,5.3-2.15,7.36,7.36,0,0,0,0-10.4,7.31,7.31,0,0,0-5.3-2.15m-2.4,7.4a2.91,2.91,0,0,1-.95-2.2,3.08,3.08,0,0,1,.95-2.25,3,3,0,0,1,2.2-.9,3.08,3.08,0,0,1,3.15,3.15,3,3,0,0,1-.9,2.2,3.08,3.08,0,0,1-2.25,1,2.91,2.91,0,0,1-2.2-1M25.8,20a7.14,7.14,0,0,0-5.25,2.15,7.25,7.25,0,0,0,0,10.4A7.14,7.14,0,0,0,25.8,34.7a7.31,7.31,0,0,0,5.3-2.15,7.36,7.36,0,0,0,0-10.4A7.31,7.31,0,0,0,25.8,20m-3.95,3.9a3.38,3.38,0,0,1,4.9,0,3.75,3.75,0,0,1,0,5.1,3.38,3.38,0,0,1-4.9,0,3.75,3.75,0,0,1,0-5.1m452,316.5a7.36,7.36,0,0,0,0,10.4,7.31,7.31,0,0,0,5.3,2.15,7.14,7.14,0,0,0,5.25-2.15,7.25,7.25,0,0,0,0-10.4,7.14,7.14,0,0,0-5.25-2.15,7.31,7.31,0,0,0-5.3,2.15m7.7.8a3.08,3.08,0,0,1,1,2.25,3.25,3.25,0,0,1-3.15,3.15,3.08,3.08,0,0,1-2.25-1,3,3,0,0,1-.9-2.2,3.08,3.08,0,0,1,3.15-3.15,3,3,0,0,1,2.2.9M48.45,323.85l-5.6,5.6v14.3l5.6-6V323.85M34.8,48.45,28.85,42.8V329.45l5.95-5.6V48.45M48.45,34.8l-5.6-6v14l5.6,5.65V34.8m413.65,309v-14.3l-5.6-5.6V337.8l5.6,6m14-301-6,5.65v275.4l6,5.6V42.8m-14-14-5.6,6V48.45l5.6-5.65v-14m22.3-6.65A7.14,7.14,0,0,0,479.15,20a7.31,7.31,0,0,0-5.3,2.15,7.36,7.36,0,0,0,0,10.4,7.31,7.31,0,0,0,5.3,2.15,7.14,7.14,0,0,0,5.25-2.15,7.25,7.25,0,0,0,0-10.4m-3.75.7a3.25,3.25,0,0,1,2.45,1,3.75,3.75,0,0,1,0,5.1,3.38,3.38,0,0,1-4.9,0,3.75,3.75,0,0,1,0-5.1A3.25,3.25,0,0,1,480.65,22.85Z"/><path class="cls-4" d="M42.85,329.45l5.6-5.6H34.8l-5.95,5.6h14m413.65-5.6,5.6,5.6h14l-6-5.6H456.5m5.6,19.9-5.6-6h-408l-5.6,6Z"/><path class="cls-5" d="M48.45,48.45l-5.6-5.65h-14l5.95,5.65H48.45M462.1,42.8l-5.6,5.65h13.65l6-5.65h-14m-5.6-8,5.6-6H310.55v-.1h-81.1v.1H42.85l5.6,6H240.4v-.1h70.15v.1Z"/></g></g></g></svg>